<svg id="Group_3139" data-name="Group 3139" xmlns="http://www.w3.org/2000/svg" xmlns:xlink="http://www.w3.org/1999/xlink" width="59.996" height="60" viewBox="0 0 59.996 60">
  <defs>
    <clipPath id="clip-path">
      <rect id="Rectangle_2859" data-name="Rectangle 2859" width="59.996" height="60" fill="#f59d23"/>
    </clipPath>
  </defs>
  <g id="Group_3138" data-name="Group 3138" clip-path="url(#clip-path)">
    <path id="Subtraction_14" data-name="Subtraction 14" d="M-680.8-641h-24.349c-.8-.278-.989-.543-1-1.419a6.408,6.408,0,0,1,1.432-3.984,7.122,7.122,0,0,1,3.631-2.468c.2-.055.351-.1.511-.128a.555.555,0,0,0,.508-.6c.005-1.648.005-3.122,0-4.506,0-.354-.171-.519-.533-.519h-.14l-.258,0h-.013l-.246,0h-9.9c-2.767,0-4.976,0-6.952-.009a4.793,4.793,0,0,1-4.548-2.84,4.146,4.146,0,0,1-.335-1.882c-.008-12.77-.009-25.236,0-37.049a4.487,4.487,0,0,1,2.915-4.32,4.692,4.692,0,0,1,1.724-.263l21.965,0h.926c10.82,0,19.931,0,27.852,0a4.524,4.524,0,0,1,4,2.117,4.21,4.21,0,0,1,.547,1.528l0,.021.011.049c.015.069.031.139.047.209v38.516a4.509,4.509,0,0,1-2.825,3.528,4.956,4.956,0,0,1-2.1.392h-.01q-4.29,0-8.581,0h-8.438l-.109,0h-.226c-.066,0-.127,0-.191-.007-.041,0-.075,0-.106,0a.529.529,0,0,0-.4.132.7.7,0,0,0-.147.522c.017,1.316.017,2.693,0,4.21a.682.682,0,0,0,.646.79,7.087,7.087,0,0,1,3.645,1.859,7.63,7.63,0,0,1,1.937,3.61,4.351,4.351,0,0,1,.1,1.162c-.017.838-.2,1.093-.99,1.363Zm-16.6-5.627c-.7,0-1.273,0-1.811.012a4.3,4.3,0,0,0-4.24,3.263h20.958l-.006-.053v-.012a.522.522,0,0,0-.018-.11,4.446,4.446,0,0,0-4.349-3.091c-.9,0-1.868-.006-3.05-.006l-2.337,0h-2.336q-.68,0-1.36,0h-.046Q-696.692-646.626-697.395-646.626Zm6.484-2.337c.733,0,1.324,0,1.861.01h.022a.419.419,0,0,0,.312-.084.455.455,0,0,0,.084-.336c-.017-1.714-.017-3.406,0-5.029a.444.444,0,0,0-.084-.327.443.443,0,0,0-.331-.086h-.011c-1.377.006-2.733.009-4.03.009-1.363,0-2.722,0-4.04-.01h-.009a.435.435,0,0,0-.324.086.455.455,0,0,0-.083.337c.016,1.8.016,3.446,0,5.029a.443.443,0,0,0,.082.326.42.42,0,0,0,.316.083h.027c.522-.006,1.091-.009,1.79-.009h2.187l1.116,0Zm11.167-8.194c4.637,0,8.209.009,11.58.03h.027a2.824,2.824,0,0,0,2.056-.752,2.852,2.852,0,0,0,.757-2.08c-.03-9.038-.026-18.178-.023-27.017v-.152q0-4.327,0-8.648c0-1.951-.867-2.822-2.811-2.822h-49.627c-1.949,0-2.818.868-2.818,2.813q0,4.32,0,8.639v.716c0,8.675.005,17.645-.025,26.461a2.861,2.861,0,0,0,.759,2.088,2.811,2.811,0,0,0,2.048.752h.025c3.39-.021,6.988-.03,11.667-.03l4.852,0h1.971q3.162,0,6.323,0,3.186,0,6.374,0h.664Q-682.842-657.157-679.745-657.158Z" transform="translate(723 701)" fill="#f59d23" stroke="rgba(0,0,0,0)" stroke-width="1"/>
    <path id="Subtraction_13" data-name="Subtraction 13" d="M-674.041-667.049h-47.282c-1.317,0-1.678-.355-1.678-1.652v-30.663c0-1.269.368-1.635,1.642-1.635h47.281c1.278,0,1.648.365,1.648,1.629v30.722C-672.428-667.423-672.8-667.049-674.041-667.049Zm-46.108-14.131a.563.563,0,0,0-.415.107c-.077.077-.107.2-.106.443.022,4.026.021,7.392,0,10.594a.71.71,0,0,0,.128.526c.091.093.243.131.525.131h.005c11.457-.012,23.045-.013,33.007-.013h11.592l.094,0,.093,0a.7.7,0,0,1,.106.006.665.665,0,0,0,.1.008.248.248,0,0,0,.186-.063.406.406,0,0,0,.074-.3v-.013c-.017-.75-.036-1.595.005-2.444a.519.519,0,0,0-.088-.391.523.523,0,0,0-.391-.1h-.047c-.609.011-1.243.016-1.939.016-.743,0-1.481-.005-2.041-.01-.851-.006-1.378-.457-1.376-1.177s.52-1.156,1.385-1.16l.431,0h.485c.387,0,.779,0,1.171,0,.693,0,1.313,0,1.952.013h.034a.449.449,0,0,0,.332-.088.49.49,0,0,0,.09-.36c-.017-3.193-.017-6.245,0-9.072a.482.482,0,0,0-.089-.353.487.487,0,0,0-.349-.087h-.019c-1.209.008-2.312.013-3.278.013s-2.07,0-3.278-.013h-.013a.567.567,0,0,0-.615.423,3.953,3.953,0,0,1-3.593,2.39,3.318,3.318,0,0,1-.4-.022,3.973,3.973,0,0,1-3.589-3.633A3.971,3.971,0,0,1-686.967-690a4,4,0,0,1,.955-.119,3.989,3.989,0,0,1,3.634,2.449.5.5,0,0,0,.542.365h.009c1.259-.007,2.373-.011,3.4-.011,1.225,0,2.305,0,3.21.012h.018a.473.473,0,0,0,.351-.088.479.479,0,0,0,.086-.355c-.025-1.308-.025-2.668,0-4.155a.5.5,0,0,0-.086-.366.445.445,0,0,0-.329-.088h-.03c-.531.01-1.076.014-1.767.014l-.961,0h-.218l-.709,0h-.368a1.786,1.786,0,0,1-.65-.088,1.131,1.131,0,0,1-.742-1.3,1.153,1.153,0,0,1,1.225-.95c.7-.007,1.387-.011,2.048-.011.742,0,1.471,0,2.166.014h.022a.424.424,0,0,0,.316-.085.452.452,0,0,0,.08-.334v-.053c-.02-.951-.04-1.933.008-2.932a.624.624,0,0,0-.1-.467.692.692,0,0,0-.5-.122h-.007c-4.772.01-9.566.012-14.036.012h-15.7c-4.858,0-10.036,0-14.981-.008h-.01a.647.647,0,0,0-.473.113.586.586,0,0,0-.106.437c.032,1.52.033,3.12,0,5.034,0,.233.024.36.1.437a.571.571,0,0,0,.421.107h.015c.866-.005,1.708-.014,2.16-.018h.211c1.106-.011,2.387-.023,3.6-.023,1.638,0,3.032.022,4.388.069.088,0,.191.006.323.006a3.8,3.8,0,0,0,3.4-1.569,1.606,1.606,0,0,1,1.407-.617h.035c.71.008,1.424.009,2.089.009h1.656c.665,0,1.439,0,2.225.01h.031a.719.719,0,0,0,.787-.511,3.876,3.876,0,0,1,3.575-2.3,4.05,4.05,0,0,1,.872.1,4.007,4.007,0,0,1,2.237,1.406,3.952,3.952,0,0,1,.88,2.476,4.005,4.005,0,0,1-3.135,3.868,4.115,4.115,0,0,1-.865.094,3.908,3.908,0,0,1-3.6-2.368.61.61,0,0,0-.656-.44h-.031c-.214,0-.436.01-.632.016l-.143,0h-.006l-.121,0-.048,0h-.049c-.407.012-.869.025-1.314.025a15.012,15.012,0,0,1-1.547-.07c-.214-.02-.408-.031-.575-.031a3.421,3.421,0,0,0-2.987,1.533,1.751,1.751,0,0,1-1.576.67h-.018c-2.037-.01-4.192-.011-6.093-.012h-.727c-1.812,0-3.765,0-5.765-.007h-.013a.572.572,0,0,0-.413.1.548.548,0,0,0-.1.4c.022,1.8.023,3.679,0,5.736a.51.51,0,0,0,.095.381.51.51,0,0,0,.378.1h.011c1.462-.008,2.985-.012,4.528-.012,1.5,0,3.067,0,4.661.011a.6.6,0,0,0,.643-.421,3.959,3.959,0,0,1,3.624-2.4,3.882,3.882,0,0,1,.83.089,4.028,4.028,0,0,1,3.149,3.866,4.028,4.028,0,0,1-3.154,3.919,3.735,3.735,0,0,1-.821.091,3.97,3.97,0,0,1-3.609-2.347.658.658,0,0,0-.716-.476h-.009c-1.668.009-3.17.013-4.594.013-1.571,0-3.077-.005-4.478-.015Zm13.421-2.786h-.028a1.635,1.635,0,0,0-1.61,1.654,1.638,1.638,0,0,0,1.636,1.6h.027a1.628,1.628,0,0,0,1.153-.5,1.607,1.607,0,0,0,.457-1.153A1.639,1.639,0,0,0-706.727-683.966Zm20.7-3.809a1.635,1.635,0,0,0-1.625,1.586,1.625,1.625,0,0,0,1.573,1.689h.051a1.663,1.663,0,0,0,1.642-1.586,1.62,1.62,0,0,0-.443-1.153,1.659,1.659,0,0,0-1.147-.536Zm-8.213-7.375h0a1.629,1.629,0,0,0-1.617,1.637,1.63,1.63,0,0,0,1.62,1.637,1.662,1.662,0,0,0,1.642-1.637,1.662,1.662,0,0,0-1.641-1.638Z" transform="translate(727.741 705.749)" fill="#f59d23" stroke="rgba(0,0,0,0)" stroke-width="1"/>
    <path id="Path_4166" data-name="Path 4166" d="M198.315,274.647a1.164,1.164,0,1,1-1.144-1.171,1.2,1.2,0,0,1,1.144,1.171" transform="translate(-167.242 -233.365)" fill="#f59d23"/>
    <path id="Subtraction_12" data-name="Subtraction 12" d="M-710.578-691.028h0c-1.32,0-2.612,0-3.812,0h-1.927q-2.628,0-5.259,0a1.54,1.54,0,0,1-1.124-.412,1.068,1.068,0,0,1-.3-.8c.023-.7.57-1.13,1.427-1.13h.972l3.884,0c2.049,0,3.74,0,5.321.011h.015a1.047,1.047,0,0,0,.951-.4,1.294,1.294,0,0,1,.247-.248,1.873,1.873,0,0,0,.8-2.315,3.466,3.466,0,0,1,1.565-3.915,3.821,3.821,0,0,1,2.241-.763,4.013,4.013,0,0,1,1.795.449,3.781,3.781,0,0,1,2.214,3.3,4.047,4.047,0,0,1-3.934,4.2,3.847,3.847,0,0,1-1.424-.276.93.93,0,0,0-.337-.077.676.676,0,0,0-.5.276c-.311.335-.641.661-.961.976-.2.2-.4.4-.6.6A1.663,1.663,0,0,1-710.578-691.028Zm5.039-7.606A1.639,1.639,0,0,0-707.172-697a1.663,1.663,0,0,0,1.639,1.633h.008a1.636,1.636,0,0,0,1.618-1.647,1.613,1.613,0,0,0-1.624-1.623Z" transform="translate(738.751 724.097)" fill="#f59d23" stroke="rgba(0,0,0,0)" stroke-width="1"/>
    <path id="Path_4172" data-name="Path 4172" d="M75.395,210.7a1.164,1.164,0,1,1-2.328-.041,1.164,1.164,0,0,1,2.328.041" transform="translate(-62.35 -178.803)" fill="#f59d23"/>
    <path id="Path_4173" data-name="Path 4173" d="M283.782,210.654a1.164,1.164,0,1,1,2.326.1,1.164,1.164,0,0,1-2.326-.1" transform="translate(-242.159 -178.803)" fill="#f59d23"/>
  </g>
</svg>
