<svg id="Group_3153" data-name="Group 3153" xmlns="http://www.w3.org/2000/svg" xmlns:xlink="http://www.w3.org/1999/xlink" width="58.245" height="58.238" viewBox="0 0 58.245 58.238">
  <defs>
    <clipPath id="clip-path">
      <rect id="Rectangle_2866" data-name="Rectangle 2866" width="58.245" height="58.238" fill="#9f2300"/>
    </clipPath>
  </defs>
  <g id="Group_3152" data-name="Group 3152" clip-path="url(#clip-path)">
    <path id="Subtraction_31" data-name="Subtraction 31" d="M-2952.41-3616.884h-28.772a2.04,2.04,0,0,1-.691-1.915c.028-.719.021-1.442.013-2.141a27.242,27.242,0,0,1,.109-3.423,10.6,10.6,0,0,1,8.639-8.91c.213-.031.428-.065.657-.1l.029,0,.373-.059-.029-.038a9.729,9.729,0,0,1-1.287-1.978,7.061,7.061,0,0,1-.647-2.854l0-.612c-.009-1.7-.019-3.453,0-5.186a5.84,5.84,0,0,1,1.621-3.963,5.592,5.592,0,0,1,3.866-1.762c1.012-.035,2.1-.052,3.408-.052.885,0,1.785.008,2.655.015q.89.007,1.78.012a1.134,1.134,0,0,1,1.236,1.248q0,1.031,0,2.063c.007,2.83.013,5.751-.032,8.624a6.612,6.612,0,0,1-1.593,4.046,1.141,1.141,0,0,1-.086.093.544.544,0,0,0-.2.361,10.563,10.563,0,0,1,3.575.949,10.368,10.368,0,0,1,6.153,9.28c.047.887.038,1.792.029,2.667v.009c-.007.667-.014,1.355,0,2.042a1.559,1.559,0,0,1-.816,1.59Zm-14.854-2.275c4.479,0,8.843,0,12.97.01a.465.465,0,0,0,.341-.09.5.5,0,0,0,.079-.361c-.01-.583-.008-1.179-.007-1.705,0-.557,0-1.134-.007-1.7a8.239,8.239,0,0,0-6.808-8.02,1.036,1.036,0,0,0-.192-.02.714.714,0,0,0-.54.264c-1.17,1.18-2.356,2.364-3.5,3.51l-.714.713a1.648,1.648,0,0,1-1.089.622,1.627,1.627,0,0,1-1.078-.614c-1.112-1.11-2.24-2.239-3.336-3.336l-.208-.208-.716-.717a.631.631,0,0,0-.469-.253.7.7,0,0,0-.107.009,8.367,8.367,0,0,0-6.872,7.351h2.565c.747,0,1.358,0,1.921.006a1.141,1.141,0,0,1,1.28,1.137c0,.688-.494,1.122-1.286,1.132q-.308,0-.616,0l-.589,0h-.65c-.349,0-.626,0-.874.008h-.032a5.232,5.232,0,0,1-.56-.043,5.053,5.053,0,0,0-.553-.044.712.712,0,0,0-.587.2,1.636,1.636,0,0,0-.123,1.111,4.81,4.81,0,0,1,.028.648.417.417,0,0,0,.071.318.436.436,0,0,0,.33.088h.005C-2974.948-3619.157-2970.935-3619.159-2967.264-3619.159Zm-1.937-11.973h0l.662.654c.563.555,1.094,1.08,1.628,1.616a.269.269,0,0,0,.18.1c.055,0,.111-.033.187-.11.526-.534,1.052-1.061,1.61-1.618l.643-.643Zm-1.881-9.182c-.291,0-.469.063-.563.2a2.286,2.286,0,0,0-.124,1.437v.01c.015.149.03.289.038.425a5.043,5.043,0,0,0,4.33,4.744c.194.018.388.027.576.027a4.968,4.968,0,0,0,4.948-3.784,8.537,8.537,0,0,0,.165-2.393c-.01-.4-.019-.81,0-1.223a5.861,5.861,0,0,1-3.094.644h-2.859c-.877,0-1.594,0-2.256.008h-.011a5.158,5.158,0,0,1-.575-.046h-.005A5.3,5.3,0,0,0-2971.083-3640.314Zm5.4-7.276c-.758,0-1.651,0-2.532.014a3.488,3.488,0,0,0-2.866,1.486,4.78,4.78,0,0,0-.676,3.047v.107c0,.342.093.441.413.441h.031c.46-.009.969-.013,1.6-.013l.8,0h.158l.962,0h1.06l1.06,0c.5,0,.905,0,1.29-.005a2.439,2.439,0,0,0,2.659-2.645c0-.27,0-.552,0-.8,0-.407,0-.828.006-1.246a.433.433,0,0,0-.072-.317.381.381,0,0,0-.282-.079h-.01c-.479,0-1,.005-1.583.005h-2.022Z" transform="translate(2981.882 3675.122)" fill="#9f2300" stroke="rgba(0,0,0,0)" stroke-width="1"/>
    <path id="Subtraction_33" data-name="Subtraction 33" d="M-2953.067-3616.9h-.016c-1.219-.007-2.534-.01-4.139-.01q-1.754,0-3.508,0l-1.223,0a1.29,1.29,0,0,1-1.3-.626,1.089,1.089,0,0,1,.005-1.071,1.193,1.193,0,0,1,1.006-.571c.309-.012.645-.017,1.057-.017.25,0,.5,0,.751,0s.5,0,.751,0h2.786c.938,0,1.751,0,2.559,0,.034,0,.071,0,.107.007l.007,0h0c.037,0,.075.007.111.007a.218.218,0,0,0,.17-.056.332.332,0,0,0,.062-.247c-.022-.576-.014-1.162-.007-1.729v-.013a20.625,20.625,0,0,0-.1-2.914,8.308,8.308,0,0,0-6.85-6.961.656.656,0,0,0-.1-.007.628.628,0,0,0-.466.253l-.012.012-1.016,1.017q-1.6,1.6-3.2,3.2a1.683,1.683,0,0,1-1.112.645,1.653,1.653,0,0,1-1.1-.634l-.683-.682c-1.159-1.157-2.357-2.353-3.535-3.543a.7.7,0,0,0-.53-.251,1.1,1.1,0,0,0-.21.022,8.311,8.311,0,0,0-6.791,8.095c-.007.5-.005,1,0,1.487v.017c0,.607,0,1.234-.01,1.851a.46.46,0,0,0,.082.341.483.483,0,0,0,.352.088h.014c1.167-.007,2.419-.01,3.825-.01,1.188,0,2.385,0,3.51,0,.773,0,1.246.34,1.333.954a1.1,1.1,0,0,1-.232.9,1.351,1.351,0,0,1-1.029.419c-.361.006-.739.008-1.19.008l-.762,0h-.15l-.912,0h-5.629c-1.076,0-1.477-.4-1.478-1.474q0-.552,0-1.1v-.189c0-1.157-.01-2.354.016-3.54a10.538,10.538,0,0,1,9.252-10.171c.038,0,.076-.006.117-.007a.511.511,0,0,0,.395-.135,7.466,7.466,0,0,1-1.736-3.254,7.9,7.9,0,0,1-.2-1.857q0-.983,0-1.967c0-1.067,0-2.169,0-3.264a5.849,5.849,0,0,1,6.026-6.013l3.025,0,3.365,0h.662c1.12,0,1.5.381,1.5,1.507,0,.915,0,1.845-.008,2.665-.01,1.916-.02,3.9.024,5.864a8.316,8.316,0,0,1-2.039,6.373l.206.032a12.291,12.291,0,0,1,2.631.6,11.1,11.1,0,0,1,4.661,3.265,11.039,11.039,0,0,1,2.254,5.226.479.479,0,0,1,0,.08c0,.085,0,.169.107.209v6.255A1.385,1.385,0,0,1-2953.067-3616.9Zm-16.14-14.281h0l.558.557.1.1c.553.551,1.075,1.071,1.59,1.6a.314.314,0,0,0,.212.123c.077,0,.145-.055.237-.15.287-.292.579-.584.862-.867l.025-.025c.314-.314.638-.638.953-.961a.724.724,0,0,1,.093-.075c.1-.074.2-.149.153-.307Zm-2.158-9.088a.446.446,0,0,0-.335.084.412.412,0,0,0-.067.316c.023.3.022.622.022.9v.007c0,.335,0,.682.033,1.02a5.022,5.022,0,0,0,4.349,4.419c.178.018.363.027.547.027a4.956,4.956,0,0,0,4.849-3.515,8.362,8.362,0,0,0,.24-2.638c-.006-.426-.012-.865.011-1.309a5.641,5.641,0,0,1-3.074.695h-.133c-.972-.006-1.946-.006-2.861-.006h-2.134l-1.373,0h-.075Zm5.558-7.349c-.954,0-1.727.007-2.433.021a3.435,3.435,0,0,0-3.221,2.128,4.4,4.4,0,0,0-.3,1.935c0,.187,0,.354-.006.521a.512.512,0,0,0,.088.386.45.45,0,0,0,.338.1h.038c.453-.01.945-.014,1.547-.014l.988,0,.988,0v-.033h.007c.359,0,.725,0,1.079.009h.107c.379,0,.771.01,1.155.01.583,0,1.063-.011,1.512-.035a2.31,2.31,0,0,0,2.184-2.327c.01-.377.008-.758.006-1.127,0-.393,0-.8.008-1.2a.386.386,0,0,0-.07-.291c-.054-.056-.144-.079-.309-.079h-.005l-.842,0-1.154,0h-.306Q-2965.107-3647.615-2965.808-3647.615Z" transform="translate(3009.857 3649.887)" fill="#9f2300" stroke="rgba(0,0,0,0)" stroke-width="1"/>
    <path id="Subtraction_32" data-name="Subtraction 32" d="M-2956.035-3628.477h-16.036a2.647,2.647,0,0,0-.8-.323,3.383,3.383,0,0,1-.65-.229,5.734,5.734,0,0,1-3.278-5.355c-.021-1.443-.019-2.961,0-4.777a1.054,1.054,0,0,0-.359-.836c-.67-.662-1.346-1.34-2-2l-.041-.041c-.686-.688-1.4-1.4-2.1-2.1a1.287,1.287,0,0,1-.474-1.508,1.239,1.239,0,0,1,1.306-.7h.056c.325,0,.671.006,1.123.006h1.362c.445,0,.785,0,1.1.006h.025a.605.605,0,0,0,.632-.38,5.334,5.334,0,0,1,4.9-3.125c2.65-.034,5.107-.05,7.511-.05,2.472,0,4.9.018,7.216.055a5.586,5.586,0,0,1,5.281,4.524.45.45,0,0,1,.009.063c.006.069.013.138.109.158v11.942a5.659,5.659,0,0,1-3.423,4.321,3.907,3.907,0,0,1-.98.251c-.16.026-.324.053-.486.091Zm-22-15.581h0c.3.3.585.584.877.876l0,0c.662.664,1.287,1.291,1.934,1.893a2.1,2.1,0,0,1,.7,1.708c-.03,1.661-.019,3.351-.009,4.986v.128a3.468,3.468,0,0,0,3.734,3.71q3.754,0,7.508,0h6.13a3.446,3.446,0,0,0,3.739-3.757c0-3.093,0-6.229,0-9.32a3.446,3.446,0,0,0-3.741-3.755h-13.582a3.427,3.427,0,0,0-3.68,2.576,1.2,1.2,0,0,1-1.355.948l-.794,0h-1.464Z" transform="translate(3009.39 3686.714)" fill="#9f2300" stroke="rgba(0,0,0,0)" stroke-width="1"/>
    <path id="Subtraction_34" data-name="Subtraction 34" d="M-2968.928-3628.475c-2.4,0-4.9-.012-7.455-.035a5.516,5.516,0,0,1-3.807-1.654,5.582,5.582,0,0,1-1.654-3.818c-.043-3.444-.044-6.943,0-10.4a5.684,5.684,0,0,1,5.516-5.48c.841-.012,1.737-.018,2.819-.018.775,0,1.562,0,2.256.005s1.483.006,2.256.006c.684,0,1.376,0,2.046,0h2.047l2.785,0a5.943,5.943,0,0,1,4.215,1.647,5.944,5.944,0,0,1,1.7,4.2c.024,1.683.011,3.406,0,4.889a.949.949,0,0,0,.31.743c.677.669,1.362,1.354,2.024,2.016l.061.06.052.052c.684.684,1.392,1.392,2.092,2.083a1.261,1.261,0,0,1,.443,1.466,1.232,1.232,0,0,1-1.3.706h-.055c-.335,0-.695-.007-1.166-.007h-1.191c-.5,0-.911,0-1.28-.009h-.02a.572.572,0,0,0-.584.374,5.8,5.8,0,0,1-2.048,2.327,5.579,5.579,0,0,1-2.962.817C-2964.135-3628.487-2966.523-3628.475-2968.928-3628.475Zm.383-19.126-7.33,0a3.453,3.453,0,0,0-3.71,3.727c0,2.908,0,5.906,0,8.727v.594a3.472,3.472,0,0,0,3.77,3.784h13.582a3.412,3.412,0,0,0,3.638-2.55,1.218,1.218,0,0,1,1.4-.975l.8,0h1.279l.036-.052.045-.064.035-.051c-.054-.037-.115-.073-.163-.1a1.547,1.547,0,0,1-.334-.246,13.668,13.668,0,0,0-1-.928,6.091,6.091,0,0,1-1.794-2.087,6.081,6.081,0,0,1-.219-2.774,13.6,13.6,0,0,0,.052-1.388c-.012-.377-.009-.758-.006-1.125v-.023c0-.257,0-.523,0-.783a3.455,3.455,0,0,0-3.705-3.682Z" transform="translate(2981.878 3649.881)" fill="#9f2300" stroke="rgba(0,0,0,0)" stroke-width="1"/>
    <path id="Path_4258" data-name="Path 4258" d="M296.906,216.71a1.188,1.188,0,0,1-1.145,1.107,1.173,1.173,0,0,1-1.114-1.189,1.131,1.131,0,0,1,2.26.083" transform="translate(-252.661 -184.842)" fill="#9f2300"/>
    <path id="Path_4268" data-name="Path 4268" d="M75.534,362.026a1.116,1.116,0,1,1-1.075-1.157,1.148,1.148,0,0,1,1.075,1.157" transform="translate(-62.858 -309.448)" fill="#9f2300"/>
    <path id="Path_4269" data-name="Path 4269" d="M301.961,313.687l2.856-2.885a1.37,1.37,0,0,1,.864-.492,1.068,1.068,0,0,1,1.064.5,1.016,1.016,0,0,1,.015,1.174,2.621,2.621,0,0,1-.358.437q-1.7,1.713-3.416,3.418a1.205,1.205,0,0,1-2,0c-.634-.625-1.268-1.251-1.888-1.891a1.134,1.134,0,0,1-.124-1.712,1.155,1.155,0,0,1,1.712.1c.433.422.834.876,1.276,1.345" transform="translate(-256.085 -266.089)" fill="#9f2300"/>
    <path id="Path_4270" data-name="Path 4270" d="M79.092,31.616a3.663,3.663,0,0,1-2.355,3.162.671.671,0,0,0-.459.609,1.123,1.123,0,0,1-1.136,1.04,1.157,1.157,0,0,1-1.092-1.158c-.1-1.4.247-1.907,1.76-2.57a1.628,1.628,0,0,0,1-1.672,1.666,1.666,0,0,0-3-.8,1.859,1.859,0,0,0-.313.9c-.094.79-.586,1.254-1.234,1.185a1.178,1.178,0,0,1-1.018-1.438,3.955,3.955,0,0,1,4.127-3.616,4.046,4.046,0,0,1,3.71,4.366" transform="translate(-61.094 -23.364)" fill="#9f2300"/>
    <path id="Path_4271" data-name="Path 4271" d="M92.11,106.3a1.173,1.173,0,0,1,1.124,1.122,1.152,1.152,0,0,1-1.159,1.137,1.125,1.125,0,0,1-1.085-1.143,1.149,1.149,0,0,1,1.12-1.117" transform="translate(-78.025 -91.153)" fill="#9f2300"/>
  </g>
</svg>
