<svg id="Group_3147" data-name="Group 3147" xmlns="http://www.w3.org/2000/svg" xmlns:xlink="http://www.w3.org/1999/xlink" width="60" height="60.005" viewBox="0 0 60 60.005">
  <defs>
    <clipPath id="clip-path">
      <rect id="Rectangle_2863" data-name="Rectangle 2863" width="60" height="60.005" fill="#9f2300"/>
    </clipPath>
  </defs>
  <g id="Group_3146" data-name="Group 3146" clip-path="url(#clip-path)">
    <path id="Subtraction_41" data-name="Subtraction 41" d="M-2950.768-3121h-.7a2.119,2.119,0,0,1-.715-1.914c.023-.7.02-1.412.016-2.1v-.012c0-.595-.007-1.21.008-1.815a.553.553,0,0,0-.1-.411.405.405,0,0,0-.308-.093c-.036,0-.073,0-.115,0-.177.013-.366.019-.6.019-.15,0-.3,0-.452-.005h-.073l-.343,0a1.277,1.277,0,0,1-1.494-1.156l-.01-.04,0-.007c-.218-.837-.444-1.7-.623-2.564a1.035,1.035,0,0,0-.744-.841c-1.126-.428-2.241-.91-3.288-1.366a1.132,1.132,0,0,0-.455-.111.91.91,0,0,0-.51.172c-.616.406-1.256.782-1.874,1.146l-.1.057-.375.222a1.781,1.781,0,0,1-.892.313,1.409,1.409,0,0,1-.987-.526c-1.56-1.554-3.065-3.06-4.474-4.475a1.282,1.282,0,0,1-.217-1.878l.011-.019c.449-.757.958-1.615,1.472-2.432a.72.72,0,0,0,.046-.751c-.595-1.387-1.06-2.52-1.465-3.563a.823.823,0,0,0-.666-.55c-1.048-.246-1.914-.458-2.723-.667a1.287,1.287,0,0,1-1.16-1.492c0-.131,0-.262-.005-.393-.006-.333-.012-.677.013-1.013a.6.6,0,0,0-.088-.464.54.54,0,0,0-.416-.12h-.051c-.663.016-1.373.024-2.17.024-.725,0-1.437-.006-2.282-.015a1.354,1.354,0,0,1-1.176-.611,1.082,1.082,0,0,1-.013-1.077,1.237,1.237,0,0,1,1.214-.654h.289l1.132,0h.293l.846,0c.761,0,1.345.006,1.9.02h.047a.519.519,0,0,0,.4-.113.568.568,0,0,0,.081-.441c-.027-.36-.02-.725-.013-1.078,0-.128,0-.257.006-.385a1.257,1.257,0,0,1,1.13-1.453c.99-.259,1.881-.477,2.723-.668a.866.866,0,0,0,.7-.587c.439-1.131.925-2.311,1.446-3.508a.766.766,0,0,0-.049-.8c-.5-.784-.972-1.586-1.433-2.362l-.052-.087a1.263,1.263,0,0,1,.212-1.833c1.478-1.487,3-3.007,4.515-4.516a1.387,1.387,0,0,1,.972-.506,1.718,1.718,0,0,1,.861.3l.344.2.022.013c.637.377,1.359.8,2.031,1.24a.864.864,0,0,0,.481.16,1.072,1.072,0,0,0,.43-.1c1.269-.548,2.4-1.015,3.453-1.426a.867.867,0,0,0,.587-.7c.195-.861.419-1.777.668-2.723a1.26,1.26,0,0,1,1.452-1.131h.058c.035,0,.074,0,.116,0a5.343,5.343,0,0,1,.568.043h.017a5.206,5.206,0,0,0,.545.041.739.739,0,0,0,.6-.2,1.87,1.87,0,0,0,.136-1.263c-.019-.2-.038-.412-.037-.6,0-.607,0-1.216,0-1.806v-.24q0-.354,0-.709c0-1.012.412-1.575,1.156-1.586h.021c.751,0,1.166.574,1.167,1.617q0,.584,0,1.169v.005c.005.976.01,1.985-.018,2.986a.611.611,0,0,0,.109.456.449.449,0,0,0,.342.1c.039,0,.082,0,.133-.006.167-.013.346-.019.564-.019.158,0,.318,0,.458.006h.05l.332,0a1.276,1.276,0,0,1,1.489,1.162c.217.834.436,1.725.669,2.723a.832.832,0,0,0,.552.665c1.049.407,2.148.859,3.563,1.465a.878.878,0,0,0,.35.083.743.743,0,0,0,.4-.131c.826-.519,1.689-1.031,2.451-1.483a1.761,1.761,0,0,1,.886-.311,1.42,1.42,0,0,1,.992.53c1.509,1.5,3.014,3.009,4.474,4.475a1.264,1.264,0,0,1,.238,1.829c-.435.736-.95,1.6-1.481,2.451a.766.766,0,0,0-.073.8c.453,1.042.913,2.156,1.494,3.614a.667.667,0,0,0,.529.459c.881.2,1.766.425,2.622.643l.157.04c.936.239,1.208.591,1.211,1.573,0,.132,0,.264.006.4.006.331.013.673-.014,1.009a.523.523,0,0,0,.077.41.5.5,0,0,0,.382.107h.042c.516-.01,1.013-.012,1.431-.012h.8l.833,0c.487,0,.891,0,1.273-.009h.049a1.389,1.389,0,0,1,1.453.945v.469a1.254,1.254,0,0,1-1.421,1.088c-.453.008-.951.012-1.569.012l-.983,0h-.165l-.769,0h-.557c-.665,0-.7.036-.707.69,0,.155,0,.312,0,.465v.025c0,.281.007.572-.013.858a1.378,1.378,0,0,1-1.137,1.375l-.007,0c-.868.227-1.766.462-2.665.664a1.067,1.067,0,0,0-.831.726c-.344.912-.744,1.875-1.259,3.03a1.164,1.164,0,0,0,.092,1.209c.359.557.7,1.133,1.025,1.69l0,.005.212.361a1.556,1.556,0,0,1-.258,2.254c-1.375,1.384-2.784,2.794-4.307,4.308a1.717,1.717,0,0,1-1.2.628,2.128,2.128,0,0,1-1.055-.361c-.689-.405-1.427-.843-2.159-1.3a1.07,1.07,0,0,0-.568-.18,1.057,1.057,0,0,0-.428.1c-1.069.466-2.123.906-3.135,1.309a1.179,1.179,0,0,0-.769.94c-.145.674-.32,1.347-.49,2l-.038.147-.092.356a1.418,1.418,0,0,1-1.508,1.2c-.249.01-.491.014-.719.014s-.425,0-.629-.012h-.057a.523.523,0,0,0-.388.124.636.636,0,0,0-.134.471c.01,1.3.019,2.691,0,4.1-.012.9-.287,1.27-1.091,1.479Zm-10.135-14.968a1.483,1.483,0,0,1,.584.127c1.9.8,3.59,1.5,5.174,2.152a1.359,1.359,0,0,1,.875,1.01c.092.388.2.794.281,1.12l0,.009c.125.484.253.984.362,1.479.069.31.18.405.477.405h.015c.671-.008,1.36-.012,2.1-.012.66,0,1.371,0,2.174.01h.014c.281,0,.385-.086.447-.368.1-.458.221-.921.338-1.368l0-.01,0-.007c.1-.4.212-.814.306-1.224a1.4,1.4,0,0,1,.9-1.055c1.985-.81,3.613-1.486,5.122-2.127a1.569,1.569,0,0,1,.619-.137,1.44,1.44,0,0,1,.768.235c.326.2.661.4.984.6l.013.008c.411.247.837.5,1.25.762a.642.642,0,0,0,.334.128.489.489,0,0,0,.347-.191c.989-1.03,1.992-2.034,2.982-2.984.257-.246.224-.41.055-.683-.215-.346-.432-.709-.624-1.029-.217-.363-.462-.773-.711-1.17a1.423,1.423,0,0,1-.12-1.435c.625-1.466,1.272-3.03,2.1-5.072a1.486,1.486,0,0,1,1.143-.966c.419-.092.841-.2,1.25-.311.426-.112.864-.227,1.3-.322.314-.068.367-.206.361-.469-.011-.508-.009-1.02-.007-1.515q0-.3,0-.595t0-.6c0-.511,0-1.04.007-1.565.005-.265-.047-.4-.359-.47-.429-.093-.862-.207-1.28-.317-.4-.1-.84-.222-1.271-.316a1.486,1.486,0,0,1-1.144-.964c-.565-1.394-1.315-3.23-2.1-5.071a1.429,1.429,0,0,1,.118-1.437c.22-.351.442-.724.637-1.052.222-.373.473-.795.728-1.2a.418.418,0,0,0-.085-.631c-.825-.8-1.909-1.872-2.979-2.987a.492.492,0,0,0-.349-.193.635.635,0,0,0-.332.127c-.426.268-.862.529-1.283.782l-.048.029c-.3.181-.612.368-.916.555a1.472,1.472,0,0,1-.782.243,1.421,1.421,0,0,1-.553-.118c-1.735-.729-3.494-1.462-5.227-2.176a1.313,1.313,0,0,1-.838-.973c-.089-.371-.187-.75-.274-1.084l0-.008c-.133-.514-.27-1.046-.387-1.573-.063-.285-.167-.372-.446-.372h-.013c-.679.006-1.4.01-2.135.01-.718,0-1.438,0-2.2-.009h-.01c-.257,0-.353.08-.411.343-.109.487-.236.979-.358,1.454l-.006.024-.007.026c-.1.38-.2.773-.291,1.161a1.352,1.352,0,0,1-.872,1.011c-1.757.719-3.5,1.443-5.174,2.153a1.473,1.473,0,0,1-.581.126,1.5,1.5,0,0,1-.8-.254c-.325-.2-.66-.4-.983-.6l-.044-.026c-.38-.227-.81-.484-1.22-.744a.594.594,0,0,0-.309-.117.463.463,0,0,0-.325.177c-1.015,1.047-2.032,2.065-3.023,3.026-.236.228-.2.386-.049.635.238.381.473.773.7,1.152l.005.008c.2.338.432.721.66,1.088a1.4,1.4,0,0,1,.121,1.386c-.657,1.55-1.361,3.243-2.153,5.175a1.35,1.35,0,0,1-1.018.863c-.429.1-.878.218-1.239.311l-.021.005c-.441.115-.9.233-1.348.336-.279.064-.4.14-.391.443.016,1.439.016,2.9,0,4.336,0,.306.116.385.387.446.4.09.8.2,1.183.3l.017,0,.007,0c.439.115.893.234,1.344.333a1.49,1.49,0,0,1,1.131.982c.719,1.776,1.372,3.379,2.072,5.018a1.465,1.465,0,0,1-.122,1.489c-.234.367-.458.746-.675,1.112s-.43.727-.659,1.086a.448.448,0,0,0,.088.678c1.069,1.035,2.03,2,2.938,2.945a.535.535,0,0,0,.378.209.661.661,0,0,0,.349-.132c.432-.275.879-.542,1.311-.8l.01-.006c.289-.172.616-.368.926-.559A1.406,1.406,0,0,1-2960.9-3135.964Z" transform="translate(2981 3181)" fill="#9f2300" stroke="rgba(0,0,0,0)" stroke-width="1"/>
    <path id="Subtraction_42" data-name="Subtraction 42" d="M-2979.844-3168.691a1.1,1.1,0,0,1-.819-.356,1.086,1.086,0,0,1-.178-1.348,2.877,2.877,0,0,1,.48-.584c1.242-1.25,2.573-2.586,3.9-3.891.208-.2.3-.375.157-.647a3.6,3.6,0,0,1-.048-2.981,3.94,3.94,0,0,1,2.411-2.28,4.31,4.31,0,0,1,1.345-.222,3.729,3.729,0,0,1,2.358.824,4.419,4.419,0,0,1,1.451,2.272c0,.012.007.025.01.037.015.061.028.118.105.136v1.524a1.261,1.261,0,0,0-.3.593,2.043,2.043,0,0,1-.146.393,3.928,3.928,0,0,1-3.482,2.159,4.083,4.083,0,0,1-1.492-.288.86.86,0,0,0-.312-.072.6.6,0,0,0-.438.225c-1.116,1.142-2.268,2.288-3.383,3.4l-.026.026-.438.436a3.378,3.378,0,0,1-.579.487A1.081,1.081,0,0,1-2979.844-3168.691Zm7.185-9.975a1.661,1.661,0,0,0-1.637,1.635,1.661,1.661,0,0,0,1.634,1.642h.005a1.663,1.663,0,0,0,1.639-1.633,1.624,1.624,0,0,0-.483-1.154,1.624,1.624,0,0,0-1.151-.49Z" transform="translate(3028.673 3181.006)" fill="#9f2300" stroke="rgba(0,0,0,0)" stroke-width="1"/>
    <path id="Subtraction_44" data-name="Subtraction 44" d="M-2976.445-3168.668h-1.406a5.872,5.872,0,0,0-.691-.343,4.028,4.028,0,0,1-1.025-.583,4,4,0,0,1-1.378-2.4,4.036,4.036,0,0,1,.528-2.737,3.884,3.884,0,0,1,3.351-1.895,3.862,3.862,0,0,1,1.431.273.924.924,0,0,0,.337.077.69.69,0,0,0,.506-.27c1.166-1.19,2.353-2.368,3.5-3.508l.307-.3a2.961,2.961,0,0,1,.583-.483,1.146,1.146,0,0,1,.572-.164,1.115,1.115,0,0,1,.773.341,1.049,1.049,0,0,1,.227,1.337,2.88,2.88,0,0,1-.51.633c-1.139,1.148-2.488,2.5-3.853,3.85-.2.2-.34.373-.183.694a3.708,3.708,0,0,1-.16,3.374,3.772,3.772,0,0,1-2.845,2.016c-.016,0-.03.03-.042.054s-.012.024-.018.032Zm-.6-5.624a1.661,1.661,0,0,0-1.623,1.653,1.664,1.664,0,0,0,1.637,1.624h.018a1.625,1.625,0,0,0,1.149-.5,1.625,1.625,0,0,0,.473-1.158,1.645,1.645,0,0,0-1.639-1.622Z" transform="translate(2981.011 3228.673)" fill="#9f2300" stroke="rgba(0,0,0,0)" stroke-width="1"/>
    <path id="Subtraction_43" data-name="Subtraction 43" d="M-2974.576-3171.179h-1.407a4.928,4.928,0,0,0-.712-.354,3.683,3.683,0,0,1-.958-.533,3.922,3.922,0,0,1-1.19-4.527.573.573,0,0,0-.143-.752c-.528-.478-1.032-1-1.519-1.5l-.018-.019a1.191,1.191,0,0,1-.151-1.763,1.09,1.09,0,0,1,.8-.37,1.485,1.485,0,0,1,1.006.475c.47.452.97.952,1.572,1.572a.539.539,0,0,0,.373.216.484.484,0,0,0,.224-.064,3.237,3.237,0,0,1,1.506-.356,3.992,3.992,0,0,1,3.914,3.173.176.176,0,0,0,.067.082c.014.012.027.023.039.035v1.524a3.5,3.5,0,0,1-1.03,2.013A3.459,3.459,0,0,1-2974.576-3171.179Zm-.585-5.623h-.026a1.661,1.661,0,0,0-1.614,1.663,1.667,1.667,0,0,0,1.638,1.614h.026a1.626,1.626,0,0,0,1.147-.5,1.623,1.623,0,0,0,.467-1.161A1.647,1.647,0,0,0-2975.161-3176.8Z" transform="translate(3031.177 3231.183)" fill="#9f2300" stroke="rgba(0,0,0,0)" stroke-width="1"/>
    <path id="Subtraction_45" data-name="Subtraction 45" d="M-2969.845-3168.7a1.138,1.138,0,0,1-.622-.191,3.522,3.522,0,0,1-.531-.456l-.626-.622c-1.062-1.057-2.159-2.147-3.223-3.234a.6.6,0,0,0-.438-.223.877.877,0,0,0-.313.071,4.16,4.16,0,0,1-1.5.289,3.9,3.9,0,0,1-3.1-1.576,3.986,3.986,0,0,1-.109-4.651,3.978,3.978,0,0,1,3.25-1.708,4,4,0,0,1,1.192.183,3.99,3.99,0,0,1,2.041,1.444,3.991,3.991,0,0,1,.776,2.376,2.691,2.691,0,0,1-.248,1.251c-.24.447-.1.718.229,1.036,1.231,1.194,2.443,2.418,3.616,3.6l.242.244a1.2,1.2,0,0,1,.32,1.621A1.146,1.146,0,0,1-2969.845-3168.7Zm-7.2-9.974a1.626,1.626,0,0,0-1.149.5,1.622,1.622,0,0,0-.473,1.158,1.644,1.644,0,0,0,1.636,1.622h.018a1.627,1.627,0,0,0,1.15-.495,1.622,1.622,0,0,0,.472-1.158,1.664,1.664,0,0,0-1.636-1.624Z" transform="translate(2981.011 3181.011)" fill="#9f2300" stroke="rgba(0,0,0,0)" stroke-width="1"/>
    <path id="Path_4215" data-name="Path 4215" d="M327.044,325.881a1.22,1.22,0,0,1-1.135,1.186,1.186,1.186,0,0,1-1.187-1.118,1.149,1.149,0,0,1,1.148-1.2,1.19,1.19,0,0,1,1.173,1.136" transform="translate(-277.036 -277.056)" fill="#9f2300"/>
    <path id="Path_4220" data-name="Path 4220" d="M117.124,137.165a15,15,0,0,1-6.332-28.61,1.2,1.2,0,0,1,1.746.467c.308.64.043,1.264-.754,1.648a12.418,12.418,0,0,0-6.575,7.185,12.644,12.644,0,1,0,16.863-7.322,5.634,5.634,0,0,1-.838-.4,1.133,1.133,0,0,1,.872-2.063,10.424,10.424,0,0,1,3.335,1.648,14.726,14.726,0,0,1,6.528,14.19,14.936,14.936,0,0,1-12.5,13.051,20.705,20.705,0,0,1-2.348.211" transform="translate(-87.097 -92.164)" fill="#9f2300"/>
    <path id="Path_4221" data-name="Path 4221" d="M198.716,103.318a1.176,1.176,0,0,1-1.211,1.152,1.169,1.169,0,1,1,.032-2.338,1.177,1.177,0,0,1,1.178,1.186" transform="translate(-167.509 -87.134)" fill="#9f2300"/>
    <path id="Path_4222" data-name="Path 4222" d="M212.648,189.064c-.08-.5-.068-.871.667-.809.932.079,1.174.182,1.172.83s-.243.739-1.181.821c-.756.067-.718-.337-.658-.842" transform="translate(-181.392 -160.604)" fill="#9f2300"/>
    <path id="Subtraction_46" data-name="Subtraction 46" d="M-2975.5-3170a5.506,5.506,0,0,1-5.5-5.5,5.506,5.506,0,0,1,5.5-5.5,5.506,5.506,0,0,1,5.5,5.5A5.506,5.506,0,0,1-2975.5-3170Zm.129-8.467a2.97,2.97,0,0,0-2.966,2.966,2.97,2.97,0,0,0,2.966,2.967,2.97,2.97,0,0,0,2.967-2.967A2.97,2.97,0,0,0-2975.371-3178.467Z" transform="translate(3005.5 3205.5)" fill="#9f2300"/>
  </g>
</svg>
