<svg id="Group_3137" data-name="Group 3137" xmlns="http://www.w3.org/2000/svg" xmlns:xlink="http://www.w3.org/1999/xlink" width="60.174" height="60.178" viewBox="0 0 60.174 60.178">
  <defs>
    <clipPath id="clip-path">
      <rect id="Rectangle_2858" data-name="Rectangle 2858" width="60.174" height="60.178" fill="#f59d23"/>
    </clipPath>
  </defs>
  <g id="Group_3136" data-name="Group 3136" clip-path="url(#clip-path)">
    <path id="Subtraction_6" data-name="Subtraction 6" d="M-684.865-1039.644h-15.866a1.332,1.332,0,0,1-.861-.97,1.346,1.346,0,0,1,.449-1.234,1.4,1.4,0,0,1,.181-.15,6.042,6.042,0,0,0,2.644-5.449c0-.384,0-.771,0-1.167v-.769c0-.892-.01-.9-.928-.9h-9.917c-.779,0-1.593,0-2.292,0h-.355c-.84,0-1.731,0-2.56,0-1.321,0-2.426-.006-3.477-.018a5.039,5.039,0,0,1-4.472-2.556,3.668,3.668,0,0,1-.4-1.149c-.033-.148-.068-.306-.109-.455v-35.025a5.369,5.369,0,0,1,1.815-3.107,5.465,5.465,0,0,1,3.465-1.052h5.106c2.1,0,3.63,0,5.1.014h.017a1.829,1.829,0,0,0,1.431-.606c.743-.787,1.54-1.569,2.36-2.368a2.035,2.035,0,0,1,1.356-.714,1.764,1.764,0,0,1,1.267.709,1.455,1.455,0,0,0,1.053.6,1.537,1.537,0,0,0,.794-.27,5.771,5.771,0,0,1,1.229-.514l.236-.079a.613.613,0,0,0,.462-.659c0-.316,0-.623,0-.939.015-.869.172-1.084.984-1.357h6.817c.78.266.973.536.984,1.373,0,.193,0,.356,0,.5,0,.909,0,.909.674,1.158l.046.017.023.009c.149.056.335.126.558.22.091.038.185.075.276.111l.077.031.009,0,.017.006.02.008a5.762,5.762,0,0,1,.787.356.709.709,0,0,0,.354.11.637.637,0,0,0,.473-.257,6.686,6.686,0,0,1,.628-.617,1.754,1.754,0,0,1,1.134-.5,1.675,1.675,0,0,1,1.122.51c.9.822,1.657,1.583,2.326,2.326a2.4,2.4,0,0,0,1.955.84h.051c1.574-.021,3.25-.031,5.125-.031,1.555,0,3.091.006,4.982.019a5.065,5.065,0,0,1,4.541,2.552,3.989,3.989,0,0,1,.448,1.375c.024.124.047.241.069.344v34.907a5.411,5.411,0,0,1-1.826,3.13,5.582,5.582,0,0,1-3.515,1.04h-18.04l-.2,0h-.027l-.229,0h-.155a.527.527,0,0,0-.391.127.532.532,0,0,0-.123.4c0,.326,0,.663,0,.96v.115a15.153,15.153,0,0,0,.16,2.969,5.455,5.455,0,0,0,2.018,3.347c.054.043.11.085.164.125l.021.016.046.034a3.817,3.817,0,0,1,.455.375,1.32,1.32,0,0,1,.4,1.282,1.287,1.287,0,0,1-.963.886Zm-10.594-10.823a.416.416,0,0,0-.306.086c-.07.071-.082.185-.078.359.01.605.008,1.221.007,1.816v.03c0,.358,0,.728,0,1.092a8.374,8.374,0,0,1-1.4,4.882l-.007.011c-.042.061-.081.119-.008.192h9.157a8.969,8.969,0,0,1-1.55-5.917c.012-.354.009-.715.006-1.065s-.006-.7.005-1.049c.006-.184-.017-.285-.077-.347a.421.421,0,0,0-.315-.087h-.015c-.914.009-1.822.014-2.7.014-.9,0-1.815,0-2.707-.015Zm-24.454-6.943a.657.657,0,0,0-.5.128.534.534,0,0,0-.072.431,4.986,4.986,0,0,1,.015.77v.009l0,.063c0,.093,0,.184,0,.273a2.623,2.623,0,0,0,2.938,2.928h41.465l8.359,0a2.569,2.569,0,0,0,2.709-2.685c0-.148,0-.3-.007-.438v-.014a5.771,5.771,0,0,1,.019-.839.606.606,0,0,0-.078-.488.725.725,0,0,0-.549-.139h-.007c-4.66.012-9.253.013-12.3.013h-9.324a2.268,2.268,0,0,1-.347-.023,1.19,1.19,0,0,1-1.013-1.189,1.169,1.169,0,0,1,1.127-1.135c.087-.006.177-.008.293-.008H-679c3.709,0,8.588,0,13.433.012h.005a.625.625,0,0,0,.462-.115.618.618,0,0,0,.112-.453c-.02-1.838-.017-3.694-.014-5.489v-.055q0-.931,0-1.86v-5.876c0-5.466,0-10.31,0-14.807a2.564,2.564,0,0,0-2.55-2.723c-1.194-.007-2.505-.01-4.253-.01l-2.678,0h-3.057a.509.509,0,0,0-.459.168,12.974,12.974,0,0,1-1.063,1.094.437.437,0,0,0-.119.638,11.558,11.558,0,0,1,1.01,2.428c.078.266.2.365.443.365h.047c.2-.01.427-.015.667-.015s.475.005.742.016a1.12,1.12,0,0,1,1.156,1.154c.017,2.047.017,4.123,0,6.17a1.121,1.121,0,0,1-1.157,1.153c-.186.008-.466.019-.742.019-.224,0-.423-.006-.607-.02l-.075,0c-.3,0-.41.157-.489.428a11.39,11.39,0,0,1-.963,2.321c-.154.275-.182.458.09.69a10.028,10.028,0,0,1,.958.951,1.148,1.148,0,0,1,.014,1.642c-1.37,1.4-2.836,2.87-4.36,4.365a1.151,1.151,0,0,1-.813.353,1.3,1.3,0,0,1-.874-.37,8.623,8.623,0,0,1-.826-.833.633.633,0,0,0-.482-.289.792.792,0,0,0-.394.132,8.394,8.394,0,0,1-1.094.509l-.031.013-.02.008-.015.006-.169.07a3.7,3.7,0,0,1-.466.146,1.324,1.324,0,0,0-.789.389,1.663,1.663,0,0,0-.1.98c.014.166.025.315.024.455-.01,1.012-.423,1.426-1.425,1.427h-4.994c-.977,0-1.49-.049-1.764-.329s-.312-.787-.29-1.745c.016-.66-.106-1.035-.8-1.124a2.368,2.368,0,0,1-.67-.236c-.062-.029-.133-.063-.2-.093a5.033,5.033,0,0,1-.475-.253,2.029,2.029,0,0,0-.89-.358.544.544,0,0,0-.1.009c-.3.056-.567.366-.821.665a4.99,4.99,0,0,1-.372.408,1.355,1.355,0,0,1-.913.409,1.227,1.227,0,0,1-.859-.39c-1.52-1.5-2.92-2.9-4.279-4.28a1.169,1.169,0,0,1,.015-1.728l.007-.008a10.332,10.332,0,0,1,.911-.9c.273-.23.245-.412.091-.689a11.381,11.381,0,0,1-.964-2.321c-.08-.272-.186-.43-.489-.43l-.073,0c-.185.013-.384.02-.608.02-.276,0-.557-.011-.743-.019a1.135,1.135,0,0,1-1.159-1.151c-.016-1.991-.016-4.066,0-6.17a1.131,1.131,0,0,1,1.154-1.156c.253-.011.5-.017.748-.017s.461.005.661.015h.047c.246,0,.363-.095.446-.363.152-.484.345-.963.531-1.427l.019-.047,0-.005a3.779,3.779,0,0,1,.215-.425l.011-.019,0-.005a1.435,1.435,0,0,0,.284-.863,1.321,1.321,0,0,0-.513-.634,2.729,2.729,0,0,1-.443-.435,1.21,1.21,0,0,0-1.122-.478h-.029c-1.554.007-3.054.008-4.443.008h-4.781a2.619,2.619,0,0,0-2.905,2.9v7.231c0,6.747,0,13.723-.013,20.622,0,.273.035.421.123.509s.234.123.506.123h.005c4.55-.013,9.117-.014,12.984-.014h8.615c.1,0,.18,0,.258.005a1.145,1.145,0,0,1,1.148,1.1,1.175,1.175,0,0,1-1.082,1.236,2.4,2.4,0,0,1-.261.012l-.148,0h-.014l-.163,0h-7.706c-4.022,0-8.727,0-13.682-.009Zm19.577-14.045a1.8,1.8,0,0,1,.9.329,12.739,12.739,0,0,0,2.821,1.274l.017.005c1.9.586,1.9.586,1.958,2.565.009.321.12.375.366.375h.041c.26-.006.556-.009.931-.009l.558,0h.07l.614,0c1.21,0,1.21,0,1.216-1.2,0-.956.262-1.282,1.2-1.517a12.1,12.1,0,0,0,3-1.157c.13-.073.26-.149.427-.248a2.25,2.25,0,0,1,1.056-.439c.4,0,.82.294,1.589,1.125.047.051.1.1.153.146l.019.017.021.019.011.009.1.09.035-.033.007-.006.008-.008.008-.007.021-.021.02-.019c.062-.057.114-.108.166-.158l.005-.005.455-.453c.285-.282.675-.669,1.038-1.045a3.029,3.029,0,0,1,.31-.269c.252-.2.512-.41.5-.662-.011-.217-.259-.423-.5-.623a3.944,3.944,0,0,1-.3-.266,1.223,1.223,0,0,1-.215-1.779,13.264,13.264,0,0,0,1.339-2.984c.556-1.846.556-1.846,2.517-1.885a.45.45,0,0,0,.328-.1.47.47,0,0,0,.076-.344c-.014-.487-.012-.974-.009-1.445v-.016q0-.3,0-.595c0-1.291,0-1.291-1.282-1.3a1.249,1.249,0,0,1-1.415-1.11,12.935,12.935,0,0,0-1.158-3.058c-.915-1.708-.915-1.708.451-3.109.123-.127.172-.214.17-.3s-.076-.187-.186-.29c-.369-.346-.73-.71-1.1-1.083l-.006-.006-.014-.014-.093-.094c-.116-.119-.228-.231-.331-.334-.426-.426-.64-.64-.853-.64s-.422.208-.841.623a1.5,1.5,0,0,1-1.025.574,1.783,1.783,0,0,1-.9-.329,12.921,12.921,0,0,0-2.876-1.293c-1.866-.579-1.866-.579-1.921-2.55-.008-.295-.089-.38-.362-.38h-.041c-.306.007-.595.01-.908.01l-.441,0h-.824c-1.213,0-1.213,0-1.219,1.193,0,.947-.272,1.289-1.194,1.523a13.168,13.168,0,0,0-2.9,1.1l-.014.007a4.148,4.148,0,0,1-1.606.647c-.455,0-.81-.338-1.587-1.078a.423.423,0,0,0-.272-.155c-.093,0-.176.068-.273.17-.373.392-.768.783-1.117,1.129-.154.152-.306.3-.457.454-.833.833-.833.833-.017,1.655a1.3,1.3,0,0,1,.251,1.966,12.577,12.577,0,0,0-1.287,2.879c-.56,1.852-.56,1.852-2.516,1.89a.454.454,0,0,0-.332.094.453.453,0,0,0-.075.34c.011.329.009.653.006,1.012v.009c0,.266,0,.6,0,.917a3.359,3.359,0,0,1-.032.455c-.04.346-.081.7.126.892a.673.673,0,0,0,.464.122c.118,0,.25-.011.366-.02l.02,0c.151-.013.269-.021.384-.021h.064a1.166,1.166,0,0,1,1.252.935,14.037,14.037,0,0,0,1.7,4.095,1.154,1.154,0,0,1-.185,1.5l-.086.091-.015.016a7.335,7.335,0,0,1-.65.636c-.123.1-.181.187-.184.271s.054.18.2.314c.361.339.708.689,1.062,1.048l.028.028.116.118.123.124.213.214.008.008c.423.421.636.632.848.632s.417-.206.833-.616l.005-.005A1.5,1.5,0,0,1-700.336-1071.455Z" transform="translate(722.826 1099.822)" fill="#f59d23" stroke="rgba(0,0,0,0)" stroke-width="1"/>
    <path id="Path_4158" data-name="Path 4158" d="M185.591,255.622a1.171,1.171,0,0,1,1.184,1.183,1.173,1.173,0,1,1-2.346-.036,1.17,1.17,0,0,1,1.162-1.147" transform="translate(-155.516 -215.547)" fill="#f59d23"/>
    <path id="Subtraction_7" data-name="Subtraction 7" d="M-713.427-1081.017h-.007a9.325,9.325,0,0,1-6.644-2.766,9.36,9.36,0,0,1-2.749-6.66,9.415,9.415,0,0,1,9.412-9.379h.028a9.412,9.412,0,0,1,9.364,9.4,9.342,9.342,0,0,1-2.757,6.648A9.341,9.341,0,0,1-713.427-1081.017Zm.015-16.454a7.062,7.062,0,0,0-7.064,7.029,7.02,7.02,0,0,0,2.064,4.994,6.989,6.989,0,0,0,4.979,2.08h.006a7,7,0,0,0,4.983-2.073,7,7,0,0,0,2.071-4.984,7.058,7.058,0,0,0-7.014-7.046Z" transform="translate(743.511 1108.05)" fill="#f59d23" stroke="rgba(0,0,0,0)" stroke-width="1"/>
  </g>
</svg>
