<svg id="Group_3151" data-name="Group 3151" xmlns="http://www.w3.org/2000/svg" xmlns:xlink="http://www.w3.org/1999/xlink" width="53.926" height="60" viewBox="0 0 53.926 60">
  <defs>
    <clipPath id="clip-path">
      <rect id="Rectangle_2865" data-name="Rectangle 2865" width="53.926" height="60" fill="#9f2300"/>
    </clipPath>
  </defs>
  <g id="Group_3150" data-name="Group 3150" clip-path="url(#clip-path)">
    <path id="Subtraction_37" data-name="Subtraction 37" d="M-2931.052-3433h-52.28a2.061,2.061,0,0,1-.682-2.032,19.172,19.172,0,0,1,2.834-8.759,17.2,17.2,0,0,1,6.937-6.022,28.025,28.025,0,0,1,4.323-1.583l.044-.013c.681-.207,1.384-.421,2.077-.662a1.151,1.151,0,0,0,.758-.636c.516-1.09,1.042-2.145,1.563-3.135a.535.535,0,0,0-.112-.745,8.209,8.209,0,0,1-1.695-2.37,1.325,1.325,0,0,0-1.429-.915h-.121a3.346,3.346,0,0,1-3.175-2.093,4.792,4.792,0,0,1-.3-2.3.6.6,0,0,0-.4-.658,3.247,3.247,0,0,1-1.933-2.985c0-.766-.017-1.563-.031-2.31a66.391,66.391,0,0,1,.115-6.829,16.833,16.833,0,0,1,5.377-11.115,16.935,16.935,0,0,1,11.931-4.837c.636,0,1.294.033,1.956.1a17.025,17.025,0,0,1,11.975,6.567,17.116,17.116,0,0,1,2.922,5.362,18.932,18.932,0,0,1,.9,6.051c-.009,1.281-.007,2.553-.005,3.783v1.45c0,.444,0,.89,0,1.332a3.837,3.837,0,0,1-1.033,2.8,3.9,3.9,0,0,1-2.814,1.029c-.169,0-.357-.016-.507-.029h-.028l-.043,0h-.01l-.028,0c-.151-.012-.3-.024-.448-.024a1.161,1.161,0,0,0-.653.148c-.272.178-.3.614-.318,1.036a4.049,4.049,0,0,1-.054.56,12.707,12.707,0,0,1-3.163,6.286.511.511,0,0,0-.088.7c.522,1,1.05,2.059,1.615,3.239a.96.96,0,0,0,.636.528l1.1.362.075.025.053.017.008,0c1.316.431,2.808.919,4.239,1.448a15.514,15.514,0,0,1,5.4,3.365,18.22,18.22,0,0,1,3.7,5.186,17.755,17.755,0,0,1,1.736,7.047,1.454,1.454,0,0,1-.936,1.644Zm-15.656-16.692c-.24,0-.39.153-.535.546a44.3,44.3,0,0,1-5.484,10.345c-.8,1.131-1.536,2.317-2.209,3.43h22.4a10.8,10.8,0,0,0-.417-2.559,14.576,14.576,0,0,0-7.968-9.779,26.485,26.485,0,0,0-3.262-1.19l-.006,0-.016-.005-.023-.007-.007,0-.015-.005-.005,0c-.654-.2-1.33-.417-2-.665A1.346,1.346,0,0,0-2946.708-3449.692Zm-20.653-.035a.933.933,0,0,0-.3.068c-1.123.4-2.448.86-3.764,1.264a14.145,14.145,0,0,0-8.773,7.721,14.263,14.263,0,0,0-1.418,5.3h22.4c-.05-.089-.091-.159-.133-.229l-.014-.024-.049-.083c-.582-1-1.237-1.948-1.87-2.866l0-.007-.009-.013c-.347-.5-.777-1.125-1.181-1.747a45.47,45.47,0,0,1-4.521-9.015C-2967.095-3449.623-2967.2-3449.727-2967.361-3449.727Zm10.14,2.406h0a.353.353,0,0,1-.029.027l-.013.012-.013.011c-.042.037-.092.08-.137.126l-.677.716-.354.375-.05.053-.053.055c-.833.882-1.725,1.826-2.615,2.755-.171.18-.145.306-.025.5.581.958,1.23,1.9,1.8,2.729l.009.014c.725,1.051,1.475,2.138,2.125,3.274.066.115.122.168.177.168s.112-.054.177-.169c.638-1.108,1.367-2.17,2.073-3.2l.046-.067,0,0,.021-.031c.6-.875,1.224-1.78,1.793-2.719a.365.365,0,0,0-.058-.545c-.595-.588-1.261-1.251-2.1-2.088l-.379-.379-.05-.05-.271-.272-.022-.021-.3-.305-.776-.775a.4.4,0,0,1-.036-.041l-.011-.012a.311.311,0,0,0-.257-.146Zm6.66-7.072h0l-.442.469-.32.339-.384.407-.051.055-.009.009c-1.216,1.289-2.407,2.549-3.6,3.8-.2.211-.121.306.035.457.373.363.752.744,1.056,1.05l.017.017.016.016.017.017.22.222c.464.466.926.932,1.4,1.407l.047.047.961.97a44.174,44.174,0,0,0,2.552-5.855.572.572,0,0,0-.043-.493q-.481-.951-.927-1.849l-.077-.155-.153-.306-.012-.022-.3-.6Zm-13.241.483h-.026l-.105.21-.105.21-.105.207-.091.181-.014.029c-.3.6-.542,1.077-.758,1.51l-.015.031a.66.66,0,0,0-.081.568,46.859,46.859,0,0,0,2.551,5.835c.254-.267.5-.528.729-.77l.174-.185.006-.007.157-.167c.8-.846,1.522-1.61,2.285-2.391.147-.149.238-.267.236-.4,0-.11-.071-.223-.229-.377-.907-.879-1.839-1.813-2.661-2.638l-.048-.048-.106-.106-.03-.03-.229-.229-.125-.126c-.354-.356-.689-.692-1.029-1.03-.023-.023-.044-.048-.063-.071l-.01-.012-.005-.006A.386.386,0,0,0-2963.8-3453.91Zm4.306.867h0l.319.321.023.024.28.282.033.033.016.016c.469.472.955.961,1.444,1.46a.229.229,0,0,0,.151.084.193.193,0,0,0,.138-.076l.138-.146.435-.463.624-.664.175-.184.56-.6a12.128,12.128,0,0,1-1.9.151,12.906,12.906,0,0,1-2.433-.24Zm-5.533-6.8c0,.039,0,.066,0,.085v.006c0,.025,0,.033,0,.039a9.5,9.5,0,0,0,7.971,4.6,8.383,8.383,0,0,0,1.143-.078,9.7,9.7,0,0,0,7.953-7.235,56.527,56.527,0,0,0,1.33-10.26c.023-.348-.11-.429-.4-.473l-.212-.031-.012,0h-.007l-.216-.032c-.8-.117-1.63-.239-2.434-.419a21.058,21.058,0,0,1-9.556-4.924c-.031-.028-.06-.057-.09-.085a.727.727,0,0,0-.523-.275.624.624,0,0,0-.078,0,8.6,8.6,0,0,0-4.056,1.527,11.786,11.786,0,0,0-2.569,2.789l-.008.011c-.243.33-.446.6-.657.875a.579.579,0,0,0-.086.45l0,.023c0,.031,0,.059.006.088.06,1.508.186,3.092.386,4.845v.005a53.29,53.29,0,0,0,.86,5.66c.073.32.169.473.516.473h.046c.393-.014.789-.021,1.211-.021s.848.006,1.367.018h.028a.513.513,0,0,0,.537-.356,3.229,3.229,0,0,1,2.612-1.932,14.063,14.063,0,0,1,1.611-.082c.468,0,.937.016,1.373.033a3.514,3.514,0,0,1,3.415,3.534,3.463,3.463,0,0,1-1.011,2.427,3.616,3.616,0,0,1-2.463,1.051c-.422.013-.823.02-1.193.02-.426,0-.872-.009-1.326-.025a2.867,2.867,0,0,1-2.542-1.317,1.725,1.725,0,0,0-1.742-1.043c-.148,0-.326.008-.528.024-.075.006-.151.008-.239.008-.066,0-.132,0-.2,0h-.028Zm6.726,0h.051c.121,0,.242,0,.363,0s.242,0,.363,0c.176,0,.316,0,.441-.013a1.192,1.192,0,0,0,1.176-1.144,1.168,1.168,0,0,0-1.135-1.178c-.394-.018-.8-.027-1.194-.027s-.8.009-1.2.027a1.159,1.159,0,0,0-1.147,1.166,1.188,1.188,0,0,0,1.165,1.156c.129.009.268.013.438.013.118,0,.236,0,.354,0h.08Zm-11.385-4.7a.278.278,0,0,0-.222.083.487.487,0,0,0-.064.388,2.646,2.646,0,0,1,.01.4,3.058,3.058,0,0,0,.006.36,1.184,1.184,0,0,0,.963,1.1,1.1,1.1,0,0,0,.208.029.153.153,0,0,0,.131-.048c.04-.052.041-.148,0-.3a12.206,12.206,0,0,1-.267-1.551c-.037-.314-.154-.455-.38-.455a.774.774,0,0,0-.186.026A.854.854,0,0,0-2969.687-3464.55Zm25.843-9.725c-.28,0-.375.107-.393.44l-.013.25v.017q-.008.157-.016.314l0,.023c-.08,1.515-.171,3.232-.365,4.873a4.077,4.077,0,0,1-.086.432c-.092.382-.186.776.029.95a.9.9,0,0,0,.576.144c.152,0,.313-.013.454-.025h.013l.03,0c.127-.01.268-.022.393-.023.94-.007,1.382-.456,1.389-1.412.005-.625,0-1.251,0-1.857v-.259q0-.158,0-.316c0-.105,0-.211,0-.316s0-.191,0-.287v-.181c0-.286,0-.583-.007-.877a4.486,4.486,0,0,1,.042-.632c.052-.461.105-.933-.156-1.15a.935.935,0,0,0-.616-.158c-.15,0-.316.013-.477.026l-.021,0h-.033c-.163.013-.348.029-.518.029-.056,0-.1,0-.141,0Zm-26.339,7.39c.154,0,.285,0,.413.014h.014l.07,0a.322.322,0,0,0,.255-.081.438.438,0,0,0,.047-.347c-.3-2.208-.426-4.462-.532-6.581-.016-.333-.14-.394-.378-.394h-.074c-.241.01-.528.021-.822.021-.258,0-.486-.008-.7-.025-.028,0-.057,0-.086,0a.347.347,0,0,0-.262.08.537.537,0,0,0-.084.389c.015.682.013,1.36.01,2.015,0,.264,0,.528,0,.792,0,.236,0,.471,0,.707v.145c0,.635-.005,1.291.005,1.955a1.209,1.209,0,0,0,1.311,1.314l.2,0,.272,0h.078Zm10.43-14.408a2.02,2.02,0,0,1,1.472.614,19.043,19.043,0,0,0,11.436,5.193,1,1,0,0,0,.1.007c.192,0,.207-.1.221-.3a9.647,9.647,0,0,0-6.231-9.625,11.534,11.534,0,0,0-4.083-.6c-.486,0-1,.013-1.345.021a9.333,9.333,0,0,0-7.905,4.356,8.72,8.72,0,0,0-1.455,4.142l.183-.2.04-.043.18-.191a10.689,10.689,0,0,1,7.171-3.375C-2959.9-3481.29-2959.825-3481.293-2959.754-3481.293Zm2.62-7.047c.245,0,.512,0,.841,0h.14a11.987,11.987,0,0,1,7.706,2.766,12.032,12.032,0,0,1,4.09,7.1,3.332,3.332,0,0,1,.031.654c-.007.464-.015.944.354,1.145a1.417,1.417,0,0,0,.688.14,6.435,6.435,0,0,0,.643-.043h.005c.208-.021.423-.042.623-.043a.119.119,0,0,0,.04-.011l.007,0,.06-.021a15.068,15.068,0,0,0-8.345-12.383,16.8,16.8,0,0,0-7.059-1.684,15.114,15.114,0,0,0-9.932,3.974,14.424,14.424,0,0,0-4.983,9.763c-.017.165,0,.259.045.313a.3.3,0,0,0,.236.067l.067,0c.274-.012.506-.02.743-.02s.425.008.6.024c.042,0,.084.006.13.006.319,0,.434-.137.471-.562a12.439,12.439,0,0,1,2.281-6.385,12.5,12.5,0,0,1,5.438-4.048A13.245,13.245,0,0,1-2957.134-3488.34Z" transform="translate(2984.037 3493)" fill="#9f2300" stroke="rgba(0,0,0,0)" stroke-width="1"/>
    <path id="Path_4252" data-name="Path 4252" d="M296.8,335.882a1.17,1.17,0,0,1-.791,1.179,1.046,1.046,0,0,1-1.324-.447,12.858,12.858,0,0,0-1.7-2.367c-.336-.325-.693-.631-1.028-.958a1.169,1.169,0,1,1,1.525-1.767,11.743,11.743,0,0,1,3.133,3.817,3.568,3.568,0,0,1,.189.543" transform="translate(-248.677 -282.544)" fill="#9f2300"/>
    <path id="Path_4253" data-name="Path 4253" d="M264.586,315.96a1.165,1.165,0,1,1-1.163,1.153,1.2,1.2,0,0,1,1.163-1.153" transform="translate(-224.73 -269.551)" fill="#9f2300"/>
  </g>
</svg>
