<svg id="Group_3157" data-name="Group 3157" xmlns="http://www.w3.org/2000/svg" xmlns:xlink="http://www.w3.org/1999/xlink" width="60" height="59.552" viewBox="0 0 60 59.552">
  <defs>
    <clipPath id="clip-path">
      <rect id="Rectangle_2868" data-name="Rectangle 2868" width="60" height="59.552" fill="#9f2300"/>
    </clipPath>
  </defs>
  <g id="Group_3156" data-name="Group 3156" clip-path="url(#clip-path)">
    <path id="Subtraction_26" data-name="Subtraction 26" d="M-2307.315-3277.9q-6.051,0-12.1,0c-4.325,0-8.789,0-13.267,0a9.066,9.066,0,0,1-1.516-.126,2.709,2.709,0,0,1-2.264-2.605c-.011-.5-.007-1,0-1.464a4.4,4.4,0,0,1,1.147-2.919,4.575,4.575,0,0,1,2.806-1.454,17.775,17.775,0,0,1,2.181-.1h.1c.237,0,.532,0,.817-.009.612-.014.669-.071.677-.675,0-.244,0-.492,0-.732v-.159c0-.4-.005-.8.008-1.219a.612.612,0,0,0-.128-.467.644.644,0,0,0-.486-.146h-.011c-.606,0-1.268.006-2.146.006h-2.542l-3.117,0q-1.559,0-3.118,0c-1.705,0-3,0-4.194-.01a5.68,5.68,0,0,1-5.088-3.005,2.824,2.824,0,0,1-.309-1.007v-.008l0-.024v-.009a4.413,4.413,0,0,0-.128-.572v-38.084a5.1,5.1,0,0,1,3.612-4.518,4.657,4.657,0,0,1,1.729-.235h45.8c.384,0,.789.006,1.138.011h.095c.351,0,.714.01,1.071.01.531,0,.971-.011,1.387-.034.064,0,.125,0,.178,0,2.179,0,4.884,2.1,4.936,4.548a.162.162,0,0,0,.034.077l0,.007.013.02v12.538a1.48,1.48,0,0,1-1.191.861,1.109,1.109,0,0,1-.576-.173,1.291,1.291,0,0,1-.581-1.257c.008-3.171.006-6.481.005-8.9v-1.88a3.047,3.047,0,0,0-3.326-3.363c-6.369,0-13.565,0-23.332,0-8.8,0-17.327,0-25.351.005a3.046,3.046,0,0,0-3.3,3.326v5.441c0,7.23,0,15.424-.012,23.379a.684.684,0,0,0,.116.493.646.646,0,0,0,.472.12c3.3-.01,6.951-.014,10.842-.014,3.558,0,7.027,0,10.6.012a.65.65,0,0,0,.471-.117.613.613,0,0,0,.114-.454c-.021-1.994-.017-3.975-.013-5.89v-.338q0-.665,0-1.329c0-1.5.635-2.146,2.121-2.146h3.281a1.835,1.835,0,0,1,2.1,2.072l0,1.175c0,1.653.006,4.15-.01,6.441a.677.677,0,0,0,.113.49.453.453,0,0,0,.338.1c.033,0,.069,0,.107,0,.289-.022.6-.032.942-.032.315,0,.657.01,1.049.03.03,0,.058,0,.084,0a.438.438,0,0,0,.327-.1.583.583,0,0,0,.105-.425c-.006-1.606,0-3.221,0-4.608v-.02c0-2.584.007-5.256-.029-7.908a2.3,2.3,0,0,1,.566-1.69,1.975,1.975,0,0,1,1.468-.539c.073,0,.142,0,.21.006.365.023.748.033,1.207.033.31,0,.612,0,.971-.011h.144c.254,0,.55-.008.833-.008h.066a1.806,1.806,0,0,1,2.054,2.044l0,2.02v.43c0,3.319.005,6.751-.015,10.146a.717.717,0,0,0,.126.522.491.491,0,0,0,.369.11c.048,0,.094,0,.146-.006.282-.021.584-.032.9-.032s.631.01.978.031c.034,0,.071,0,.108,0a.454.454,0,0,0,.342-.1.6.6,0,0,0,.107-.442c-.021-1.226-.018-2.466-.014-3.664v-.038q0-.7,0-1.394v-8.146q0-1.345,0-2.691c0-1.422.642-2.057,2.077-2.057h3.4a1.791,1.791,0,0,1,2.024,2.011v1.814c0,4.583.005,9.321-.01,14.061a.755.755,0,0,0,.122.538.538.538,0,0,0,.4.114l.1,0c.427-.023.886-.034,1.4-.034.588,0,1.187.015,1.643.029h.046a.454.454,0,0,0,.336-.094.529.529,0,0,0,.1-.394c-.012-1.791-.012-3.59-.01-5.28q0-.407,0-.813v-.878c0-.887.231-1.309.823-1.5a1.151,1.151,0,0,1,.364-.063c.41,0,.777.261,1.157.821v15.82a5.127,5.127,0,0,1-3.521,4.281,5.542,5.542,0,0,1-2.117.354h-.01c-2.378,0-5.034,0-7.9,0h-6.692c-.179,0-.382,0-.585.006-.294.008-.438.147-.441.425-.008.738-.014,1.614,0,2.519.006.386.27.441.553.443h1.3c.306,0,.513,0,.694.008a5.325,5.325,0,0,1,3.689,1.223,4.256,4.256,0,0,1,1.493,3.309c0,.209,0,.417,0,.619v.182c0,.178,0,.362,0,.545a2.718,2.718,0,0,1-2.322,2.675A9.083,9.083,0,0,1-2307.315-3277.9Zm-1.058-6.1-7.265,0h-4.347q-5.823,0-11.646,0a4.2,4.2,0,0,0-.7.049,1.965,1.965,0,0,0-1.634,1.743,4.444,4.444,0,0,0-.014.459v.012a3.84,3.84,0,0,1-.019.524.7.7,0,0,0,.1.572.816.816,0,0,0,.64.181h.02c2.693-.012,5.247-.014,6.934-.014h18.48c.449,0,.844,0,1.241,0h.172a.347.347,0,0,0,.375-.22,3.118,3.118,0,0,0-.741-2.863A2.4,2.4,0,0,0-2308.373-3284Zm-17.462-6.16a.425.425,0,0,0-.317.087.476.476,0,0,0-.079.349v.032c.016.834.034,1.78,0,2.718a.709.709,0,0,0,.107.523.612.612,0,0,0,.458.126h.053c.718-.017,1.525-.024,2.54-.024q.769,0,1.54,0h.168l1.371,0h2.791c.829,0,1.92,0,3,.009h.019c.179,0,.276-.025.335-.087a.428.428,0,0,0,.08-.323c-.021-.884-.022-1.861,0-2.984a.459.459,0,0,0-.08-.343.438.438,0,0,0-.323-.087c-2.113.007-4.074.01-5.829.01s-3.716,0-5.824-.01Zm19.594-2.335h3.227l3.044,0c1.409,0,2.8,0,4.39,0a3.033,3.033,0,0,0,3.235-3.218c0-.383,0-.776,0-1.145-.005-.776-.011-1.574.018-2.371a.7.7,0,0,0-.116-.523c-.094-.1-.249-.137-.537-.137h-.005c-5.882.013-11.825.014-16.933.014h-19.989c-6.251,0-11.383,0-16.149,0a4.384,4.384,0,0,1-.466-.035l-.014,0h-.007a4.19,4.19,0,0,0-.482-.038.686.686,0,0,0-.539.176c-.182.2-.147.6-.113.994.014.159.028.326.027.472,0,.788,0,1.578,0,2.247v.272a3.054,3.054,0,0,0,3.281,3.292h38.134Zm5.034-25.917a.43.43,0,0,0-.32.1c-.078.079-.109.21-.107.452.017,1.888.015,3.8.012,5.64v.025q0,.942,0,1.884t0,1.884c0,1.763,0,3.762-.007,5.723a.576.576,0,0,0,.095.414.4.4,0,0,0,.294.088l.077,0c.279-.017.575-.026.9-.026.3,0,.624.007,1.026.022h.052a.387.387,0,0,0,.291-.085.46.46,0,0,0,.085-.341c-.014-.763-.012-1.534-.009-2.279q0-.441,0-.881,0-1.366,0-2.731c0-3.051,0-6.206.011-9.323a.65.65,0,0,0-.109-.463.43.43,0,0,0-.32-.1c-.033,0-.07,0-.108,0-.286.022-.58.033-.873.033s-.589-.011-.881-.033C-2301.137-3318.412-2301.174-3318.414-2301.207-3318.414Zm-10.554,3.269a.426.426,0,0,0-.317.094c-.074.075-.1.2-.1.424.016,1.469.014,2.953.011,4.388v.3q0,.64,0,1.28,0,.779,0,1.558c0,1.443,0,2.935-.007,4.414,0,.19.013.315.088.391a.376.376,0,0,0,.28.083l.066,0c.281-.015.582-.023.918-.023.387,0,.776.01,1.072.019h.039a.373.373,0,0,0,.277-.079.43.43,0,0,0,.084-.315c-.011-4.284-.01-8.248,0-12.119a.448.448,0,0,0-.089-.327.405.405,0,0,0-.3-.084h-.051c-.331.01-.68.019-1.024.019-.314,0-.593-.008-.852-.023Zm-10.591,4.994a.381.381,0,0,0-.283.084.47.47,0,0,0-.086.354c.012.854.01,1.715.008,2.548v.013q0,.477,0,.955t0,.947v.013c0,.835,0,1.7-.009,2.555a.532.532,0,0,0,.087.387.38.38,0,0,0,.284.084l.067,0c.3-.017.615-.025.938-.025s.639.008.994.023l.066,0a.4.4,0,0,0,.3-.087.507.507,0,0,0,.093-.373c-.014-2.09-.015-4.323,0-7.03a.52.52,0,0,0-.09-.365.379.379,0,0,0-.281-.084h-.041c-.334.013-.671.02-1,.02s-.665-.007-.989-.02Z" transform="translate(2350 3337.449)" fill="#9f2300" stroke="rgba(0,0,0,0)" stroke-width="1"/>
    <path id="Subtraction_24" data-name="Subtraction 24" d="M-2341.709-3320.783a8.305,8.305,0,0,1-8.228-7.3,8.3,8.3,0,0,1,1.835-6.338,8.283,8.283,0,0,1,5.851-3.017c.066,0,.131-.007.195-.007a1.458,1.458,0,0,1,1.559,1.611c0,.26,0,.524,0,.78v.021c0,.145,0,.286,0,.427v1.229q0,.379,0,.759c0,.613.008,1.247-.012,1.875a.471.471,0,0,0,.086.356.479.479,0,0,0,.36.1h.022c.7-.007,1.461-.011,2.4-.011l1.559,0h.961a1.85,1.85,0,0,1,1.423.463,1.87,1.87,0,0,1,.338,1.472,8.315,8.315,0,0,1-8.222,7.583Zm-1.363-14.151a1.262,1.262,0,0,0-.326.065,5.99,5.99,0,0,0-4.255,6.2,5.973,5.973,0,0,0,5.268,5.49c.209.02.426.03.646.03a5.915,5.915,0,0,0,5.835-4.264c.06-.2.085-.358.016-.451-.057-.076-.178-.11-.392-.11h-.049c-.668.015-1.366.022-2.135.022-.673,0-1.41-.006-2.317-.018a1.792,1.792,0,0,1-2.05-1.994c-.021-.528-.016-1.059-.01-1.573,0-.207,0-.465,0-.711h-.007c0-.228,0-.461-.007-.668v-.008c-.007-.509-.015-1.035.02-1.55a.545.545,0,0,0-.073-.4A.217.217,0,0,0-2343.072-3334.934Z" transform="translate(2354.601 3347.639)" fill="#9f2300" stroke="rgba(0,0,0,0)" stroke-width="1"/>
    <path id="Path_4284" data-name="Path 4284" d="M180.779,37.188c-3.747,1.787-7.378,3.521-11.011,5.252q-6.088,2.9-12.176,5.8a1.246,1.246,0,0,1-1.424-.054,1.12,1.12,0,0,1-.409-1.15,1.253,1.253,0,0,1,.822-.913q5.062-2.4,10.121-4.815,6.245-2.976,12.487-5.959a.871.871,0,0,0,.472-.308c-.627-.221-1.239-.431-1.847-.652-.8-.29-1.154-.893-.925-1.568a1.212,1.212,0,0,1,1.695-.646c1.47.511,2.94,1.024,4.4,1.551a1.226,1.226,0,0,1,.863,1.825q-.777,2.2-1.569,4.4a1.185,1.185,0,0,1-1.572.89,1.2,1.2,0,0,1-.641-1.65c.213-.624.441-1.242.711-2" transform="translate(-131.392 -27.05)" fill="#9f2300"/>
    <path id="Subtraction_25" data-name="Subtraction 25" d="M-2342.163-3327.892h-3.47q-.935,0-1.868,0a2.509,2.509,0,0,1-1.845-.647,2.558,2.558,0,0,1-.643-1.86c0-.627,0-1.258,0-1.869q0-.412,0-.824H-2350v-.969q0-.921,0-1.842a1.582,1.582,0,0,1,.395-1.164,1.461,1.461,0,0,1,1.077-.378c.043,0,.087,0,.132,0a8.436,8.436,0,0,1,7.94,7.674,1.819,1.819,0,0,1-.313,1.443A1.8,1.8,0,0,1-2342.163-3327.892Zm-5.277-7.039a.192.192,0,0,0-.145.049.406.406,0,0,0-.067.293c.02,1.4.02,2.676,0,3.917a.475.475,0,0,0,.092.351.428.428,0,0,0,.325.092h.062c.232-.008.487-.012.8-.012l.49,0h.226l.414,0h1.111c.385,0,.673,0,.935.005h.021c.1,0,.17-.009.206-.052s.038-.112.015-.239a6.226,6.226,0,0,0-4.287-4.379A.965.965,0,0,0-2347.439-3334.931Z" transform="translate(2366.336 3343.305)" fill="#9f2300" stroke="rgba(0,0,0,0)" stroke-width="1"/>
    <path id="Path_4294" data-name="Path 4294" d="M154.51,258.723c-.838,0-1.676.007-2.513,0a1.166,1.166,0,0,1-1.293-1.127,1.181,1.181,0,0,1,1.293-1.2q2.513-.019,5.026,0a1.187,1.187,0,0,1,1.294,1.2,1.169,1.169,0,0,1-1.294,1.127c-.838.009-1.675,0-2.513,0" transform="translate(-127.148 -216.31)" fill="#9f2300"/>
    <path id="Path_4295" data-name="Path 4295" d="M219.292,258.77a1.135,1.135,0,0,1-1.194-1.148,1.166,1.166,0,0,1,1.179-1.179,1.187,1.187,0,0,1,1.174,1.134,1.155,1.155,0,0,1-1.158,1.192" transform="translate(-184.008 -216.359)" fill="#9f2300"/>
  </g>
</svg>
