<svg xmlns="http://www.w3.org/2000/svg" width="40" height="40" viewBox="0 0 40 40">
  <g id="Group_5234" data-name="Group 5234" transform="translate(-1519.95 -142.5)">
    <g id="Rectangle_57" data-name="Rectangle 57" transform="translate(1519.95 142.5)" fill="none" stroke="#f59d23" stroke-width="1">
      <rect width="40" height="40" rx="5" stroke="none"/>
      <rect x="0.5" y="0.5" width="39" height="39" rx="4.5" fill="none"/>
    </g>
    <path id="whatsapp" d="M16.026,2.7A9.2,9.2,0,0,0,1.554,13.791L.25,18.555l4.874-1.279A9.185,9.185,0,0,0,9.518,18.4h0a9.2,9.2,0,0,0,6.5-15.7Zm-6.5,14.147h0a7.633,7.633,0,0,1-3.89-1.065l-.279-.166-2.892.759.772-2.82-.182-.289a7.642,7.642,0,1,1,6.474,3.581Zm4.192-5.724c-.23-.115-1.359-.671-1.57-.747s-.364-.115-.517.115-.593.747-.728.9-.268.173-.5.058A6.275,6.275,0,0,1,8.554,10.3,6.93,6.93,0,0,1,7.276,8.714c-.134-.23,0-.342.1-.469a6.5,6.5,0,0,0,.574-.786.423.423,0,0,0-.019-.4c-.057-.115-.517-1.246-.708-1.706s-.376-.387-.517-.394-.287-.008-.44-.008a.844.844,0,0,0-.613.288,2.577,2.577,0,0,0-.8,1.917,4.469,4.469,0,0,0,.938,2.377A10.241,10.241,0,0,0,9.713,13a13.15,13.15,0,0,0,1.31.484,3.15,3.15,0,0,0,1.447.091A2.367,2.367,0,0,0,14.02,12.48a1.92,1.92,0,0,0,.134-1.093c-.057-.1-.211-.153-.44-.268Zm0,0" transform="translate(1530.467 153.088)" fill="#f59d23"/>
  </g>
</svg>
