<svg id="Group_3149" data-name="Group 3149" xmlns="http://www.w3.org/2000/svg" xmlns:xlink="http://www.w3.org/1999/xlink" width="60" height="54.751" viewBox="0 0 60 54.751">
  <defs>
    <clipPath id="clip-path">
      <rect id="Rectangle_2864" data-name="Rectangle 2864" width="60" height="54.751" fill="#9f2300"/>
    </clipPath>
  </defs>
  <g id="Group_3148" data-name="Group 3148" clip-path="url(#clip-path)">
    <path id="Subtraction_38" data-name="Subtraction 38" d="M-2927.06-3284.874l-1.447,0h-.009l-1.438,0h-46.655a6.1,6.1,0,0,1-.65-.028,3.967,3.967,0,0,1-3.741-3.205v-48.282a4.056,4.056,0,0,1,4.381-3.228q12.162,0,24.326,0c8.835,0,17.887,0,26.905,0a4.353,4.353,0,0,1,3.82,1.769,3.609,3.609,0,0,1,.533,1.518l0,.025c.01.05.019.1.029.151v47.93a4.356,4.356,0,0,1-1.444,2.483,4.431,4.431,0,0,1-2.768.861C-2925.765-3284.877-2926.352-3284.874-2927.06-3284.874Zm-50.976-43.523a.717.717,0,0,0-.51.123.689.689,0,0,0-.125.506c.014,10.711.014,21.605.014,32.142v6.286c0,1.351.561,1.9,1.935,1.9h51.431c1.4,0,1.946-.547,1.946-1.95v-5.575c0-10.75,0-21.865.012-32.793,0-.49-.086-.642-.625-.642-5.957.013-11.821.014-17.27.014h-19.3c-5.532,0-11.482,0-17.507-.012Zm1.18-8.671h-.1a1.564,1.564,0,0,0-1.7,1.723c0,.468,0,.953,0,1.381,0,.826.01,1.763-.019,2.66a.626.626,0,0,0,.107.466c.1.1.26.119.509.119,6.46-.01,12.859-.011,18.349-.011h34.189l.527,0,.529,0c.293,0,.534,0,.76.011h.041a.335.335,0,0,0,.25-.071.385.385,0,0,0,.073-.287c-.007-.671-.006-1.354-.005-2.015v-.091c0-.769,0-1.564-.009-2.345a1.506,1.506,0,0,0-1.358-1.506,3.731,3.731,0,0,0-.549-.029h-51.6Z" transform="translate(2981 3339.625)" fill="#9f2300" stroke="rgba(0,0,0,0)" stroke-width="1"/>
    <path id="Subtraction_40" data-name="Subtraction 40" d="M-2961.732-3318.8h-17.673a4.588,4.588,0,0,1-.6-.028,1.14,1.14,0,0,1-1-1.059,1.144,1.144,0,0,1,.841-1.19,1.861,1.861,0,0,1,.4-.063h.005c.866-.048.866-.048.866-.894v-2.3q0-3.156,0-6.312c0-1.074.416-1.494,1.48-1.5.842,0,1.719-.005,2.607-.005s1.765,0,2.607.005c1.059,0,1.472.427,1.473,1.508q0,.771,0,1.542c0,2.426.006,4.934-.011,7.421a.61.61,0,0,0,.108.447.441.441,0,0,0,.331.1c.033,0,.068,0,.107,0,.312-.02.629-.03.942-.03s.626.01.931.03c.038,0,.075,0,.11,0a.463.463,0,0,0,.348-.1.645.645,0,0,0,.116-.47c-.014-4.323-.012-8.787-.011-12.726v-.133q0-1.656,0-3.311c0-.055,0-.11,0-.165,0-.118,0-.241,0-.363a1.157,1.157,0,0,1,1.222-1.212c.951-.009,1.894-.013,2.8-.013.979,0,1.967,0,2.938.014a1.149,1.149,0,0,1,1.2,1.228c.012.365.01.736.007,1.1v.01c0,.158,0,.317,0,.476v3.266c0,3.884,0,7.9-.009,11.849a.676.676,0,0,0,.109.476.357.357,0,0,0,.265.086,1.15,1.15,0,0,0,.156-.012,2.465,2.465,0,0,1,.353-.022c.114,0,.235.005.332.009l.193.007a1.2,1.2,0,0,1,1.308,1.193,1.173,1.173,0,0,1-1.288,1.143C-2959.17-3318.8-2960.274-3318.8-2961.732-3318.8Zm-3.218-18.489a.468.468,0,0,0-.35.1.571.571,0,0,0-.1.421c.013,1.85.012,3.731.01,5.55v.069q0,.936,0,1.872,0,.958,0,1.916c0,1.759,0,3.752-.009,5.692a.608.608,0,0,0,.1.437.455.455,0,0,0,.337.1l.061,0c.386-.015.783-.023,1.216-.023.407,0,.839.006,1.358.02h.036a.4.4,0,0,0,.3-.084.473.473,0,0,0,.089-.347c-.01-5.88-.009-10.733,0-15.273a.487.487,0,0,0-.094-.356.439.439,0,0,0-.327-.088h-.049c-.486.013-.917.019-1.317.019-.422,0-.814-.007-1.2-.021Zm-11.19,7.474a.419.419,0,0,0-.315.091.5.5,0,0,0-.091.377c.015.911.012,1.839.01,2.736v.036q0,.519,0,1.037,0,.54,0,1.08c0,.93,0,1.891-.008,2.844,0,.19.011.315.087.392a.407.407,0,0,0,.3.088h.044c.393-.014.8-.021,1.251-.021.415,0,.855.006,1.385.018h.031a.412.412,0,0,0,.307-.087.464.464,0,0,0,.089-.345c-.014-2.93-.013-5.479,0-7.792a.489.489,0,0,0-.095-.359.446.446,0,0,0-.333-.091h-.044c-.491.011-.928.017-1.338.017-.437,0-.842-.006-1.239-.019Z" transform="translate(2986.978 3359.219)" fill="#9f2300" stroke="rgba(0,0,0,0)" stroke-width="1"/>
    <path id="Subtraction_39" data-name="Subtraction 39" d="M-2971.981-3321.584h-.05a8.952,8.952,0,0,1-6.372-2.668,9.012,9.012,0,0,1-2.6-6.419,9.024,9.024,0,0,1,9.017-8.953h.04a8.954,8.954,0,0,1,6.369,2.684,8.982,8.982,0,0,1,2.617,6.419,8.931,8.931,0,0,1-2.668,6.323A8.979,8.979,0,0,1-2971.981-3321.584Zm-1.416-15.537a1.009,1.009,0,0,0-.285.055,6.464,6.464,0,0,0-4.876,5.41,6.276,6.276,0,0,0,2.808,6.547,6.5,6.5,0,0,0,3.7,1.22,7.246,7.246,0,0,0,3.47-.964c.191-.1.273-.181.285-.268s-.049-.188-.2-.34c-.7-.681-1.4-1.382-2.073-2.061l-.026-.026c-.62-.621-1.323-1.325-2.011-2a1.684,1.684,0,0,1-.553-1.348c.02-.646.015-1.3.011-1.928v-.09q0-.367,0-.734c0-.3,0-.607,0-.869-.005-.7-.011-1.413.016-2.116a.594.594,0,0,0-.084-.428A.23.23,0,0,0-2973.4-3337.121Zm2.591-.01h0v1.358c0,1.494,0,2.963,0,4.431a.541.541,0,0,0,.145.422c1.117,1.124,2.251,2.271,3.251,3.283l.866.876a6.588,6.588,0,0,0,.656-6.49,6.327,6.327,0,0,0-4.917-3.88Z" transform="translate(3016.253 3355.308)" fill="#9f2300" stroke="rgba(0,0,0,0)" stroke-width="1"/>
    <path id="Path_4228" data-name="Path 4228" d="M93.981,285.876h19.157c.176,0,.352-.005.527,0a1.181,1.181,0,0,1,1.241,1.135,1.2,1.2,0,0,1-1.189,1.2c-.155.014-.312.006-.468.006H74.7a2.658,2.658,0,0,1-.87-.08,1.153,1.153,0,0,1-.8-1.221,1.134,1.134,0,0,1,1.029-1.027,6.4,6.4,0,0,1,.644-.015H93.981" transform="translate(-61.612 -241.188)" fill="#9f2300"/>
    <path id="Path_4229" data-name="Path 4229" d="M234.52,245.932c-2.536,0-5.073,0-7.609,0-.848,0-1.337-.418-1.362-1.116a1.12,1.12,0,0,1,.916-1.18,2.537,2.537,0,0,1,.523-.042q7.58,0,15.159,0c.962,0,1.559.581,1.417,1.357a1.18,1.18,0,0,1-1.318.982c-2.088.009-4.175,0-6.263,0H234.52" transform="translate(-190.292 -205.512)" fill="#9f2300"/>
    <path id="Path_4230" data-name="Path 4230" d="M39.429,285.943a1.181,1.181,0,0,1,1.172,1.188,1.169,1.169,0,0,1-2.337-.065,1.145,1.145,0,0,1,1.165-1.123" transform="translate(-32.283 -241.246)" fill="#9f2300"/>
    <path id="Path_4231" data-name="Path 4231" d="M61.874,32.234a1.152,1.152,0,0,1-1.15-1.14,1.21,1.21,0,0,1,1.184-1.188,1.185,1.185,0,0,1,1.15,1.157,1.163,1.163,0,0,1-1.184,1.171" transform="translate(-51.232 -25.231)" fill="#9f2300"/>
    <path id="Path_4232" data-name="Path 4232" d="M91.236,32.322a1.2,1.2,0,0,1-1.178-1.2,1.174,1.174,0,0,1,1.205-1.106,1.153,1.153,0,0,1-.027,2.306" transform="translate(-75.98 -25.323)" fill="#9f2300"/>
    <path id="Path_4233" data-name="Path 4233" d="M32.15,31.027a1.175,1.175,0,0,1,1.164-1.151,1.166,1.166,0,1,1-.047,2.331,1.141,1.141,0,0,1-1.117-1.18" transform="translate(-27.124 -25.207)" fill="#9f2300"/>
  </g>
</svg>
