<svg id="Group_3155" data-name="Group 3155" xmlns="http://www.w3.org/2000/svg" xmlns:xlink="http://www.w3.org/1999/xlink" width="60" height="60" viewBox="0 0 60 60">
  <defs>
    <clipPath id="clip-path">
      <rect id="Rectangle_2867" data-name="Rectangle 2867" width="60" height="60" transform="translate(0 0)" fill="#9f2300"/>
    </clipPath>
  </defs>
  <g id="Group_3154" data-name="Group 3154" clip-path="url(#clip-path)">
    <path id="Subtraction_21" data-name="Subtraction 21" d="M-2303-3121h-2.93a11.536,11.536,0,0,1-4.067-.952,15.115,15.115,0,0,1-4.984-3.417,14.9,14.9,0,0,1-3.155-5.156c-.062-.169-.119-.343-.169-.5l-.037-.114a.62.62,0,0,0-.645-.471h-.1l-.277,0-.278,0h-28.669c-.145,0-.259,0-.368-.008a1.2,1.2,0,0,1-1.318-.986v-11.719a7.415,7.415,0,0,1,1.768-4.174,8.165,8.165,0,0,1,4.359-2.791c1.768-.457,3.581-.84,5.334-1.209l.08-.017c.641-.135,1.3-.275,1.955-.417a3.114,3.114,0,0,0,2.2-1.4,1.316,1.316,0,0,0-.2-1.877,9.425,9.425,0,0,1-2.638-6.512c-.011-2.921-.008-5.891,0-8.763v-.071l0-1.468a8.1,8.1,0,0,1,1.7-4.859,8.13,8.13,0,0,1,4.236-2.926,3.361,3.361,0,0,1,.613-.092,3.148,3.148,0,0,0,.645-.1h12.892a1.623,1.623,0,0,1,.823,1.594c-.026,1.205-.021,2.431-.016,3.618v.158q0,.66,0,1.32a6.513,6.513,0,0,1-1.323,4.032,1.051,1.051,0,0,0-.206.7q0,1.533,0,3.066c0,1.089,0,2.212,0,3.317a9.623,9.623,0,0,1-3.6,7.784.523.523,0,0,0-.193.694,2.853,2.853,0,0,0,2.165,1.851l1.946.429.5.11c1.521.336,3.245.717,4.915,1.079a8.106,8.106,0,0,1,3.45,1.633.865.865,0,0,0,.573.234,1.15,1.15,0,0,0,.269-.036,14.514,14.514,0,0,1,3.39-.4,14.354,14.354,0,0,1,9.438,3.556,14.423,14.423,0,0,1,4.82,9.095c0,.015,0,.03,0,.044v.009c0,.075.006.153.11.181v3.164a12.7,12.7,0,0,1-1.054,4.166,1.3,1.3,0,0,1-1.244.9h-.039a1.3,1.3,0,0,1-1.069-.508,1.318,1.318,0,0,1-.155-1.193c.073-.229.155-.46.234-.683l.006-.017c.15-.425.3-.861.414-1.3a11.89,11.89,0,0,0-8.209-14.431,12.863,12.863,0,0,0-3.527-.517,11.493,11.493,0,0,0-8.06,3.419,11.234,11.234,0,0,0-3.6,9.133,11.781,11.781,0,0,0,9.239,10.975,12.125,12.125,0,0,0,2.655.3,12.916,12.916,0,0,0,4.7-.924,2.138,2.138,0,0,1,.768-.162,1.16,1.16,0,0,1,1.113.75,1.323,1.323,0,0,1,.052,1.042,1.362,1.362,0,0,1-.773.742,10.6,10.6,0,0,1-4.089,1.023h-.172a.259.259,0,0,0-.191.06Zm-33.7-29.318a1.273,1.273,0,0,0-.268.041l-.058.013c-.559.122-1.125.251-1.674.377l-.026.006c-1.178.27-2.4.549-3.608.768a6.207,6.207,0,0,0-5.339,6.611c.084,2.013.058,4.06.033,6.039v.113c-.007.555-.014,1.129-.019,1.692a.612.612,0,0,0,.1.439.574.574,0,0,0,.421.107h.01c2.412-.012,4.752-.014,6.724-.014h10.847l-.034-.1-.015-.048c-.02-.064-.035-.108-.052-.15l-1.351-3.158-.066-.155c-1.716-4.012-3.49-8.161-5.219-12.247C-2336.4-3150.215-2336.523-3150.318-2336.706-3150.318Zm14.295,16.191c1.339,0,2.365,0,3.328.01h.009a.334.334,0,0,0,.257-.075.322.322,0,0,0,.029-.258,1.138,1.138,0,0,1-.012-.122,15.283,15.283,0,0,1,1.784-7.885,15.131,15.131,0,0,1,5.782-5.653.659.659,0,0,1,.078-.036l.006,0c.1-.039.194-.079.2-.225a5.653,5.653,0,0,0-1.411-.536l-.7-.154-.052-.011c-1.793-.394-3.647-.8-5.467-1.217a.952.952,0,0,0-.208-.028c-.2,0-.316.1-.431.374-1.176,2.786-2.377,5.59-3.539,8.3l-.767,1.791c-.555,1.3-1.112,2.6-1.677,3.912l-.111.258-.669,1.56h3.574Zm-9.09-20.023c-.148,0-.219.118-.293.323a4.8,4.8,0,0,1-2.067,2.534c-.344.209-.319.379-.185.692,1.592,3.7,3.209,7.477,4.774,11.129l.113.262,1.366,3.19c.024-.028.045-.05.064-.07l.005-.005a.339.339,0,0,0,.075-.095l1.572-3.673.1-.245c1.491-3.483,3.033-7.084,4.554-10.622.125-.291.029-.391-.2-.534a4.9,4.9,0,0,1-2-2.3c-.1-.236-.184-.319-.327-.319a.821.821,0,0,0-.259.057,9.741,9.741,0,0,1-3.216.565,9.581,9.581,0,0,1-3.8-.809A.751.751,0,0,0-2331.5-3154.15Zm-2.657-13.539a.573.573,0,0,0-.415.1.531.531,0,0,0-.1.394c.016.847.014,1.722.011,2.494,0,.639,0,1.3,0,1.953a7.266,7.266,0,0,0,6.672,7.1,6.4,6.4,0,0,0,.7.038,7.238,7.238,0,0,0,6.935-5.584,17.939,17.939,0,0,0,.241-4.351c-.022-.889-.045-1.8.011-2.718a7.944,7.944,0,0,1-3.412.583c-.183,0-.365,0-.546,0h-.07l-.474,0h-4.54c-1.932,0-3.521,0-5-.011Zm6.771-2.343c.406,0,.825.007,1.268.014h.158c.391.006.876.014,1.352.014.909,0,1.654-.027,2.344-.085a3.935,3.935,0,0,0,3.566-3.341,18.268,18.268,0,0,0,.11-3.172c-.014-.59-.028-1.2-.009-1.8a.3.3,0,0,0-.058-.225.2.2,0,0,0-.153-.052,1.016,1.016,0,0,0-.123.01.924.924,0,0,1-.115.01l-2.2-.005h-.163c-1.128,0-2.295-.006-3.441-.006-1.579,0-2.878.005-4.088.017a5.8,5.8,0,0,0-5.608,4.732,10.3,10.3,0,0,0-.106,2.1v.009c.008.418.015.851-.01,1.275a.523.523,0,0,0,.087.4.535.535,0,0,0,.407.11h.025c.768-.009,1.6-.012,2.708-.012h3.371C-2327.864-3170.029-2327.641-3170.031-2327.388-3170.031Z" transform="translate(2350 3181)" fill="#9f2300" stroke="rgba(0,0,0,0)" stroke-width="1"/>
    <path id="Subtraction_22" data-name="Subtraction 22" d="M-2343.139-3166.656a1.265,1.265,0,0,1-.886-.422c-1.788-1.77-3.6-3.584-5.548-5.546a1.145,1.145,0,0,1,.017-1.8c1.061-1.078,2.12-2.136,3.146-3.146a1.314,1.314,0,0,1,.9-.441,1.389,1.389,0,0,1,.939.458l.133.128c.33.317.672.644.98.994.122.138.212.2.3.2s.185-.058.323-.2c1.065-1.089,2.188-2.207,3.179-3.193l.79-.787a1.565,1.565,0,0,1,1.057-.585,1.559,1.559,0,0,1,1.042.572c.531.528,1.079,1.078,1.563,1.563q.687.689,1.376,1.377a1.325,1.325,0,0,1,.491,1.018,1.185,1.185,0,0,1-.406.876l-1.578,1.579c-2.148,2.15-4.583,4.588-6.954,6.946A1.241,1.241,0,0,1-2343.139-3166.656Zm-2.357-8.422c-.082,0-.165.051-.286.176-.32.331-.646.64-.991.967l-.033.032q-.194.184-.392.374l.972.964c.93.922,1.893,1.876,2.843,2.835a.357.357,0,0,0,.237.134c.094,0,.176-.075.273-.173,2.054-2.061,4.258-4.27,6.464-6.458a.41.41,0,0,0,.159-.279c0-.083-.052-.163-.176-.276a13.717,13.717,0,0,1-1.073-1.079c-.116-.134-.208-.194-.3-.194s-.208.083-.331.208c-1.184,1.206-2.486,2.51-4.1,4.1a1.326,1.326,0,0,1-.917.448,1.371,1.371,0,0,1-.932-.45l-.113-.109c-.35-.337-.711-.685-1.042-1.054C-2345.331-3175.026-2345.414-3175.078-2345.5-3175.078Z" transform="translate(2387.243 3219.745)" fill="#9f2300" stroke="rgba(0,0,0,0)" stroke-width="1"/>
    <path id="Path_4279" data-name="Path 4279" d="M460,461.1a1.185,1.185,0,0,1-1.19-1.117,1.156,1.156,0,0,1,1.135-1.218,1.176,1.176,0,0,1,1.2,1.164A1.2,1.2,0,0,1,460,461.1" transform="translate(-405.018 -404.981)" fill="#9f2300"/>
  </g>
</svg>
