<svg id="Group_3143" data-name="Group 3143" xmlns="http://www.w3.org/2000/svg" xmlns:xlink="http://www.w3.org/1999/xlink" width="46.113" height="60" viewBox="0 0 46.113 60">
  <defs>
    <clipPath id="clip-path">
      <rect id="Rectangle_2861" data-name="Rectangle 2861" width="46.113" height="60" fill="#f59d23"/>
    </clipPath>
  </defs>
  <g id="Group_3142" data-name="Group 3142" clip-path="url(#clip-path)">
    <path id="Subtraction_19" data-name="Subtraction 19" d="M-1100.94-1040h-40.308a3.327,3.327,0,0,1-2.695-2.695v-47.578a3.58,3.58,0,0,1,3.917-2.86h4.509c.741,0,.756-.016.784-.74.041-1.113.532-1.591,1.642-1.6.883-.006,1.616-.009,2.306-.009.874,0,1.652,0,2.379.014h.025a.907.907,0,0,0,.927-.589,7.254,7.254,0,0,1,3.512-3.467,4.78,4.78,0,0,1,1.2-.345l.01,0,.009,0c.173-.034.384-.074.581-.125h1.992c.192.033.387.058.586.083a4.913,4.913,0,0,1,1.566.38,7.245,7.245,0,0,1,3.461,3.363,1.066,1.066,0,0,0,1.093.692h.045c.658-.013,1.355-.019,2.132-.019.8,0,1.589.006,2.319.012,1.22.009,1.678.45,1.75,1.687.034.6.087.647.71.651.41,0,.877,0,1.512,0h1.852q.632,0,1.264,0a4.1,4.1,0,0,1,2.952,1.079,4.026,4.026,0,0,1,1.082,2.935c0,14.518,0,29.2,0,44.21v1.075a5.022,5.022,0,0,1-.062.934,3.377,3.377,0,0,1-3.047,2.914h0Zm-38.7-50.625h-.417c-1.172,0-1.548.373-1.548,1.535v22.61q0,11.364,0,22.727c0,.974.426,1.408,1.382,1.408h38.48a1.2,1.2,0,0,0,1.381-1.35c0-15.12,0-30.452,0-45.572a1.2,1.2,0,0,0-1.373-1.357q-1.084,0-2.167,0h-2.695c-.794,0-.794,0-.795.787,0,1.192-.373,1.556-1.588,1.557h-18.349q-2.949,0-5.9,0a1.2,1.2,0,0,1-1.35-1.323c0-.053,0-.106-.005-.16a2.259,2.259,0,0,1,.01-.424.416.416,0,0,0-.049-.341c-.063-.073-.172-.1-.378-.1h-.024c-.685.008-1.415.011-2.367.011h-2.253Zm28.088-.005h.01a5.045,5.045,0,0,1,.55.044l.033,0a5.02,5.02,0,0,0,.539.042.727.727,0,0,0,.6-.2,1.6,1.6,0,0,0,.123-1.093,4.434,4.434,0,0,1-.025-.663.487.487,0,0,0-.078-.378.481.481,0,0,0-.371-.1h-.028c-.7.01-1.445.014-2.351.014l-1.289,0h-.531l-.692,0a1.205,1.205,0,0,1-1.347-1.03,4.719,4.719,0,0,0-4.567-3.656,4.71,4.71,0,0,0-4.572,3.65,1.208,1.208,0,0,1-1.344,1.037h-1.445l-.76,0c-.513,0-.929,0-1.31.008h-.031a4.974,4.974,0,0,1-.538-.042h-.007l-.033,0a4.9,4.9,0,0,0-.519-.04.766.766,0,0,0-.606.2c-.191.209-.157.607-.121,1.029a4.221,4.221,0,0,1,.024.665.537.537,0,0,0,.079.427c.073.081.2.116.438.116h.016c1.976-.012,3.913-.013,5.713-.013h10.07C-1114.079-1090.624-1112.772-1090.625-1111.548-1090.63Z" transform="translate(1143.944 1100)" fill="#f59d23" stroke="rgba(0,0,0,0)" stroke-width="1"/>
    <path id="Path_4186" data-name="Path 4186" d="M148,124.458q3.57,0,7.141,0c.88,0,1.431.472,1.413,1.2-.018.705-.552,1.144-1.409,1.144q-7.14,0-14.281,0c-.881,0-1.43-.471-1.412-1.2.017-.707.548-1.142,1.409-1.143q3.57,0,7.141,0" transform="translate(-117.655 -105.004)" fill="#f59d23"/>
    <path id="Path_4187" data-name="Path 4187" d="M148.009,199.433q3.57,0,7.141,0c.858,0,1.39.44,1.4,1.147.015.728-.533,1.195-1.416,1.2q-7.141,0-14.281,0c-.858,0-1.39-.44-1.4-1.148-.015-.727.533-1.194,1.416-1.194q3.57,0,7.141,0" transform="translate(-117.656 -168.261)" fill="#f59d23"/>
    <path id="Path_4188" data-name="Path 4188" d="M148.032,274.4c2.419,0,4.838,0,7.258,0a1.171,1.171,0,0,1,.228,2.331,2.118,2.118,0,0,1-.292.01q-7.228,0-14.457,0a1.194,1.194,0,0,1-1.319-1.115,1.179,1.179,0,0,1,1.033-1.216,4.131,4.131,0,0,1,.526-.011h7.024" transform="translate(-117.652 -231.507)" fill="#f59d23"/>
    <path id="Subtraction_20" data-name="Subtraction 20" d="M-1140.44-1092.97h-.041a3.519,3.519,0,0,1-3.462-3.537,3.524,3.524,0,0,1,3.524-3.493h.041a3.522,3.522,0,0,1,3.464,3.536A3.527,3.527,0,0,1-1140.44-1092.97Zm.012-4.685h-.019a1.178,1.178,0,0,0-1.152,1.157,1.16,1.16,0,0,0,.342.832,1.157,1.157,0,0,0,.826.35h.019a1.174,1.174,0,0,0,.828-.371,1.172,1.172,0,0,0,.324-.846,1.181,1.181,0,0,0-1.168-1.122Z" transform="translate(1150.975 1142.891)" fill="#f59d23" stroke="rgba(0,0,0,0)" stroke-width="1"/>
    <path id="Path_4190" data-name="Path 4190" d="M145.661,229.423q2.4,0,4.8,0c.858,0,1.391.438,1.408,1.143.017.727-.533,1.2-1.412,1.2q-4.8,0-9.6,0c-.859,0-1.39-.437-1.408-1.144-.018-.728.53-1.2,1.411-1.2q2.4,0,4.8,0" transform="translate(-117.655 -193.563)" fill="#f59d23"/>
    <path id="Path_4191" data-name="Path 4191" d="M145.717,304.4c1.6,0,3.2,0,4.8,0a1.183,1.183,0,1,1,0,2.341q-4.856.005-9.713,0a1.183,1.183,0,1,1,0-2.341c1.638,0,3.277,0,4.915,0" transform="translate(-117.656 -256.818)" fill="#f59d23"/>
    <path id="Path_4192" data-name="Path 4192" d="M48.507,131.485a1.262,1.262,0,0,1-.933-.421c-.733-.73-1.473-1.455-2.192-2.2a1.173,1.173,0,1,1,1.652-1.658c.4.374.793.755,1.157,1.162.234.261.373.214.6-.014,1.122-1.142,2.262-2.266,3.391-3.4a1.3,1.3,0,0,1,1.192-.483,1.161,1.161,0,0,1,.64,1.949c-.545.611-1.147,1.171-1.727,1.751q-1.406,1.41-2.815,2.818a1.408,1.408,0,0,1-.962.494" transform="translate(-37.937 -105.002)" fill="#f59d23"/>
    <path id="Path_4193" data-name="Path 4193" d="M46.046,201.777a1.269,1.269,0,0,1,.95.391,13.755,13.755,0,0,1,1.07,1.082c.315.384.511.287.81-.02,1.089-1.12,2.2-2.214,3.307-3.32a1.2,1.2,0,0,1,1.365-.4,1.149,1.149,0,0,1,.383,1.956c-.834.876-1.705,1.718-2.561,2.575-.648.649-1.291,1.3-1.948,1.945a1.182,1.182,0,0,1-1.89.026q-1.132-1.1-2.232-2.241a1.092,1.092,0,0,1-.246-1.292,1.147,1.147,0,0,1,.992-.707" transform="translate(-37.917 -168.26)" fill="#f59d23"/>
    <path id="Path_4194" data-name="Path 4194" d="M144.445,156.786c-1.209,0-2.418,0-3.627,0-.835,0-1.374-.477-1.364-1.187a1.194,1.194,0,0,1,1.337-1.154q3.685-.006,7.37,0c.839,0,1.375.474,1.364,1.186s-.545,1.153-1.4,1.156c-1.229,0-2.457,0-3.685,0" transform="translate(-117.657 -130.301)" fill="#f59d23"/>
    <path id="Path_4195" data-name="Path 4195" d="M221.256,155.642a1.17,1.17,0,1,1-1.123-1.187,1.186,1.186,0,0,1,1.123,1.187" transform="translate(-184.7 -130.313)" fill="#f59d23"/>
  </g>
</svg>
