<svg id="Group_3159" data-name="Group 3159" xmlns="http://www.w3.org/2000/svg" xmlns:xlink="http://www.w3.org/1999/xlink" width="60" height="53.824" viewBox="0 0 60 53.824">
  <defs>
    <clipPath id="clip-path">
      <rect id="Rectangle_2869" data-name="Rectangle 2869" width="60" height="53.824" fill="#9f2300"/>
    </clipPath>
  </defs>
  <g id="Group_3158" data-name="Group 3158" clip-path="url(#clip-path)">
    <path id="Subtraction_27" data-name="Subtraction 27" d="M-2320.006-3442.264c-.767,0-1.526,0-2.256-.011a1.151,1.151,0,0,1-1.252-1.291c-.011-.968-.01-1.708,0-2.4a.433.433,0,0,0-.349-.5,10.841,10.841,0,0,1-3.763-2.19.452.452,0,0,0-.3-.143.576.576,0,0,0-.3.107c-.592.362-1.231.732-2.073,1.2a1.59,1.59,0,0,1-.762.23,1.2,1.2,0,0,1-1.023-.7c-.779-1.321-1.526-2.615-2.221-3.845a1.159,1.159,0,0,1,.5-1.772l.027-.016c.648-.385,1.318-.783,2-1.149.314-.167.4-.347.293-.641a1.3,1.3,0,0,1-.094-.456.5.5,0,0,0-.1-.379.589.589,0,0,0-.447-.122h-.023c-1.128.01-2.277.016-3.414.016-.888,0-1.79,0-2.679-.01a11.808,11.808,0,0,1-7.345-2.544,11.836,11.836,0,0,1-4.133-6.583,3.944,3.944,0,0,1-.069-.421,2.055,2.055,0,0,0-.213-.8v-2.579a2.166,2.166,0,0,0,.2-.75,3.512,3.512,0,0,1,.09-.473,12.264,12.264,0,0,1,3.353-5.677,13.992,13.992,0,0,1,5.787-3.142.952.952,0,0,0,.815-.888,8.218,8.218,0,0,1,2.858-4.755,8.17,8.17,0,0,1,5.136-1.82,8.423,8.423,0,0,1,1.742.184,1.232,1.232,0,0,0,.251.031c.26,0,.358-.13.493-.442a15.121,15.121,0,0,1,5.6-6.67,1.424,1.424,0,0,1,.791-.278,1.141,1.141,0,0,1,.626.2,1.111,1.111,0,0,1,.5,1.165,1.172,1.172,0,0,1-.581.836,13.007,13.007,0,0,0-5.309,7.052,1.081,1.081,0,0,1-1.069.88,2.117,2.117,0,0,1-.76-.165,6.349,6.349,0,0,0-2.314-.446,5.747,5.747,0,0,0-4.993,2.891,5.812,5.812,0,0,0-.8,2.718c-.045,1.108-.3,1.4-1.389,1.564a10.4,10.4,0,0,0-6.841,4,8.587,8.587,0,0,0-1.358,8.227,9.5,9.5,0,0,0,6.618,6.074,9.56,9.56,0,0,0,2.318.268h3.019c1.224,0,2.154,0,3.017.011h.019c.366,0,.507-.073.619-.5a.949.949,0,0,0-.609-1.3,13.4,13.4,0,0,1-1.378-.77l0,0-.294-.179a1.15,1.15,0,0,1-.475-1.737c.717-1.274,1.472-2.586,2.246-3.9a1.158,1.158,0,0,1,1-.669,1.563,1.563,0,0,1,.748.223c.7.387,1.413.8,2.126,1.227a.518.518,0,0,0,.265.094.429.429,0,0,0,.284-.135,11.063,11.063,0,0,1,3.814-2.218.4.4,0,0,0,.318-.462c-.013-.874-.009-1.743,0-2.4a1.189,1.189,0,0,1,1.292-1.329c.736-.01,1.476-.015,2.2-.015.754,0,1.511.005,2.252.016a1.189,1.189,0,0,1,1.284,1.336v.021c.007.758.014,1.542-.006,2.323a.464.464,0,0,0,.384.535,10.713,10.713,0,0,1,3.666,2.128.581.581,0,0,0,.384.183.7.7,0,0,0,.363-.132c.618-.379,1.28-.762,2.022-1.173a1.552,1.552,0,0,1,.74-.22,1.167,1.167,0,0,1,1,.678c.773,1.311,1.53,2.623,2.247,3.9a1.152,1.152,0,0,1-.49,1.734l-.1.059c-.625.375-1.27.762-1.929,1.1a.506.506,0,0,0-.31.688,2.626,2.626,0,0,1,.107.574c.011.191.064.318.284.318h.026c.264-.01.541-.016.848-.016.49,0,.989.013,1.472.026.468.013.994.027,1.5.027a12.48,12.48,0,0,0,3.638-.448c4.453-1.363,7.171-4.166,8.079-8.332.741-3.4-.377-6.5-3.322-9.228a11.768,11.768,0,0,0-5.42-2.857c-.844-.2-1.119-.545-1.129-1.441a12.8,12.8,0,0,0-11.465-12.8,1.185,1.185,0,0,1-1.18-1.312,1.166,1.166,0,0,1,1.262-1.03,1.845,1.845,0,0,1,.186.01,15.053,15.053,0,0,1,8.778,4.089,15,15,0,0,1,4.551,8.534,1.057,1.057,0,0,0,.029.121l0,.007a.544.544,0,0,1,.033.216c-.158,1.206.506,1.574,1.619,2.037a14.663,14.663,0,0,1,5.5,3.827,13.294,13.294,0,0,1,2.938,6.05,1.394,1.394,0,0,1,.022.258.7.7,0,0,0,.149.509v2.7a1.515,1.515,0,0,0-.226.74,2.875,2.875,0,0,1-.072.41,13.615,13.615,0,0,1-3.846,6.546,15.225,15.225,0,0,1-6.768,3.435,11.654,11.654,0,0,1-2.8.274h-3.682c-.933,0-.933,0-1.113.849l-.01.049a.559.559,0,0,0,.355.724c.614.319,1.219.683,1.8,1.035l.006,0,.163.1a1.165,1.165,0,0,1,.484,1.778c-.7,1.239-1.428,2.5-2.222,3.845a1.185,1.185,0,0,1-1.016.69,1.518,1.518,0,0,1-.722-.213c-.77-.423-1.465-.825-2.124-1.229a.535.535,0,0,0-.277-.1.486.486,0,0,0-.321.156,11.086,11.086,0,0,1-3.764,2.188.425.425,0,0,0-.34.5c.012.746.013,1.532,0,2.4a1.153,1.153,0,0,1-1.265,1.279C-2318.5-3442.267-2319.254-3442.264-2320.006-3442.264Zm-7.658-9.25c.321,0,.609.163,1.028.583a8.328,8.328,0,0,0,3.685,2.288c1.8.5,1.8.816,1.784,2.152,0,.147,0,.314,0,.493a2.036,2.036,0,0,1-.024.465c-.04.327-.081.662.125.846a.7.7,0,0,0,.475.125c.135,0,.283-.013.425-.026s.287-.025.419-.025h.072l.139,0h.058l.111,0a1.627,1.627,0,0,1,.184.009.894.894,0,0,0,.093.006.265.265,0,0,0,.2-.066.393.393,0,0,0,.071-.292c-.018-.6-.013-1.211-.008-1.8l0-.3a1.179,1.179,0,0,1,.986-1.321,9.659,9.659,0,0,0,4.637-2.69,1.22,1.22,0,0,1,.876-.434,1.483,1.483,0,0,1,.712.215l.129.071.006,0c.56.309,1.138.629,1.684.98a.592.592,0,0,0,.3.118c.117,0,.2-.082.307-.293a12.545,12.545,0,0,1,.762-1.312.4.4,0,0,0,.094-.3c-.021-.08-.092-.148-.238-.226-.639-.342-1.277-.718-1.875-1.074a1.154,1.154,0,0,1-.615-1.481,8.638,8.638,0,0,0,0-5.346,1.163,1.163,0,0,1,.66-1.512l.045-.027.023-.014c.572-.337,1.163-.686,1.756-1.006.153-.083.224-.149.245-.23a.392.392,0,0,0-.093-.3,14.535,14.535,0,0,1-.788-1.365c-.086-.171-.172-.247-.279-.247a.6.6,0,0,0-.3.118c-.553.344-1.165.7-1.87,1.084a1.389,1.389,0,0,1-.663.187,1.142,1.142,0,0,1-.835-.386,9.672,9.672,0,0,0-4.732-2.749,1.145,1.145,0,0,1-.934-1.244c-.01-.826-.01-1.515,0-2.167a.407.407,0,0,0-.073-.307.318.318,0,0,0-.238-.072h-.038c-.259.01-.529.016-.8.016s-.552,0-.837-.015h-.039a.338.338,0,0,0-.253.075.386.386,0,0,0-.073.29c.016.662.011,1.326.006,1.969v.139a1.205,1.205,0,0,1-1.035,1.347,9.523,9.523,0,0,0-4.541,2.627,1.279,1.279,0,0,1-.913.477,1.687,1.687,0,0,1-.818-.27l-.1-.06-.185-.1c-.463-.262-.987-.559-1.477-.863a.52.52,0,0,0-.258-.1c-.1,0-.185.073-.271.244-.225.44-.49.9-.787,1.365a.413.413,0,0,0-.1.313c.021.079.092.147.231.222.625.332,1.246.7,1.845,1.057l.029.018a1.155,1.155,0,0,1,.621,1.478,8.632,8.632,0,0,0,0,5.346,1.167,1.167,0,0,1-.654,1.516c-.577.343-1.2.707-1.823,1.047-.156.084-.228.152-.249.233a.388.388,0,0,0,.088.295c.278.428.546.891.82,1.415.079.151.152.215.245.215a.492.492,0,0,0,.245-.1c.417-.26.865-.516,1.26-.742l.01-.006.393-.225A1.937,1.937,0,0,1-2327.665-3451.513Z" transform="translate(2350 3496.088)" fill="#9f2300" stroke="rgba(0,0,0,0)" stroke-width="1"/>
    <path id="Path_4297" data-name="Path 4297" d="M259.064,4.7a1.159,1.159,0,0,1-1.152-1.145,1.171,1.171,0,0,1,2.341-.022A1.159,1.159,0,0,1,259.064,4.7" transform="translate(-227.676 -2.095)" fill="#9f2300"/>
    <path id="Subtraction_28" data-name="Subtraction 28" d="M-2344.134-3484.38h-.028a5.832,5.832,0,0,1-4.153-1.747,5.817,5.817,0,0,1-1.686-4.166,5.881,5.881,0,0,1,5.85-5.8h.018a5.8,5.8,0,0,1,4.136,1.731,5.821,5.821,0,0,1,1.712,4.163A5.862,5.862,0,0,1-2344.134-3484.38Zm-.018-9.365a3.517,3.517,0,0,0-3.5,3.464,3.5,3.5,0,0,0,1.006,2.507,3.494,3.494,0,0,0,2.487,1.049h.023a3.519,3.519,0,0,0,3.514-3.452,3.5,3.5,0,0,0-1.005-2.5,3.5,3.5,0,0,0-2.488-1.063Z" transform="translate(2374.141 3528.822)" fill="#9f2300" stroke="rgba(0,0,0,0)" stroke-width="1"/>
  </g>
</svg>
