<svg id="Group_3141" data-name="Group 3141" xmlns="http://www.w3.org/2000/svg" xmlns:xlink="http://www.w3.org/1999/xlink" width="60" height="58.02" viewBox="0 0 60 58.02">
  <defs>
    <clipPath id="clip-path">
      <rect id="Rectangle_2860" data-name="Rectangle 2860" width="60" height="58.02" fill="#f59d23"/>
    </clipPath>
  </defs>
  <g id="Group_3140" data-name="Group 3140" clip-path="url(#clip-path)">
    <path id="Subtraction_17" data-name="Subtraction 17" d="M-1094.318-644.959h-25.07a2.236,2.236,0,0,1-1.768-.527,2.27,2.27,0,0,1-.243-1.876,7.839,7.839,0,0,1,2.419-4.609,7.79,7.79,0,0,1,4.789-2.01c.64-.044.679-.086.684-.742.007-.952.007-1.917,0-2.87,0-.668-.06-.722-.75-.723-1.111,0-2.306,0-3.875,0h-3.917l-3.021,0h-.061l-3.082,0c-1.71,0-3.177,0-4.615.01h-.03a4.345,4.345,0,0,1-3.477-1.694,3.454,3.454,0,0,1-.667-1.771v-37.849a3.994,3.994,0,0,1,4.282-3.347h16.353c10.905,0,23.265,0,35.086-.006a4.318,4.318,0,0,1,3.854,2.032,2.538,2.538,0,0,1,.332,1v.006c.027.149.055.294.092.435v37.849a3.989,3.989,0,0,1-4.284,3.34q-3.9,0-7.791,0h-10.252l-.135,0h-.138l-.129,0c-.06,0-.12,0-.183,0h-.053a.524.524,0,0,0-.393.131.632.632,0,0,0-.139.471c.011,1.069.011,2.114,0,3.105-.005.429.164.6.624.635a8,8,0,0,1,4.9,2.043,7.821,7.821,0,0,1,2.395,4.682,4.138,4.138,0,0,1,.047.817,1.4,1.4,0,0,1-1.429,1.465C-1094.088-644.96-1094.212-644.959-1094.318-644.959Zm-12.642-6.518c-2.352,0-4.748.011-7.12.033a5,5,0,0,0-4.688,3.949h23.528a4.933,4.933,0,0,0-4.676-3.949C-1102.237-651.466-1104.607-651.477-1106.96-651.477Zm-3.652-7.025a.409.409,0,0,0-.3.079.413.413,0,0,0-.076.308c.017,1.269.017,2.589,0,3.924a.421.421,0,0,0,.077.312.39.39,0,0,0,.288.078h.022c.493-.007,1.017-.011,1.7-.011h3.827c.671,0,1.189,0,1.681.01h.023a.389.389,0,0,0,.291-.079.413.413,0,0,0,.077-.309c-.017-1.269-.017-2.589,0-3.924a.418.418,0,0,0-.077-.31.407.407,0,0,0-.3-.08h-.009c-1.151.006-2.341.009-3.535.009s-2.429,0-3.67-.009Zm-23.786-7.034a.257.257,0,0,0-.193.064.392.392,0,0,0-.072.3c.014.54.011,1.085.008,1.613v.02q0,.327,0,.652c0,1.477.576,2.053,2.052,2.053h51.2c1.46,0,2.056-.594,2.056-2.049v-35.5c0-1.481-.574-2.057-2.047-2.057h-51.2c-1.483,0-2.061.573-2.061,2.043v6.781c0,7.57,0,15.4-.011,23.1a.748.748,0,0,0,.127.539.7.7,0,0,0,.514.131c11.347-.013,22.572-.014,32.056-.014h13.938a1.89,1.89,0,0,1,1.378.417,1.037,1.037,0,0,1,.276.777c-.016.763-.568,1.15-1.641,1.15h-45.873l-.083,0h-.043l-.126,0a1.172,1.172,0,0,1-.158-.009A.961.961,0,0,0-1134.4-665.536Z" transform="translate(1137 702.979)" fill="#f59d23" stroke="rgba(0,0,0,0)" stroke-width="1"/>
    <path id="Subtraction_16" data-name="Subtraction 16" d="M-1125.728-679.05a1.5,1.5,0,0,1-1.019-.549c-2.79-2.787-5.78-5.775-9.692-9.691a1.229,1.229,0,0,1-.018-2.052c1.756-1.762,3.341-3.347,4.846-4.846a1.551,1.551,0,0,1,1.042-.57,1.574,1.574,0,0,1,1.055.579l.788.784c.871.865,1.771,1.76,2.644,2.66.154.159.254.221.355.221s.2-.063.356-.217c2.494-2.514,5.032-5.05,7.486-7.5l2.115-2.114a1.65,1.65,0,0,1,1.1-.633,1.684,1.684,0,0,1,1.119.645l1.84,1.84.078.078c.932.933,1.9,1.9,2.846,2.844a1.393,1.393,0,0,1,.526.944,1.431,1.431,0,0,1-.527,1.12c-3.668,3.662-7.4,7.392-11,11l-.241.241-1.183,1.183-1.238,1.239c-.652.653-1.464,1.465-2.241,2.239A1.53,1.53,0,0,1-1125.728-679.05Zm-4.842-14.746c-.1,0-.2.062-.339.206-.914.953-1.876,1.915-2.857,2.858-.152.146-.253.271-.254.406,0,.116.071.236.239.4,1.638,1.609,3.287,3.261,4.882,4.859l0,0,.166.166,1.173,1.175c.4.4.8.807,1.19,1.2l.005.006.082.083.547.554,2.818-2.819c3.787-3.788,7.7-7.7,11.6-11.588a.4.4,0,0,0,.149-.26c0-.1-.08-.184-.183-.286l-.3-.292c-.873-.86-1.776-1.749-2.637-2.655-.158-.166-.266-.234-.374-.234-.123,0-.242.095-.383.237-2.88,2.9-5.82,5.838-8.664,8.677l-.982.981a1.525,1.525,0,0,1-1.038.559,1.5,1.5,0,0,1-1.02-.544l-.472-.469c-.989-.984-2.011-2-3-3.016C-1130.371-693.735-1130.471-693.8-1130.57-693.8Z" transform="translate(1152.603 709.834)" fill="#f59d23" stroke="rgba(0,0,0,0)" stroke-width="1"/>
    <path id="Path_4180" data-name="Path 4180" d="M454.194,300.65a1.17,1.17,0,1,1-1.162-1.148,1.184,1.184,0,0,1,1.162,1.148" transform="translate(-398.884 -264.391)" fill="#f59d23"/>
    <path id="Path_4181" data-name="Path 4181" d="M248.271,329.666a1.171,1.171,0,1,1-1.187-1.182,1.177,1.177,0,0,1,1.187,1.182" transform="translate(-217.099 -289.976)" fill="#f59d23"/>
  </g>
</svg>
