<svg id="Group_3145" data-name="Group 3145" xmlns="http://www.w3.org/2000/svg" xmlns:xlink="http://www.w3.org/1999/xlink" width="60" height="60.004" viewBox="0 0 60 60.004">
  <defs>
    <clipPath id="clip-path">
      <rect id="Rectangle_2862" data-name="Rectangle 2862" width="60" height="60.004" fill="#9f2300"/>
    </clipPath>
  </defs>
  <g id="Group_3144" data-name="Group 3144" clip-path="url(#clip-path)">
    <path id="Subtraction_29" data-name="Subtraction 29" d="M-2318.242-3589h-3.75a18.422,18.422,0,0,1-4.278-.833,20.75,20.75,0,0,1-6.946-3.89,18.569,18.569,0,0,1-3.368-3.714,1.2,1.2,0,0,0-1.122-.549h-.011c-.73,0-1.523,0-2.57,0h-2.387c-1.178,0-2.43,0-3.644.007h-.02a3.8,3.8,0,0,1-3.153-1.689,2.777,2.777,0,0,1-.455-1.249c-.017-.092-.034-.183-.053-.274v-44.886a3.6,3.6,0,0,1,2.929-2.93h53.906a3.468,3.468,0,0,1,2.894,2.05,2.262,2.262,0,0,1,.18.61,3.479,3.479,0,0,0,.09.387v44.769a3.51,3.51,0,0,1-2.258,2.945,3.069,3.069,0,0,1-1.353.264h-4.631c-1.179,0-2.574,0-3.982-.011h-.016a1.384,1.384,0,0,0-1.244.648,20.588,20.588,0,0,1-5.423,5.225,20.86,20.86,0,0,1-6.968,2.865,8.4,8.4,0,0,1-1.279.145h-.007a9.834,9.834,0,0,0-1.08.107Zm-18.359-30.529a1.08,1.08,0,0,1,.858.42,1.206,1.206,0,0,1,.053,1.469,17.946,17.946,0,0,0-1.776,11.962,17.918,17.918,0,0,0,17.459,14.363,16.876,16.876,0,0,0,3.8-.434,17.788,17.788,0,0,0,13.667-20.947,17.883,17.883,0,0,0-16.874-14.282c-.153,0-.309-.005-.462-.005a17.882,17.882,0,0,0-8.543,2.1,1.714,1.714,0,0,1-.785.258.937.937,0,0,1-.274-.042,1.116,1.116,0,0,1-.866-.991,1.185,1.185,0,0,1,.749-1.263,20.234,20.234,0,0,1,9.526-2.424,21.085,21.085,0,0,1,3.508.3,19.774,19.774,0,0,1,7.9,3.184,20.106,20.106,0,0,1,5.7,5.922,20.173,20.173,0,0,1,2.9,7.731,19.9,19.9,0,0,1-.541,8.546,28.359,28.359,0,0,1-1.18,3.192l.142.018a1.634,1.634,0,0,0,.2.02l1.706,0,2.643,0c1.218,0,2.219,0,3.15-.007,1.072-.006,1.593-.546,1.593-1.651q0-2.489,0-4.979v-2.48c0-7.944,0-16.159.011-24.239,0-.441-.106-.549-.541-.549-9.188.007-18.314.01-27.126.01s-17.938,0-27.126-.01a.589.589,0,0,0-.434.108c-.077.077-.107.2-.106.44.01,7.985.01,16.1.01,23.95v2.547q0,2.6,0,5.2c0,1.1.521,1.645,1.593,1.651.938,0,1.907.005,2.819.005h2.062c.683,0,1.584,0,2.5.006h.018c.2,0,.3-.025.344-.087s.021-.167-.071-.368a19.571,19.571,0,0,1-1.711-6.644,20.245,20.245,0,0,1,2.407-11.336,1.156,1.156,0,0,1,.738-.619A1.426,1.426,0,0,1-2336.6-3619.525Zm26.028-17.141c5.616,0,11.64,0,17.643.013h.006c.257,0,.4-.035.48-.119s.116-.224.114-.483c-.019-1.8-.017-3.63-.015-5.4q0-1.17,0-2.34a1.453,1.453,0,0,0-1.64-1.665h-52.031a1.453,1.453,0,0,0-1.639,1.666q0,1.158,0,2.317c0,1.753,0,3.567-.016,5.359a.709.709,0,0,0,.126.528.711.711,0,0,0,.527.133h.006c5.787-.012,11.714-.013,16.748-.013h19.69Z" transform="translate(2350 3649)" fill="#9f2300" stroke="rgba(0,0,0,0)" stroke-width="1"/>
    <path id="Subtraction_30" data-name="Subtraction 30" d="M-2339.929-3622.058c-.175,0-.354,0-.532-.014a10.014,10.014,0,0,1-9.346-8.17,9.739,9.739,0,0,1-.178-1.686c-.017-1.643-.018-3.137,0-4.569a3.034,3.034,0,0,1,2.1-3c.381-.127.444-.3.45-.656.006-.377,0-.76-.01-1.129a13.277,13.277,0,0,1,.117-2.611,6.183,6.183,0,0,1,2.034-3.54,6,6,0,0,1,3.765-1.516c.231-.006.463-.014.7-.022.444-.016.9-.032,1.356-.032a10.993,10.993,0,0,1,1.981.153,6.252,6.252,0,0,1,5.058,5.923c.018.831.019,1.716,0,2.87a.446.446,0,0,0,.373.527,3.071,3.071,0,0,1,2.171,3.01c.011.528.009,1.066.006,1.586v.044c0,.238,0,.475,0,.713q0,.241,0,.482a15.388,15.388,0,0,1-.425,4.453A10.082,10.082,0,0,1-2339.929-3622.058Zm-3.824-15.287h-2.862c-.758,0-1.029.266-1.035,1.011-.005.643,0,1.3,0,1.93v.706c0,.154,0,.307,0,.461a12.922,12.922,0,0,0,.214,2.919,7.692,7.692,0,0,0,7.467,5.915c.136,0,.28,0,.43-.013a7.709,7.709,0,0,0,7.232-6.813,29.807,29.807,0,0,0,.077-3.339c-.008-.558-.016-1.131-.008-1.695a1.145,1.145,0,0,0-.219-.85,1.15,1.15,0,0,0-.859-.233h-10.434Zm3.8-9.287c-.454,0-.912.006-1.362.018a3.894,3.894,0,0,0-3.784,3.835c-.007.366,0,.739,0,1.1v.018c0,.5.007,1.009-.014,1.516a.486.486,0,0,0,.085.369.5.5,0,0,0,.373.1h.034c.645-.008,1.326-.011,2.208-.011h4.9c.91,0,1.605,0,2.253.01h.037a.5.5,0,0,0,.373-.1.484.484,0,0,0,.084-.367c-.022-.515-.018-1.035-.015-1.539,0-.357,0-.726,0-1.094a3.89,3.89,0,0,0-3.783-3.836C-2339.02-3646.625-2339.487-3646.632-2339.957-3646.632Z" transform="translate(2369.943 3675.315)" fill="#9f2300" stroke="rgba(0,0,0,0)" stroke-width="1"/>
    <path id="Path_4201" data-name="Path 4201" d="M99.629,163.676a1.171,1.171,0,0,1-1.16-1.145,1.207,1.207,0,0,1,1.188-1.19,1.164,1.164,0,0,1,1.142,1.218,1.133,1.133,0,0,1-1.17,1.117" transform="translate(-83.077 -136.122)" fill="#9f2300"/>
    <path id="Path_4202" data-name="Path 4202" d="M55.149,39.526H63.52a4.952,4.952,0,0,1,.584.017,1.154,1.154,0,0,1,.223,2.232,2.61,2.61,0,0,1-.749.091q-8.429.007-16.859,0a3.06,3.06,0,0,1-.582-.04,1.169,1.169,0,0,1-.98-1.2,1.148,1.148,0,0,1,1.152-1.094c.721-.021,1.444-.007,2.166-.007h6.673" transform="translate(-38.098 -33.344)" fill="#9f2300"/>
    <path id="Path_4203" data-name="Path 4203" d="M242.8,40.723a1.127,1.127,0,0,1,1.137-1.149,1.165,1.165,0,0,1,1.2,1.161,1.2,1.2,0,0,1-1.153,1.167,1.169,1.169,0,0,1-1.184-1.179" transform="translate(-204.847 -33.388)" fill="#9f2300"/>
    <path id="Path_4204" data-name="Path 4204" d="M323.736,40.761a1.123,1.123,0,0,1,1.1-1.179,1.161,1.161,0,0,1,1.23,1.129,1.2,1.2,0,0,1-1.179,1.2,1.167,1.167,0,0,1-1.155-1.148" transform="translate(-273.132 -33.394)" fill="#9f2300"/>
    <path id="Path_4205" data-name="Path 4205" d="M283.263,40.706a1.132,1.132,0,0,1,1.21-1.134,1.169,1.169,0,0,1,1.126,1.176,1.2,1.2,0,0,1-1.167,1.152,1.17,1.17,0,0,1-1.169-1.194" transform="translate(-238.986 -33.386)" fill="#9f2300"/>
    <path id="Path_4208" data-name="Path 4208" d="M186.731,267.818c0,.449.014.9,0,1.346a1.168,1.168,0,1,1-2.336-.026q-.022-1.345,0-2.692a1.168,1.168,0,1,1,2.336-.032c.018.468,0,.936,0,1.4" transform="translate(-155.561 -223.778)" fill="#9f2300"/>
  </g>
</svg>
