<svg xmlns="http://www.w3.org/2000/svg" width="384.95" height="394.201" viewBox="0 0 384.95 394.201">
  <g id="Group_5236" data-name="Group 5236" transform="translate(0 -5.402)">
    <path id="Path_3849" data-name="Path 3849" d="M171.1,412.718q-6.692,0-13.276-.569C116.49,408.475,80.294,388.091,53.152,353.4h0C22.839,314.583,11.094,265.921,20.1,216.492c8.6-47.263,35.409-92.973,75.455-129.017C140.5,47.211,194.635,26.631,244.107,31.027,285.465,34.7,321.661,55.085,348.8,89.75c30.313,38.821,42.036,87.484,33.047,136.912-8.6,47.263-35.409,93.083-75.5,129.038C265.431,392.378,216.834,412.718,171.1,412.718ZM65.246,343.978c24.452,31.319,56.864,49.6,94.045,52.884,45.273,4,95.16-15.157,136.934-52.49,37.552-33.681,62.638-76.417,70.643-120.29,8.311-45.754-2.187-88.883-30.051-124.664-24.452-31.319-56.864-49.6-94.045-52.906-45.251-3.915-95.16,15.157-136.912,52.6C68.286,132.792,43.2,175.528,35.218,219.4c-8.333,45.754,2.056,88.883,30.051,124.664Z" transform="translate(-8.666 -18.889)" fill="#9f2300"/>
    <path id="Path_3850" data-name="Path 3850" d="M238.493,421.831c-51.112,0-106.249-27.47-151.325-75.367h0C4.19,258.193-6.92,146.542,60.223,74.806,89.093,43.989,125.4,27.674,165.2,27.63h.153c51.09,0,106.227,27.47,151.3,75.367,83.109,88.271,94.045,199.966,27.011,271.658-28.87,30.816-65.175,47.132-104.98,47.176ZM165.335,42.961h-.153c-35.431,0-67.8,14.675-93.761,42.342-31.057,33.134-44.31,75.258-38.362,121.8,5.686,44.42,28.891,90.086,65.46,128.842h0c42.167,44.835,93.258,70.534,140.149,70.534h.131c35.431,0,67.8-14.675,93.761-42.32,31.057-33.134,44.332-75.258,38.362-121.8-5.686-44.332-28.891-90.108-65.35-128.842C263.295,68.682,212.248,42.961,165.335,42.961Z" transform="translate(-9.439 -22.228)" fill="#f8c91c"/>
    <g id="Group_5235" data-name="Group 5235">
      <path id="Path_3851" data-name="Path 3851" d="M176.23,369.049c-40.9,0-78.473-13.276-108.042-38.58C32.779,300.155,13.27,256.107,13.27,206.242S32.779,112.306,68.188,81.928C105.04,50.412,154.315,37.573,206.959,45.8c50.7,7.917,98.419,28.651,134.4,58.373,36.7,30.357,56.864,66.575,56.864,102.006s-20.209,71.649-56.864,101.984c-35.956,29.657-83.722,50.456-134.4,58.4a200.809,200.809,0,0,1-30.729,2.493Zm0-310.283c-37.181,0-71.387,12.007-98.135,34.993C46.142,121.1,28.536,161.1,28.536,206.351s17.5,85.3,49.559,112.57c33.375,28.585,78.276,40.177,126.414,32.653,98.419-15.31,178.357-80.529,178.357-145.223S302.863,76.5,204.509,61.128A182.115,182.115,0,0,0,176.3,58.766Z" transform="translate(-13.27 -3.542)" fill="#f59d23"/>
    </g>
  </g>
</svg>
