<svg xmlns="http://www.w3.org/2000/svg" xmlns:xlink="http://www.w3.org/1999/xlink" width="555.931" height="350.835" viewBox="0 0 555.931 350.835">
  <defs>
    <clipPath id="clip-path">
      <rect id="Rectangle_2684" data-name="Rectangle 2684" width="80.5" height="22.508" fill="none"/>
    </clipPath>
  </defs>
  <g id="Group_3127" data-name="Group 3127" transform="translate(-374.943 -406.095)">
    <g id="Group_3130" data-name="Group 3130" transform="translate(234.873 310.25)">
      <path id="Path_3954" data-name="Path 3954" d="M1233.349,985.3l-16.69,198.446s-1.748,12.029,7.2,12.051c14.712.035,73.227,0,73.227,0s-11.073-2.5-10.938-8.138c.158-6.641,19.507-204.236,19.507-204.236Z" transform="translate(-875.891 -749.831)" fill="#d86713"/>
      <path id="Path_3955" data-name="Path 3955" d="M1310.883,1185.418c-2.894.009-58.782.184-73.109,0-6.244-.078-7.339-5.552-7.391-9.094a17.746,17.746,0,0,1,.19-2.954l.434-5.158,1.106-13.146.977-11.614,1.256-14.925,1.057-12.6,11.859-141.009,72.3-1.877s-8.149,82.693-13.913,142.886c-.644,6.706-1.256,13.138-1.822,19.14q-.276,2.875-.532,5.615c-.535,5.695-1.023,10.925-1.448,15.542-.224,2.434-.431,4.7-.618,6.767-.736,8.118-1.167,13.3-1.172,14.287a8.33,8.33,0,0,0,.141,1.606c1.187,6.324,9.594,6.531,10.681,6.531" transform="translate(-884.941 -743.055)" fill="#f59d23"/>
      <path id="Path_3956" data-name="Path 3956" d="M758.975,677.629l40.653,163.3,5.566,22.364,18.935,76.059H1175.9L1106.11,677.629Z" transform="translate(-577.112 -550.149)" fill="#f59d23"/>
      <path id="Path_3957" data-name="Path 3957" d="M748.371,677.629l-5.634,1.878,63.3,265.522,7.491-5.68Z" transform="translate(-566.509 -550.149)" fill="#f59d23"/>
      <path id="Path_3958" data-name="Path 3958" d="M925.153,1437.55h349.605l9.654-5.68H932.644Z" transform="translate(-685.627 -1042.669)" fill="#d86713"/>
      <rect id="Rectangle_2683" data-name="Rectangle 2683" width="75.695" height="3.597" transform="translate(362.297 442.442)" fill="#f1a34f"/>
      <path id="Path_3959" data-name="Path 3959" d="M1158.858,891.122l-57.079-210.033H759.836l-.861-3.46H1106.11L1163,890.655Z" transform="translate(-577.112 -550.149)" fill="#f1a34f"/>
      <path id="Path_3960" data-name="Path 3960" d="M1306.951,1448.235l-.391,2.75-71.187,14.381.977-11.614.465-5.517Z" transform="translate(-888.201 -1053.356)" fill="#d86713"/>
      <g id="Group_3095" data-name="Group 3095" transform="translate(345.443 419.938)" opacity="0.4">
        <g id="Group_3094" data-name="Group 3094">
          <g id="Group_3093" data-name="Group 3093" clip-path="url(#clip-path)">
            <path id="Path_3961" data-name="Path 3961" d="M1310.887,1542.877c-2.894.009-58.782.184-73.109,0-6.244-.078-7.339-5.552-7.391-9.094l70.851-13.33c-.736,8.118-1.167,13.3-1.172,14.287a8.349,8.349,0,0,0,.141,1.606c1.187,6.324,9.594,6.531,10.681,6.531" transform="translate(-1230.388 -1520.453)" fill="#d86713"/>
          </g>
        </g>
      </g>
      <path id="Path_3962" data-name="Path 3962" d="M1065.635,1235.754l-154.527,52.983-18.935-76.059Z" transform="translate(-664.091 -899.536)" fill="#ed7d2b"/>
      <path id="Path_3963" data-name="Path 3963" d="M758.973,677.629h347.136l56.323,210.34H811.337Z" transform="translate(-577.111 -550.149)" fill="#699dee"/>
      <path id="Path_3964" data-name="Path 3964" d="M1445,1342.85a11.9,11.9,0,0,0-11.156-9.34c-5.159,0-8.528,4.182-7.525,9.34a11.9,11.9,0,0,0,11.156,9.34c5.158,0,8.527-4.182,7.525-9.34" transform="translate(-1012.777 -978.44)" fill="#d86713"/>
      <path id="Path_3965" data-name="Path 3965" d="M1173.12,900.057H848.1L811.288,753.425l-2.821-11.245-2.409-9.591-5.645-22.49h320.34l6.2,22.49,2.644,9.591,3.1,11.245Z" transform="translate(-604.172 -571.352)" fill="#e4edf9"/>
      <path id="Path_3966" data-name="Path 3966" d="M1126.952,732.588H806.058l-5.645-22.49h320.34Z" transform="translate(-604.172 -571.352)" fill="#afcdfb"/>
      <path id="Path_3967" data-name="Path 3967" d="M838.441,734.1a2.124,2.124,0,0,1,2.11-2.811,3.84,3.84,0,0,1,3.512,2.811,2.124,2.124,0,0,1-2.11,2.811,3.84,3.84,0,0,1-3.512-2.811" transform="translate(-628.947 -585.188)" fill="#e9f3fe"/>
      <path id="Path_3968" data-name="Path 3968" d="M865.361,734.1a2.124,2.124,0,0,1,2.111-2.811,3.84,3.84,0,0,1,3.512,2.811,2.124,2.124,0,0,1-2.11,2.811,3.841,3.841,0,0,1-3.512-2.811" transform="translate(-646.526 -585.188)" fill="#e9f3fe"/>
      <path id="Path_3969" data-name="Path 3969" d="M894.349,734.1a2.124,2.124,0,0,1,2.11-2.811,3.84,3.84,0,0,1,3.512,2.811,2.124,2.124,0,0,1-2.11,2.811,3.841,3.841,0,0,1-3.513-2.811" transform="translate(-665.455 -585.188)" fill="#e9f3fe"/>
      <path id="Path_3970" data-name="Path 3970" d="M1146.149,949.468H905.394L868.755,805.687h237.359Z" transform="translate(-648.799 -633.771)" fill="#cae0ff"/>
      <path id="Path_3971" data-name="Path 3971" d="M1636.431,839.142h-54.568l-9.977-33.455h55.229Z" transform="translate(-1107.945 -633.772)" fill="#d2e3fc"/>
      <path id="Path_3972" data-name="Path 3972" d="M1272.476,836.982h-31.22l-1.285-4.814h31.22Z" transform="translate(-891.204 -651.064)" fill="#1c468a"/>
      <path id="Path_3973" data-name="Path 3973" d="M1394.636,836.982H1343.56l-1.285-4.814h51.076Z" transform="translate(-958.009 -651.064)" fill="#78acea"/>
      <path id="Path_3974" data-name="Path 3974" d="M1242.154,874.359h-55.369l-1.285-4.814h55.369Z" transform="translate(-855.635 -675.471)" fill="#78acea"/>
      <path id="Path_3975" data-name="Path 3975" d="M1389.405,874.359h-28.7l-1.285-4.814h28.7Z" transform="translate(-969.205 -675.471)" fill="#9f2300"/>
      <path id="Path_3976" data-name="Path 3976" d="M1299.628,938.708h-31.221l-1.285-4.814h31.22Z" transform="translate(-908.933 -717.491)" fill="#699dee"/>
      <path id="Path_3977" data-name="Path 3977" d="M1421.787,938.708h-51.076l-1.285-4.814H1420.5Z" transform="translate(-975.738 -717.491)" fill="#78acea"/>
      <path id="Path_3978" data-name="Path 3978" d="M1269.306,976.084h-55.369l-1.285-4.814h55.369Z" transform="translate(-873.365 -741.897)" fill="#fff"/>
      <path id="Path_3979" data-name="Path 3979" d="M1416.557,976.084h-28.7l-1.285-4.814h28.7Z" transform="translate(-986.935 -741.897)" fill="#fff"/>
      <path id="Path_3980" data-name="Path 3980" d="M1078.108,1033.938H972.48l-1.285-4.814h105.628Z" transform="translate(-715.693 -779.676)" fill="#1c468a"/>
      <path id="Path_3981" data-name="Path 3981" d="M1327.566,1033.938h-31.22l-1.285-4.814h31.221Z" transform="translate(-927.177 -779.676)" fill="#699dee"/>
      <path id="Path_3982" data-name="Path 3982" d="M1449.725,1033.938h-51.076l-1.285-4.814h51.076Z" transform="translate(-993.982 -779.676)" fill="#78acea"/>
      <path id="Path_3983" data-name="Path 3983" d="M1013.676,1071.314H982.456l-1.285-4.814h31.221Z" transform="translate(-722.207 -804.083)" fill="#fff"/>
      <path id="Path_3984" data-name="Path 3984" d="M1297.244,1071.314h-55.369l-1.285-4.814h55.369Z" transform="translate(-891.608 -804.083)" fill="#9f2300"/>
      <path id="Path_3985" data-name="Path 3985" d="M1135.836,1071.314H1084.76l-1.285-4.814h51.076Z" transform="translate(-789.012 -804.083)" fill="#78acea"/>
      <path id="Path_3986" data-name="Path 3986" d="M1444.495,1071.314h-28.7l-1.285-4.814h28.7Z" transform="translate(-1005.178 -804.083)" fill="#78acea"/>
      <path id="Path_3987" data-name="Path 3987" d="M1112.667,1137.122H1007.038l-1.285-4.813h105.629Z" transform="translate(-738.259 -847.056)" fill="#1c468a"/>
      <path id="Path_3988" data-name="Path 3988" d="M1362.124,1137.122H1330.9l-1.285-4.813h31.22Z" transform="translate(-949.744 -847.056)" fill="#699dee"/>
      <path id="Path_3989" data-name="Path 3989" d="M1048.235,1174.5h-31.221l-1.285-4.813h31.221Z" transform="translate(-744.773 -871.463)" fill="#fff"/>
      <path id="Path_3990" data-name="Path 3990" d="M1331.8,1174.5h-55.369l-1.285-4.813h55.369Z" transform="translate(-914.175 -871.463)" fill="#9f2300"/>
      <path id="Path_3991" data-name="Path 3991" d="M1170.394,1174.5h-51.076l-1.285-4.813h51.076Z" transform="translate(-811.578 -871.463)" fill="#78acea"/>
      <path id="Path_3992" data-name="Path 3992" d="M1479.053,1174.5h-28.7l-1.285-4.813h28.7Z" transform="translate(-1027.745 -871.463)" fill="#78acea"/>
      <path id="Path_3993" data-name="Path 3993" d="M1633.413,927.823l-24.013.074-.532-2.181,24.013-.074Z" transform="translate(-1132.094 -712.102)" fill="#78acea"/>
      <path id="Path_3994" data-name="Path 3994" d="M1698.108,927.71l-9.029.028-.532-2.181,9.03-.028Z" transform="translate(-1184.124 -712.029)" fill="#78acea"/>
      <path id="Path_3995" data-name="Path 3995" d="M1737.813,927.548l-15.959.049-.531-2.181,15.959-.049Z" transform="translate(-1205.527 -711.922)" fill="#78acea"/>
      <path id="Path_3996" data-name="Path 3996" d="M1626.438,943.811l-13.165.041-.531-2.181,13.165-.041Z" transform="translate(-1134.624 -722.542)" fill="#78acea"/>
      <path id="Path_3997" data-name="Path 3997" d="M1674.539,943.641l-17,.052-.531-2.181,17-.052Z" transform="translate(-1163.528 -722.431)" fill="#78acea"/>
      <path id="Path_3998" data-name="Path 3998" d="M1735.051,943.439l-19.484.06-.532-2.181,19.485-.06Z" transform="translate(-1201.421 -722.3)" fill="#78acea"/>
      <path id="Path_3999" data-name="Path 3999" d="M1641.69,961.777l-24.013.074-.532-2.181,24.013-.074Z" transform="translate(-1137.499 -734.274)" fill="#78acea"/>
      <path id="Path_4000" data-name="Path 4000" d="M1706.384,961.664l-9.03.028-.531-2.181,9.029-.028Z" transform="translate(-1189.529 -734.201)" fill="#78acea"/>
      <path id="Path_4001" data-name="Path 4001" d="M1746.09,961.5l-15.958.049-.531-2.181,15.958-.049Z" transform="translate(-1210.932 -734.094)" fill="#78acea"/>
      <path id="Path_4002" data-name="Path 4002" d="M1634.715,977.765l-13.165.041-.532-2.181,13.165-.041Z" transform="translate(-1140.028 -744.714)" fill="#78acea"/>
      <path id="Path_4003" data-name="Path 4003" d="M1682.815,977.595l-17,.052-.532-2.181,17-.052Z" transform="translate(-1168.932 -744.603)" fill="#78acea"/>
      <path id="Path_4004" data-name="Path 4004" d="M1743.328,977.394l-19.484.06-.532-2.181,19.484-.06Z" transform="translate(-1206.826 -744.472)" fill="#78acea"/>
      <path id="Path_4005" data-name="Path 4005" d="M1605.794,816.6l-14.461.044-.32-1.313,14.461-.045Z" transform="translate(-1120.435 -640.039)" fill="#fff"/>
      <path id="Path_4006" data-name="Path 4006" d="M1644.753,816.532l-5.438.017-.32-1.313,5.437-.017Z" transform="translate(-1151.767 -639.995)" fill="#fff"/>
      <path id="Path_4007" data-name="Path 4007" d="M1668.663,816.434l-9.61.03-.32-1.313,9.61-.03Z" transform="translate(-1164.656 -639.931)" fill="#fff"/>
      <path id="Path_4008" data-name="Path 4008" d="M1601.593,826.228l-7.928.024-.32-1.313,7.928-.025Z" transform="translate(-1121.957 -646.327)" fill="#fff"/>
      <path id="Path_4009" data-name="Path 4009" d="M1630.559,826.125l-10.238.032-.32-1.313,10.238-.032Z" transform="translate(-1139.364 -646.26)" fill="#fff"/>
      <path id="Path_4010" data-name="Path 4010" d="M1667,826l-11.734.036-.32-1.313,11.734-.036Z" transform="translate(-1162.183 -646.181)" fill="#fff"/>
      <path id="Path_4011" data-name="Path 4011" d="M1610.778,837.047l-14.461.045-.32-1.313,14.461-.045Z" transform="translate(-1123.689 -653.391)" fill="#fff"/>
      <path id="Path_4012" data-name="Path 4012" d="M1649.736,836.979,1644.3,837l-.32-1.313,5.438-.017Z" transform="translate(-1155.021 -653.347)" fill="#fff"/>
      <path id="Path_4013" data-name="Path 4013" d="M1673.647,836.881l-9.61.029-.32-1.313,9.61-.03Z" transform="translate(-1167.91 -653.283)" fill="#fff"/>
      <path id="Path_4014" data-name="Path 4014" d="M1606.578,846.675l-7.928.024-.32-1.313,7.928-.025Z" transform="translate(-1125.212 -659.679)" fill="#fff"/>
      <path id="Path_4015" data-name="Path 4015" d="M1635.543,846.572l-10.238.032-.32-1.313,10.238-.032Z" transform="translate(-1142.618 -659.611)" fill="#fff"/>
      <path id="Path_4016" data-name="Path 4016" d="M1671.984,846.451l-11.733.036-.32-1.313,11.733-.036Z" transform="translate(-1165.438 -659.532)" fill="#fff"/>
      <path id="Path_4017" data-name="Path 4017" d="M1655.831,1019.792l-24.014.074-.532-2.181,24.014-.074Z" transform="translate(-1146.733 -772.158)" fill="#78acea"/>
      <path id="Path_4018" data-name="Path 4018" d="M1720.525,1019.68l-9.029.028-.532-2.181,9.03-.028Z" transform="translate(-1198.762 -772.085)" fill="#78acea"/>
      <path id="Path_4019" data-name="Path 4019" d="M1760.231,1019.517l-15.958.049-.532-2.181,15.959-.049Z" transform="translate(-1220.166 -771.978)" fill="#78acea"/>
      <path id="Path_4020" data-name="Path 4020" d="M1648.856,1035.781l-13.165.041-.532-2.181,13.165-.041Z" transform="translate(-1149.262 -782.599)" fill="#78acea"/>
      <path id="Path_4021" data-name="Path 4021" d="M1696.956,1035.61l-17,.052-.532-2.181,17-.052Z" transform="translate(-1178.167 -782.487)" fill="#78acea"/>
      <path id="Path_4022" data-name="Path 4022" d="M1757.469,1035.409l-19.484.06-.532-2.181,19.485-.06Z" transform="translate(-1216.06 -782.356)" fill="#78acea"/>
      <path id="Path_4023" data-name="Path 4023" d="M1669.691,1076.654l-24.013.074-.532-2.181,24.013-.074Z" transform="translate(-1155.783 -809.289)" fill="#78acea"/>
      <path id="Path_4024" data-name="Path 4024" d="M1734.385,1076.54l-9.03.028-.532-2.181,9.03-.028Z" transform="translate(-1207.813 -809.215)" fill="#78acea"/>
      <path id="Path_4025" data-name="Path 4025" d="M1774.09,1076.378l-15.959.049-.532-2.181,15.959-.049Z" transform="translate(-1229.216 -809.109)" fill="#78acea"/>
      <path id="Path_4026" data-name="Path 4026" d="M1662.716,1092.642l-13.165.04-.531-2.181,13.165-.04Z" transform="translate(-1158.313 -819.729)" fill="#78acea"/>
      <path id="Path_4027" data-name="Path 4027" d="M1710.816,1092.471l-17,.052-.531-2.181,17-.052Z" transform="translate(-1187.217 -819.618)" fill="#78acea"/>
      <path id="Path_4028" data-name="Path 4028" d="M1771.328,1092.27l-19.484.06-.532-2.181,19.485-.06Z" transform="translate(-1225.11 -819.486)" fill="#78acea"/>
      <path id="Path_4029" data-name="Path 4029" d="M1682.178,1127.882l-24.013.074-.531-2.181,24.013-.074Z" transform="translate(-1163.938 -842.741)" fill="#78acea"/>
      <path id="Path_4030" data-name="Path 4030" d="M1746.872,1127.77l-9.03.028-.532-2.181,9.03-.028Z" transform="translate(-1215.967 -842.668)" fill="#78acea"/>
      <path id="Path_4031" data-name="Path 4031" d="M1786.577,1127.607l-15.958.049-.532-2.181,15.959-.049Z" transform="translate(-1237.37 -842.561)" fill="#78acea"/>
      <path id="Path_4032" data-name="Path 4032" d="M1675.2,1143.871l-13.165.041-.532-2.181,13.165-.041Z" transform="translate(-1166.467 -853.181)" fill="#78acea"/>
      <path id="Path_4033" data-name="Path 4033" d="M1723.3,1143.7l-17,.052-.532-2.181,17-.052Z" transform="translate(-1195.371 -853.07)" fill="#78acea"/>
      <path id="Path_4034" data-name="Path 4034" d="M1783.816,1143.5l-19.484.06-.532-2.181,19.485-.06Z" transform="translate(-1233.264 -852.938)" fill="#78acea"/>
      <path id="Path_4035" data-name="Path 4035" d="M1743.4,1181.84a10.109,10.109,0,0,1-9.042-7c-1.127-3.859,1.1-7,4.956-7a10.108,10.108,0,0,1,9.041,7c1.127,3.859-1.1,7-4.955,7m-3.713-12.719c-3.155,0-4.971,2.566-4.051,5.721a8.262,8.262,0,0,0,7.391,5.721c3.154,0,4.971-2.566,4.05-5.721a8.262,8.262,0,0,0-7.39-5.721" transform="translate(-1213.851 -870.26)" fill="#a8d29f"/>
      <path id="Path_4036" data-name="Path 4036" d="M1747.76,1186.135a1.453,1.453,0,0,1-.785-.326l-3.927-3.144a1.15,1.15,0,0,1-.406-1.506,1.072,1.072,0,0,1,1.516.033l2.774,2.222,1.423-3.288c.206-.476.841-.581,1.418-.238a1.293,1.293,0,0,1,.672,1.488l-1.87,4.323a.746.746,0,0,1-.662.438,1.019,1.019,0,0,1-.152,0" transform="translate(-1219.351 -877.993)" fill="#a8d29f"/>
      <path id="Path_4037" data-name="Path 4037" d="M1799.083,1181.84a10.109,10.109,0,0,1-9.042-7c-1.127-3.859,1.1-7,4.955-7a10.108,10.108,0,0,1,9.042,7c1.127,3.859-1.1,7-4.955,7m-3.713-12.719c-3.155,0-4.972,2.566-4.051,5.721a8.263,8.263,0,0,0,7.391,5.721c3.154,0,4.972-2.566,4.051-5.721a8.262,8.262,0,0,0-7.391-5.721" transform="translate(-1250.209 -870.26)" fill="#9f2300"/>
      <path id="Path_4038" data-name="Path 4038" d="M1807.607,1181.993h0a1.433,1.433,0,0,1-1.279-.99l-.868-2.974a.718.718,0,0,1,.7-.99,1.433,1.433,0,0,1,1.279.99l.868,2.974a.718.718,0,0,1-.7.99" transform="translate(-1260.442 -876.265)" fill="#9f2300"/>
      <path id="Path_4039" data-name="Path 4039" d="M1811.378,1194.714h-.214a1.278,1.278,0,0,1-1.141-.883.641.641,0,0,1,.625-.883h.214a1.278,1.278,0,0,1,1.14.883.641.641,0,0,1-.625.883" transform="translate(-1263.425 -886.654)" fill="#9f2300"/>
      <path id="Path_4040" data-name="Path 4040" d="M1689.3,878.372a5.543,5.543,0,0,1-4.957-3.837,2.781,2.781,0,0,1,2.717-3.837,5.542,5.542,0,0,1,4.957,3.837,2.78,2.78,0,0,1-2.717,3.837m-2.035-6.974a2.273,2.273,0,0,0-2.221,3.137,4.53,4.53,0,0,0,4.052,3.136,2.272,2.272,0,0,0,2.221-3.136,4.53,4.53,0,0,0-4.052-3.137" transform="translate(-1181.273 -676.223)" fill="#a8d29f"/>
      <path id="Path_4041" data-name="Path 4041" d="M1691.685,880.726a.8.8,0,0,1-.43-.179l-2.153-1.724a.631.631,0,0,1-.223-.826.588.588,0,0,1,.831.018l1.521,1.218.78-1.8c.113-.261.462-.319.778-.13a.709.709,0,0,1,.368.816l-1.025,2.37a.409.409,0,0,1-.363.24.638.638,0,0,1-.084,0" transform="translate(-1184.288 -680.463)" fill="#a8d29f"/>
      <path id="Path_4042" data-name="Path 4042" d="M1657.657,878.372a5.543,5.543,0,0,1-4.957-3.837,2.781,2.781,0,0,1,2.717-3.837,5.542,5.542,0,0,1,4.957,3.837,2.78,2.78,0,0,1-2.717,3.837m-2.036-6.974a2.273,2.273,0,0,0-2.221,3.137,4.53,4.53,0,0,0,4.052,3.136,2.273,2.273,0,0,0,2.221-3.136,4.53,4.53,0,0,0-4.052-3.137" transform="translate(-1160.611 -676.223)" fill="#a8d29f"/>
      <path id="Path_4043" data-name="Path 4043" d="M1660.045,880.726a.8.8,0,0,1-.431-.179l-2.153-1.724a.631.631,0,0,1-.223-.826.588.588,0,0,1,.831.018l1.521,1.218.78-1.8c.114-.261.461-.319.778-.13a.709.709,0,0,1,.368.816l-1.025,2.37a.41.41,0,0,1-.363.24.63.63,0,0,1-.083,0" transform="translate(-1163.627 -680.463)" fill="#a8d29f"/>
      <path id="Path_4044" data-name="Path 4044" d="M1624.882,878.372a5.543,5.543,0,0,1-4.957-3.837,2.781,2.781,0,0,1,2.717-3.837,5.542,5.542,0,0,1,4.957,3.837,2.78,2.78,0,0,1-2.717,3.837m-2.036-6.974a2.273,2.273,0,0,0-2.221,3.137,4.529,4.529,0,0,0,4.052,3.136,2.273,2.273,0,0,0,2.221-3.136,4.53,4.53,0,0,0-4.052-3.137" transform="translate(-1139.209 -676.223)" fill="#a8d29f"/>
      <path id="Path_4045" data-name="Path 4045" d="M1627.271,880.726a.8.8,0,0,1-.431-.179l-2.153-1.724a.631.631,0,0,1-.223-.826.588.588,0,0,1,.831.018l1.521,1.218.78-1.8c.113-.261.461-.319.778-.13a.709.709,0,0,1,.368.816l-1.026,2.37a.409.409,0,0,1-.363.24.63.63,0,0,1-.083,0" transform="translate(-1142.225 -680.463)" fill="#a8d29f"/>
      <path id="Path_4046" data-name="Path 4046" d="M1719.824,878.372a5.543,5.543,0,0,1-4.957-3.837,2.781,2.781,0,0,1,2.717-3.837,5.542,5.542,0,0,1,4.957,3.837,2.78,2.78,0,0,1-2.717,3.837m-2.035-6.974a2.273,2.273,0,0,0-2.221,3.137,4.53,4.53,0,0,0,4.052,3.136,2.273,2.273,0,0,0,2.221-3.136,4.53,4.53,0,0,0-4.052-3.137" transform="translate(-1201.206 -676.223)" fill="#9f2300"/>
      <path id="Path_4047" data-name="Path 4047" d="M1724.5,878.455h0a.786.786,0,0,1-.7-.543l-.476-1.63a.394.394,0,0,1,.384-.542.785.785,0,0,1,.7.542l.476,1.63a.394.394,0,0,1-.384.543" transform="translate(-1206.817 -679.516)" fill="#9f2300"/>
      <path id="Path_4048" data-name="Path 4048" d="M1726.565,885.43h-.117a.7.7,0,0,1-.626-.484.352.352,0,0,1,.343-.484h.117a.7.7,0,0,1,.625.484.351.351,0,0,1-.343.484" transform="translate(-1208.452 -685.211)" fill="#9f2300"/>
      <path id="Path_4067" data-name="Path 4067" d="M1649.545,1577.991a25.317,25.317,0,0,1,1.733-6.493c1.21-2.421,8.914-.88,8.914-.88s1.54,1.321,1.871,7.483Z" transform="translate(-1158.656 -1132.957)" fill="#233862"/>
      <path id="Path_4068" data-name="Path 4068" d="M1527.785,1568.388c1.81-1.105.78-9.347.78-9.347s-8.434-6.747-9.594-1.581-8.012,7.485-11.913,8.118c-2.693.437-3.527,1.928-3.785,2.81Z" transform="translate(-1063.141 -1123.409)" fill="#233862"/>
      <path id="Path_4069" data-name="Path 4069" d="M1570.185,1301.488a38.94,38.94,0,0,0-.619,4.556c-.784,15.293-12.874,50.26-15.036,51.075-3.346,1.263-8.615-1.421-11.372-2.3a2.364,2.364,0,0,1-1.658-2.686c5.987-27.522,8.187-67.154,8.987-90.618a106.443,106.443,0,0,1,2.433-19.983s29.485-7.867,29.66,2.084c.155,8.806-9.767,43.343-12.4,57.87" transform="translate(-1088.071 -916.452)" fill="#9f2300"/>
      <path id="Path_4070" data-name="Path 4070" d="M1587.19,1301.488l-19.7-39.971a106.443,106.443,0,0,1,2.433-19.983s29.485-7.867,29.66,2.084c.155,8.806-9.767,43.343-12.4,57.87" transform="translate(-1105.076 -916.452)" fill="#7e1d02"/>
      <path id="Path_4071" data-name="Path 4071" d="M1605.352,1246.434l15.587,112.971s6.845,1.651,12.169.33c0,0,4.564-60.083,4.184-74.608s3.275-38.868-.835-41.552-31.1,2.86-31.1,2.86" transform="translate(-1129.798 -919.233)" fill="#9f2300"/>
      <path id="Path_4072" data-name="Path 4072" d="M1615.5,1090.533l1.943,27.123a2.164,2.164,0,0,1-1.561,2.235c-2.174.631-4.682,1.07-9.516,2.072a92.294,92.294,0,0,1-18.157,1.824c-11.94.076-16.46-4.039-16.46-4.039-.514.01.271-2.489.979-14.371.24-4.024.472-9.126.638-15.574.151-5.8.253-12.694.262-20.871.012-9.836,15.237-20.418,15.519-20.418l0,0c0,1.416,2.232,4.03,5.669,4.255,4.081.266,9.087-1.764,9.087-4.114,0-.024,7.377,11.8,10,24.4.334,1.6.591,3.282.8,5.056,0,.027.007.054.01.081q.057.486.106.978c.007.057.011.116.017.173.031.3.061.6.088.9.008.086.014.175.022.26.025.278.049.554.071.835,0,.026,0,.051.006.076.018.208.032.418.048.627.011.148.022.3.033.448.017.246.033.491.051.74.008.124.016.248.024.373.014.235.029.471.043.711.006.1.012.211.019.317.019.343.039.689.056,1.038,0,.029,0,.056.005.084q.026.5.049,1.013c0,.084.008.167.011.251.016.319.03.64.043.964,0,.048,0,.1.006.143q.05,1.182.094,2.4c0,.021,0,.041,0,.062Z" transform="translate(-1107.748 -792.338)" fill="#2b478b"/>
      <path id="Path_4073" data-name="Path 4073" d="M1573.947,1048.517s-14.158-.12-17.564,4.658-10.878,30.484-6.979,39.038,11.192-3.538,15.241-8.778,9.3-34.918,9.3-34.918" transform="translate(-1092.546 -792.34)" fill="#2b478b"/>
      <path id="Path_4074" data-name="Path 4074" d="M1621.707,1026.4l.008,1.464s-.4,4.577,5.237,5.245,9.905-1.785,9.753-5.316a41.422,41.422,0,0,1-1.1-6.876,15.948,15.948,0,0,1,.2-2.74l-10.921-.218-3.216.525Z" transform="translate(-1140.45 -772.387)" fill="#ffb27d"/>
      <path id="Path_4075" data-name="Path 4075" d="M1621.665,1018.487l.042,7.916a9.24,9.24,0,0,0,3.937.869c5.019,0,8.263-3.681,9.959-6.352a15.955,15.955,0,0,1,.2-2.741l-10.921-.218Z" transform="translate(-1140.45 -772.387)" fill="#e2915a"/>
      <path id="Path_4076" data-name="Path 4076" d="M1630.891,981.2c-1.267,6.819-10.066,6.6-13.869,6.166-1.07-.119-1.743-.255-1.743-.255-1.207-.322-1.88-2.223-2.193-4.713-.621-4.927.164-12.159,1-14.009,1.252-2.783,3.612-5.793,12.473-3.621s5.962,7.694,4.336,16.431" transform="translate(-1134.703 -737.169)" fill="#ffb27d"/>
      <path id="Path_4077" data-name="Path 4077" d="M1570.469,1103.726s-5.475,12.093-5.316,15.717a18.873,18.873,0,0,1,5.316.683c4.281,1.276,0-16.4,0-16.4" transform="translate(-1103.546 -828.391)" fill="#233862"/>
      <path id="Path_4078" data-name="Path 4078" d="M1608.374,952.334a29.32,29.32,0,0,0,8.5-2.3c3.734-1.623,8.445.164,9.974.97a2.275,2.275,0,0,0-.373-.92,2.052,2.052,0,0,1,.788,1.167c.071.052.1.088.084.1a2.632,2.632,0,0,1,1.278.083s-.35-.05-.475.175a.214.214,0,0,1-.056.062c5.824,2.814,6.362,12.02,4.488,14.149-2.255,2.563-4.959,8.334-4.959,8.334a4.946,4.946,0,0,1-.576-3.618c.41-2.255-1.538-2.255-4-3.28s-.41-3.9-2.563-5.638-10.045-.717-9.943-2.05c-2.93-1.067-2.171-6.933-2.171-7.234" transform="translate(-1131.714 -727.6)" fill="#233862"/>
      <path id="Path_4079" data-name="Path 4079" d="M1607.876,1168.025c-2.312,9.282-27.309,14.078-32.992,15.053.24-4.025.472-9.126.638-15.574Z" transform="translate(-1109.903 -870.038)" fill="#233862"/>
      <path id="Path_4080" data-name="Path 4080" d="M1651.236,1159.291a44.029,44.029,0,0,0,6.51-1.27c.953-.476,5.31-6.668,2.456-8.256s-10.513,4.763-10.513,4.763Z" transform="translate(-1158.75 -858.288)" fill="#ffb27d"/>
      <path id="Path_4081" data-name="Path 4081" d="M1560.556,1162.087s20.571,1.116,34.376-1.84a5.933,5.933,0,0,0-3.99-5.76s-21.516-4.561-26.685-3.291-3.7,10.89-3.7,10.89" transform="translate(-1100.42 -859.244)" fill="#2b478b"/>
      <path id="Path_4082" data-name="Path 4082" d="M1664,1079.313c-4.27,5.147-9.85,9.35-16,10.334h0a11.469,11.469,0,0,1-1.523-6.87,13.748,13.748,0,0,1,2.24-6.306,13.991,13.991,0,0,0,1.21-2.439c3.359-8.572,2.859-25.094,2.859-25.094s14.267,1.494,18.713,7.845c2.723,3.89-.75,14.393-7.5,22.532" transform="translate(-1156.622 -792.613)" fill="#2b478b"/>
      <path id="Path_4083" data-name="Path 4083" d="M1617.444,1021.948c-1.07-.119-1.743-.255-1.743-.255-1.207-.323-1.88-2.223-2.193-4.713a5.959,5.959,0,0,1,3.731,3.05,4.377,4.377,0,0,1,.205,1.918" transform="translate(-1135.124 -771.746)" fill="#e2915a"/>
      <path id="Path_4084" data-name="Path 4084" d="M1603.478,1026.384s-4.927-8.131-1.1-8.485a5.8,5.8,0,0,1,5.925,3.192c.553.953-.145,5.25-.145,5.25Z" transform="translate(-1126.906 -772.324)" fill="#ffb27d"/>
      <path id="Path_4085" data-name="Path 4085" d="M1625,1075.518a10.6,10.6,0,0,1-.84,2.823,13.517,13.517,0,0,1-3.137,4.322h0c-12.8-5.776-15.386-25.612-15.82-36.51-.175-4.38,0-7.318,0-7.318,5.773-1.911,7.4,1.41,7.4,1.41s6.816,16.209,10.352,26.8c1.353,4.053,2.224,7.286,2.051,8.472" transform="translate(-1129.65 -785.629)" fill="#2b478b"/>
      <path id="Path_4086" data-name="Path 4086" d="M1637.174,1087.215c-4.27,5.147-9.85,9.35-16,10.334h0c-12.8-5.776-15.386-25.611-15.82-36.51,0,0,6.056,21.963,14.3,29.64a8.991,8.991,0,0,0,4.662,2.55s10.393-2.937,12.573-5.7a1.168,1.168,0,0,1,.292-.309" transform="translate(-1129.796 -800.516)" fill="#233862"/>
      <path id="Path_4087" data-name="Path 4087" d="M790.174,1593.489H235.5a.632.632,0,0,1-.63-.63v-.215a.632.632,0,0,1,.63-.63H790.174a.632.632,0,0,1,.63.63v.215a.632.632,0,0,1-.63.63" transform="translate(-94.804 -1146.809)" fill="#2e3552"/>
      <path id="Path_4113" data-name="Path 4113" d="M1577.614,642.46H1354.482l-17.1-56h223.132Z" transform="translate(-954.813 -490.617)" fill="#e4edf9"/>
      <path id="Path_4114" data-name="Path 4114" d="M1587.436,630.946l2.046,6.7c.9,2.947-.775,5.359-3.722,5.359H1400.9a7.89,7.89,0,0,1-6.994-5.359l-2.046-6.7c-.9-2.947.775-5.358,3.722-5.358h184.861a7.89,7.89,0,0,1,6.994,5.358" transform="translate(-990.227 -516.166)" fill="#fff"/>
      <path id="Path_4115" data-name="Path 4115" d="M1843.423,643.423h-2.836l-.266-.87h3.965l.229.75-1.053,4.891h-1.112Z" transform="translate(-1283.233 -527.244)" fill="#699dee"/>
      <path id="Path_4116" data-name="Path 4116" d="M1855.911,645.192c-.492-1.611.092-2.917,1.575-2.917a3.849,3.849,0,0,1,3.341,2.917c.492,1.612-.092,2.917-1.575,2.917a3.841,3.841,0,0,1-3.34-2.917m3.892,0c-.339-1.112-1.19-2.023-2.06-2.023s-1.155.887-.808,2.023c.34,1.112,1.181,2.023,2.06,2.023s1.153-.895.808-2.023" transform="translate(-1293.302 -527.063)" fill="#699dee"/>
      <path id="Path_4117" data-name="Path 4117" d="M1871.435,643.81c-.239-.781.1-1.442.9-1.442a1.981,1.981,0,0,1,1.762,1.442c.239.781-.1,1.443-.9,1.443a1.981,1.981,0,0,1-1.762-1.443m4.276-1.378h.8l-2.4,5.641h-.8Zm-2.335,1.378a1.076,1.076,0,0,0-.871-.822c-.38,0-.491.371-.354.822a1.068,1.068,0,0,0,.871.822c.379,0,.491-.371.353-.822m2.347,2.885c-.238-.782.1-1.442.9-1.442a1.981,1.981,0,0,1,1.762,1.442c.239.781-.1,1.442-.9,1.442a1.983,1.983,0,0,1-1.762-1.442m1.942,0a1.074,1.074,0,0,0-.871-.822c-.379,0-.491.371-.353.822a1.066,1.066,0,0,0,.871.822c.379,0,.491-.371.353-.822" transform="translate(-1303.501 -527.124)" fill="#699dee"/>
      <path id="Path_4118" data-name="Path 4118" d="M1520.58,625.588,1525.9,643h-125a7.867,7.867,0,0,1-6.363-3.934,6.6,6.6,0,0,1-.631-1.425l-2.046-6.7c-.9-2.947.775-5.358,3.722-5.358Z" transform="translate(-990.227 -516.166)" fill="#f59d23"/>
      <path id="Path_4119" data-name="Path 4119" d="M1423.2,625.588,1417.932,643h-11.538a7.868,7.868,0,0,1-6.363-3.934l4.077-13.481Z" transform="translate(-995.723 -516.166)" fill="#ed7d2b"/>
      <path id="Path_4120" data-name="Path 4120" d="M1515.239,625.588,1509.969,643H1490.88l5.269-17.415Z" transform="translate(-1055.048 -516.166)" fill="#ed7d2b"/>
      <path id="Path_4121" data-name="Path 4121" d="M1609.515,625.588,1604.246,643h-19.094l5.27-17.415Z" transform="translate(-1116.607 -516.166)" fill="#ed7d2b"/>
      <path id="Path_4122" data-name="Path 4122" d="M1703.8,625.588,1698.531,643h-19.093l5.27-17.415Z" transform="translate(-1178.176 -516.166)" fill="#ed7d2b"/>
      <path id="Path_4123" data-name="Path 4123" d="M1451.923,701.169h-33.386l-.7-2.3h33.386Z" transform="translate(-1007.349 -564.017)" fill="#afcdfb"/>
      <path id="Path_4124" data-name="Path 4124" d="M1448.463,719.728H1424.2l-.7-2.3h24.259Z" transform="translate(-1011.049 -576.136)" fill="#afcdfb"/>
      <path id="Path_4125" data-name="Path 4125" d="M1512.926,719.728h-14.5l-.7-2.3h14.5Z" transform="translate(-1059.515 -576.136)" fill="#afcdfb"/>
      <path id="Path_4126" data-name="Path 4126" d="M1569.592,719.728h-22.151l-.7-2.3h22.151Z" transform="translate(-1091.523 -576.136)" fill="#afcdfb"/>
      <path id="Path_4127" data-name="Path 4127" d="M1532.1,701.169h-10.109l-.7-2.3h10.109Z" transform="translate(-1074.901 -564.017)" fill="#afcdfb"/>
      <path id="Path_4128" data-name="Path 4128" d="M1597.846,701.169h-36.759l-.7-2.3h36.759Z" transform="translate(-1100.434 -564.017)" fill="#afcdfb"/>
      <path id="Path_4129" data-name="Path 4129" d="M820.434,841.055H663.463l-24.4-79.9H796.035Z" transform="translate(-498.811 -604.692)" fill="#e4edf9"/>
      <path id="Path_4130" data-name="Path 4130" d="M820.458,812.383H683.4l-10.369-33.957H810.089Z" transform="translate(-520.99 -615.97)" fill="#4a75cb"/>
      <path id="Path_4131" data-name="Path 4131" d="M723.126,794.906H699.909l-.553-1.811h23.217Z" transform="translate(-538.181 -625.548)" fill="#cae0ff"/>
      <path id="Path_4132" data-name="Path 4132" d="M802.046,794.906H782.737l-.553-1.811h19.309Z" transform="translate(-592.268 -625.548)" fill="#cae0ff"/>
      <path id="Path_4133" data-name="Path 4133" d="M892.791,794.906H852.882l-.553-1.811h39.909Z" transform="translate(-638.072 -625.548)" fill="#cae0ff"/>
      <path id="Path_4134" data-name="Path 4134" d="M728.839,813.611H705.622l-.553-1.811h23.217Z" transform="translate(-541.912 -637.763)" fill="#cae0ff"/>
      <path id="Path_4135" data-name="Path 4135" d="M807.758,813.611H788.449L787.9,811.8H807.2Z" transform="translate(-595.998 -637.763)" fill="#cae0ff"/>
      <path id="Path_4136" data-name="Path 4136" d="M873.477,813.611H854.168l-.553-1.811h19.309Z" transform="translate(-638.912 -637.763)" fill="#cae0ff"/>
      <path id="Path_4137" data-name="Path 4137" d="M966.58,815.786H926.671l-.553-1.812h39.909Z" transform="translate(-686.257 -639.183)" fill="#cae0ff"/>
      <path id="Path_4138" data-name="Path 4138" d="M736.08,837.326H712.864l-.553-1.811h23.217Z" transform="translate(-546.64 -653.249)" fill="#cae0ff"/>
      <path id="Path_4139" data-name="Path 4139" d="M815,837.326H795.69l-.553-1.811h19.309Z" transform="translate(-600.727 -653.249)" fill="#cae0ff"/>
      <path id="Path_4140" data-name="Path 4140" d="M905.745,837.326H865.835l-.553-1.811h39.909Z" transform="translate(-646.531 -653.249)" fill="#cae0ff"/>
      <path id="Path_4141" data-name="Path 4141" d="M741.792,856.032H718.575l-.553-1.811h23.217Z" transform="translate(-550.37 -665.464)" fill="#cae0ff"/>
      <path id="Path_4142" data-name="Path 4142" d="M820.712,856.032H801.4l-.553-1.811h19.309Z" transform="translate(-604.456 -665.464)" fill="#cae0ff"/>
      <path id="Path_4143" data-name="Path 4143" d="M886.43,856.032H867.121l-.553-1.811h19.309Z" transform="translate(-647.371 -665.464)" fill="#cae0ff"/>
      <path id="Path_4144" data-name="Path 4144" d="M979.534,858.207h-39.91l-.553-1.811h39.909Z" transform="translate(-694.716 -666.884)" fill="#cae0ff"/>
      <path id="Path_4145" data-name="Path 4145" d="M943.235,921.04c-5.32,0-10.97-4.328-12.595-9.648s1.382-9.648,6.7-9.648,10.97,4.328,12.595,9.648-1.382,9.648-6.7,9.648m-5.355-17.534c-4.349,0-6.806,3.538-5.478,7.886s5.946,7.886,10.294,7.886,6.806-3.538,5.478-7.886-5.946-7.886-10.294-7.886" transform="translate(-688.923 -696.497)" fill="#a8d29f"/>
      <path id="Path_4146" data-name="Path 4146" d="M949.212,926.96a2.029,2.029,0,0,1-1.089-.449l-5.471-4.335a1.6,1.6,0,0,1-.588-2.075,1.478,1.478,0,0,1,2.09.045l3.866,3.063,1.9-4.534c.275-.656,1.149-.8,1.951-.328a1.805,1.805,0,0,1,.953,2.051l-2.5,5.959a1.01,1.01,0,0,1-.905.6,1.5,1.5,0,0,1-.21,0" transform="translate(-696.542 -707.157)" fill="#a8d29f"/>
      <path id="Path_4147" data-name="Path 4147" d="M863.677,921.04c-5.32,0-10.97-4.328-12.595-9.648s1.382-9.648,6.7-9.648,10.97,4.328,12.595,9.648-1.382,9.648-6.7,9.648m-5.355-17.534c-4.349,0-6.806,3.538-5.478,7.886s5.946,7.886,10.294,7.886,6.806-3.538,5.478-7.886-5.946-7.886-10.294-7.886" transform="translate(-636.971 -696.497)" fill="#a8d29f"/>
      <path id="Path_4148" data-name="Path 4148" d="M869.654,926.96a2.028,2.028,0,0,1-1.089-.449l-5.471-4.335a1.6,1.6,0,0,1-.588-2.075,1.478,1.478,0,0,1,2.09.045l3.866,3.063,1.9-4.534c.275-.656,1.148-.8,1.951-.328a1.805,1.805,0,0,1,.953,2.051l-2.5,5.959a1.01,1.01,0,0,1-.905.6,1.5,1.5,0,0,1-.21,0" transform="translate(-644.59 -707.157)" fill="#a8d29f"/>
      <path id="Path_4149" data-name="Path 4149" d="M781.271,921.04c-5.32,0-10.97-4.328-12.594-9.648s1.382-9.648,6.7-9.648,10.97,4.328,12.594,9.648-1.382,9.648-6.7,9.648m-5.355-17.534c-4.349,0-6.806,3.538-5.478,7.886s5.946,7.886,10.294,7.886,6.806-3.538,5.478-7.886-5.946-7.886-10.295-7.886" transform="translate(-583.16 -696.497)" fill="#a8d29f"/>
      <path id="Path_4150" data-name="Path 4150" d="M787.246,926.96a2.029,2.029,0,0,1-1.089-.449l-5.471-4.335a1.6,1.6,0,0,1-.588-2.075,1.478,1.478,0,0,1,2.09.045l3.866,3.063,1.9-4.534c.275-.656,1.149-.8,1.951-.328a1.805,1.805,0,0,1,.954,2.051l-2.5,5.959a1.01,1.01,0,0,1-.9.6,1.507,1.507,0,0,1-.21,0" transform="translate(-590.778 -707.157)" fill="#a8d29f"/>
      <path id="Path_4151" data-name="Path 4151" d="M1019.991,921.04c-5.32,0-10.97-4.328-12.594-9.648s1.382-9.648,6.7-9.648,10.97,4.328,12.594,9.648-1.382,9.648-6.7,9.648m-5.355-17.534c-4.349,0-6.806,3.538-5.478,7.886s5.946,7.886,10.294,7.886,6.806-3.538,5.478-7.886-5.946-7.886-10.294-7.886" transform="translate(-739.044 -696.497)" fill="#9f2300"/>
      <path id="Path_4152" data-name="Path 4152" d="M1031.6,921.25h0a2.01,2.01,0,0,1-1.781-1.364l-1.252-4.1a.977.977,0,0,1,.948-1.364,2.01,2.01,0,0,1,1.781,1.364l1.251,4.1a.977.977,0,0,1-.948,1.364" transform="translate(-753.113 -704.775)" fill="#9f2300"/>
      <path id="Path_4153" data-name="Path 4153" d="M1037.026,938.788h-.295a1.793,1.793,0,0,1-1.589-1.217.872.872,0,0,1,.846-1.217h.295a1.792,1.792,0,0,1,1.589,1.217.872.872,0,0,1-.846,1.217" transform="translate(-757.415 -719.097)" fill="#9f2300"/>
    </g>
  </g>
</svg>
