<svg xmlns="http://www.w3.org/2000/svg" xmlns:xlink="http://www.w3.org/1999/xlink" width="835" height="464" viewBox="0 0 835 464">
  <defs>
    <clipPath id="clip-path">
      <rect id="Rectangle_2681" data-name="Rectangle 2681" width="835" height="464" transform="translate(0 0)" fill="none"/>
    </clipPath>
    <clipPath id="clip-path-3">
      <rect id="Rectangle_2678" data-name="Rectangle 2678" width="79.121" height="22.122" fill="none"/>
    </clipPath>
    <clipPath id="clip-path-4">
      <rect id="Rectangle_2679" data-name="Rectangle 2679" width="170.489" height="74.756" fill="none"/>
    </clipPath>
  </defs>
  <g id="Group_3092" data-name="Group 3092" transform="translate(0 -0.054)">
    <g id="Group_3091" data-name="Group 3091" transform="translate(0 0.054)" clip-path="url(#clip-path)">
      <g id="Group_3090" data-name="Group 3090" transform="translate(0 0)">
        <g id="Group_3089" data-name="Group 3089" transform="translate(0 0)" clip-path="url(#clip-path)">
          <path id="Path_3854" data-name="Path 3854" d="M1018.734,1809.724H319.009a.625.625,0,0,1,0-1.249h699.725a.625.625,0,0,1,0,1.249" transform="translate(-244.507 -1388.885)" fill="#283250"/>
          <path id="Path_3855" data-name="Path 3855" d="M477.545,365.209,468.36,365c2.951,3.825,3.614,7.348,1.776,10.329-1.837,3.042-6.233,5.541-12.8,7.438a118.505,118.505,0,0,0-27.283-125.332A118.816,118.816,0,0,0,300,231.987c-1.747.753-3.493,1.536-5.18,2.349l-.016.008c-5.1-1.557-10.071-2.833-14.865-3.8-24.2-4.911-41.377-1.517-48.353,9.558-6.639,10.533-3.025,26.388,10.149,44.881l0,.009c-1.777,3.282-3.373,6.655-4.848,10.148-1.114,2.62-2.108,5.24-3.011,7.92-24.753,1.476-38,5.832-42.821,13.722-5.6,9.185,2.048,21.511,26.53,33.5,3.373,1.656,6.986,3.282,10.781,4.908a116,116,0,0,0,8.522,32.282,118.652,118.652,0,0,0,218.112,1.114c12.075-2.5,20.025-6.414,23.187-11.594,2.2-3.583,1.927-7.558-.632-11.774m-28.337,19.423a182.9,182.9,0,0,1-29.782,2.409,436.3,436.3,0,0,1-61.053-4.113q2.777-6.045,5.436-12.406A167.856,167.856,0,0,0,383.58,375.9a100.148,100.148,0,0,0,19.741,2.195c13.821,0,23.723-3.99,28.613-11.753a20.3,20.3,0,0,0,1.967-4.067h-7.045c-.116.214-.241.426-.371.633-3.633,5.766-11.75,8.745-23.148,8.742a94,94,0,0,1-18.478-2.065,161.072,161.072,0,0,1-18.607-5.033q2.545-6.366,4.939-12.961c4.295-11.842,7.971-23.58,10.945-34.852a299.252,299.252,0,0,0,43.56,3q14.437,0,29.912-1.166a112.367,112.367,0,0,1,2.3,22.727,111.033,111.033,0,0,1-8.7,43.333m-146.783,58.8c-3.427-1.243-5.166-6.161-6.022-10.068-1.353-6.174-1.6-14.846-.707-25.079.45-5.175,1.173-10.677,2.147-16.432a305.143,305.143,0,0,1,41.5,14.358c-3.051,5.26-6.135,10.138-9.22,14.559C324.244,429.2,318.5,435.7,313.5,439.57c-3.162,2.45-7.649,5.109-11.076,3.867m40.017-42.728a311.426,311.426,0,0,0-43.471-15.054q.778-4.007,1.706-8.149,6.14,1.4,12.448,2.7c12.3,2.516,24.572,4.652,36.583,6.38q-3.568,7.384-7.266,14.124m-26.607-24.961q-7.129-1.467-14.039-3.061c2.167-9.017,4.829-18.417,7.936-28a274.749,274.749,0,0,0,48.139,23.741q-2.928,6.988-6,13.6c-11.815-1.7-23.9-3.8-36.033-6.284M276.381,254.035a73.731,73.731,0,0,0,4.367,7.684c8.167,12.621,18.953,21.77,26.563,27.223a130.069,130.069,0,0,0,13.977,8.7c-4.512,9.831-8.809,20.323-12.76,31.217q-1.105,3.047-2.153,6.082c-23.6-15.362-43.581-32.989-56.688-50.048l-.005-.007a112.19,112.19,0,0,1,11.258-15.861c1.746-2.048,3.553-4.035,5.451-5.963l.783-.783a112.714,112.714,0,0,1,9.208-8.246m100.912-17.023c3.426,1.243,5.166,6.161,6.022,10.068,1.353,6.174,1.6,14.847.707,25.079a250.238,250.238,0,0,1-6.555,37.468q-6.047-1.04-11.8-2.36a169.74,169.74,0,0,1-36.111-12.449A254.908,254.908,0,0,1,349.6,259.674c5.876-8.424,11.624-14.923,16.62-18.795,2.607-2.02,6.115-4.183,9.187-4.183a5.506,5.506,0,0,1,1.889.316m-13.468,76.28q5.888,1.367,12.08,2.438c-2.9,10.9-6.465,22.252-10.622,33.715q-2.4,6.628-4.968,13.031a268.97,268.97,0,0,1-48.487-24.064q1.263-3.693,2.609-7.408c3.862-10.649,8.054-20.9,12.45-30.5a175.709,175.709,0,0,0,36.94,12.786m61.353-51.011a111.306,111.306,0,0,1,28.966,50.095c-25.755,1.883-49.355,1.292-70.452-1.762a255.629,255.629,0,0,0,6.59-37.911c1.091-12.551.959-27.417-4.13-35.783q1.769.68,3.522,1.421a110.929,110.929,0,0,1,35.5,23.94M346.19,229.548a111.933,111.933,0,0,1,22.794,2.324c-8.778,3.821-17.739,14.455-24.541,24.206a261,261,0,0,0-20.48,35.866,123.949,123.949,0,0,1-12.556-7.8,96.792,96.792,0,0,1-25.144-25.471,66.014,66.014,0,0,1-4.761-8.509,111.683,111.683,0,0,1,14.442-8.714h0q3.077-1.553,6.266-2.913c.154-.066.307-.134.461-.2l.107-.045c.453-.191.908-.378,1.363-.562l.367-.146a110.978,110.978,0,0,1,41.677-8.04M237.031,243.531c3.633-5.766,11.75-8.742,23.148-8.742a94.03,94.03,0,0,1,18.478,2.065q3.884.786,7.924,1.851l.007,0a116.6,116.6,0,0,0-24.294,18.726c-1.536,1.505-3.011,3.071-4.457,4.7-1.807,1.988-3.523,4.066-5.179,6.174a119.508,119.508,0,0,0-7.348,10.51l-.005.009c-10.072-14.955-13.1-27.635-8.274-35.291m6.171,54.284c.994-2.288,2.018-4.547,3.132-6.745l0-.005c13.8,17.251,34.144,34.886,57.913,50.18-3.37,10.257-6.246,20.338-8.566,30a459.492,459.492,0,0,1-47.362-13.985c-2.951-1.054-5.812-2.138-8.552-3.222-1.626-.632-3.222-1.295-4.788-1.957-.241-2.409-.422-4.848-.482-7.287-.03-1.175-.06-2.319-.06-3.493,0-1.355.03-2.74.06-4.1a113.014,113.014,0,0,1,5.119-29.632c.512-1.626,1.054-3.222,1.656-4.818.6-1.656,1.235-3.313,1.927-4.939m-20.146,48.9c-21.35-10.419-31.107-20.477-26.74-27.614,3.523-5.782,16.351-9.7,35.985-11.142a115.341,115.341,0,0,0-4.457,25.054c-.181,2.529-.271,5.059-.3,7.619v.662c0,2.56.09,5.119.241,7.649-1.626-.723-3.192-1.475-4.728-2.228m16.2,12.8c2.891,1.084,5.842,2.168,8.883,3.222,13.981,4.845,29.654,9.347,46.418,13.342q-.913,4.074-1.686,8.028-2.055-.5-4.112-.97c-23.177-5.275-40.57-6.349-48.632-6.53a109.188,109.188,0,0,1-4.395-18.448l3.523,1.355m3.945,25.265q-.378-.9-.738-1.8a251.617,251.617,0,0,1,44.9,6.283q2.186.5,4.368,1.034c-1.048,6.112-1.822,11.954-2.3,17.444-.9,10.4-.969,22.395,1.932,30.959A112.389,112.389,0,0,1,243.2,384.783m146.472,59.474a112.128,112.128,0,0,1-77.366,3.565c8.266-4.333,16.571-14.283,22.967-23.451,3.3-4.729,6.6-9.962,9.85-15.611a315.79,315.79,0,0,1,53.757,31.1q-4.486,2.4-9.207,4.4m35.5-23.94a110.9,110.9,0,0,1-20.323,16.109,322.369,322.369,0,0,0-56.645-33.167c2.725-4.992,5.41-10.265,8.031-15.77a482.749,482.749,0,0,0,51.5,4.219c4.156.12,8.191.12,12.105.091a215.421,215.421,0,0,0,26.921-1.807,111.017,111.017,0,0,1-21.591,30.324" transform="translate(-145.377 -171.061)" fill="#fcebd2"/>
          <path id="Path_3856" data-name="Path 3856" d="M2409.333,773.436s22.339,21.985,23.361,30.275-10.132,21.258-10.132,21.258Z" transform="translate(-1850.268 -594.017)" fill="#f59d23"/>
          <path id="Path_3857" data-name="Path 3857" d="M2279.567,1745.062s-.725,11.688-2.986,11.855c-.3.022-11.469.022-11.469.022l-14.256-.083s.093-3.435,4.26-4.161,11.142-3.655,13.666-9.163c2.656-5.794,10.784,1.529,10.784,1.529" transform="translate(-1728.565 -1337.298)" fill="#163560"/>
          <path id="Path_3858" data-name="Path 3858" d="M2416.41,1745.062s-.725,11.688-2.986,11.855c-.3.022-11.469.022-11.469.022l-14.256-.083s.094-3.435,4.261-4.161,11.142-3.655,13.667-9.163c2.656-5.794,10.784,1.529,10.784,1.529" transform="translate(-1833.654 -1337.298)" fill="#163560"/>
          <path id="Path_3859" data-name="Path 3859" d="M2306.544,1157.039s3.729,23.847,17.638,66.179,15.8,60.663,15.8,60.663l14.922-.419s.127-46.263-6.283-67.551-1.383-76.742-1.383-76.742Z" transform="translate(-1771.331 -874.885)" fill="#163560"/>
          <path id="Path_3860" data-name="Path 3860" d="M2275.215,1144.8a578.824,578.824,0,0,0,5.689,80.058c6.217,44.122,4.11,62.852,4.11,62.852l14.892.495s8.9-44.139,6.348-66.223,12.187-75.781,12.187-75.781Z" transform="translate(-1747.263 -879.209)" fill="#1c468a"/>
          <path id="Path_3861" data-name="Path 3861" d="M2342.646,723.592l-7.023,5.2-10.151-2.137c.141-.926.811-4.762,1.421-8.237.037-.2.074-.41.109-.61.522-2.957.974-5.5.974-5.5l9.481-4.725,3.535-1.761c-.01.062-.274,3.281-.311,3.751a30.347,30.347,0,0,0,1.967,14.014" transform="translate(-1785.866 -542.096)" fill="#ffb27d"/>
          <path id="Path_3862" data-name="Path 3862" d="M2313.35,758.976c.222-.094,13.808-4.1,15.284-3.615s2.35,3.343,2.35,3.343l-22.222,5.024s1.75-3.556,4.588-4.751" transform="translate(-1773.034 -580.104)" fill="#e9871c"/>
          <path id="Path_3863" data-name="Path 3863" d="M2315.728,860.941c-2.3,10.505-40.628,11.751-50.507,2.215-1.124-1.087-1.179-6.144-.755-12.962.828-13.322,3.491-33.36,3.594-43.6A81.1,81.1,0,0,1,2269.7,792a118.509,118.509,0,0,1,4.861-17.467s18.719-6.052,22.222-5.022c16.875,4.958,21.252,80.922,18.95,91.427" transform="translate(-1738.829 -590.915)" fill="#f59d23"/>
          <path id="Path_3864" data-name="Path 3864" d="M2265.273,918.437c.829-13.321,3.491-33.36,3.594-43.6a81.075,81.075,0,0,1,1.635-14.593l11.261-1.987s11.01,44.969-16.49,60.178" transform="translate(-1739.636 -659.157)" fill="#e9871c"/>
          <path id="Path_3865" data-name="Path 3865" d="M2280.939,1031.786a2.65,2.65,0,0,1-.844,3.067c-1.612,1.232-2.658,3.228-2.288,4.686s3.905,3.838,5.131,3.454,3.721-2.3,3.452-3.074,1.678-6.751-1.31-9.054-4.14.921-4.14.921" transform="translate(-1749.205 -791.075)" fill="#ffb27d"/>
          <path id="Path_3866" data-name="Path 3866" d="M2236.914,781.5s-10.96,1.692-19.71,14.587-14.508,22.483-12.9,27.131,16.306,20.767,18.839,20.767,6.621-1.842,6.851-5.987c0,0-10.345-15.5-8.307-17.827.871-.992,13.43-11.189,15.224-6.583,2.967,7.62,0-32.088,0-32.088" transform="translate(-1692.609 -600.21)" fill="#f59d23"/>
          <path id="Path_3867" data-name="Path 3867" d="M2344.67,715.549c-2.082,3.984-9.84,7.429-13.076,8.7.037-.2.074-.41.109-.61.522-2.957.974-5.5.974-5.5l9.481-4.725c2.1-.032,3.371.5,2.512,2.137" transform="translate(-1790.569 -547.921)" fill="#fca56b"/>
          <path id="Path_3868" data-name="Path 3868" d="M2309.329,638.221s17.1,5.336,20.262-5.367,7.494-17.222-3.293-21.081-14.124-.4-16.047,2.912-5.29,21.873-.922,23.537" transform="translate(-1771.827 -468.559)" fill="#ffb27d"/>
          <path id="Path_3869" data-name="Path 3869" d="M2326.727,594.835s.988,12.849,3.573,12.269,4.93-1.014,4.521,2.865-4.027,8.385,3.923,9,19.56-20.613,17.408-24.6c-6.21-11.492-38.423-13.549-29.425.459" transform="translate(-1785.621 -449.332)" fill="#163560"/>
          <path id="Path_3870" data-name="Path 3870" d="M2773.1,1133.365s-6.56,1.685-10.73.428-11.348.807-12.5,2.328-.731,2.125,1.332,2.65,9.37,3.642,14.172,1.838a38.255,38.255,0,0,1,11.066-1.87Z" transform="translate(-2111.302 -870.428)" fill="#e49963"/>
          <path id="Path_3871" data-name="Path 3871" d="M2892.531,863.573s-7.369,52.378-19.572,57.07c-6.022,2.314-32.633,7.562-40.5,8.089,0,0-1.928-1.564-1.458-7.932,0,0,27.88-10.236,31.841-15.8,5.895-8.285-3.659-33.845,3.737-41.625s19.855-11.125,25.957.2" transform="translate(-2174.031 -657.623)" fill="#822004"/>
          <path id="Path_3872" data-name="Path 3872" d="M2971.42,1481.806v-11.519H2989.4a.885.885,0,0,0,.882-.882v-1.83a.885.885,0,0,0-.882-.882H2971.42v-65.009a3.327,3.327,0,0,0-3.317-3.317h-3.558a3.326,3.326,0,0,0-3.316,3.317v65.009H2943.25a.885.885,0,0,0-.883.882v1.83a.885.885,0,0,0,.883.882h17.979v11.519c-13.01.983-23.431,5.669-26.355,11.72h62.9c-2.924-6.051-13.345-10.738-26.355-11.72" transform="translate(-2253.862 -1073.939)" fill="#2b478b"/>
          <path id="Path_3873" data-name="Path 3873" d="M2840.374,1261.556a91.8,91.8,0,0,1-7.2,10.3c-7.921,10-16.542,18.244-18.045,26.037a35.333,35.333,0,0,1-1.392,4.988c-.628,1.785-1.4,3.662-2.3,5.6a172.625,172.625,0,0,1-13.405,22.918c-8.676,12.855-16.834,23.582-16.834,23.582l-14.96-.637c.6-1.5,7.124-19.25,15.853-40.941,3.544-8.806,7.314-18.172,10.95-27.205q.727-1.809,1.448-3.6c1.112-2.764,2.206-5.486,3.274-8.135,8.2-20.368,14.725-36.587,14.725-36.587s32.759-12.41,36.161-4.368c2.805,6.63.52,13.126-8.277,28.044" transform="translate(-2124.358 -945.255)" fill="#163560"/>
          <path id="Path_3874" data-name="Path 3874" d="M2727.943,1741.11s-.732,12.4-3.12,12.582c-.318.023-27.323,0-27.323,0a5.155,5.155,0,0,1,4.617-4.518c4.4-.767,11.769-3.861,14.435-9.678,2.805-6.12,11.391,1.615,11.391,1.615" transform="translate(-2071.569 -1334.101)" fill="#163560"/>
          <path id="Path_3875" data-name="Path 3875" d="M2952.07,1602.261s10.406,6.686,9.4,8.858c-.135.289-5.885,10.588-5.885,10.588l-7.417,13.106s-3.12-1.855-1.644-6.072,2.367-12.158-1.413-17.322c-3.976-5.433,6.963-9.158,6.963-9.158" transform="translate(-2261.052 -1230.521)" fill="#163560"/>
          <path id="Path_3876" data-name="Path 3876" d="M2765.462,1235.313s-41.379,25.755-45.969,42.968,54.7,53.933,54.7,53.933,6.5-5.738,7.65-9.945c0,0-26.8-32.107-32.612-39.3-3.57-4.42,52.788-15.3,59.674-26.011s4.42-19.722,4.42-19.722Z" transform="translate(-2088.264 -948.72)" fill="#1c468a"/>
          <path id="Path_3877" data-name="Path 3877" d="M2963.1,1377.666h-84.155a3.069,3.069,0,0,0-3.06,3.06v16.831a3.069,3.069,0,0,0,3.06,3.06H2963.1a3.069,3.069,0,0,0,3.06-3.06v-16.831a3.069,3.069,0,0,0-3.06-3.06" transform="translate(-2208.563 -1058.041)" fill="#f59d23"/>
          <path id="Path_3878" data-name="Path 3878" d="M2998.441,791.745s-16.328,9.128-26.181,6.581a23.248,23.248,0,0,1,6.265-5.676c-.216-.958-.4-1.861-.567-2.7a64.1,64.1,0,0,1-1.111-7.609l7.522-6.741,5.059,1.072c.1.5.2.979.324,1.452a24.161,24.161,0,0,0,8.687,13.621" transform="translate(-2282.573 -595.679)" fill="#e49963"/>
          <path id="Path_3879" data-name="Path 3879" d="M2962.383,879.7c-1.41,18.979.447,47.84-1.154,52.838-1.384,4.314-17.124,1.749-23.407.311-2.324-.534-5.142-1.295-8.049-2.2-8.114-2.513-16.958-6.1-17.907-8.764a2.51,2.51,0,0,1-.086-.306v0c-.016-.067-.028-.135-.037-.2a2.506,2.506,0,0,1,.053-.911c.316-1.358,1.534-2.826,1.678-6.189.16-3.752.137-8.172.279-12.925.007-.536.014-1.121.072-1.652l0-.195c0-.1,0-.2.007-.3.136-5.3.415-10.873.735-16.4.2-3.471.44-6.91.712-10.2.708-8.5,1.661-16.062,2.924-20.84,2.062-7.792,6.61-12.873,10.752-16.6l2.993-2.568a17.306,17.306,0,0,0,10.867-1.448c3.866-1.836,5.2-3.151,5.875-2.655,8.931,6.892,15.356,28.008,13.689,51.207" transform="translate(-2236.083 -636.216)" fill="#9f2300"/>
          <path id="Path_3880" data-name="Path 3880" d="M2929.773,1119.013c-8.114-2.513-16.958-6.1-17.907-8.765a2.513,2.513,0,0,1-.086-.306v0a.625.625,0,0,0-.037-.2,2.508,2.508,0,0,1,.053-.912c.316-1.357,1.534-2.826,1.678-6.188.16-3.752.137-8.173.279-12.925.007-.536.014-1.121.072-1.652l0-.2c0-.1,0-.2.007-.3l30.652-13.9s1.766,24.7-14.714,45.353" transform="translate(-2236.083 -824.577)" fill="#822004"/>
          <path id="Path_3881" data-name="Path 3881" d="M3004.936,778.125c-1.114,2.815-4.448,9.451-11.795,11.825a64.187,64.187,0,0,1-1.111-7.609l7.523-6.741,5.059,1.072c.1.5.2.979.325,1.452" transform="translate(-2297.755 -595.679)" fill="#d68d5d"/>
          <path id="Path_3882" data-name="Path 3882" d="M2966.581,715.509s16.143,1.821,17.122-8.249,3.722-16.618-6.543-18.206-12.644,2.06-13.788,5.341-.964,20.381,3.209,21.114" transform="translate(-2275.283 -528.92)" fill="#e49963"/>
          <path id="Path_3883" data-name="Path 3883" d="M2981.127,686.575s-1.024-13.367-15.718-14.752c-10.064-.948-4.453-9.611-3.38-10.993,0,0,7.711,1.057,15.615,2.363,16.59,2.741,5.112,21.3,3.483,23.381" transform="translate(-2272.776 -507.541)" fill="#2b478b"/>
          <path id="Path_3884" data-name="Path 3884" d="M2710.835,1064.625l-40,.854-11.372-35-1.413.459,12.022,37,40.816-.872Z" transform="translate(-2041.272 -791.416)" fill="#4a75cb"/>
          <path id="Path_3885" data-name="Path 3885" d="M2789.608,1168.068s-6.335,2.4-10.618,1.609-11.189,2.053-12.171,3.692-.493,2.193,1.615,2.487,9.714,2.587,14.289.264a38.262,38.262,0,0,1,10.793-3.078Z" transform="translate(-2124.43 -897.078)" fill="#e49963"/>
          <path id="Path_3886" data-name="Path 3886" d="M2900.88,876.851s-1.551,52.872-13.162,58.88c-5.729,2.964-31.6,11.114-39.365,12.505,0,0-2.089-1.342-2.324-7.723,0,0,26.582-13.247,29.9-19.217,4.946-8.884-7.369-33.234-.875-41.783s18.507-13.246,25.821-2.663" transform="translate(-2185.633 -668.753)" fill="#9f2300"/>
          <path id="Path_3887" data-name="Path 3887" d="M1140.163,910.583l-16.4,195.043s-1.719,11.823,7.075,11.844c14.46.035,71.971,0,71.971,0s-10.883-2.461-10.751-8c.155-6.527,19.172-200.734,19.172-200.734Z" transform="translate(-862.897 -697.923)" fill="#d86713"/>
          <path id="Path_3888" data-name="Path 3888" d="M1223.118,1102.219c-2.844.008-57.774.181-71.856,0-6.137-.076-7.213-5.457-7.264-8.938a17.419,17.419,0,0,1,.186-2.9l.426-5.07,1.087-12.921.96-11.416,1.234-14.669,1.04-12.381,11.655-138.592,71.065-1.844s-8.01,81.275-13.675,140.436c-.632,6.592-1.234,12.912-1.791,18.812q-.271,2.826-.522,5.519c-.526,5.6-1.006,10.738-1.424,15.276-.22,2.392-.424,4.615-.607,6.651-.723,7.978-1.147,13.073-1.152,14.042a8.178,8.178,0,0,0,.138,1.579c1.166,6.216,9.43,6.42,10.5,6.42" transform="translate(-878.542 -686.211)" fill="#ee9849"/>
          <path id="Path_3889" data-name="Path 3889" d="M451.134,459.294l39.956,160.5,5.471,21.981,18.609,74.755H860.91L792.317,459.294Z" transform="translate(-346.453 -352.77)" fill="#f59d23"/>
          <path id="Path_3890" data-name="Path 3890" d="M432.805,459.293l-5.537,1.846,62.213,260.97,7.362-5.583Z" transform="translate(-328.124 -352.769)" fill="#ee9849"/>
          <path id="Path_3891" data-name="Path 3891" d="M695.379,1573.44H1038.99l9.489-5.583H702.742Z" transform="translate(-534.023 -1204.1)" fill="#d86713"/>
          <rect id="Rectangle_2677" data-name="Rectangle 2677" width="74.397" height="3.535" transform="translate(282.022 416.086)" fill="#f59d23"/>
          <path id="Path_3892" data-name="Path 3892" d="M842.329,669.126l-56.1-206.432H448.75v-3.4H790.486L846.4,668.667Z" transform="translate(-344.622 -352.769)" fill="#f59d23"/>
          <path id="Path_3893" data-name="Path 3893" d="M1221.682,1591.911l-.384,2.7-69.967,14.135.96-11.415.457-5.423Z" transform="translate(-884.175 -1222.573)" fill="#d86713"/>
          <g id="Group_3085" data-name="Group 3085" transform="translate(265.455 393.968)" opacity="0.4">
            <g id="Group_3084" data-name="Group 3084">
              <g id="Group_3083" data-name="Group 3083" clip-path="url(#clip-path-3)">
                <path id="Path_3894" data-name="Path 3894" d="M1223.124,1720.095c-2.844.009-57.774.181-71.856,0-6.137-.076-7.213-5.456-7.264-8.938l69.636-13.1c-.723,7.979-1.147,13.073-1.152,14.042a8.2,8.2,0,0,0,.138,1.579c1.166,6.216,9.43,6.419,10.5,6.419" transform="translate(-1144.004 -1698.055)" fill="#d86713"/>
              </g>
            </g>
          </g>
          <g id="Group_3088" data-name="Group 3088" transform="translate(150.109 289.001)" opacity="0.4">
            <g id="Group_3087" data-name="Group 3087">
              <g id="Group_3086" data-name="Group 3086" clip-path="url(#clip-path-4)">
                <path id="Path_3895" data-name="Path 3895" d="M817.394,1268.374l-151.877,52.074-18.61-74.755Z" transform="translate(-646.906 -1245.692)" fill="#d86713"/>
              </g>
            </g>
          </g>
          <path id="Path_3896" data-name="Path 3896" d="M451.132,459.293H792.315l55.358,206.733H500.841Z" transform="translate(-346.451 -352.769)" fill="#699dee"/>
          <path id="Path_3897" data-name="Path 3897" d="M1450.261,1432.469a11.692,11.692,0,0,0-10.964-9.18c-5.07,0-8.381,4.11-7.4,9.18a11.692,11.692,0,0,0,10.965,9.18c5.07,0,8.381-4.11,7.4-9.18" transform="translate(-1099.507 -1093.078)" fill="#d86713"/>
          <path id="Path_3898" data-name="Path 3898" d="M878.356,693.718H558.9L522.727,549.6l-2.773-11.052-2.367-9.427-5.548-22.1H826.886l6.093,22.1,2.6,9.427,3.046,11.052Z" transform="translate(-393.225 -389.419)" fill="#e9f3fe"/>
          <path id="Path_3899" data-name="Path 3899" d="M832.979,529.121H517.587l-5.548-22.1H826.886Z" transform="translate(-393.225 -389.418)" fill="#afcdfb"/>
          <path id="Path_3900" data-name="Path 3900" d="M569.963,538.159a2.088,2.088,0,0,0-2.074,2.763,3.775,3.775,0,0,0,3.452,2.763,2.088,2.088,0,0,0,2.074-2.763,3.774,3.774,0,0,0-3.452-2.763" transform="translate(-436.049 -413.334)" fill="#e9f3fe"/>
          <path id="Path_3901" data-name="Path 3901" d="M609.53,538.159a2.087,2.087,0,0,0-2.074,2.763,3.774,3.774,0,0,0,3.452,2.763,2.088,2.088,0,0,0,2.074-2.763,3.774,3.774,0,0,0-3.452-2.763" transform="translate(-466.435 -413.334)" fill="#e9f3fe"/>
          <path id="Path_3902" data-name="Path 3902" d="M655.588,540.922a3.774,3.774,0,0,0-3.452-2.763,2.088,2.088,0,0,0-2.074,2.763,3.775,3.775,0,0,0,3.452,2.763,2.088,2.088,0,0,0,2.074-2.763" transform="translate(-499.155 -413.334)" fill="#e9f3fe"/>
          <path id="Path_3903" data-name="Path 3903" d="M1545.6,825.011c-2.306-9.25-11.715-16.776-20.974-16.776a13.194,13.194,0,0,0-10.713,4.85c-2.546,3.258-3.31,7.61-2.152,12.253,2.307,9.25,11.716,16.776,20.974,16.776a13.2,13.2,0,0,0,10.713-4.85c2.545-3.258,3.309-7.61,2.152-12.253m-3.22,11.419a11.868,11.868,0,0,1-9.645,4.329c-8.675,0-17.494-7.064-19.659-15.748-1.055-4.23-.378-8.169,1.905-11.091a11.868,11.868,0,0,1,9.645-4.329c8.675,0,17.494,7.064,19.659,15.748,1.055,4.23.378,8.168-1.905,11.091" transform="translate(-1160.569 -620.742)" fill="#9f2300"/>
          <path id="Path_3904" data-name="Path 3904" d="M1573.862,856.77l-1.686-11.792-.133-.534h-4.749l.133.534,4.194,11.792Z" transform="translate(-1203.617 -648.549)" fill="#9f2300"/>
          <path id="Path_3905" data-name="Path 3905" d="M1583.693,906.528l1.064,4.268h4.322l-1.064-4.268Z" transform="translate(-1216.211 -696.227)" fill="#9f2300"/>
          <path id="Path_3906" data-name="Path 3906" d="M1590.047,997.654c-2.306-9.25-11.715-16.776-20.974-16.776a13.194,13.194,0,0,0-10.713,4.85c-2.545,3.258-3.309,7.61-2.152,12.253,2.306,9.25,11.715,16.776,20.974,16.776a13.193,13.193,0,0,0,10.713-4.85c2.545-3.258,3.31-7.61,2.152-12.253m-3.22,11.419a11.87,11.87,0,0,1-9.645,4.329c-8.675,0-17.494-7.065-19.659-15.748-1.054-4.23-.378-8.169,1.905-11.091a11.868,11.868,0,0,1,9.645-4.329c8.675,0,17.494,7.064,19.659,15.748,1.055,4.23.378,8.169-1.9,11.091" transform="translate(-1194.699 -753.324)" fill="#9f2300"/>
          <path id="Path_3907" data-name="Path 3907" d="M1618.3,1029.412l-1.686-11.792-.133-.533h-4.749l.133.533,4.194,11.792Z" transform="translate(-1237.747 -781.132)" fill="#9f2300"/>
          <path id="Path_3908" data-name="Path 3908" d="M1628.135,1079.17l1.064,4.269h4.322l-1.064-4.269Z" transform="translate(-1250.341 -828.808)" fill="#9f2300"/>
          <path id="Path_3909" data-name="Path 3909" d="M1735.532,845.7a1.445,1.445,0,0,0,1.433-1.909,2.616,2.616,0,0,0-2.385-1.909h-34a1.445,1.445,0,0,0-1.433,1.909,2.616,2.616,0,0,0,2.385,1.909Z" transform="translate(-1304.833 -646.581)" fill="#afcdfb"/>
          <path id="Path_3910" data-name="Path 3910" d="M1712.654,735.148a2.616,2.616,0,0,0-2.384-1.909h-34a1.446,1.446,0,0,0-1.433,1.909,2.616,2.616,0,0,0,2.385,1.909h34a1.446,1.446,0,0,0,1.433-1.909" transform="translate(-1286.163 -563.148)" fill="#afcdfb"/>
          <path id="Path_3911" data-name="Path 3911" d="M1743.346,877.039a1.446,1.446,0,0,0,1.433-1.909,2.616,2.616,0,0,0-2.385-1.909h-34a1.445,1.445,0,0,0-1.433,1.909,2.616,2.616,0,0,0,2.385,1.909Z" transform="translate(-1310.834 -670.648)" fill="#afcdfb"/>
          <path id="Path_3912" data-name="Path 3912" d="M1752.593,906.468a2.616,2.616,0,0,0-2.385-1.909h-34a1.446,1.446,0,0,0-1.433,1.909,2.617,2.617,0,0,0,2.385,1.909h34a1.445,1.445,0,0,0,1.433-1.909" transform="translate(-1316.835 -694.715)" fill="#afcdfb"/>
          <path id="Path_3913" data-name="Path 3913" d="M1779.974,1018.342a1.446,1.446,0,0,0,1.433-1.909,2.617,2.617,0,0,0-2.385-1.909h-34a1.446,1.446,0,0,0-1.433,1.909,2.616,2.616,0,0,0,2.385,1.909Z" transform="translate(-1338.963 -779.163)" fill="#afcdfb"/>
          <path id="Path_3914" data-name="Path 3914" d="M1787.789,1049.68a1.446,1.446,0,0,0,1.433-1.909,2.616,2.616,0,0,0-2.385-1.909h-34a1.445,1.445,0,0,0-1.433,1.909,2.617,2.617,0,0,0,2.385,1.909Z" transform="translate(-1344.964 -803.229)" fill="#afcdfb"/>
          <path id="Path_3915" data-name="Path 3915" d="M1797.035,1079.11a2.617,2.617,0,0,0-2.385-1.909h-34a1.446,1.446,0,0,0-1.433,1.909,2.617,2.617,0,0,0,2.385,1.909h34a1.445,1.445,0,0,0,1.433-1.909" transform="translate(-1350.964 -827.296)" fill="#afcdfb"/>
          <path id="Path_3916" data-name="Path 3916" d="M900.834,664.882l-2.373-9.517a4.349,4.349,0,0,0-3.964-3.173H622.01a2.4,2.4,0,0,0-2.382,3.173L622,664.882a4.349,4.349,0,0,0,3.964,3.173H898.452a2.4,2.4,0,0,0,2.382-3.173" transform="translate(-475.775 -500.907)" fill="#afcdfb"/>
          <path id="Path_3917" data-name="Path 3917" d="M815.172,652.192l3.955,15.863H625.966A4.349,4.349,0,0,1,622,664.882l-2.373-9.517a2.4,2.4,0,0,1,2.382-3.173Z" transform="translate(-475.775 -500.907)" fill="#9f2300"/>
          <path id="Path_3918" data-name="Path 3918" d="M1612.2,673.8l.3,1.219h3.015l-1.573,5.2h1.595l1.543-5.351-.265-1.063Z" transform="translate(-1238.101 -517.504)" fill="#699dee"/>
          <path id="Path_3919" data-name="Path 3919" d="M1640.5,673.329c-1.7,0-2.5,1.457-2.032,3.317a4.069,4.069,0,0,0,3.668,3.317c1.714,0,2.5-1.457,2.032-3.317a4.085,4.085,0,0,0-3.667-3.317m1.336,5.361c-.852,0-1.628-.87-1.921-2.043-.3-1.191.04-2.043.883-2.043s1.63.88,1.921,2.043c.295,1.182-.031,2.043-.884,2.043" transform="translate(-1258.173 -517.139)" fill="#699dee"/>
          <path id="Path_3920" data-name="Path 3920" d="M1689.191,689.265a2.106,2.106,0,0,0-1.958-1.64,1.188,1.188,0,0,0-1.158,1.64,2.105,2.105,0,0,0,1.957,1.64,1.192,1.192,0,0,0,1.158-1.64m-1.348.807c-.367,0-.7-.376-.806-.807s0-.806.386-.806c.366,0,.7.376.806.806s0,.807-.386.807" transform="translate(-1294.792 -528.118)" fill="#699dee"/>
          <path id="Path_3921" data-name="Path 3921" d="M1676.816,673.8l-3.083,6.414h1.091l3.083-6.414Z" transform="translate(-1285.358 -517.504)" fill="#699dee"/>
          <path id="Path_3922" data-name="Path 3922" d="M1668.685,675.127a2.106,2.106,0,0,0-1.958-1.64,1.189,1.189,0,0,0-1.158,1.64,2.105,2.105,0,0,0,1.958,1.64,1.192,1.192,0,0,0,1.158-1.64m-2.153,0c-.11-.44,0-.806.385-.806.367,0,.7.376.806.806s0,.807-.385.807c-.367,0-.7-.376-.806-.807" transform="translate(-1279.044 -517.261)" fill="#699dee"/>
          <path id="Path_3923" data-name="Path 3923" d="M866.61,993.138a2.708,2.708,0,0,0,2.69-3.584,4.9,4.9,0,0,0-4.478-3.585H705.936a2.708,2.708,0,0,0-2.691,3.585,4.9,4.9,0,0,0,4.478,3.584Z" transform="translate(-539.978 -757.234)" fill="#afcdfb"/>
          <path id="Path_3924" data-name="Path 3924" d="M879.4,1044.421a2.708,2.708,0,0,0,2.691-3.584,4.9,4.9,0,0,0-4.478-3.584H718.722a2.708,2.708,0,0,0-2.691,3.584,4.9,4.9,0,0,0,4.478,3.584Z" transform="translate(-549.797 -796.618)" fill="#afcdfb"/>
          <path id="Path_3925" data-name="Path 3925" d="M895.441,1094.4a4.9,4.9,0,0,0-4.478-3.584H732.076a2.708,2.708,0,0,0-2.691,3.584,4.9,4.9,0,0,0,4.478,3.584H892.75a2.708,2.708,0,0,0,2.691-3.584" transform="translate(-560.053 -837.751)" fill="#afcdfb"/>
          <path id="Path_3926" data-name="Path 3926" d="M1004.13,804.89a6.154,6.154,0,0,0,5.628,4.5h17.722a3.4,3.4,0,0,0,3.382-4.5l-8.566-34.357a6.154,6.154,0,0,0-5.629-4.505H998.946a3.4,3.4,0,0,0-3.382,4.505Z" transform="translate(-764.445 -588.328)" fill="#afcdfb"/>
          <path id="Path_3927" data-name="Path 3927" d="M1136.316,804.89a6.154,6.154,0,0,0,5.628,4.5h17.722a3.4,3.4,0,0,0,3.382-4.5l-8.566-34.357a6.154,6.154,0,0,0-5.629-4.505h-17.721a3.4,3.4,0,0,0-3.382,4.505Z" transform="translate(-865.959 -588.328)" fill="#afcdfb"/>
          <path id="Path_3928" data-name="Path 3928" d="M1266.034,804.89a6.153,6.153,0,0,0,5.628,4.5h17.722a3.4,3.4,0,0,0,3.382-4.5l-8.566-34.357a6.154,6.154,0,0,0-5.629-4.505H1260.85a3.4,3.4,0,0,0-3.382,4.505Z" transform="translate(-965.577 -588.328)" fill="#afcdfb"/>
          <path id="Path_3929" data-name="Path 3929" d="M734.411,801.843l-7.047-28.265a10.315,10.315,0,0,0-9.434-7.551h-60c-4.17,0-6.708,3.381-5.668,7.551l7.047,28.265a10.315,10.315,0,0,0,9.434,7.551h60c4.17,0,6.708-3.381,5.668-7.551" transform="translate(-500.733 -588.328)" fill="#afcdfb"/>
          <path id="Path_3930" data-name="Path 3930" d="M739.949,801.374a1.3,1.3,0,0,0,1.29-1.719h0a2.356,2.356,0,0,0-2.147-1.719h-56.06a1.3,1.3,0,0,0-1.29,1.719h0a2.356,2.356,0,0,0,2.147,1.719Z" transform="translate(-523.509 -612.833)" fill="#699dee"/>
          <path id="Path_3931" data-name="Path 3931" d="M747.052,829.864a1.3,1.3,0,0,0,1.29-1.719,2.355,2.355,0,0,0-2.147-1.719h-56.06a1.3,1.3,0,0,0-1.29,1.719,2.356,2.356,0,0,0,2.147,1.719Z" transform="translate(-528.964 -634.712)" fill="#699dee"/>
          <path id="Path_3932" data-name="Path 3932" d="M755.445,856.635a2.356,2.356,0,0,0-2.147-1.719h-56.06a1.3,1.3,0,0,0-1.29,1.719,2.356,2.356,0,0,0,2.148,1.719h56.06a1.3,1.3,0,0,0,1.29-1.719" transform="translate(-534.419 -656.591)" fill="#699dee"/>
          <path id="Path_3933" data-name="Path 3933" d="M718.42,886.825H705.194a1.3,1.3,0,0,0-1.29,1.719,2.356,2.356,0,0,0,2.148,1.719h13.226a1.3,1.3,0,0,0,1.29-1.719,2.356,2.356,0,0,0-2.147-1.719" transform="translate(-540.529 -681.096)" fill="#699dee"/>
          <path id="Path_3934" data-name="Path 3934" d="M1871.433,1183.436l-3.7-14.826a5.409,5.409,0,0,0-4.948-3.961h-31.471a2.992,2.992,0,0,0-2.973,3.961l3.7,14.826a5.41,5.41,0,0,0,4.948,3.961h31.47a2.992,2.992,0,0,0,2.973-3.961" transform="translate(-1403.999 -894.453)" fill="#afcdfb"/>
          <path id="Path_3935" data-name="Path 3935" d="M1874.338,1183.189a.682.682,0,0,0,.677-.9,1.236,1.236,0,0,0-1.126-.9h-29.406a.683.683,0,0,0-.677.9,1.236,1.236,0,0,0,1.126.9Z" transform="translate(-1415.946 -907.306)" fill="#699dee"/>
          <path id="Path_3936" data-name="Path 3936" d="M1878.064,1198.134a.683.683,0,0,0,.677-.9,1.236,1.236,0,0,0-1.126-.9h-29.406a.683.683,0,0,0-.677.9,1.236,1.236,0,0,0,1.126.9Z" transform="translate(-1418.808 -918.782)" fill="#699dee"/>
          <path id="Path_3937" data-name="Path 3937" d="M1882.467,1212.176a1.236,1.236,0,0,0-1.126-.9h-29.405a.683.683,0,0,0-.677.9,1.236,1.236,0,0,0,1.126.9h29.406a.683.683,0,0,0,.677-.9" transform="translate(-1421.669 -930.259)" fill="#699dee"/>
          <path id="Path_3938" data-name="Path 3938" d="M1863.046,1228.012h-6.937a.683.683,0,0,0-.677.9,1.236,1.236,0,0,0,1.126.9h6.937a.683.683,0,0,0,.677-.9,1.235,1.235,0,0,0-1.126-.9" transform="translate(-1424.874 -943.113)" fill="#699dee"/>
          <path id="Path_3939" data-name="Path 3939" d="M869.913,1189.909a1.021,1.021,0,0,0,1.015-1.352,1.847,1.847,0,0,0-1.689-1.352H809.308a1.022,1.022,0,0,0-1.015,1.352,1.847,1.847,0,0,0,1.689,1.352Z" transform="translate(-620.704 -911.775)" fill="#f59d23"/>
          <path id="Path_3940" data-name="Path 3940" d="M874.737,1209.253a1.021,1.021,0,0,0,1.015-1.352,1.847,1.847,0,0,0-1.689-1.352H814.132a1.021,1.021,0,0,0-1.015,1.352,1.846,1.846,0,0,0,1.689,1.352Z" transform="translate(-624.408 -926.63)" fill="#f59d23"/>
          <path id="Path_3941" data-name="Path 3941" d="M879.1,1226.752H819.168a1.021,1.021,0,0,0-1.015,1.352,1.846,1.846,0,0,0,1.689,1.352h59.931a1.021,1.021,0,0,0,1.015-1.352,1.846,1.846,0,0,0-1.689-1.352" transform="translate(-628.276 -942.145)" fill="#f59d23"/>
          <path id="Path_3942" data-name="Path 3942" d="M1203.23,1189.909a1.021,1.021,0,0,0,1.015-1.352,1.847,1.847,0,0,0-1.689-1.352h-59.931a1.022,1.022,0,0,0-1.015,1.352,1.846,1.846,0,0,0,1.689,1.352Z" transform="translate(-876.677 -911.775)" fill="#f59d23"/>
          <path id="Path_3943" data-name="Path 3943" d="M1208.053,1209.253a1.021,1.021,0,0,0,1.015-1.352,1.846,1.846,0,0,0-1.689-1.352h-59.931a1.021,1.021,0,0,0-1.015,1.352,1.847,1.847,0,0,0,1.689,1.352Z" transform="translate(-880.381 -926.63)" fill="#f59d23"/>
          <path id="Path_3944" data-name="Path 3944" d="M1212.417,1226.752h-59.931a1.021,1.021,0,0,0-1.015,1.352,1.846,1.846,0,0,0,1.689,1.352h59.931a1.021,1.021,0,0,0,1.015-1.352,1.847,1.847,0,0,0-1.689-1.352" transform="translate(-884.25 -942.145)" fill="#f59d23"/>
          <path id="Path_3945" data-name="Path 3945" d="M1526.291,1189.909a1.021,1.021,0,0,0,1.015-1.352,1.846,1.846,0,0,0-1.689-1.352h-59.931a1.022,1.022,0,0,0-1.015,1.352,1.846,1.846,0,0,0,1.689,1.352Z" transform="translate(-1124.775 -911.775)" fill="#f59d23"/>
          <path id="Path_3946" data-name="Path 3946" d="M1531.114,1209.253a1.021,1.021,0,0,0,1.015-1.352,1.846,1.846,0,0,0-1.689-1.352h-59.931a1.021,1.021,0,0,0-1.015,1.352,1.847,1.847,0,0,0,1.689,1.352Z" transform="translate(-1128.479 -926.63)" fill="#f59d23"/>
          <path id="Path_3947" data-name="Path 3947" d="M1537.166,1228.1a1.847,1.847,0,0,0-1.689-1.352h-59.931a1.021,1.021,0,0,0-1.015,1.352,1.847,1.847,0,0,0,1.689,1.352h59.931a1.021,1.021,0,0,0,1.015-1.352" transform="translate(-1132.347 -942.145)" fill="#f59d23"/>
          <path id="Path_3948" data-name="Path 3948" d="M998.719,1184.761H767.6a5.053,5.053,0,0,1-4.622-3.687l-4.615-18.51a3.3,3.3,0,0,1,.523-2.856,3.106,3.106,0,0,1,2.517-1.158H992.521a5.053,5.053,0,0,1,4.622,3.687l4.615,18.51a3.3,3.3,0,0,1-.523,2.856,3.1,3.1,0,0,1-2.516,1.158M761.405,1159.9a1.781,1.781,0,0,0-1.449.638,1.936,1.936,0,0,0-.276,1.694l4.615,18.51a3.678,3.678,0,0,0,3.307,2.659H998.719a1.78,1.78,0,0,0,1.449-.638,1.935,1.935,0,0,0,.276-1.694l-4.615-18.51a3.678,3.678,0,0,0-3.307-2.66Z" transform="translate(-582.305 -889.768)" fill="#f59d23"/>
        </g>
      </g>
    </g>
  </g>
</svg>
