<svg id="Group_3305" data-name="Group 3305" xmlns="http://www.w3.org/2000/svg" xmlns:xlink="http://www.w3.org/1999/xlink" width="434" height="405.523" viewBox="0 0 434 405.523">
  <defs>
    <clipPath id="clip-path">
      <rect id="Rectangle_2923" data-name="Rectangle 2923" width="434" height="405.523" fill="none"/>
    </clipPath>
    <clipPath id="clip-path-6">
      <rect id="Rectangle_2873" data-name="Rectangle 2873" width="214.63" height="141.91" fill="none"/>
    </clipPath>
    <clipPath id="clip-path-7">
      <rect id="Rectangle_2874" data-name="Rectangle 2874" width="200.325" height="254.241" fill="none"/>
    </clipPath>
    <clipPath id="clip-path-9">
      <rect id="Rectangle_2876" data-name="Rectangle 2876" width="213.372" height="123.428" fill="none"/>
    </clipPath>
    <clipPath id="clip-path-10">
      <rect id="Rectangle_2877" data-name="Rectangle 2877" width="4.219" height="13.352" fill="none"/>
    </clipPath>
    <clipPath id="clip-path-11">
      <rect id="Rectangle_2878" data-name="Rectangle 2878" width="17.054" height="17.728" fill="none"/>
    </clipPath>
    <clipPath id="clip-path-12">
      <rect id="Rectangle_2879" data-name="Rectangle 2879" width="17.055" height="17.727" fill="none"/>
    </clipPath>
    <clipPath id="clip-path-17">
      <rect id="Rectangle_2884" data-name="Rectangle 2884" width="17.054" height="17.727" fill="none"/>
    </clipPath>
    <clipPath id="clip-path-20">
      <rect id="Rectangle_2887" data-name="Rectangle 2887" width="36.327" height="20.974" fill="none"/>
    </clipPath>
    <clipPath id="clip-path-22">
      <rect id="Rectangle_2889" data-name="Rectangle 2889" width="18.166" height="34.109" fill="none"/>
    </clipPath>
    <clipPath id="clip-path-26">
      <rect id="Rectangle_2893" data-name="Rectangle 2893" width="18.167" height="43.92" fill="none"/>
    </clipPath>
    <clipPath id="clip-path-28">
      <rect id="Rectangle_2895" data-name="Rectangle 2895" width="18.165" height="43.917" fill="none"/>
    </clipPath>
    <clipPath id="clip-path-32">
      <rect id="Rectangle_2899" data-name="Rectangle 2899" width="18.166" height="22.299" fill="none"/>
    </clipPath>
    <clipPath id="clip-path-34">
      <rect id="Rectangle_2901" data-name="Rectangle 2901" width="18.166" height="22.298" fill="none"/>
    </clipPath>
    <clipPath id="clip-path-36">
      <rect id="Rectangle_2903" data-name="Rectangle 2903" width="33.271" height="26.75" fill="none"/>
    </clipPath>
    <clipPath id="clip-path-37">
      <rect id="Rectangle_2904" data-name="Rectangle 2904" width="37.643" height="29.792" fill="none"/>
    </clipPath>
    <clipPath id="clip-path-38">
      <rect id="Rectangle_2905" data-name="Rectangle 2905" width="20.868" height="18.919" fill="none"/>
    </clipPath>
    <clipPath id="clip-path-39">
      <rect id="Rectangle_2906" data-name="Rectangle 2906" width="33.275" height="33.506" fill="none"/>
    </clipPath>
    <clipPath id="clip-path-40">
      <rect id="Rectangle_2907" data-name="Rectangle 2907" width="37.64" height="29.792" fill="none"/>
    </clipPath>
    <clipPath id="clip-path-41">
      <rect id="Rectangle_2908" data-name="Rectangle 2908" width="4.161" height="26.437" fill="none"/>
    </clipPath>
    <clipPath id="clip-path-42">
      <rect id="Rectangle_2909" data-name="Rectangle 2909" width="9.092" height="5.25" fill="none"/>
    </clipPath>
    <clipPath id="clip-path-43">
      <rect id="Rectangle_2910" data-name="Rectangle 2910" width="4.547" height="5.259" fill="none"/>
    </clipPath>
    <clipPath id="clip-path-44">
      <rect id="Rectangle_2911" data-name="Rectangle 2911" width="4.547" height="5.258" fill="none"/>
    </clipPath>
    <clipPath id="clip-path-51">
      <rect id="Rectangle_2918" data-name="Rectangle 2918" width="12.461" height="29.403" fill="none"/>
    </clipPath>
    <clipPath id="clip-path-52">
      <rect id="Rectangle_2919" data-name="Rectangle 2919" width="33.46" height="54.118" fill="none"/>
    </clipPath>
    <clipPath id="clip-path-53">
      <rect id="Rectangle_2920" data-name="Rectangle 2920" width="9.829" height="5.863" fill="none"/>
    </clipPath>
    <clipPath id="clip-path-54">
      <rect id="Rectangle_2921" data-name="Rectangle 2921" width="36.073" height="56.585" fill="none"/>
    </clipPath>
  </defs>
  <g id="Group_3304" data-name="Group 3304" clip-path="url(#clip-path)">
    <g id="Group_3161" data-name="Group 3161">
      <g id="Group_3160" data-name="Group 3160" clip-path="url(#clip-path)">
        <path id="Path_4301" data-name="Path 4301" d="M370.443,208.53c84.744,48.926,84.743,128.252,0,177.18s-222.141,48.927-306.884,0-84.744-128.253,0-177.18,222.14-48.927,306.884,0" transform="translate(0 -16.883)" fill="#fafafa"/>
      </g>
    </g>
    <g id="Group_3163" data-name="Group 3163">
      <g id="Group_3162" data-name="Group 3162" clip-path="url(#clip-path)">
        <path id="Path_4302" data-name="Path 4302" d="M398.471,351.86c16.977,9.8,16.977,25.694,0,35.5s-44.5,9.8-61.482,0-16.977-25.694,0-35.5,44.5-9.8,61.482,0" transform="translate(-31.858 -33.848)" fill="#e0e0e0"/>
        <path id="Path_4303" data-name="Path 4303" d="M55.012,344.04,19.364,323.458c-2.009-1.16-2.009-3.042,0-4.2L226.712,199.544a8.042,8.042,0,0,1,7.278,0l35.649,20.581c2.01,1.16,2.01,3.042,0,4.2L62.29,344.04a8.042,8.042,0,0,1-7.278,0" transform="translate(-1.754 -19.52)" fill="#e0e0e0"/>
      </g>
    </g>
    <g id="Group_3165" data-name="Group 3165">
      <g id="Group_3164" data-name="Group 3164" clip-path="url(#clip-path)">
        <path id="Path_4304" data-name="Path 4304" d="M80.467,21.815,72.4,26.469a9.562,9.562,0,0,0,.069-1.067V23.067c0-4.156-2.918-5.841-6.517-3.762a12.6,12.6,0,0,0-3.885,3.735c-.589-5.227-4.689-7.173-9.669-4.3-5.384,3.108-9.75,10.67-9.75,16.887v3.493a9.188,9.188,0,0,0,.826,4.048l-6.7,3.866A7.992,7.992,0,0,0,33.167,53.3c0,2.3,1.619,3.239,3.615,2.087L80.467,30.164A7.99,7.99,0,0,0,84.082,23.9c0-2.3-1.619-3.239-3.615-2.087" transform="translate(-3.259 -1.711)" fill="#ebebeb"/>
        <path id="Path_4305" data-name="Path 4305" d="M128.027,43.353l-6.084,3.512a7.2,7.2,0,0,0,.051-.805V44.3c0-3.137-2.2-4.408-4.918-2.84a9.5,9.5,0,0,0-2.932,2.819c-.445-3.944-3.539-5.413-7.3-3.244a16.266,16.266,0,0,0-7.358,12.744v2.638a6.949,6.949,0,0,0,.623,3.054l-5.053,2.917a6.031,6.031,0,0,0-2.729,4.726c0,1.739,1.222,2.445,2.729,1.575l32.969-19.035a6.03,6.03,0,0,0,2.728-4.725c0-1.74-1.221-2.446-2.728-1.575" transform="translate(-9.071 -3.933)" fill="#ebebeb"/>
      </g>
    </g>
    <g id="Group_3173" data-name="Group 3173">
      <g id="Group_3172" data-name="Group 3172" clip-path="url(#clip-path)">
        <path id="Path_4306" data-name="Path 4306" d="M195.383,309.441l30.645-17.719c3.159-1.823,4.738-4.213,4.739-6.6s.014-4.263.014-4.263l-31.8-17.929a6.745,6.745,0,0,1-3.05-5.284V219.859L142.408,250.79l0,37.782a6.743,6.743,0,0,0,3.051,5.283L172.5,309.442c6.318,3.647,16.562,3.647,22.879,0" transform="translate(-13.991 -21.601)" fill="#263238"/>
        <path id="Path_4307" data-name="Path 4307" d="M155.257,297.992v4.245l-9.81-5.653A6.752,6.752,0,0,1,142.4,291.3V253.52l10.2-5.882c.211,2.589.44,5.266.651,7.872l-7.15,4.139v29.519a6.7,6.7,0,0,0,3.047,5.283Z" transform="translate(-13.991 -24.33)"/>
        <path id="Path_4308" data-name="Path 4308" d="M146.5,287.113a6.74,6.74,0,0,0,3.051,5.283L172.9,305.848c6.319,3.647,16.562,3.648,22.881,0l30.66-17.718c6.319-3.646,6.319-9.559,0-13.206l-23.366-13.46a6.742,6.742,0,0,1-3.051-5.283V226.66L146.5,257.59Z" transform="translate(-14.394 -22.269)" fill="#37474f"/>
        <path id="Path_4309" data-name="Path 4309" d="M209.292,265.057v0l-6.213-3.587a6.742,6.742,0,0,1-3.051-5.283V226.66L146.5,257.59v29.523a6.74,6.74,0,0,0,3.051,5.283l6.106,3.526Z" transform="translate(-14.394 -22.269)" fill="#263238"/>
        <path id="Path_4310" data-name="Path 4310" d="M235.357,287.5v4.263c0,2.4-1.585,4.773-4.738,6.6l-30.65,17.709a22.933,22.933,0,0,1-10.92,2.712v-4.245a22.932,22.932,0,0,0,10.92-2.712l30.65-17.727c3.153-1.814,4.738-4.209,4.738-6.6" transform="translate(-18.574 -28.247)" fill="#455a64"/>
        <path id="Path_4311" data-name="Path 4311" d="M50.8,301.539a8.176,8.176,0,0,0,7.391-.137l207-119.511a8.427,8.427,0,0,0,3.812-6.6v-168A8.179,8.179,0,0,0,265.432.816a8.181,8.181,0,0,0-7.391.137l-207,119.512a8.426,8.426,0,0,0-3.814,6.6l0,168a8.176,8.176,0,0,0,3.577,6.468" transform="translate(-4.64 0)" fill="#455a64"/>
        <path id="Path_4312" data-name="Path 4312" d="M58.974,301.9l207-119.511a8.426,8.426,0,0,0,3.814-6.6v-168c0-2.432-1.707-3.418-3.814-2.2l-207,119.512a8.426,8.426,0,0,0-3.814,6.6l0,168c0,2.431,1.708,3.417,3.814,2.2" transform="translate(-5.419 -0.497)" fill="#f59d23"/>
        <path id="Path_4313" data-name="Path 4313" d="M58.974,301.9l207-119.511a8.426,8.426,0,0,0,3.814-6.6v-168c0-2.432-1.707-3.418-3.814-2.2l-207,119.512a8.426,8.426,0,0,0-3.814,6.6l0,168c0,2.431,1.708,3.417,3.814,2.2" transform="translate(-5.419 -0.497)" fill="#37474f"/>
        <path id="Path_4314" data-name="Path 4314" d="M57.633,336.681a8.236,8.236,0,0,1-6.833-.141,8.189,8.189,0,0,1-3.575-6.482V314.811l7.151,4.139V334.2c0,2.219,1.409,3.223,3.258,2.483" transform="translate(-4.64 -30.93)" fill="#263238"/>
        <path id="Path_4315" data-name="Path 4315" d="M55.154,305.9l.006,15.242c0,2.431,1.707,3.417,3.813,2.2l207-119.511a8.429,8.429,0,0,0,3.813-6.6V181.95Z" transform="translate(-5.419 -17.876)" fill="#37474f"/>
        <g id="Group_3168" data-name="Group 3168" transform="translate(49.741 164.074)" opacity="0.2">
          <g id="Group_3167" data-name="Group 3167">
            <g id="Group_3166" data-name="Group 3166" clip-path="url(#clip-path-6)">
              <path id="Path_4316" data-name="Path 4316" d="M55.161,305.864v15.274c0,2.432,1.707,3.418,3.813,2.2l207-119.511a8.43,8.43,0,0,0,3.813-6.605V181.949Z" transform="translate(-55.161 -181.95)"/>
            </g>
          </g>
        </g>
        <path id="Path_4317" data-name="Path 4317" d="M63.092,270.664l0-135.321a5.058,5.058,0,0,1,2.288-3.963L261.122,18.369c1.264-.73,2.289-.138,2.289,1.321l.006,135.324a5.058,5.058,0,0,1-2.288,3.963L65.38,271.985c-1.263.73-2.288.138-2.288-1.321" transform="translate(-6.199 -1.774)" fill="#f59d23"/>
        <g id="Group_3171" data-name="Group 3171" transform="translate(56.894 16.283)" opacity="0.3">
          <g id="Group_3170" data-name="Group 3170">
            <g id="Group_3169" data-name="Group 3169" clip-path="url(#clip-path-7)">
              <path id="Path_4318" data-name="Path 4318" d="M63.092,270.664l0-135.321a5.058,5.058,0,0,1,2.288-3.963L261.122,18.369c1.264-.73,2.289-.138,2.289,1.321l.006,135.324a5.058,5.058,0,0,1-2.288,3.963L65.38,271.985c-1.263.73-2.288.138-2.288-1.321" transform="translate(-63.092 -18.056)"/>
            </g>
          </g>
        </g>
        <path id="Path_4319" data-name="Path 4319" d="M173.775,256a7.909,7.909,0,0,0-3.578,6.2c0,2.281,1.6,3.207,3.578,2.066a7.908,7.908,0,0,0,3.578-6.2c0-2.281-1.6-3.206-3.578-2.065" transform="translate(-16.722 -25.104)" fill="#455a64"/>
        <path id="Path_4320" data-name="Path 4320" d="M55.5,140.856a8.107,8.107,0,0,0-1.127,3.77V301.453l-7.151-4.139V140.5a7.9,7.9,0,0,1,1.127-3.768Z" transform="translate(-4.64 -13.434)" fill="#263238"/>
      </g>
    </g>
    <g id="Group_3205" data-name="Group 3205">
      <g id="Group_3204" data-name="Group 3204" clip-path="url(#clip-path)">
        <path id="Path_4321" data-name="Path 4321" d="M302.159,7.17a1.879,1.879,0,0,0-1.945.153L93.9,126.473a5.908,5.908,0,0,0-2.672,4.629v139.09a2.6,2.6,0,0,0,1.126,2.322c.437.235,2.732,1.571,3.414,1.937a1.53,1.53,0,0,0,1.548-.089l206.3-119.2a5.894,5.894,0,0,0,2.675-4.624V10.8a1.848,1.848,0,0,0-.829-1.755c-.48-.252-2.82-1.583-3.312-1.877" transform="translate(-8.964 -0.684)" fill="#f59d23"/>
        <path id="Path_4322" data-name="Path 4322" d="M96.861,274.427c-.74,0-1.342-.915-1.342-2.04V133.3a5.5,5.5,0,0,1,2.446-4.239L304.273,9.91a1.987,1.987,0,0,1,.968-.306c.644,0,1.029.545,1.029,1.456V150.8a5.484,5.484,0,0,1-2.448,4.234l-206.3,119.2a1.327,1.327,0,0,1-.656.2" transform="translate(-9.385 -0.944)" fill="#fafafa"/>
        <path id="Path_4323" data-name="Path 4323" d="M305.193,10.006c.5,0,.577.63.577,1.006v139.74a4.985,4.985,0,0,1-2.224,3.844L97.244,273.789a.9.9,0,0,1-.433.138c-.474,0-.89-.743-.89-1.59V133.249a4.993,4.993,0,0,1,2.221-3.848L304.451,10.251a1.52,1.52,0,0,1,.742-.245m0-.9A2.411,2.411,0,0,0,304,9.47L97.691,128.62a5.905,5.905,0,0,0-2.672,4.629V272.338c0,1.347.748,2.492,1.792,2.492a1.761,1.761,0,0,0,.883-.258L304,155.376a5.9,5.9,0,0,0,2.675-4.624V11.012c0-1.208-.6-1.908-1.479-1.908" transform="translate(-9.336 -0.894)" fill="#e0e0e0"/>
        <path id="Path_4324" data-name="Path 4324" d="M92.355,286.983c.289.153,2.367,1.339,3.278,1.858a2.723,2.723,0,0,1-.984-2.244V156.25l-3.42-2V284.664a2.6,2.6,0,0,0,1.126,2.319" transform="translate(-8.963 -15.155)" fill="#f0f0f0"/>
        <path id="Path_4325" data-name="Path 4325" d="M306.67,10.991c-.011-1.688-1.2-2.371-2.67-1.522L97.692,128.62a5.9,5.9,0,0,0-2.673,4.628l0,8.741L306.67,19.762Z" transform="translate(-9.336 -0.895)" fill="#f59d23"/>
        <g id="Group_3176" data-name="Group 3176" transform="translate(83.081 6.28)" opacity="0.4">
          <g id="Group_3175" data-name="Group 3175">
            <g id="Group_3174" data-name="Group 3174" clip-path="url(#clip-path-9)">
              <path id="Path_4326" data-name="Path 4326" d="M303.715,9.258,97.411,128.409a5.489,5.489,0,0,0-1.882,1.983l-3.4-1.966a5.328,5.328,0,0,1,1.858-1.95L300.3,7.326a1.88,1.88,0,0,1,1.941-.161c.479.295,2.7,1.556,3.261,1.858a1.932,1.932,0,0,0-1.79.235" transform="translate(-92.133 -6.964)" fill="#fff"/>
            </g>
          </g>
        </g>
        <g id="Group_3179" data-name="Group 3179" transform="translate(82.266 127.742)" opacity="0.15">
          <g id="Group_3178" data-name="Group 3178">
            <g id="Group_3177" data-name="Group 3177" clip-path="url(#clip-path-10)">
              <path id="Path_4327" data-name="Path 4327" d="M91.229,153.02v-8.687a5.513,5.513,0,0,1,.815-2.673l3.4,1.959a5.4,5.4,0,0,0-.8,2.655v8.74Z" transform="translate(-91.229 -141.66)"/>
            </g>
          </g>
        </g>
        <path id="Path_4328" data-name="Path 4328" d="M95.022,143.15l0,15.739L306.67,36.689V20.923Z" transform="translate(-9.336 -2.056)" fill="#ebebeb"/>
        <path id="Path_4329" data-name="Path 4329" d="M104.795,154.314l13.688-7.864v7.845L104.789,162.2Z" transform="translate(-10.295 -14.389)" fill="#e0e0e0"/>
        <path id="Path_4330" data-name="Path 4330" d="M123.723,143.813v3.1l6.828-3.942v-3.1Z" transform="translate(-12.156 -13.742)" fill="#e0e0e0"/>
        <path id="Path_4331" data-name="Path 4331" d="M123.723,149.123v3.1l6.828-3.942v-3.1Z" transform="translate(-12.156 -14.264)" fill="#e0e0e0"/>
        <path id="Path_4332" data-name="Path 4332" d="M135.08,137.254v3.1l6.828-3.942v-3.1Z" transform="translate(-13.271 -13.098)" fill="#e0e0e0"/>
        <path id="Path_4333" data-name="Path 4333" d="M135.08,142.565v3.1l6.828-3.942v-3.1Z" transform="translate(-13.271 -13.62)" fill="#e0e0e0"/>
        <path id="Path_4334" data-name="Path 4334" d="M146.437,130.7v3.1l6.828-3.942v-3.1Z" transform="translate(-14.387 -12.454)" fill="#e0e0e0"/>
        <path id="Path_4335" data-name="Path 4335" d="M146.437,136.006v3.1l6.828-3.942v-3.1Z" transform="translate(-14.387 -12.975)" fill="#e0e0e0"/>
        <path id="Path_4336" data-name="Path 4336" d="M180.5,111.029v3.1l6.828-3.942v-3.1Z" transform="translate(-17.734 -10.521)" fill="#e0e0e0"/>
        <path id="Path_4337" data-name="Path 4337" d="M180.5,116.34v3.1l6.828-3.942v-3.1Z" transform="translate(-17.734 -11.043)" fill="#e0e0e0"/>
        <path id="Path_4338" data-name="Path 4338" d="M191.862,104.471v3.1l6.828-3.942v-3.1Z" transform="translate(-18.85 -9.877)" fill="#e0e0e0"/>
        <path id="Path_4339" data-name="Path 4339" d="M191.862,109.781v3.1l6.828-3.942v-3.1Z" transform="translate(-18.85 -10.399)" fill="#e0e0e0"/>
        <path id="Path_4340" data-name="Path 4340" d="M203.219,97.912v3.1l6.828-3.942v-3.1Z" transform="translate(-19.966 -9.233)" fill="#e0e0e0"/>
        <path id="Path_4341" data-name="Path 4341" d="M203.219,103.223v3.1l6.828-3.942v-3.1Z" transform="translate(-19.966 -9.754)" fill="#e0e0e0"/>
        <path id="Path_4342" data-name="Path 4342" d="M157.791,123.5l17.069-9.855v7.884l-17.066,9.853Z" transform="translate(-15.503 -11.165)" fill="#e0e0e0"/>
        <path id="Path_4343" data-name="Path 4343" d="M214.581,90.93l13.688-7.864v7.845l-13.693,7.906Z" transform="translate(-21.082 -8.161)" fill="#e0e0e0"/>
        <path id="Path_4344" data-name="Path 4344" d="M233.509,80.429v3.1l6.828-3.942v-3.1Z" transform="translate(-22.942 -7.515)" fill="#e0e0e0"/>
        <path id="Path_4345" data-name="Path 4345" d="M233.509,85.739v3.1l6.828-3.942V81.8Z" transform="translate(-22.942 -8.037)" fill="#e0e0e0"/>
        <path id="Path_4346" data-name="Path 4346" d="M244.866,73.87v3.1l6.828-3.942v-3.1Z" transform="translate(-24.058 -6.87)" fill="#e0e0e0"/>
        <path id="Path_4347" data-name="Path 4347" d="M244.866,79.181v3.1l6.828-3.942v-3.1Z" transform="translate(-24.058 -7.392)" fill="#e0e0e0"/>
        <path id="Path_4348" data-name="Path 4348" d="M256.223,67.312v3.1l6.828-3.942v-3.1Z" transform="translate(-25.174 -6.226)" fill="#e0e0e0"/>
        <path id="Path_4349" data-name="Path 4349" d="M256.223,72.622v3.1l6.828-3.942v-3.1Z" transform="translate(-25.174 -6.748)" fill="#e0e0e0"/>
        <path id="Path_4350" data-name="Path 4350" d="M290.293,47.641v3.1l6.828-3.942V43.7Z" transform="translate(-28.521 -4.293)" fill="#e0e0e0"/>
        <path id="Path_4351" data-name="Path 4351" d="M290.293,52.952v3.1l6.828-3.942v-3.1Z" transform="translate(-28.521 -4.815)" fill="#e0e0e0"/>
        <path id="Path_4352" data-name="Path 4352" d="M301.65,41.083v3.1l6.828-3.942v-3.1Z" transform="translate(-29.637 -3.649)" fill="#e0e0e0"/>
        <path id="Path_4353" data-name="Path 4353" d="M301.65,46.393v3.1l6.828-3.942v-3.1Z" transform="translate(-29.637 -4.171)" fill="#e0e0e0"/>
        <path id="Path_4354" data-name="Path 4354" d="M313.007,34.525v3.1l6.828-3.942v-3.1Z" transform="translate(-30.753 -3.005)" fill="#e0e0e0"/>
        <path id="Path_4355" data-name="Path 4355" d="M313.007,39.835v3.1l6.828-3.942v-3.1Z" transform="translate(-30.753 -3.527)" fill="#e0e0e0"/>
        <path id="Path_4356" data-name="Path 4356" d="M267.581,60.114l17.069-9.855v7.884L267.584,68Z" transform="translate(-26.29 -4.938)" fill="#e0e0e0"/>
        <path id="Path_4357" data-name="Path 4357" d="M94.65,156.249l-3.42-2V170.02l3.418,1.969Z" transform="translate(-8.963 -15.155)" fill="#e0e0e0"/>
        <path id="Path_4358" data-name="Path 4358" d="M269.161,46.112v.58c0,.929.651,1.3,1.454.84l41.468-23.941a3.217,3.217,0,0,0,1.456-2.521v-.581c0-.928-.651-1.3-1.455-.84L270.617,43.591a3.218,3.218,0,0,0-1.456,2.521" transform="translate(-26.445 -1.911)" fill="#f5f5f5"/>
        <path id="Path_4359" data-name="Path 4359" d="M317.631,21.07V20.49c0-.928-.651-1.3-1.455-.84l-5.372,3.1v3.942l5.372-3.1a3.218,3.218,0,0,0,1.456-2.521" transform="translate(-30.536 -1.911)" fill="#455a64"/>
        <path id="Path_4360" data-name="Path 4360" d="M98.805,163.216,303.633,44.979v7.864L115.868,161.253l0,102.488-17.06,9.849Z" transform="translate(-9.708 -4.419)" fill="#f0f0f0"/>
        <path id="Path_4361" data-name="Path 4361" d="M117.728,172.849,134.783,163v7.864l-17.055,9.862Z" transform="translate(-11.567 -16.015)" fill="#f59d23"/>
        <path id="Path_4362" data-name="Path 4362" d="M117.728,242.781l17.055-9.846V240.8l-17.055,9.862Z" transform="translate(-11.567 -22.886)" fill="#f59d23"/>
        <path id="Path_4363" data-name="Path 4363" d="M117.728,251.524l17.055-9.846v7.864L117.728,259.4Z" transform="translate(-11.567 -23.745)" fill="#f59d23"/>
        <g id="Group_3182" data-name="Group 3182" transform="translate(106.161 217.932)" opacity="0.8">
          <g id="Group_3181" data-name="Group 3181">
            <g id="Group_3180" data-name="Group 3180" clip-path="url(#clip-path-11)">
              <path id="Path_4364" data-name="Path 4364" d="M117.728,251.524l17.055-9.846v7.864L117.728,259.4Z" transform="translate(-117.728 -241.677)" fill="#fff"/>
            </g>
          </g>
        </g>
        <path id="Path_4365" data-name="Path 4365" d="M231.287,177.211l17.055-9.846v7.864l-17.055,9.862Z" transform="translate(-22.724 -16.443)" fill="#f59d23"/>
        <g id="Group_3185" data-name="Group 3185" transform="translate(208.563 150.921)" opacity="0.3">
          <g id="Group_3184" data-name="Group 3184">
            <g id="Group_3183" data-name="Group 3183" clip-path="url(#clip-path-12)">
              <path id="Path_4366" data-name="Path 4366" d="M231.287,177.211l17.055-9.846v7.864l-17.055,9.862Z" transform="translate(-231.287 -167.365)"/>
            </g>
          </g>
        </g>
        <path id="Path_4367" data-name="Path 4367" d="M231.287,185.954l17.055-9.846v7.864l-17.055,9.862Z" transform="translate(-22.724 -17.302)" fill="#f59d23"/>
        <g id="Group_3188" data-name="Group 3188" transform="translate(208.563 158.806)" opacity="0.4">
          <g id="Group_3187" data-name="Group 3187">
            <g id="Group_3186" data-name="Group 3186" clip-path="url(#clip-path-12)">
              <path id="Path_4368" data-name="Path 4368" d="M231.287,185.954l17.055-9.846v7.864l-17.055,9.862Z" transform="translate(-231.287 -176.108)"/>
            </g>
          </g>
        </g>
        <path id="Path_4369" data-name="Path 4369" d="M231.287,194.7l17.055-9.846v7.864l-17.055,9.862Z" transform="translate(-22.724 -18.162)" fill="#f59d23"/>
        <g id="Group_3191" data-name="Group 3191" transform="translate(208.563 166.689)" opacity="0.5">
          <g id="Group_3190" data-name="Group 3190">
            <g id="Group_3189" data-name="Group 3189" clip-path="url(#clip-path-12)">
              <path id="Path_4370" data-name="Path 4370" d="M231.287,194.7l17.055-9.846v7.864l-17.055,9.862Z" transform="translate(-231.287 -184.851)"/>
            </g>
          </g>
        </g>
        <path id="Path_4371" data-name="Path 4371" d="M231.287,203.441l17.055-9.846v7.864l-17.055,9.862Z" transform="translate(-22.724 -19.021)" fill="#f59d23"/>
        <g id="Group_3194" data-name="Group 3194" transform="translate(208.563 174.574)" opacity="0.3">
          <g id="Group_3193" data-name="Group 3193">
            <g id="Group_3192" data-name="Group 3192" clip-path="url(#clip-path-12)">
              <path id="Path_4372" data-name="Path 4372" d="M231.287,203.441l17.055-9.846v7.864l-17.055,9.862Z" transform="translate(-231.287 -193.595)"/>
            </g>
          </g>
        </g>
        <path id="Path_4373" data-name="Path 4373" d="M212.375,118.2l17.054-9.846V147.77l-17.054,9.862Z" transform="translate(-20.866 -10.646)" fill="#f59d23"/>
        <path id="Path_4374" data-name="Path 4374" d="M212.375,170.657l17.054-9.846V216l-17.054,9.862Z" transform="translate(-20.866 -15.8)" fill="#f59d23"/>
        <path id="Path_4375" data-name="Path 4375" d="M136.64,214.368l17.055-9.846v7.864l-17.055,9.862Z" transform="translate(-13.425 -20.094)" fill="#f59d23"/>
        <g id="Group_3197" data-name="Group 3197" transform="translate(123.215 184.428)" opacity="0.3">
          <g id="Group_3196" data-name="Group 3196">
            <g id="Group_3195" data-name="Group 3195" clip-path="url(#clip-path-12)">
              <path id="Path_4376" data-name="Path 4376" d="M136.64,214.368l17.055-9.846v7.864l-17.055,9.862Z" transform="translate(-136.64 -204.522)"/>
            </g>
          </g>
        </g>
        <path id="Path_4377" data-name="Path 4377" d="M174.519,148.8l17.055-9.846v7.864l-17.055,9.862Z" transform="translate(-17.146 -13.652)" fill="#f59d23"/>
        <g id="Group_3200" data-name="Group 3200" transform="translate(157.373 125.299)" opacity="0.6">
          <g id="Group_3199" data-name="Group 3199">
            <g id="Group_3198" data-name="Group 3198" clip-path="url(#clip-path-17)">
              <path id="Path_4378" data-name="Path 4378" d="M174.519,148.8l17.055-9.846v7.864l-17.055,9.862Z" transform="translate(-174.519 -138.951)" fill="#fff"/>
            </g>
          </g>
        </g>
        <path id="Path_4379" data-name="Path 4379" d="M269.166,146.612l17.055-9.846v7.864l-17.055,9.862Z" transform="translate(-26.445 -13.437)" fill="#f59d23"/>
        <g id="Group_3203" data-name="Group 3203" transform="translate(242.721 123.328)" opacity="0.8">
          <g id="Group_3202" data-name="Group 3202">
            <g id="Group_3201" data-name="Group 3201" clip-path="url(#clip-path-11)">
              <path id="Path_4380" data-name="Path 4380" d="M269.166,146.612l17.055-9.846v7.864l-17.055,9.862Z" transform="translate(-269.166 -136.765)" fill="#fff"/>
            </g>
          </g>
        </g>
        <path id="Path_4381" data-name="Path 4381" d="M269.166,164.1l17.055-9.846v7.864l-17.055,9.862Z" transform="translate(-26.445 -15.156)" fill="#f59d23"/>
        <path id="Path_4382" data-name="Path 4382" d="M98.55,162.779l-.21.122,0,111.344L303.793,155.622l.21-.122,0-111.342Zm204.614-15.623-16.223,9.366v-6.916l16.223-9.366ZM99.18,171.267l16.226-9.368v6.915L99.18,178.182Zm101.573-11.329v6.915l-16.229,9.37v-6.915Zm-16.229,8.4v-6.916l16.229-9.37v6.916Zm17.069-8.886,16.229-9.369V157l-16.229,9.369Zm0-.969v-6.916l16.229-9.369v6.916Zm0-7.886v-6.916l16.229-9.369v6.916Zm0-7.887v-6.916l16.229-9.369v6.916Zm-.84.485-16.229,9.37V145.65l16.229-9.37Zm0,.97v6.916l-16.229,9.37v-6.916Zm-17.069,16.772-16.229,9.369V163.39l16.229-9.369Zm0,.969v6.916l-16.229,9.369v-6.916Zm0,7.887v6.916l-16.229,9.369v-6.916Zm0,7.885v6.916l-16.229,9.369v-6.916Zm.84-.485,16.229-9.37v6.916l-16.229,9.37Zm16.229-1.484v6.916l-16.229,9.37v-6.916Zm.84-.485,16.229-9.369v6.916l-16.229,9.369Zm0-.97v-6.916l16.229-9.369v6.916Zm17.069-16.77,16.229-9.37v6.916l-16.229,9.37Zm0-.97V149.6l16.229-9.37v6.916Zm0-7.886v-6.915l16.229-9.37v6.916Zm0-7.886v-6.916l16.229-9.37v6.916Zm0-7.886V125.94l16.229-9.37v6.916Zm0-7.886v-6.916l16.229-9.37V115.6Zm-.84.485-16.229,9.369v-6.916l16.229-9.369Zm-17.069,9.855-16.229,9.369v-6.916l16.229-9.37Zm-17.069,9.855-16.229,9.369v-6.916l16.229-9.37Zm0,.969v6.916l-16.229,9.37v-6.916Zm-17.069,16.771-16.23,9.37v-6.916l16.23-9.37Zm0,.969v6.916l-16.23,9.37v-6.916Zm0,7.887v6.916l-16.23,9.37v-6.916Zm0,7.886v6.916l-16.23,9.37v-6.916Zm0,7.886v6.916l-16.23,9.37V196.9Zm0,7.886v6.916l-16.23,9.37V204.79Zm.84-.485,16.229-9.369v6.915l-16.229,9.37Zm16.229-1.484v6.916l-16.229,9.369V202.82Zm.84-.485,16.229-9.37v6.916l-16.229,9.37Zm17.069-9.855,16.229-9.369v6.916l-16.229,9.37Zm17.069-9.854,16.229-9.369V170.8l-16.229,9.369Zm0-.97V165.37L234.892,156v6.916Zm17.069-16.771,16.23-9.37v6.916l-16.23,9.37Zm0-.97v-6.916l16.23-9.37v6.916Zm0-7.886v-6.916l16.23-9.37v6.916Zm0-7.886v-6.916l16.23-9.37V129.4Zm0-7.886v-6.916l16.23-9.37v6.916Zm0-7.886v-6.916l16.23-9.37v6.916Zm0-7.886V108.2l16.23-9.37v6.916Zm0-7.886v-6.916l16.23-9.37v6.916Zm-.84.485-16.229,9.369v-6.915l16.229-9.37Zm-17.069,9.855-16.229,9.369v-6.916l16.229-9.369Zm-17.069,9.854-16.229,9.37v-6.916l16.229-9.369Zm-17.069,9.855-16.229,9.37v-6.916l16.229-9.37Zm-17.069,9.855-16.23,9.37v-6.916l16.23-9.37Zm0,.97v6.916l-16.23,9.37v-6.916Zm-17.07,16.771-16.229,9.37v-6.916l16.229-9.369Zm0,.97v6.916l-16.229,9.369v-6.916Zm0,7.885v6.916l-16.229,9.37V183.1Zm0,7.887v6.916l-16.229,9.37v-6.916Zm0,7.886v6.915l-16.229,9.37v-6.916Zm0,7.886V204.3l-16.229,9.37v-6.916Zm0,7.886v6.916l-16.229,9.369v-6.915Zm0,7.886v6.916l-16.229,9.37V222.53Zm.84-.485,16.23-9.37v6.916l-16.23,9.37Zm16.23-1.484v6.916l-16.23,9.371v-6.916Zm.84-.485,16.229-9.37v6.916l-16.229,9.37Zm17.069-9.855,16.229-9.369V198.4l-16.229,9.37ZM201.594,191l16.229-9.369v6.916l-16.229,9.37Zm17.069-9.854,16.229-9.37v6.916l-16.229,9.369Zm17.069-9.854,16.23-9.37v6.915l-16.23,9.371Zm0-.97V163.4l16.23-9.37v6.916Zm17.07-16.772,16.228-9.369v6.916L252.8,160.46Zm0-.97v-6.916l16.228-9.369v6.916Zm0-7.886v-6.916L269.03,128.4v6.916Zm0-7.886v-6.916l16.228-9.369v6.916Zm0-7.886V122l16.228-9.369v6.916Zm0-7.886v-6.916l16.228-9.369v6.916Zm0-7.886V106.23l16.228-9.369v6.915Zm0-7.886V98.344l16.228-9.369v6.916Zm0-7.886V90.458l16.228-9.369V88Zm0-7.886V82.573L269.03,73.2v6.916Zm-.84.485-16.23,9.37V92.428l16.23-9.37Zm-17.07,9.855-16.229,9.37v-6.916l16.229-9.37Zm-17.069,9.855-16.229,9.369v-6.916l16.229-9.369Zm-17.069,9.854-16.229,9.37v-6.916l16.229-9.369Zm-17.069,9.855-16.229,9.37v-6.916l16.229-9.369Zm-17.069,9.855-16.23,9.37V141.7l16.23-9.37Zm-17.07,9.855-16.229,9.369v-6.915l16.229-9.37Zm0,.97v6.916l-16.229,9.369v-6.915Zm-17.068,16.77-16.23,9.37V169.3l16.23-9.37Zm0,.97v6.916l-16.23,9.37v-6.916Zm0,7.886v6.916l-16.23,9.37V185.07Zm0,7.886V190.5l-16.23,9.37v-6.916Zm0,7.886v6.916l-16.23,9.37v-6.916Zm0,7.887v6.916l-16.23,9.37v-6.916Zm0,7.885v6.916l-16.23,9.37v-6.916Zm0,7.886v6.916l-16.23,9.37V224.5Zm0,7.886v6.916l-16.23,9.37v-6.916Zm0,7.887v6.915l-16.23,9.37v-6.916Zm.84-.486,16.229-9.369v6.916l-16.229,9.369Zm16.229-1.483v6.916l-16.229,9.37V238.3Zm.84-.485,16.23-9.37v6.916l-16.23,9.37Zm17.07-9.855,16.229-9.369v6.916l-16.229,9.369Zm17.069-9.854,16.229-9.37v6.915l-16.229,9.37Zm17.069-9.855,16.229-9.37v6.916L201.594,205.8Zm17.069-9.855,16.229-9.369v6.915l-16.229,9.37Zm17.069-9.854,16.23-9.37v6.915l-16.23,9.37Zm17.07-9.855,16.228-9.37v6.916L252.8,176.232Zm0-.971v-6.916l16.228-9.369v6.916Zm17.068-16.77,16.23-9.37v6.916l-16.23,9.37Zm0-.97v-6.915l16.23-9.37v6.916Zm0-7.886V135.8l16.23-9.37v6.916Zm0-7.886v-6.916l16.23-9.37v6.916Zm0-7.886v-6.916l16.23-9.37v6.916Zm0-7.886v-6.916l16.23-9.37v6.916Zm0-7.886v-6.916l16.23-9.369v6.916Zm0-7.887V96.376l16.23-9.37V93.92Zm0-7.886V88.49l16.23-9.37v6.915Zm0-7.886V80.6l16.23-9.37v6.915Zm0-7.886V72.718l16.23-9.37v6.916Zm0-7.885V64.836l16.23-9.37v6.912Zm-.84.485L252.8,81.6V74.69l16.228-9.369Zm-17.068,9.854-16.23,9.37V84.546l16.23-9.369Zm-17.07,9.855-16.229,9.37V94.4l16.229-9.369ZM217.823,101.8l-16.229,9.369v-6.911l16.229-9.37Zm-17.069,9.854-16.229,9.37v-6.911l16.229-9.37Zm-17.069,9.855-16.229,9.37v-6.912l16.229-9.369Zm-17.069,9.855-16.23,9.37v-6.911l16.23-9.37Zm-17.07,9.855-16.229,9.369v-6.911l16.229-9.369Zm-17.068,9.854-16.23,9.37v-6.911l16.23-9.37Zm0,.971v6.915l-16.23,9.37v-6.915Zm-33.3,27.109,16.226-9.368V176.7l-16.227,9.368Zm0,7.886,16.227-9.368v6.916l-16.227,9.368Zm0,7.886,16.227-9.369v6.916L99.179,201.84Zm0,7.885,16.227-9.368v6.916l-16.227,9.368Zm0,7.887,16.227-9.369v6.916l-16.227,9.369Zm0,7.886,16.227-9.368v6.916L99.179,225.5Zm0,7.886,16.227-9.369v6.916l-16.227,9.369Zm0,7.886,16.227-9.368V231.9l-16.228,9.368Zm0,7.886,16.228-9.369v6.916l-16.228,9.369Zm0,7.886,16.228-9.368v6.916l-16.228,9.369Zm0,7.887,16.228-9.369v6.916l-16.228,9.369Zm17.068-9.854,16.23-9.37V245.7l-16.23,9.37Zm16.23-1.485v6.891l-16.23,9.37v-6.891Zm.84-.485,16.229-9.369v6.89l-16.229,9.37Zm17.069-9.854,16.23-9.37v6.89l-16.23,9.37Zm17.07-9.855,16.229-9.37V224l-16.229,9.37Zm17.069-9.855,16.229-9.37v6.89l-16.229,9.37Zm17.069-9.855,16.229-9.369v6.889l-16.229,9.37Zm17.069-9.854,16.229-9.37v6.889l-16.229,9.37Zm17.069-9.855,16.23-9.37v6.889l-16.23,9.37ZM252.8,177.2l16.228-9.369v6.888l-16.228,9.37Zm17.068-9.854,16.23-9.37v6.888l-16.23,9.37Zm0-.97v-6.916l16.23-9.37v6.916Zm33.293-27.108-16.223,9.367v-6.916l16.223-9.366Zm0-7.886-16.223,9.366v-6.916l16.223-9.366Zm0-7.886-16.223,9.366v-6.916l16.223-9.366Zm0-7.886-16.223,9.366v-6.916l16.223-9.366Zm0-7.886-16.223,9.366v-6.916l16.223-9.366Zm0-7.886-16.223,9.366v-6.916l16.223-9.366Zm0-7.886-16.223,9.366V94.406l16.223-9.366Zm0-7.887-16.223,9.366V86.52l16.223-9.366Zm0-7.886-16.223,9.366V78.635l16.223-9.366Zm0-7.886-16.223,9.366V70.749l16.223-9.366Zm0-7.886-16.223,9.366V62.863L303.164,53.5Zm0-7.886-16.223,9.367V54.981l16.223-9.367ZM115.406,154.017v6.91L99.18,170.3v-6.91ZM99.178,265.9l16.228-9.369v6.891l-16.228,9.369ZM286.941,164.381v-6.888l16.223-9.366v6.888Z" transform="translate(-9.662 -4.338)" fill="#e0e0e0"/>
        <path id="Path_4383" data-name="Path 4383" d="M250.2,93.111l68.308-39.406V93.135L250.2,132.529Z" transform="translate(-24.582 -5.277)" fill="#fafafa"/>
        <path id="Path_4384" data-name="Path 4384" d="M250.2,93.111l68.308-39.406V93.135L250.2,132.529Z" transform="translate(-24.582 -5.277)" fill="none" stroke="#e0e0e0" stroke-width="1"/>
        <path id="Path_4385" data-name="Path 4385" d="M254.03,124.977l9.231-25.208,10.207,6.1,10.263-10.454,10.235,6.747,10.235-25.2,10.235,5.25" transform="translate(-24.958 -7.562)" fill="none" stroke="#455a64" stroke-linecap="round" stroke-linejoin="round" stroke-width="0.75"/>
        <path id="Path_4386" data-name="Path 4386" d="M264.154,100.915a2.28,2.28,0,0,0-1.029,1.788c0,.66.461.926,1.029.6a2.284,2.284,0,0,0,1.029-1.788c0-.657-.461-.924-1.029-.6" transform="translate(-25.852 -9.901)" fill="#f59d23"/>
        <path id="Path_4387" data-name="Path 4387" d="M275.5,107.683a2.28,2.28,0,0,0-1.029,1.788c0,.659.461.926,1.029.6a2.285,2.285,0,0,0,1.029-1.788c0-.657-.461-.924-1.029-.6" transform="translate(-26.967 -10.566)" fill="#f59d23"/>
        <path id="Path_4388" data-name="Path 4388" d="M286.855,96.094a2.28,2.28,0,0,0-1.029,1.788c0,.659.461.926,1.029.6a2.285,2.285,0,0,0,1.029-1.788c0-.657-.461-.924-1.029-.6" transform="translate(-28.082 -9.427)" fill="#f59d23"/>
        <path id="Path_4389" data-name="Path 4389" d="M298.2,103.569a2.28,2.28,0,0,0-1.029,1.788c0,.659.461.926,1.029.6a2.285,2.285,0,0,0,1.029-1.788c0-.657-.461-.924-1.029-.6" transform="translate(-29.197 -10.162)" fill="#f59d23"/>
        <path id="Path_4390" data-name="Path 4390" d="M309.555,75.625a2.28,2.28,0,0,0-1.029,1.788c0,.659.461.926,1.029.6a2.285,2.285,0,0,0,1.029-1.788c0-.657-.461-.924-1.029-.6" transform="translate(-30.312 -7.416)" fill="#f59d23"/>
        <path id="Path_4391" data-name="Path 4391" d="M320.9,81.447a2.28,2.28,0,0,0-1.029,1.788c0,.659.461.926,1.029.6a2.285,2.285,0,0,0,1.029-1.788c0-.657-.461-.924-1.029-.6" transform="translate(-31.428 -7.988)" fill="#f59d23"/>
      </g>
    </g>
    <path id="Path_4392" data-name="Path 4392" d="M355.484,214.749l-18.162,10.486,18.164,10.487,18.163-10.486Z" transform="translate(-33.142 -21.099)" fill="#455a64"/>
    <path id="Path_4393" data-name="Path 4393" d="M375.63,226.353v41.71l-18.163,10.486,0-41.684Z" transform="translate(-35.121 -22.239)" fill="#37474f"/>
    <path id="Path_4394" data-name="Path 4394" d="M355.485,236.865l0,41.684-18.164-10.488,0-41.706Z" transform="translate(-33.142 -22.239)" fill="#263238"/>
    <path id="Path_4395" data-name="Path 4395" d="M328.984,250.105l-18.162,10.486,18.164,10.487,18.163-10.486Z" transform="translate(-30.538 -24.573)" fill="#f59d23"/>
    <g id="Group_3210" data-name="Group 3210">
      <g id="Group_3209" data-name="Group 3209" clip-path="url(#clip-path)">
        <g id="Group_3208" data-name="Group 3208" transform="translate(280.284 225.532)" opacity="0.3">
          <g id="Group_3207" data-name="Group 3207">
            <g id="Group_3206" data-name="Group 3206" clip-path="url(#clip-path-20)">
              <path id="Path_4396" data-name="Path 4396" d="M328.984,250.105l-18.162,10.486,18.164,10.487,18.163-10.486Z" transform="translate(-310.822 -250.105)" fill="#fff"/>
            </g>
          </g>
        </g>
      </g>
    </g>
    <path id="Path_4397" data-name="Path 4397" d="M349.13,261.709v23.623l-18.163,10.487,0-23.6Z" transform="translate(-32.517 -25.713)" fill="#f59d23"/>
    <path id="Path_4398" data-name="Path 4398" d="M328.985,272.221l0,23.6-18.164-10.488,0-23.621Z" transform="translate(-30.538 -25.713)" fill="#f59d23"/>
    <g id="Group_3215" data-name="Group 3215">
      <g id="Group_3214" data-name="Group 3214" clip-path="url(#clip-path)">
        <g id="Group_3213" data-name="Group 3213" transform="translate(280.283 235.998)" opacity="0.1">
          <g id="Group_3212" data-name="Group 3212">
            <g id="Group_3211" data-name="Group 3211" clip-path="url(#clip-path-22)">
              <path id="Path_4399" data-name="Path 4399" d="M328.985,272.221l0,23.6-18.164-10.488,0-23.621Z" transform="translate(-310.821 -261.711)"/>
            </g>
          </g>
        </g>
      </g>
    </g>
    <path id="Path_4400" data-name="Path 4400" d="M302.484,254.526l-18.162,10.486L302.486,275.5l18.163-10.486Z" transform="translate(-27.934 -25.007)" fill="#f59d23"/>
    <g id="Group_3220" data-name="Group 3220">
      <g id="Group_3219" data-name="Group 3219" clip-path="url(#clip-path)">
        <g id="Group_3218" data-name="Group 3218" transform="translate(256.388 229.52)" opacity="0.88">
          <g id="Group_3217" data-name="Group 3217">
            <g id="Group_3216" data-name="Group 3216" clip-path="url(#clip-path-20)">
              <path id="Path_4401" data-name="Path 4401" d="M302.484,254.526l-18.162,10.486L302.486,275.5l18.163-10.486Z" transform="translate(-284.322 -254.527)" fill="#fff"/>
            </g>
          </g>
        </g>
      </g>
    </g>
    <path id="Path_4402" data-name="Path 4402" d="M322.63,266.13v33.433L304.466,310.05l0-33.408Z" transform="translate(-29.913 -26.147)" fill="#f59d23"/>
    <g id="Group_3225" data-name="Group 3225">
      <g id="Group_3224" data-name="Group 3224" clip-path="url(#clip-path)">
        <g id="Group_3223" data-name="Group 3223" transform="translate(274.551 239.983)" opacity="0.75">
          <g id="Group_3222" data-name="Group 3222">
            <g id="Group_3221" data-name="Group 3221" clip-path="url(#clip-path-26)">
              <path id="Path_4403" data-name="Path 4403" d="M322.63,266.13v33.433L304.466,310.05l0-33.408Z" transform="translate(-304.464 -266.13)" fill="#fff"/>
            </g>
          </g>
        </g>
      </g>
    </g>
    <path id="Path_4404" data-name="Path 4404" d="M302.485,276.642l0,33.408-18.164-10.488,0-33.43Z" transform="translate(-27.934 -26.147)" fill="#f59d23"/>
    <g id="Group_3230" data-name="Group 3230">
      <g id="Group_3229" data-name="Group 3229" clip-path="url(#clip-path)">
        <g id="Group_3228" data-name="Group 3228" transform="translate(256.388 239.986)" opacity="0.6">
          <g id="Group_3227" data-name="Group 3227">
            <g id="Group_3226" data-name="Group 3226" clip-path="url(#clip-path-28)">
              <path id="Path_4405" data-name="Path 4405" d="M302.485,276.642l0,33.408-18.164-10.488,0-33.43Z" transform="translate(-284.322 -266.133)" fill="#fff"/>
            </g>
          </g>
        </g>
      </g>
    </g>
    <path id="Path_4406" data-name="Path 4406" d="M275.985,293.8l-18.162,10.486,18.164,10.488,18.163-10.486Z" transform="translate(-25.331 -28.866)" fill="#f59d23"/>
    <g id="Group_3235" data-name="Group 3235">
      <g id="Group_3234" data-name="Group 3234" clip-path="url(#clip-path)">
        <g id="Group_3233" data-name="Group 3233" transform="translate(232.491 264.936)" opacity="0.3">
          <g id="Group_3232" data-name="Group 3232">
            <g id="Group_3231" data-name="Group 3231" clip-path="url(#clip-path-20)">
              <path id="Path_4407" data-name="Path 4407" d="M275.985,293.8l-18.162,10.486,18.164,10.488,18.163-10.486Z" transform="translate(-257.822 -293.802)"/>
            </g>
          </g>
        </g>
      </g>
    </g>
    <path id="Path_4408" data-name="Path 4408" d="M296.131,305.406v11.813L277.967,327.7l0-11.788Z" transform="translate(-27.31 -30.006)" fill="#f59d23"/>
    <g id="Group_3240" data-name="Group 3240">
      <g id="Group_3239" data-name="Group 3239" clip-path="url(#clip-path)">
        <g id="Group_3238" data-name="Group 3238" transform="translate(250.655 275.4)" opacity="0.4">
          <g id="Group_3237" data-name="Group 3237">
            <g id="Group_3236" data-name="Group 3236" clip-path="url(#clip-path-32)">
              <path id="Path_4409" data-name="Path 4409" d="M296.131,305.406v11.813L277.967,327.7l0-11.788Z" transform="translate(-277.965 -305.406)"/>
            </g>
          </g>
        </g>
      </g>
    </g>
    <path id="Path_4410" data-name="Path 4410" d="M275.986,315.918l0,11.788-18.164-10.488,0-11.809Z" transform="translate(-25.331 -30.006)" fill="#f59d23"/>
    <g id="Group_3245" data-name="Group 3245">
      <g id="Group_3244" data-name="Group 3244" clip-path="url(#clip-path)">
        <g id="Group_3243" data-name="Group 3243" transform="translate(232.491 275.402)" opacity="0.55">
          <g id="Group_3242" data-name="Group 3242">
            <g id="Group_3241" data-name="Group 3241" clip-path="url(#clip-path-34)">
              <path id="Path_4411" data-name="Path 4411" d="M275.986,315.918l0,11.788-18.164-10.488,0-11.809Z" transform="translate(-257.822 -305.408)"/>
            </g>
          </g>
        </g>
      </g>
    </g>
    <path id="Path_4412" data-name="Path 4412" d="M167.508,373.148v6.875l-6.79-18.455V354.7l.008.009Z" transform="translate(-15.79 -34.849)" fill="#263238"/>
    <path id="Path_4413" data-name="Path 4413" d="M168.251,374.1v6.871l28.009-9.716v-6.871Z" transform="translate(-16.531 -35.801)" fill="#37474f"/>
    <g id="Group_3289" data-name="Group 3289">
      <g id="Group_3288" data-name="Group 3288" clip-path="url(#clip-path)">
        <path id="Path_4414" data-name="Path 4414" d="M160.718,354.667l6.794,18.453,28.009-9.716c-7.69-6.71-21.059-10.065-34.8-8.737" transform="translate(-15.79 -34.818)" fill="#455a64"/>
        <path id="Path_4415" data-name="Path 4415" d="M128.265,376.574a1.818,1.818,0,0,0-.008.21v-.21Z" transform="translate(-12.601 -36.998)" fill="#f59d23"/>
        <path id="Path_4416" data-name="Path 4416" d="M161.528,383.992l-4.16,19.564c-16.976-1.656-29.246-10.244-29.1-20.059l-.009.016v-6.705c0,9.739,12.237,18.235,29.112,19.883l2.857-13.445Z" transform="translate(-12.601 -37.021)" fill="#f59d23"/>
        <g id="Group_3248" data-name="Group 3248" transform="translate(115.656 339.786)" opacity="0.4">
          <g id="Group_3247" data-name="Group 3247">
            <g id="Group_3246" data-name="Group 3246" clip-path="url(#clip-path-36)">
              <path id="Path_4417" data-name="Path 4417" d="M161.528,383.992l-4.16,19.564c-16.976-1.656-29.246-10.244-29.1-20.059l-.009.016v-6.705c0,9.739,12.237,18.235,29.112,19.883l2.857-13.445Z" transform="translate(-128.257 -376.807)"/>
            </g>
          </g>
        </g>
        <path id="Path_4418" data-name="Path 4418" d="M164.075,396.619v6.871a54.2,54.2,0,0,0,20.671-2.827c8.006-2.778,13.657-7.188,15.918-12.419a12.357,12.357,0,0,0,1.051-4.8c.007-.652,0-7.1,0-7.1s-1.939-.151-4.212-2.575l-5.245,1.819-24.023,8.334Z" transform="translate(-16.12 -36.723)" fill="#f59d23"/>
        <g id="Group_3251" data-name="Group 3251" transform="translate(147.955 337.047)" opacity="0.6">
          <g id="Group_3250" data-name="Group 3250">
            <g id="Group_3249" data-name="Group 3249" clip-path="url(#clip-path-37)">
              <path id="Path_4419" data-name="Path 4419" d="M164.075,396.619v6.871a54.2,54.2,0,0,0,20.671-2.827c8.006-2.778,13.657-7.188,15.918-12.419a12.357,12.357,0,0,0,1.051-4.8c.007-.652,0-7.1,0-7.1s-1.939-.151-4.212-2.575l-5.245,1.819-24.023,8.334Z" transform="translate(-164.075 -373.77)" fill="#fff"/>
            </g>
          </g>
        </g>
        <path id="Path_4420" data-name="Path 4420" d="M140.894,367.115l20.867,12.048v-6.871l-20.867-12.048Z" transform="translate(-13.843 -35.394)" fill="#f59d23"/>
        <g id="Group_3254" data-name="Group 3254" transform="translate(127.051 324.85)" opacity="0.1">
          <g id="Group_3253" data-name="Group 3253">
            <g id="Group_3252" data-name="Group 3252" clip-path="url(#clip-path-38)">
              <path id="Path_4421" data-name="Path 4421" d="M140.894,367.115l20.867,12.048v-6.871l-20.867-12.048Z" transform="translate(-140.894 -360.243)"/>
            </g>
          </g>
        </g>
        <path id="Path_4422" data-name="Path 4422" d="M128.516,372.844c-2.284,10.739,10.557,20.575,28.852,22.362l4.161-19.566L137.383,361.7c-5.04,3.157-7.945,6.813-8.867,11.145" transform="translate(-12.601 -35.537)" fill="#f59d23"/>
        <g id="Group_3257" data-name="Group 3257" transform="translate(115.653 326.162)" opacity="0.3">
          <g id="Group_3256" data-name="Group 3256">
            <g id="Group_3255" data-name="Group 3255" clip-path="url(#clip-path-39)">
              <path id="Path_4423" data-name="Path 4423" d="M128.516,372.844c-2.284,10.739,10.557,20.575,28.852,22.362l4.161-19.566L137.383,361.7c-5.04,3.157-7.945,6.813-8.867,11.145" transform="translate(-128.254 -361.699)"/>
            </g>
          </g>
        </g>
        <path id="Path_4424" data-name="Path 4424" d="M164.2,395.3l-.122.573a54.231,54.231,0,0,0,20.671-2.827c8.006-2.778,13.658-7.188,15.918-12.419,2.129-4.931,1-10.035-3.16-14.475l-5.245,1.82L168.237,376.3Z" transform="translate(-16.12 -35.974)" fill="#f59d23"/>
        <g id="Group_3260" data-name="Group 3260" transform="translate(147.955 330.176)" opacity="0.75">
          <g id="Group_3259" data-name="Group 3259">
            <g id="Group_3258" data-name="Group 3258" clip-path="url(#clip-path-40)">
              <path id="Path_4425" data-name="Path 4425" d="M164.2,395.3l-.122.573a54.231,54.231,0,0,0,20.671-2.827c8.006-2.778,13.658-7.188,15.918-12.419,2.129-4.931,1-10.035-3.16-14.475l-5.245,1.82L168.237,376.3Z" transform="translate(-164.075 -366.15)" fill="#fff"/>
            </g>
          </g>
        </g>
        <path id="Path_4426" data-name="Path 4426" d="M140.894,359.74l20.867,12.048-6.136-16.666a42.768,42.768,0,0,0-14.732,4.618" transform="translate(-13.843 -34.89)" fill="#f59d23"/>
        <path id="Path_4427" data-name="Path 4427" d="M164.7,384.029v-6.871l-4.162,19.566V403.6Z" transform="translate(-15.773 -37.055)" fill="#f59d23"/>
        <g id="Group_3263" data-name="Group 3263" transform="translate(144.767 340.102)" opacity="0.55">
          <g id="Group_3262" data-name="Group 3262">
            <g id="Group_3261" data-name="Group 3261" clip-path="url(#clip-path-41)">
              <path id="Path_4428" data-name="Path 4428" d="M164.7,384.029v-6.871l-4.162,19.566V403.6Z" transform="translate(-160.54 -377.158)"/>
            </g>
          </g>
        </g>
        <path id="Path_4429" data-name="Path 4429" d="M194.18,343.266l-4.546,2.625,4.546,2.625,4.547-2.625Z" transform="translate(-18.631 -33.726)" fill="#f59d23"/>
        <g id="Group_3266" data-name="Group 3266" transform="translate(171.003 309.54)" opacity="0.3">
          <g id="Group_3265" data-name="Group 3265">
            <g id="Group_3264" data-name="Group 3264" clip-path="url(#clip-path-42)">
              <path id="Path_4430" data-name="Path 4430" d="M194.18,343.266l-4.546,2.625,4.546,2.625,4.547-2.625Z" transform="translate(-189.634 -343.266)"/>
            </g>
          </g>
        </g>
        <path id="Path_4431" data-name="Path 4431" d="M199.223,346.17V348.8l-4.547,2.625V348.8Z" transform="translate(-19.127 -34.011)" fill="#f59d23"/>
        <g id="Group_3269" data-name="Group 3269" transform="translate(175.549 312.159)" opacity="0.4">
          <g id="Group_3268" data-name="Group 3268">
            <g id="Group_3267" data-name="Group 3267" clip-path="url(#clip-path-43)">
              <path id="Path_4432" data-name="Path 4432" d="M199.223,346.17V348.8l-4.547,2.625V348.8Z" transform="translate(-194.676 -346.17)"/>
            </g>
          </g>
        </g>
        <path id="Path_4433" data-name="Path 4433" d="M194.18,348.8v2.628l-4.547-2.625v-2.633Z" transform="translate(-18.631 -34.011)" fill="#f59d23"/>
        <g id="Group_3272" data-name="Group 3272" transform="translate(171.003 312.16)" opacity="0.55">
          <g id="Group_3271" data-name="Group 3271">
            <g id="Group_3270" data-name="Group 3270" clip-path="url(#clip-path-44)">
              <path id="Path_4434" data-name="Path 4434" d="M194.18,348.8v2.628l-4.547-2.625v-2.633Z" transform="translate(-189.634 -346.171)"/>
            </g>
          </g>
        </g>
        <path id="Path_4435" data-name="Path 4435" d="M202.286,339.9l16.844-9.724a3.9,3.9,0,0,1,3.526-.065c.943.544.893,1.455-.113,2.036L205.7,341.87a3.905,3.905,0,0,1-3.527.065c-.942-.545-.892-1.456.113-2.036" transform="translate(-19.797 -32.395)" fill="#e0e0e0"/>
        <path id="Path_4436" data-name="Path 4436" d="M205.538,349.823l-4.546,2.625,4.547,2.625,4.546-2.625Z" transform="translate(-19.747 -34.37)" fill="#f59d23"/>
        <g id="Group_3275" data-name="Group 3275" transform="translate(181.245 315.453)" opacity="0.88">
          <g id="Group_3274" data-name="Group 3274">
            <g id="Group_3273" data-name="Group 3273" clip-path="url(#clip-path-42)">
              <path id="Path_4437" data-name="Path 4437" d="M205.538,349.823l-4.546,2.625,4.547,2.625,4.546-2.625Z" transform="translate(-200.992 -349.823)" fill="#fff"/>
            </g>
          </g>
        </g>
        <path id="Path_4438" data-name="Path 4438" d="M210.58,352.727v2.634l-4.547,2.625v-2.628Z" transform="translate(-20.243 -34.655)" fill="#f59d23"/>
        <g id="Group_3278" data-name="Group 3278" transform="translate(185.79 318.072)" opacity="0.75">
          <g id="Group_3277" data-name="Group 3277">
            <g id="Group_3276" data-name="Group 3276" clip-path="url(#clip-path-43)">
              <path id="Path_4439" data-name="Path 4439" d="M210.58,352.727v2.634l-4.547,2.625v-2.628Z" transform="translate(-206.033 -352.727)" fill="#fff"/>
            </g>
          </g>
        </g>
        <path id="Path_4440" data-name="Path 4440" d="M205.538,355.359v2.628l-4.546-2.625v-2.633Z" transform="translate(-19.747 -34.655)" fill="#f59d23"/>
        <g id="Group_3281" data-name="Group 3281" transform="translate(181.245 318.073)" opacity="0.6">
          <g id="Group_3280" data-name="Group 3280">
            <g id="Group_3279" data-name="Group 3279" clip-path="url(#clip-path-44)">
              <path id="Path_4441" data-name="Path 4441" d="M205.538,355.359v2.628l-4.546-2.625v-2.633Z" transform="translate(-200.992 -352.728)" fill="#fff"/>
            </g>
          </g>
        </g>
        <path id="Path_4442" data-name="Path 4442" d="M213.644,346.456l16.843-9.724a3.9,3.9,0,0,1,3.527-.065c.943.544.893,1.455-.113,2.036l-16.843,9.724a3.9,3.9,0,0,1-3.527.065c-.942-.545-.892-1.456.113-2.036" transform="translate(-20.913 -33.039)" fill="#e0e0e0"/>
        <path id="Path_4443" data-name="Path 4443" d="M216.895,356.38l-4.546,2.625,4.546,2.625,4.547-2.625Z" transform="translate(-20.863 -35.014)" fill="#f59d23"/>
        <g id="Group_3284" data-name="Group 3284" transform="translate(191.486 321.366)" opacity="0.3">
          <g id="Group_3283" data-name="Group 3283">
            <g id="Group_3282" data-name="Group 3282" clip-path="url(#clip-path-42)">
              <path id="Path_4444" data-name="Path 4444" d="M216.895,356.38l-4.546,2.625,4.546,2.625,4.547-2.625Z" transform="translate(-212.349 -356.38)" fill="#fff"/>
            </g>
          </g>
        </g>
        <path id="Path_4445" data-name="Path 4445" d="M221.937,359.285v2.634l-4.547,2.625v-2.628Z" transform="translate(-21.358 -35.299)" fill="#f59d23"/>
        <path id="Path_4446" data-name="Path 4446" d="M216.9,361.916v2.628l-4.546-2.625v-2.633Z" transform="translate(-20.863 -35.3)" fill="#f59d23"/>
        <g id="Group_3287" data-name="Group 3287" transform="translate(191.486 323.986)" opacity="0.1">
          <g id="Group_3286" data-name="Group 3286">
            <g id="Group_3285" data-name="Group 3285" clip-path="url(#clip-path-44)">
              <path id="Path_4447" data-name="Path 4447" d="M216.9,361.916v2.628l-4.546-2.625v-2.633Z" transform="translate(-212.349 -359.285)"/>
            </g>
          </g>
        </g>
        <path id="Path_4448" data-name="Path 4448" d="M225,353.013l16.844-9.724a3.9,3.9,0,0,1,3.526-.065c.943.544.893,1.455-.113,2.036l-16.843,9.724a3.905,3.905,0,0,1-3.527.065c-.942-.545-.892-1.456.113-2.036" transform="translate(-22.029 -33.683)" fill="#e0e0e0"/>
        <path id="Path_4449" data-name="Path 4449" d="M228.252,362.938l-4.546,2.624,4.547,2.626,4.546-2.625Z" transform="translate(-21.979 -35.658)" fill="#455a64"/>
        <path id="Path_4450" data-name="Path 4450" d="M233.295,365.842v2.634l-4.547,2.625v-2.628Z" transform="translate(-22.474 -35.944)" fill="#37474f"/>
        <path id="Path_4451" data-name="Path 4451" d="M228.253,368.473V371.1l-4.547-2.625v-2.633Z" transform="translate(-21.979 -35.944)" fill="#263238"/>
        <path id="Path_4452" data-name="Path 4452" d="M236.359,359.571l16.843-9.724a3.9,3.9,0,0,1,3.527-.065c.943.544.893,1.455-.113,2.036l-16.843,9.724a3.9,3.9,0,0,1-3.527.065c-.942-.545-.892-1.456.113-2.036" transform="translate(-23.145 -34.327)" fill="#e0e0e0"/>
      </g>
    </g>
    <g id="Group_3303" data-name="Group 3303">
      <g id="Group_3302" data-name="Group 3302" clip-path="url(#clip-path)">
        <path id="Path_4453" data-name="Path 4453" d="M386.827,205.032c6.251-.034,9.217,1.758,11.467,7.743s8.22,19.7,8.336,23.778c.12,4.23-13.5,17.05-13.009,16.83.15-.069-4.15-7.77-4.15-7.77l7.659-9.386-4.391-12.744Z" transform="translate(-38.005 -20.144)" fill="#ffa8a7"/>
        <path id="Path_4454" data-name="Path 4454" d="M393.579,359.449c.382.365.455.72.443,2.052s.552,2.823-.133,4.067c-.512.93-3.123,1.57-4.45.881a13.772,13.772,0,0,1-3.061-2.752,21.785,21.785,0,0,0-2.681-2.592c-1.125-.839-2.433-1.4-3.607-2.165a7.2,7.2,0,0,1-3.269-5.4,3.542,3.542,0,0,1,.418-2.057,2.344,2.344,0,0,1,2.354-.77c1.271.2,5.579,2.611,6.575,3.3,1.249.863,7.017,5.061,7.412,5.438" transform="translate(-37.021 -34.453)" fill="#263238"/>
        <path id="Path_4455" data-name="Path 4455" d="M387.679,354.164c-.041.958-4.076-1.282-5.729-1.064a.2.2,0,0,0-.046.022c-1.534.739-.261,2.891,1.17,3.993s6.092,4.529,6.092,4.529l.955-5.53Z" transform="translate(-37.453 -34.69)" fill="#ffa8a7"/>
        <path id="Path_4456" data-name="Path 4456" d="M366.355,371.557c.748,0,1.08,2.447,1.218,4.338.107,1.462.66,3.844.143,4.916s-2.486,1.745-5.525,1.683c-1.969-.042-5.053,1.255-7.17,2.4a10.925,10.925,0,0,1-6.83.857c-2.7-.353-5.482-1.956-5.9-3.081s.146-1.657,6.555-4.291c.059-.024,6.76-2.947,9.888-6.31Z" transform="translate(-33.619 -36.505)" fill="#263238"/>
        <path id="Path_4457" data-name="Path 4457" d="M349.31,378.431c-.887.364-1.652.685-2.328.977-.173.606.059,1.565,2.89,2.037,4.316.72,17-8.825,17-8.825s-1.818.5-2.159-.539l-5.512.041c-3.128,3.363-9.829,6.285-9.888,6.31" transform="translate(-34.086 -36.557)" fill="#ffa8a7"/>
        <path id="Path_4458" data-name="Path 4458" d="M394.452,317.926a54.977,54.977,0,0,0-1.239-12.508s.752-16.1.839-26.225c.171-20.016-.212-22.955-4.639-31.592,0,0-25.851-3.025-26.941,9.574-1.357,15.69-2.934,41.945-2.893,49.418.031,5.564.661,11.594.968,24.209.2,8.08,1.049,19.5-.108,29.058,1.463,2.449,5.419,2.407,7.671.5.649-9.361,5.3-27.286,6.016-33.542a52.959,52.959,0,0,0-.552-13.515S377,286.578,377.6,282.511a75.3,75.3,0,0,1,1.5,13.053c-.018,1.775.614,7.728,1.629,17.738.619,6.1,4.934,29.921,5.868,37.579,2.163,2.09,4.96.649,5.086-.261.724-9.346,2.769-26.862,2.769-32.694" transform="translate(-35.328 -24.295)" fill="#ffa8a7"/>
        <g id="Group_3292" data-name="Group 3292" transform="translate(342.272 239.895)" opacity="0.15">
          <g id="Group_3291" data-name="Group 3291">
            <g id="Group_3290" data-name="Group 3290" clip-path="url(#clip-path-51)">
              <path id="Path_4459" data-name="Path 4459" d="M379.564,284.353l2.285-12.978a17.745,17.745,0,0,0,10.176-5.343s-1.369,5.19-8.088,6.956l-2.673,11.743-.453,10.7Z" transform="translate(-379.564 -266.032)"/>
            </g>
          </g>
        </g>
        <path id="Path_4460" data-name="Path 4460" d="M372.371,199.994l1.078,11.764,10.332-.626-.792-13.046Z" transform="translate(-36.585 -19.462)" fill="#ffa8a7"/>
        <path id="Path_4461" data-name="Path 4461" d="M391.912,246.61a47.694,47.694,0,0,0-4.468-8.935c4.417-14.226,5.831-19.017,4.973-25.1-.546-3.869-3.586-7.737-7.355-7.536,0,0-2.036,0-2.893,0-.169,2.7-7.661,2.828-10.5.973l-2.617.069c-1.851.656-8.147,9.878-8.841,16-.564,4.975,3.332,9.286,3.332,9.286a47.2,47.2,0,0,1-.37,6.307s.02,12.038,0,18.022c0,0,1.461,4.615,16.624,3.171,13.487-1.284,13.818-5.893,13.818-5.893a28.537,28.537,0,0,0-1.7-6.366" transform="translate(-35.385 -20.144)" fill="#f59d23"/>
        <g id="Group_3295" data-name="Group 3295" transform="translate(324.767 184.888)" opacity="0.3">
          <g id="Group_3294" data-name="Group 3294">
            <g id="Group_3293" data-name="Group 3293" clip-path="url(#clip-path-52)">
              <path id="Path_4462" data-name="Path 4462" d="M391.912,246.61a47.694,47.694,0,0,0-4.468-8.935c4.417-14.226,5.831-19.017,4.973-25.1-.546-3.869-3.586-7.737-7.355-7.536,0,0-2.036,0-2.893,0-.169,2.7-7.661,2.828-10.5.973l-2.617.069c-1.851.656-8.147,9.878-8.841,16-.564,4.975,3.332,9.286,3.332,9.286a47.2,47.2,0,0,1-.37,6.307s.02,12.038,0,18.022c0,0,1.461,4.615,16.624,3.171,13.487-1.284,13.818-5.893,13.818-5.893a28.537,28.537,0,0,0-1.7-6.366" transform="translate(-360.152 -205.032)"/>
            </g>
          </g>
        </g>
        <path id="Path_4463" data-name="Path 4463" d="M372.961,169.675a9.606,9.606,0,0,0-8.31,3.011c-5.288,5.955.51,10.336.51,10.336Z" transform="translate(-35.608 -16.663)" fill="#263238"/>
        <path id="Path_4464" data-name="Path 4464" d="M363.689,185.868s-2.3,3.453-2,3.819a5.458,5.458,0,0,0,1.75.76Z" transform="translate(-35.533 -18.261)" fill="#f28f8f"/>
        <path id="Path_4465" data-name="Path 4465" d="M370.89,173.637c-2.227,1.143-6.076,3.256-7.087,11.446-1.036,8.407.828,11.335,1.971,12.441.773.746,4.765,1.026,6.85.385,2.609-.8,8.262-3.577,10.921-7.911,3.127-5.1,3.789-11.9.2-14.581-5.049-3.769-10.972-2.747-12.857-1.779" transform="translate(-35.714 -16.971)" fill="#ffa8a7"/>
        <path id="Path_4466" data-name="Path 4466" d="M370.067,182.937c-4.658-2.372-3.471-8.556-3.471-8.556s6.658-9.51,18.934-3.359c4.247,2.128,6.8,6.962,6.693,12.62A13.325,13.325,0,0,1,378.9,196.968a7.768,7.768,0,0,1-7.769-7.768v-.515l.393.127a3.948,3.948,0,0,0,3.626-.969c2.043-1.76,2.29-5.213-.3-6.085-2.572-.866-3.94,2.125-3.94,2.125l0,0-1,2.749a1.957,1.957,0,0,1-1.169-2.508,1.921,1.921,0,0,1,1.33-1.183" transform="translate(-36.005 -16.599)" fill="#263238"/>
        <path id="Path_4467" data-name="Path 4467" d="M336.8,186.566l-22.166,11.1,10.422,30.039,20.7-11.147Z" transform="translate(-30.913 -18.33)" fill="#f59d23"/>
        <path id="Path_4468" data-name="Path 4468" d="M336.02,189.789l-18.6,9.314,9.237,25.829,17.365-9.351Z" transform="translate(-31.187 -18.647)" fill="#f5f5f5"/>
        <g id="Group_3298" data-name="Group 3298" transform="translate(291.069 172.674)" opacity="0.15">
          <g id="Group_3297" data-name="Group 3297">
            <g id="Group_3296" data-name="Group 3296" clip-path="url(#clip-path-53)">
              <path id="Path_4469" data-name="Path 4469" d="M332.611,192.66s-.153-.411-.342-.919-1.729-.233-3.438.615l-3.274,1.621c-1.711.848-2.944,1.946-2.755,2.454l.342.919Z" transform="translate(-322.782 -191.487)"/>
            </g>
          </g>
        </g>
        <path id="Path_4470" data-name="Path 4470" d="M332.115,188.69c-.116-.317-.785-.277-1.493.09l-1.283.665s-.75-1.986-3.7-.669-2.317,3.613-2.317,3.613l-1.362.721c-.752.4-1.292.982-1.207,1.3l.155.583,11.419-5.718s-.1-.273-.215-.591" transform="translate(-31.513 -18.503)" fill="#37474f"/>
        <path id="Path_4471" data-name="Path 4471" d="M331.124,190.13c-1.061.5-1.48.743-1.19,1.526.332.894.643,1.537.643,1.537l-5.051,2.536s-.4-1.136-.573-1.574-.538-.654-1.342-.25l-.291-.318,7.964-3.895Z" transform="translate(-31.766 -18.637)" fill="#263238"/>
        <path id="Path_4472" data-name="Path 4472" d="M332.848,192.717l-.342-.919c-.188-.508-1.729-.233-3.438.615l-3.274,1.621c-1.711.848-2.944,1.946-2.755,2.454l.342.919Z" transform="translate(-31.736 -18.819)" fill="#37474f"/>
        <path id="Path_4473" data-name="Path 4473" d="M367.153,206.2c-3.49-.058-5.6.252-10.365,7.321S343.194,233.6,342.158,235.29c-1.441,2.346-1.766,5.945-.592,8.143,1.1,2.051,3.022,2.763,8.51-3.07,4.065-4.319,12.606-15.791,12.606-15.791s6.646-12.391,4.471-18.377" transform="translate(-33.488 -20.258)" fill="#ffa8a7"/>
        <path id="Path_4474" data-name="Path 4474" d="M341.034,245.144c-2.877.888-13.431-11.675-16.366-15.453a43.522,43.522,0,0,0-8.242-8.363c-4.066-3.109-3.39-7.771-1.522-12.025.647-1.473,2.739-.473,2.739-.473l.71,2.044,1.229,3.54c.858.824,1.35,1.1,1.412.856.117-.452-.6-2.357-.55-4.329.061-2.373,1.7-.785,2.18.055a29.658,29.658,0,0,1,1.689,3.95c.794,2.138.415,4.282,1.4,5.747s15.321,13.372,15.321,13.372Z" transform="translate(-30.794 -20.485)" fill="#ffa8a7"/>
        <path id="Path_4475" data-name="Path 4475" d="M387.317,241.232s-10.113,5.973-24.272,0a209.037,209.037,0,0,0-2.568,22.44c-.5,9.573-1.615,30.127-1.615,30.127s4.182,4.875,19.1,3.886c14.333-.95,16.865-4.685,16.865-4.685s.032-18.461.108-26.53c.1-10.32-1.351-15.96-7.613-25.236" transform="translate(-35.258 -23.701)" fill="#f59d23"/>
        <g id="Group_3301" data-name="Group 3301" transform="translate(323.603 217.531)" opacity="0.5">
          <g id="Group_3300" data-name="Group 3300">
            <g id="Group_3299" data-name="Group 3299" clip-path="url(#clip-path-54)">
              <path id="Path_4476" data-name="Path 4476" d="M387.317,241.232s-10.113,5.973-24.272,0a209.037,209.037,0,0,0-2.568,22.44c-.5,9.573-1.615,30.127-1.615,30.127s4.182,4.875,19.1,3.886c14.333-.95,16.865-4.685,16.865-4.685s.032-18.461.108-26.53c.1-10.32-1.351-15.96-7.613-25.236" transform="translate(-358.861 -241.232)"/>
            </g>
          </g>
        </g>
        <path id="Path_4477" data-name="Path 4477" d="M395.408,180.536l2.364-2.166a2.066,2.066,0,0,0-3.5,2c-.293-.026-.589-.045-.889-.045V199.34a9.876,9.876,0,0,0,9.876,9.876V190.2a9.878,9.878,0,0,0-7.851-9.666" transform="translate(-38.65 -17.459)" fill="#263238"/>
      </g>
    </g>
  </g>
</svg>
