<svg id="Group_4299" data-name="Group 4299" xmlns="http://www.w3.org/2000/svg" xmlns:xlink="http://www.w3.org/1999/xlink" width="463.057" height="456.565" viewBox="0 0 463.057 456.565">
  <defs>
    <clipPath id="clip-path">
      <rect id="Rectangle_3289" data-name="Rectangle 3289" width="463.057" height="456.565" fill="none"/>
    </clipPath>
    <clipPath id="clip-path-5">
      <rect id="Rectangle_3276" data-name="Rectangle 3276" width="66.329" height="44.719" transform="translate(345.257 258.121)" fill="none"/>
    </clipPath>
    <clipPath id="clip-path-6">
      <rect id="Rectangle_3277" data-name="Rectangle 3277" width="61.53" height="50.742" transform="translate(77.827 295.988)" fill="none"/>
    </clipPath>
    <clipPath id="clip-path-8">
      <rect id="Rectangle_3279" data-name="Rectangle 3279" width="187.39" height="247.439" transform="translate(238.733 64.949)" fill="none"/>
    </clipPath>
    <clipPath id="clip-path-9">
      <rect id="Rectangle_3280" data-name="Rectangle 3280" width="59.386" height="57.607" transform="translate(240.186 252.122)" fill="none"/>
    </clipPath>
    <clipPath id="clip-path-10">
      <rect id="Rectangle_3281" data-name="Rectangle 3281" width="100.985" height="187.944" transform="translate(292.177 69.989)" fill="none"/>
    </clipPath>
    <clipPath id="clip-path-12">
      <rect id="Rectangle_3283" data-name="Rectangle 3283" width="79.212" height="166.003" transform="translate(110.155 188.466)" fill="none"/>
    </clipPath>
    <clipPath id="clip-path-13">
      <rect id="Rectangle_3284" data-name="Rectangle 3284" width="16.687" height="122.442" transform="translate(128.111 204.747)" fill="none"/>
    </clipPath>
  </defs>
  <g id="Group_4298" data-name="Group 4298" clip-path="url(#clip-path)">
    <g id="Group_4264" data-name="Group 4264">
      <g id="Group_4263" data-name="Group 4263" clip-path="url(#clip-path)">
        <path id="Path_6157" data-name="Path 6157" d="M67.813,417.413c-90.417-52.2-90.417-136.84,0-189.042s237.013-52.2,327.431,0,90.417,136.839,0,189.042-237.014,52.2-327.431,0" fill="#f5f5f5"/>
      </g>
    </g>
    <g id="Group_4266" data-name="Group 4266">
      <g id="Group_4265" data-name="Group 4265" clip-path="url(#clip-path)">
        <path id="Path_6158" data-name="Path 6158" d="M190.4,349.914c27.741,16.016,27.741,41.984,0,58s-72.719,16.017-100.461,0-27.741-41.984,0-58,72.719-16.016,100.46,0" fill="#e0e0e0"/>
        <path id="Path_6159" data-name="Path 6159" d="M326.56,249.986c44.181-1.451,59.336,26.652,33.85,62.771s-81.961,66.575-126.142,68.026-59.336-26.652-33.851-62.77,81.962-66.576,126.143-68.027" fill="#e0e0e0"/>
      </g>
    </g>
    <g id="Group_4274" data-name="Group 4274">
      <g id="Group_4273" data-name="Group 4273" clip-path="url(#clip-path)">
        <path id="Path_6160" data-name="Path 6160" d="M353.38,301.522c9.852-11.743,25.282-19.395,42.633-23.909,17.13-4.457,20.2-15,8.846-18.418-12.873-3.877-28.935,3.249-39.291,13.157-18.05,17.269-20.311,30.487-20.311,30.487Z" fill="#f59d23"/>
        <g id="Group_4269" data-name="Group 4269" opacity="0.15">
          <g id="Group_4268" data-name="Group 4268">
            <g id="Group_4267" data-name="Group 4267" clip-path="url(#clip-path-5)">
              <path id="Path_6161" data-name="Path 6161" d="M353.38,301.522c9.852-11.743,25.282-19.395,42.633-23.909,17.13-4.457,20.2-15,8.846-18.418-12.873-3.877-28.935,3.249-39.291,13.157-18.05,17.269-20.311,30.487-20.311,30.487Z"/>
            </g>
          </g>
        </g>
        <path id="Path_6162" data-name="Path 6162" d="M348.307,300.837a.5.5,0,0,1-.219-.051.5.5,0,0,1-.23-.668c14.62-30,46.974-37.378,54.839-36.822a.5.5,0,0,1,.462.536.511.511,0,0,1-.537.462c-7.679-.589-39.47,6.727-53.866,36.262a.5.5,0,0,1-.449.281" fill="#fff"/>
        <path id="Path_6163" data-name="Path 6163" d="M345.256,304.644a2.732,2.732,0,0,0,4.131,2.339c9.159-5.334,22.522-8.279,44.145-2.127,11.5,3.271,17.155,1.083,19.58-3.6,2.693-5.2-3.013-10.225-9.506-12.6-22.128-8.085-42.1-2.565-58.35,13.568Z" fill="#f59d23"/>
        <path id="Path_6164" data-name="Path 6164" d="M346.514,305.072a.5.5,0,0,1-.333-.873c19.105-17.077,48.708-13.753,59.911-7.092a.5.5,0,0,1-.512.86c-10.975-6.526-39.991-9.775-58.733,6.978a.5.5,0,0,1-.333.127" fill="#fff"/>
        <path id="Path_6165" data-name="Path 6165" d="M131.445,344.464c-8.4-12.823-22.817-22.242-39.514-28.772-16.486-6.446-18.292-17.276-6.612-19.332,13.241-2.332,28.349,6.639,37.464,17.7,15.887,19.278,16.573,32.67,16.573,32.67Z" fill="#f59d23"/>
        <g id="Group_4272" data-name="Group 4272" opacity="0.15">
          <g id="Group_4271" data-name="Group 4271">
            <g id="Group_4270" data-name="Group 4270" clip-path="url(#clip-path-6)">
              <path id="Path_6166" data-name="Path 6166" d="M131.445,344.464c-8.4-12.823-22.817-22.242-39.514-28.772-16.486-6.446-18.292-17.276-6.612-19.332,13.241-2.332,28.349,6.639,37.464,17.7,15.887,19.278,16.573,32.67,16.573,32.67Z"/>
            </g>
          </g>
        </g>
        <path id="Path_6167" data-name="Path 6167" d="M136.564,344.382a.489.489,0,0,0,.223-.025.5.5,0,0,0,.308-.636c-10.979-31.513-42.236-42.658-50.112-43.035a.5.5,0,0,0-.522.478.51.51,0,0,0,.478.522c7.7.322,38.4,11.337,49.212,42.364a.5.5,0,0,0,.413.332" fill="#fff"/>
        <path id="Path_6168" data-name="Path 6168" d="M139.43,346.121a4.16,4.16,0,0,1-6.453,2.963c-8.476-5.679-21.108-9.363-41.8-6.047-11.8,1.891-17.163-.949-19.019-5.885-2.061-5.481,4.2-9.8,10.926-11.388,22.928-5.418,42.11,2.42,56.342,20.357" fill="#f59d23"/>
        <path id="Path_6169" data-name="Path 6169" d="M137.845,348.8a.5.5,0,0,0,.434-.828c-16.958-19.212-46.746-19.4-58.656-14.11a.5.5,0,0,0,.406.914c11.669-5.185,40.865-4.989,57.5,13.859a.5.5,0,0,0,.316.165" fill="#fff"/>
      </g>
    </g>
    <g id="Group_4285" data-name="Group 4285">
      <g id="Group_4284" data-name="Group 4284" clip-path="url(#clip-path)">
        <path id="Path_6170" data-name="Path 6170" d="M362.351,115.98l0-.007-.158-.081-.017-.009L324.06,93.939l-.036-.019-.223-.113,0,.009c-17.808-8.983-41.569-6.289-67.125,10.236-51.344,33.2-90.467,109.618-87.386,170.683,1.536,30.437,13.271,51.308,31.011,60.483l0,.007.157.08.02.01L238.6,357.264l.017.009.187.1,0-.008c17.813,9.011,41.593,6.325,67.171-10.215,51.343-33.2,90.467-109.617,87.386-170.682-1.536-30.437-13.271-51.309-31.011-60.483" fill="#37474f"/>
        <path id="Path_6171" data-name="Path 6171" d="M237.3,356.57l-36.818-21.258-.028,0-.172-.1c-17.73-9.2-29.46-30.07-30.993-60.465-1.375-27.234,5.661-57.505,18.394-85.617l.257-.616,37.876,22.557c-12.761,28.114-19.77,58.383-18.4,85.618,1.5,29.784,12.775,50.4,29.88,59.882" fill="#263238"/>
        <path id="Path_6172" data-name="Path 6172" d="M305.977,347.145c51.341-33.2,90.466-109.617,87.384-170.682s-47.2-83.653-98.543-50.452-90.466,109.617-87.386,170.682,47.2,83.652,98.545,50.452" fill="#455a64"/>
        <path id="Path_6173" data-name="Path 6173" d="M349.457,111.244,285.11,243.784l-13.851-15.011a22.766,22.766,0,0,0-33.449,30.891L274.3,299.188a22.638,22.638,0,0,0,15.493,7.283q.629.034,1.261.034a23.494,23.494,0,0,0,3.3-.236A22.734,22.734,0,0,0,311.5,293.691l73.8-152.009c-7.534-16.855-20.142-27.335-35.84-30.438" fill="#37474f"/>
        <path id="Path_6174" data-name="Path 6174" d="M401.716,67.582q-.6-.347-1.237-.655a19.8,19.8,0,0,0-26.42,9.142L292.174,244.73l-4.652-5.042a19.437,19.437,0,0,0-4.642-3.707c-2.443-1.4-12.821-7.411-14.5-8.38a19.77,19.77,0,0,0-24.419,30.525l36.486,39.525a19.616,19.616,0,0,0,4.711,3.747c2.382,1.356,12.725,7.352,14.417,8.334a19.7,19.7,0,0,0,8.845,2.626,20.084,20.084,0,0,0,3.957-.174,19.747,19.747,0,0,0,14.891-10.92L424.14,101.732a19.8,19.8,0,0,0-7.888-25.758c-.405-.233-11.949-6.9-14.536-8.392" fill="#f59d23"/>
        <g id="Group_4277" data-name="Group 4277" opacity="0.15">
          <g id="Group_4276" data-name="Group 4276">
            <g id="Group_4275" data-name="Group 4275" clip-path="url(#clip-path-8)">
              <path id="Path_6175" data-name="Path 6175" d="M401.716,67.582q-.6-.347-1.237-.655a19.8,19.8,0,0,0-26.42,9.142L292.174,244.73l-4.652-5.042a19.437,19.437,0,0,0-4.642-3.707c-2.443-1.4-12.821-7.411-14.5-8.38a19.77,19.77,0,0,0-24.419,30.525l36.486,39.525a19.616,19.616,0,0,0,4.711,3.747c2.382,1.356,12.725,7.352,14.417,8.334a19.7,19.7,0,0,0,8.845,2.626,20.084,20.084,0,0,0,3.957-.174,19.747,19.747,0,0,0,14.891-10.92L424.14,101.732a19.8,19.8,0,0,0-7.888-25.758c-.405-.233-11.949-6.9-14.536-8.392"/>
            </g>
          </g>
        </g>
        <g id="Group_4280" data-name="Group 4280" opacity="0.15">
          <g id="Group_4279" data-name="Group 4279">
            <g id="Group_4278" data-name="Group 4278" clip-path="url(#clip-path-9)">
              <path id="Path_6176" data-name="Path 6176" d="M299.572,309.729c-1.686-.978-12.032-6.975-14.416-8.335a19.747,19.747,0,0,1-4.712-3.743l-36.486-39.522a19.8,19.8,0,0,1-3.772-6.007l14.509,8.372a19.441,19.441,0,0,0,3.79,6.016l36.487,39.522a19.863,19.863,0,0,0,4.6,3.7"/>
            </g>
          </g>
        </g>
        <g id="Group_4283" data-name="Group 4283" opacity="0.15">
          <g id="Group_4282" data-name="Group 4282">
            <g id="Group_4281" data-name="Group 4281" clip-path="url(#clip-path-10)">
              <path id="Path_6177" data-name="Path 6177" d="M393.162,78.37a19.582,19.582,0,0,0-4.582,6.081L304.358,257.933l-12.18-13.205L374.062,76.07a19.355,19.355,0,0,1,4.591-6.081Z"/>
            </g>
          </g>
        </g>
        <path id="Path_6178" data-name="Path 6178" d="M415,75.312a19.8,19.8,0,0,0-26.42,9.141l-84.225,173.48-16.835-18.245a19.765,19.765,0,0,0-29.038,26.823l36.486,39.525a19.658,19.658,0,0,0,13.45,6.322,20.161,20.161,0,0,0,3.957-.174,19.748,19.748,0,0,0,14.891-10.921l96.873-199.531A19.8,19.8,0,0,0,415,75.312" fill="#f59d23"/>
      </g>
    </g>
    <g id="Group_4293" data-name="Group 4293">
      <g id="Group_4292" data-name="Group 4292" clip-path="url(#clip-path)">
        <path id="Path_6179" data-name="Path 6179" d="M138.756,94.8c-7.627,0-12.851,1.986-18.268,9.7-4.97,7.078-18.641,30.677-18.641,30.677s-9.969-20.515-11-24.607-.944-5.909.041-7.686a16.063,16.063,0,0,0,2.526-7.036c.386-4.913,1.592-9.123.489-9.263-3.055-.175-3.17,3.741-4.773,6.058a1.911,1.911,0,0,1-3.073-.337c-.674-1.37-.31-3.617-.638-5.237a22.9,22.9,0,0,1,.432-2.675,11.843,11.843,0,0,0,3.5.1c1.318,2.072,2.223,2.943,4.063,2.1.242-.388-.791-3.044-1.986-4.959a1.422,1.422,0,0,0-.821-.628,15.577,15.577,0,0,0-6.782-.186,1.272,1.272,0,0,0-.869.483A16.653,16.653,0,0,0,81,85.271c-.135.426-.53.416-.629.046-.975-4.829-.989-11.686-.989-14.9,0-2.526-3.7-2.923-3.826.7a117.164,117.164,0,0,0,.25,14.573c.057.436-.436.645-.615.167-.643-1.716-2.213-6.882-2.871-15.8-.177-2.4-4.057-2.792-4.028.58a85.432,85.432,0,0,0,2.221,17.759c.113.422-.27.793-.563.314A57.926,57.926,0,0,1,65.6,77.746c-.823-2.894-4.691-2.159-4.014,1.448,1.213,6.471,3.133,14.659,5.994,20.5,3.061,6.252,5.709,9.378,7.224,14.29s7.813,32.724,14.54,43.563c5.271,8.493,11.3,7.712,17.789,3.232s29.678-36.794,29.678-36.794Z" fill="#9e6767"/>
        <path id="Path_6180" data-name="Path 6180" d="M101.848,135.175s3.253,5.516,3.746,9.921a17.314,17.314,0,0,0-2.293-12.42Z" fill="#874c4c"/>
        <path id="Path_6181" data-name="Path 6181" d="M140.377,94.821c-3.88-.4-8.7-.533-14.092,2.854s-7.259,8.115-9.866,12.243-11.634,18.762-11.634,18.762,3.309,13.891,16.476,16.753l19.709-26.744Z" fill="#455a64"/>
        <path id="Path_6182" data-name="Path 6182" d="M158.052,339.036c.962-.122,2.324,3.283,2.344,4.395s-1.1,3.5-2.571,5.739a40.375,40.375,0,0,0-4.845,8.626c-1.13,3.081-2.174,5.1-5.319,9.134-3.5,4.494-11.719,12.007-24.2,8.736-3.047-.8-4.571-1.76-5.674-2.868a3.709,3.709,0,0,1-.873-3.819Z" fill="#263238"/>
        <path id="Path_6183" data-name="Path 6183" d="M133.534,335.141c-.01.035-.019.071-.027.106a8.018,8.018,0,0,0,.083,2.811,19.639,19.639,0,0,1-4.733,15.393,29.5,29.5,0,0,1-5.834,4.716c-6.325,4.037-7,6.734-6.113,10.812,2.115,4.75,16.452,7.641,24.693.566a24.216,24.216,0,0,0,7.844-10.666,76.577,76.577,0,0,1,4.157-8.8c1.6-3,4.619-6.381,4.707-9.473.048-1.7-1.633-4.858-3.267-7.46-1.5-2.388-3.043-4.659-4.392-4.393l.372,1.35c-1.123,1.168-2.755,1.6-3.74,2.975-1.215,1.69-1.171,3.963-1.927,5.9a.681.681,0,0,1-.367.45.481.481,0,0,1-.526-.268,1.4,1.4,0,0,1-.116-.624q-.044-1.455-.088-2.91a2.436,2.436,0,0,0-.421-1.577c-.78-.882-2.7-.778-3.772-.821a40.991,40.991,0,0,0-4.308.259,2.1,2.1,0,0,0-1.4.37,2.523,2.523,0,0,0-.823,1.282" fill="#37474f"/>
        <path id="Path_6184" data-name="Path 6184" d="M112.348,277c3.332,10.948,18.9,48.854,19.835,51.135s3.1,7.524,3.1,7.524a11.673,11.673,0,0,0,6.323.263c.326,3.631.874,9.324,1.091,12.2.071,3.33.362,7.443-.355,10.734-.611,2.8-1.317,5.742-1.846,8.551-.234,1.244-.467,2.488-.654,3.74a6.253,6.253,0,0,0,.313,3.928,4.9,4.9,0,0,0,1.235,1.4,11.014,11.014,0,0,0,7.845,2.3,8.241,8.241,0,0,0,4.157-1.377c2.419-1.734,3.271-4.744,4.5-7.3,1.337-2.776.9-3.08,1.017-6.053.08-2.079.656-7.361,1.488-12.879s4.413-24.919,6.131-44.252a158.488,158.488,0,0,0,0-25.8c13.66-37.113,19.743-59.176,21.529-71.5,1.815-12.521.945-16.976.715-24.183l-66.428,1.6c-5.343,34.334-14.465,75.286-10,89.971m32.45-58.885h0Z" fill="#9e6767"/>
        <path id="Path_6185" data-name="Path 6185" d="M111.311,249.6c1.368-12.62,10.807-61.131,10.807-61.131h66.925s.423,9.313.3,13.589-1.494,12.1-3.891,21.981-11.245,37.886-12.955,42.02-5.024,16.071-5.024,16.071c1.642,22.445-2.625,42.583-5.826,69.349,0,0-.926,3.615-10.411,2.9-9.217-.7-11.077-4.093-11.077-4.093l-.617-23.1s-5.04,1.546-8,.839c0,0-19.81-48.9-20.767-51.849s-.837-13.959.532-26.579" fill="#f59d23"/>
        <g id="Group_4288" data-name="Group 4288" opacity="0.45">
          <g id="Group_4287" data-name="Group 4287">
            <g id="Group_4286" data-name="Group 4286" clip-path="url(#clip-path-12)">
              <path id="Path_6186" data-name="Path 6186" d="M111.311,249.6c1.368-12.62,10.807-61.131,10.807-61.131h66.925s.423,9.313.3,13.589-1.494,12.1-3.891,21.981-11.245,37.886-12.955,42.02-5.024,16.071-5.024,16.071c1.642,22.445-2.625,42.583-5.826,69.349,0,0-.926,3.615-10.411,2.9-9.217-.7-11.077-4.093-11.077-4.093l-.617-23.1s-5.04,1.546-8,.839c0,0-19.81-48.9-20.767-51.849s-.837-13.959.532-26.579"/>
            </g>
          </g>
        </g>
        <g id="Group_4291" data-name="Group 4291" opacity="0.2">
          <g id="Group_4290" data-name="Group 4290">
            <g id="Group_4289" data-name="Group 4289" clip-path="url(#clip-path-13)">
              <path id="Path_6187" data-name="Path 6187" d="M139.694,220.09c-9.476-8.545-11.583-15.343-11.583-15.343A63.181,63.181,0,0,0,144.8,218.119s-9,47.521-8.344,57.292,3.09,51.775,3.09,51.775c.018.4-6.381-44.424-6.562-48.007-.478-9.435,6.712-59.089,6.712-59.089"/>
            </g>
          </g>
        </g>
        <path id="Path_6188" data-name="Path 6188" d="M160.554,375.273c.933.266.816,3.05.4,4.082a12.665,12.665,0,0,1-4.324,4.483,20.944,20.944,0,0,0-6.346,6.836,32.037,32.037,0,0,1-9.95,9.712,24.05,24.05,0,0,1-17.5,2.434c-6.278-1.783-6.863-3.321-6.8-5.69Z" fill="#263238"/>
        <path id="Path_6189" data-name="Path 6189" d="M141.129,360.733c-1.646,8.038-4.517,13.873-11.174,18.82-5.292,3.933-9.139,5.932-13.361,9.448-1.8,1.5-1.95,4.69-.571,8.13,2.853,2.292,6.914,3.6,12.368,3.6,6.094-.01,8.44-1.084,11.938-3.479a31.521,31.521,0,0,0,4.777-4.013c2.928-2.938,4.969-6.565,7.083-8.894s6.685-4.708,7.985-7.52c.713-1.545.411-5.116-.067-8.155-.439-2.789.416-7.688-.93-7.974.028.006-.183,2-.183,2-.111.453-.393.682-1.336,1.008a6.807,6.807,0,0,1-2.574.077,1.523,1.523,0,0,0-1.721.487c-.9,1.064-1.142,2.56-2.3,3.439a.715.715,0,0,1-.268.142.286.286,0,0,1-.279-.08.439.439,0,0,1-.051-.328q.168-1.494.335-2.989a3.619,3.619,0,0,0,.024-.906,1.958,1.958,0,0,0-.966-1.314,10.833,10.833,0,0,0-2.687-1.116,16.6,16.6,0,0,0-2.979-.508,9.3,9.3,0,0,0-3.064.134" fill="#455a64"/>
        <path id="Path_6190" data-name="Path 6190" d="M182.995,97.675s2.756,3.787,4.963,11.577a189.53,189.53,0,0,1,4.2,38.919c0,17.664-2.384,46.3-2.384,46.3-20.506,10.279-53.586,4.2-68.144-5.824.589-3.183,1.089-19.9,2.233-30.93.776-18.923,1.414-28.838,1.548-37.255.267-16.821,8.639-25.508,14.962-25.638l16.06.252Z" fill="#f59d23"/>
        <path id="Path_6191" data-name="Path 6191" d="M188.056,189.275c-3.048,2.509-9.036,7.332-10.131,9.762-1.254,2.782-2.034,6.969-2.849,8.586s.435,2.373,2.192,1.808,2.814-2.066,4.171-5.7,5.137-6.486,5.137-6.486Z" fill="#874c4c"/>
        <path id="Path_6192" data-name="Path 6192" d="M176.92,222.012c.727,1.407,2.433,1.413,4.012,1.541a12.835,12.835,0,0,0,5.669-.645,10.319,10.319,0,0,0,5.451-3.794c1.541-2.211,1.933-4.994,2.812-7.542,1.847-5.355,7.328-9.209,8.221-14.88.369-2.345.371-5.1,1.037-6.556.391-.856,9.4-16.368,12.612-23.087,3.088-6.458,5.4-9.5,2.6-17.262s-12.336-35.07-19.08-44.559c-3.826-5.383-9.9-6.915-17.259-7.553-5.6,14.589.919,29.654.919,29.654l14.812,28.577s-5.759,19.679-9.358,30.623c-1,3.04-3.021,4.918-5.292,8.287-.986,1.463-3.255,4.026-4.061,5.6-1.038,2.022-1.011,3.316-1.5,6.147-.776,4.512-1.943,14.783-1.6,15.454" fill="#9e6767"/>
        <path id="Path_6193" data-name="Path 6193" d="M182.206,97.6c3.868.155,9.428.809,12.754,2.488s5.626,3.754,9.453,11.411,9.4,22.54,9.4,22.54-1.851,11.228-19.607,14.142l-12-22.128s-5.348-13.787,0-28.453" fill="#455a64"/>
        <path id="Path_6194" data-name="Path 6194" d="M136.073,61.855a24.03,24.03,0,0,1,1.358,2.919,17.035,17.035,0,0,0,2.244,3.715c2.3,2.651,5.538,4.594,8.48,6.47,1.787,1.14,3.826,2.212,6.009,1.9,2.216-.318,4.612.163,6.869.365l7.868.705-.444,8.274s.975-2.193,2.308-4.81c1.146-2.249,5.924-13.666,5.942-13.709,2.368-5.657,5.182-13.194,2.347-19.137a7.879,7.879,0,0,0-3.077-3.528,6.951,6.951,0,0,0,.26-2.816,9.067,9.067,0,0,0-4.178-6.624,19.875,19.875,0,0,0-7.422-3.057A47.151,47.151,0,0,0,153.9,31.326a64.239,64.239,0,0,0-10.537,1.211,37.82,37.82,0,0,1-5.871.612,11.039,11.039,0,0,1-2.542-.121,28.509,28.509,0,0,1-3.067-1.107.717.717,0,0,0-.548-.044.686.686,0,0,0-.3.471,8.9,8.9,0,0,0,1.635,7.213,4.8,4.8,0,0,1-1.3-.377,9.375,9.375,0,0,1-1.351-.76,7.721,7.721,0,0,1-1.9-1.81.575.575,0,0,0-.312-.234c-.2-.035-.367.138-.485.3a7.048,7.048,0,0,0-1.04,5.527,12.067,12.067,0,0,0,2.6,5.109,7.012,7.012,0,0,0-.354,6.711,9.05,9.05,0,0,0,1.767,2.542c.9.92,1.961,1.672,2.9,2.528a17.432,17.432,0,0,1,2.869,2.758" fill="#37474f"/>
        <path id="Path_6195" data-name="Path 6195" d="M160.04,48.077a15.512,15.512,0,0,0,.566,4.424,8.686,8.686,0,0,0,2.233,3.288,26,26,0,0,1,3.1,3.13,13.188,13.188,0,0,1,1.741,5.759,4.064,4.064,0,0,0,1.521,3.1c2.139,1.323,3.421-1.243,4.562-2.5,1.472-1.36,5.835-3.019,7.854,1.619,2.091,4.8-1.763,11.165-5.275,12.143-6.053,1.686-7.367-2.432-7.367-2.432l-1.159,21.6c-3.419,6.472-11.438,8.527-16.707,7.5-4.549-.889-7.049-4.076-2.771-8.7l.231-6.578s-5.456.648-8.092.153c-4.385-.825-6.559-4.551-7.741-9.364-1.9-7.731-2.765-15.857-.418-33.263,1.077-.594,5.4,2.777,11.952,3.229a30.412,30.412,0,0,0,15.773-3.1" fill="#9e6767"/>
        <path id="Path_6196" data-name="Path 6196" d="M148.565,90.427s9.9-1.662,13.4-3.379a11.333,11.333,0,0,0,4.907-4.549,15.5,15.5,0,0,1-2.881,5.46c-2.62,3.134-15.511,5.085-15.511,5.085Z" fill="#874c4c"/>
        <path id="Path_6197" data-name="Path 6197" d="M153.679,55.769l4.609,1.41a2.531,2.531,0,0,0-1.654-3.085,2.353,2.353,0,0,0-2.955,1.675" fill="#263238"/>
        <path id="Path_6198" data-name="Path 6198" d="M152.076,77.649l-6.785,2.3a3.52,3.52,0,0,0,4.481,2.369,3.751,3.751,0,0,0,2.3-4.667" fill="#874c4c"/>
        <path id="Path_6199" data-name="Path 6199" d="M151.529,79.309a3.99,3.99,0,0,0-3.869,3.035,3.415,3.415,0,0,0,2.112-.029,3.675,3.675,0,0,0,2.414-2.94,4.086,4.086,0,0,0-.657-.066" fill="#f28f8f"/>
        <path id="Path_6200" data-name="Path 6200" d="M133.1,56.543l4.681-.617a2.279,2.279,0,0,0-2.593-2,2.4,2.4,0,0,0-2.088,2.614" fill="#263238"/>
        <path id="Path_6201" data-name="Path 6201" d="M161.93,58.541l15.465,5.3a5.631,5.631,0,0,0-4.456,2.262l-10.954-4.16Z" fill="#263238"/>
        <path id="Path_6202" data-name="Path 6202" d="M135.4,64.574a1.85,1.85,0,1,0,1.911-1.866,1.879,1.879,0,0,0-1.911,1.866" fill="#263238"/>
        <path id="Path_6203" data-name="Path 6203" d="M153.079,64.584a1.85,1.85,0,1,0,1.911-1.865,1.879,1.879,0,0,0-1.911,1.865" fill="#263238"/>
        <path id="Path_6204" data-name="Path 6204" d="M126.283,59.663a4.209,4.209,0,0,0,.976,2.18,1.893,1.893,0,0,1,.392.777c.361,1.487.668,4.305,1.374,5.888a6.506,6.506,0,0,0,6.337,4.184,9.24,9.24,0,0,0,2.157-.181c.055-.011.11-.024.163-.036a6.164,6.164,0,0,0,1.753-.69c.035-.021.071-.042.1-.065.051-.03.1-.061.15-.094s.087-.059.188-.131c.06-.042.117-.085.174-.131s.128-.1.191-.155.122-.1.181-.162c.12-.11.231-.223.339-.343a8.146,8.146,0,0,0,1.408-2.239c.914-2.058.677-4.938,2.182-5.271a1.217,1.217,0,0,1,.18-.026,1.526,1.526,0,0,1,.2-.008c2.044.029,1.817,3.167,2.961,5.406s3.033,4.43,7.469,4.492c.2,0,.39,0,.574,0,.156-.007.31-.015.457-.031a7.765,7.765,0,0,0,1.067-.151c.115-.026.227-.05.336-.078s.218-.061.321-.091c.067-.018.135-.041.2-.065a6.015,6.015,0,0,0,1.2-.564c.141-.088.272-.178.4-.272a5.6,5.6,0,0,0,.694-.608,7.065,7.065,0,0,0,1.344-2.081c.689-1.555.87-4.373,1.212-5.839a2.519,2.519,0,0,1,.339-.849,3.992,3.992,0,0,0,1-2.1,1.824,1.824,0,0,0-1.236-1.848c-.348-.051-.712-.1-1.087-.145-3.5-.423-8.065-.61-10.794.13-3.424.936-4.61,2.032-6.519,2.006-1.786-.043-2.944-1.18-6.186-2.239-2.588-.841-6.854-.816-10.111-.518-.349.031-.687.067-1.01.1-.557.067-1.148.912-1.08,1.852M148.8,61.805a2.89,2.89,0,0,1,.974-.8,1.859,1.859,0,0,1,.176-.1c.032-.019.064-.035.1-.051.152-.078.313-.156.483-.228.141-.062.291-.123.446-.182a12.66,12.66,0,0,1,1.461-.46c.191-.048.385-.1.582-.136a13.838,13.838,0,0,1,1.5-.237c.121-.013.239-.024.351-.028,3.3-.268,5.353.509,6.1,1.185.775.7.425,3.746.111,5.292l-.024.115c-.008.038-.017.079-.024.12-.038.187-.084.4-.141.624-.033.125-.069.255-.108.387,0,.007,0,.012-.005.016-.061.209-.133.424-.22.646v0c-.028.072-.059.147-.091.221-.016.042-.036.086-.059.132a1.474,1.474,0,0,1-.068.147c-.028.061-.059.124-.091.184s-.07.138-.11.2-.083.144-.132.218-.092.146-.143.219a5.181,5.181,0,0,1-4.607,2.173A6.355,6.355,0,0,1,150.4,69.62h0a6.91,6.91,0,0,1-1.6-3.123c-.406-1.734-.64-3.751,0-4.691m-19.386-1.613a2.826,2.826,0,0,1,.805-.51.578.578,0,0,1,.063-.028c.11-.05.228-.1.357-.14.068-.023.143-.049.217-.07.058-.017.121-.037.182-.05a1.208,1.208,0,0,1,.121-.032.242.242,0,0,1,.046-.012l.179-.041a7.422,7.422,0,0,1,.759-.125c.132-.017.27-.032.411-.04.08-.008.163-.012.249-.018.063,0,.127-.006.191-.008.169,0,.345-.008.525-.005l.194,0,.18,0a14.649,14.649,0,0,1,1.519.144c2.35.339,4.805,1.429,5.445,2.394s.5,2.973.189,4.694a7.937,7.937,0,0,1-.3,1.152c-.008.028-.021.058-.031.09s-.027.077-.042.117-.019.051-.029.078c-.019.046-.037.093-.058.138-.04.1-.082.19-.127.285s-.079.163-.122.243c-.016.03-.032.059-.048.086-.03.052-.062.108-.1.163s-.057.093-.089.141a.185.185,0,0,1-.013.023,5.163,5.163,0,0,1-4.895,2.236,5.79,5.79,0,0,1-2.466-.592c-2.335-1.187-2.932-3.813-3.209-5.029-.351-1.559-.808-4.621-.111-5.292" fill="#263238"/>
        <path id="Path_6205" data-name="Path 6205" d="M145.292,63.27l-.35,12.855-7.174-2.071,6.687-10.891a1.843,1.843,0,0,1,.837.107" fill="#874c4c"/>
      </g>
    </g>
    <rect id="Rectangle_3287" data-name="Rectangle 3287" width="5.849" height="14.121" transform="translate(331.477 51.295) rotate(-16.754)" fill="#e0e0e0"/>
    <g id="Group_4297" data-name="Group 4297">
      <g id="Group_4296" data-name="Group 4296" clip-path="url(#clip-path)">
        <path id="Path_6210" data-name="Path 6210" d="M358.661,51.118a2.6,2.6,0,0,1-1.589,2.618,3.9,3.9,0,0,1,.786,1.431c.322,1.047-.534,2.456-2.218,2.957s-12.83,3.861-12.83,3.861l-3.776-12.563h-.009s2.178-5.557,2.284-6.393c.127-.823-1.175-3.919-1.35-4.5-.142-.474,1.9-1.336,3.542-.674a2.859,2.859,0,0,1,1.047.724,8.892,8.892,0,0,1,1.471,2.108,7.636,7.636,0,0,1,.781,3.547l7.752-2.332a2.411,2.411,0,0,1,1.659.052,2.259,2.259,0,0,1,1.279,1.357,2.3,2.3,0,0,1-.659,2.342,2.064,2.064,0,0,1,2.12,1.424,2.3,2.3,0,0,1-1.279,2.6,2.431,2.431,0,0,1,.989,1.445" fill="#e0e0e0"/>
        <path id="Path_6211" data-name="Path 6211" d="M421.533,203.422l-7.19-1.729,4.19-17.341,7.181,1.723Z" fill="#e0e0e0"/>
        <path id="Path_6212" data-name="Path 6212" d="M448.3,201.472a3.285,3.285,0,0,1-3.4,1.844,4.9,4.9,0,0,1-.054,2.063c-.315,1.347-2.146,2.34-4.3,1.814s-16.459-3.961-16.459-3.961l3.883-16.113-.009-.006s5.916-4.677,6.564-5.522c.663-.817,1.214-5.024,1.395-5.771.147-.608,2.923-.248,4.294,1.521a3.615,3.615,0,0,1,.681,1.457,11.239,11.239,0,0,1,.262,3.236,9.645,9.645,0,0,1-1.406,4.369l9.943,2.393a3.047,3.047,0,0,1,1.778,1.114,2.852,2.852,0,0,1,.53,2.295,2.907,2.907,0,0,1-2.211,2.135,2.61,2.61,0,0,1,1.407,2.9,2.9,2.9,0,0,1-3.051,2.021,3.071,3.071,0,0,1,.159,2.206" fill="#e0e0e0"/>
        <path id="Path_6213" data-name="Path 6213" d="M58.352,193.046l7.848,2.363,5.679-18.94-7.836-2.363Z" fill="#e0e0e0"/>
        <path id="Path_6214" data-name="Path 6214" d="M33.822,176.223a3.64,3.64,0,0,0,2.225,3.666,5.448,5.448,0,0,0-1.1,2c-.452,1.465.747,3.438,3.106,4.14s17.967,5.407,17.967,5.407l5.287-17.593h.012s-3.049-7.782-3.2-8.953c-.177-1.152,1.646-5.487,1.89-6.3.2-.664-2.659-1.871-4.96-.944a4.008,4.008,0,0,0-1.466,1.014,12.468,12.468,0,0,0-2.059,2.951,10.689,10.689,0,0,0-1.1,4.968l-10.855-3.266a3.378,3.378,0,0,0-2.324.073,3.169,3.169,0,0,0-1.79,1.9,3.224,3.224,0,0,0,.923,3.279,2.891,2.891,0,0,0-2.969,1.994,3.213,3.213,0,0,0,1.791,3.639,3.4,3.4,0,0,0-1.385,2.023" fill="#e0e0e0"/>
      </g>
    </g>
  </g>
</svg>
