<svg id="Group_4260" data-name="Group 4260" xmlns="http://www.w3.org/2000/svg" xmlns:xlink="http://www.w3.org/1999/xlink" width="463.073" height="461.548" viewBox="0 0 463.073 461.548">
  <defs>
    <clipPath id="clip-path">
      <rect id="Rectangle_3273" data-name="Rectangle 3273" width="463.073" height="461.548" fill="none"/>
    </clipPath>
    <clipPath id="clip-path-5">
      <rect id="Rectangle_3247" data-name="Rectangle 3247" width="26.002" height="55.1" transform="translate(417.765 274.523)" fill="none"/>
    </clipPath>
    <clipPath id="clip-path-7">
      <rect id="Rectangle_3249" data-name="Rectangle 3249" width="72.482" height="79.951" transform="translate(149.936 246.46)" fill="none"/>
    </clipPath>
    <clipPath id="clip-path-8">
      <rect id="Rectangle_3250" data-name="Rectangle 3250" width="231.239" height="316.051" transform="translate(63.117 18.795)" fill="none"/>
    </clipPath>
    <clipPath id="clip-path-10">
      <rect id="Rectangle_3252" data-name="Rectangle 3252" width="238.244" height="137.383" transform="translate(95.355 49.612)" fill="none"/>
    </clipPath>
    <clipPath id="clip-path-11">
      <rect id="Rectangle_3253" data-name="Rectangle 3253" width="238.244" height="150.724" transform="translate(95.355 36.345)" fill="none"/>
    </clipPath>
    <clipPath id="clip-path-12">
      <rect id="Rectangle_3254" data-name="Rectangle 3254" width="232.71" height="147.312" transform="translate(100.889 39.757)" fill="none"/>
    </clipPath>
    <clipPath id="clip-path-13">
      <rect id="Rectangle_3255" data-name="Rectangle 3255" width="6.16" height="16.9" transform="translate(95.359 170.169)" fill="none"/>
    </clipPath>
    <clipPath id="clip-path-14">
      <rect id="Rectangle_3256" data-name="Rectangle 3256" width="40.468" height="29.145" transform="translate(107.534 172.735)" fill="none"/>
    </clipPath>
    <clipPath id="clip-path-15">
      <rect id="Rectangle_3257" data-name="Rectangle 3257" width="140.197" height="87.123" transform="translate(175.546 154.337)" fill="none"/>
    </clipPath>
    <clipPath id="clip-path-16">
      <rect id="Rectangle_3258" data-name="Rectangle 3258" width="2.087" height="2.695" transform="translate(175.546 205.932)" fill="none"/>
    </clipPath>
    <clipPath id="clip-path-17">
      <rect id="Rectangle_3259" data-name="Rectangle 3259" width="37.058" height="27.341" transform="translate(176.34 274.04)" fill="none"/>
    </clipPath>
    <clipPath id="clip-path-18">
      <rect id="Rectangle_3260" data-name="Rectangle 3260" width="37.059" height="23.938" transform="translate(225.084 249.243)" fill="none"/>
    </clipPath>
    <clipPath id="clip-path-19">
      <rect id="Rectangle_3261" data-name="Rectangle 3261" width="7.497" height="12.717" transform="translate(270.643 199.417)" fill="none"/>
    </clipPath>
    <clipPath id="clip-path-20">
      <rect id="Rectangle_3262" data-name="Rectangle 3262" width="7.885" height="24.624" transform="translate(298.69 182.939)" fill="none"/>
    </clipPath>
    <clipPath id="clip-path-22">
      <rect id="Rectangle_3264" data-name="Rectangle 3264" width="65.757" height="39.671" transform="translate(238.817 334.141)" fill="none"/>
    </clipPath>
    <clipPath id="clip-path-23">
      <rect id="Rectangle_3265" data-name="Rectangle 3265" width="98.645" height="56.952" transform="translate(143.562 359.702)" fill="none"/>
    </clipPath>
    <clipPath id="clip-path-24">
      <rect id="Rectangle_3266" data-name="Rectangle 3266" width="89.111" height="30.423" transform="translate(148.329 364.471)" fill="none"/>
    </clipPath>
    <clipPath id="clip-path-25">
      <rect id="Rectangle_3267" data-name="Rectangle 3267" width="88.311" height="41.335" transform="translate(148.729 370.549)" fill="none"/>
    </clipPath>
    <clipPath id="clip-path-26">
      <rect id="Rectangle_3268" data-name="Rectangle 3268" width="37.701" height="45.496" transform="translate(143.562 383.779)" fill="none"/>
    </clipPath>
    <clipPath id="clip-path-28">
      <rect id="Rectangle_3270" data-name="Rectangle 3270" width="11.087" height="6.816" transform="translate(337.323 163.44)" fill="none"/>
    </clipPath>
    <clipPath id="clip-path-29">
      <rect id="Rectangle_3271" data-name="Rectangle 3271" width="8.967" height="6.961" transform="translate(337.824 161.61)" fill="none"/>
    </clipPath>
  </defs>
  <g id="Group_4259" data-name="Group 4259" clip-path="url(#clip-path)">
    <g id="Group_4183" data-name="Group 4183">
      <g id="Group_4182" data-name="Group 4182" clip-path="url(#clip-path)">
        <path id="Path_5881" data-name="Path 5881" d="M395.258,233.346c90.42,52.2,90.42,136.843,0,189.049s-237.022,52.205-327.442,0-90.42-136.844,0-189.048,237.021-52.205,327.442,0" fill="#f0f0f0"/>
      </g>
    </g>
    <g id="Group_4185" data-name="Group 4185">
      <g id="Group_4184" data-name="Group 4184" clip-path="url(#clip-path)">
        <path id="Path_5882" data-name="Path 5882" d="M305.629,363.109a12.613,12.613,0,0,0-1.848-6.5h0a14.262,14.262,0,0,0-.794-1.216c-.013-.019-.027-.037-.041-.056a13.146,13.146,0,0,0-.868-1.065c-.027-.029-.055-.057-.082-.087a11.224,11.224,0,0,0-.936-.907c-.029-.025-.059-.046-.087-.07a9.253,9.253,0,0,0-1.029-.756c-.2-.126-.4-.238-.6-.337-.091-.046-.18-.079-.271-.12s-.209-.1-.312-.138c-.15-.057-.3-.1-.444-.142-.039-.011-.08-.028-.119-.038a4.548,4.548,0,0,0-.513-.1l-.031-.006a3.241,3.241,0,0,0-1.91.292h0l-.011.005,0,0c-5.288,2.653-35.772,22.047-49.8,30.79l-6.951,4.22a1.562,1.562,0,0,0-.514.486c-.017.024-.035.049-.052.075a2.051,2.051,0,0,0-.158.3c-.029.066-.051.138-.075.21-.028.089-.059.173-.08.27-.012.058-.019.122-.028.183-.321.173-.71.385-1.149.63l-1.027.555a40.519,40.519,0,0,0-7.929-5.877c-9.615-5.55-22.357-8.608-35.876-8.608s-26.262,3.058-35.876,8.608c-9.961,5.751-15.446,13.518-15.446,21.87s5.485,16.116,15.445,21.867c9.615,5.55,22.356,8.608,35.876,8.608s26.262-3.058,35.877-8.608c9.961-5.751,15.446-13.517,15.446-21.867a20.129,20.129,0,0,0-3.262-10.806l.917-.5a2.054,2.054,0,0,0,1.969.193l.043-.023c4.761-2.622,51.162-22.4,60.649-27.484h0l.006,0h0c1.11-.6,1.829-1.925,1.893-3.846m-82.047,56.737c-8.3,4.794-19.487,7.435-31.491,7.435S168.9,424.64,160.6,419.846c-7.133-4.117-11.061-9.186-11.061-14.271s3.928-10.157,11.061-14.274c8.3-4.794,19.485-7.434,31.491-7.434s23.189,2.64,31.491,7.434c7.133,4.117,11.061,9.187,11.061,14.274s-3.928,10.154-11.061,14.271" fill="#e0e0e0"/>
        <path id="Path_5883" data-name="Path 5883" d="M312.715,245.639l-47.068-27.231a9.569,9.569,0,0,0-8.66,0L17.9,356.445c-2.392,1.381-2.392,3.619,0,5l47.066,27.232a9.569,9.569,0,0,0,8.66,0l89.6-51.73L177,344.953c7.293,4.211,19.118,4.212,26.411,0l41.057-23.53c7.294-4.209,7.295-11.035,0-15.245l-13.763-8,82.011-47.54c2.391-1.381,2.391-3.619,0-5" fill="#e0e0e0"/>
        <path id="Path_5884" data-name="Path 5884" d="M424.307,329.053c18.023,10.406,18.023,27.277,0,37.682s-47.245,10.406-65.268,0-18.023-27.276,0-37.682,47.244-10.406,65.267,0" fill="#e0e0e0"/>
      </g>
    </g>
    <g id="Group_4190" data-name="Group 4190">
      <g id="Group_4189" data-name="Group 4189" clip-path="url(#clip-path)">
        <path id="Path_5885" data-name="Path 5885" d="M417.888,317.806c.007-6.246-1.241-17.761,4.047-28.561,3.831-7.824,10.687-15.426,17.062-14.67,5.938.7,6.476,9.832.8,16.082s-12.906,14.894-14.481,28.711l-4.09,10.254Z" fill="#f59d23"/>
        <g id="Group_4188" data-name="Group 4188" opacity="0.2">
          <g id="Group_4187" data-name="Group 4187">
            <g id="Group_4186" data-name="Group 4186" clip-path="url(#clip-path-5)">
              <path id="Path_5886" data-name="Path 5886" d="M417.888,317.806c.007-6.246-1.241-17.761,4.047-28.561,3.831-7.824,10.687-15.426,17.062-14.67,5.938.7,6.476,9.832.8,16.082s-12.906,14.894-14.481,28.711l-4.09,10.254Z"/>
            </g>
          </g>
        </g>
        <path id="Path_5887" data-name="Path 5887" d="M420.017,322.2a.434.434,0,0,0,.359-.445c-.719-17.763,5.062-32.509,16.719-42.643a.434.434,0,0,0-.57-.655c-11.862,10.313-17.747,25.3-17.017,43.333a.435.435,0,0,0,.452.416.369.369,0,0,0,.057-.006" fill="#fff"/>
        <path id="Path_5888" data-name="Path 5888" d="M416.757,340.141a22.08,22.08,0,0,0,10.985,3.057c6.685.159,9.154-3.358,9.154-3.358s-3.4-5.794-7.348-7.018a36.862,36.862,0,0,1,11.985,3.137s4.005-.475,4.778-6.788c0,0-2.86-3.354-11.071-4.273a26.407,26.407,0,0,1,11.875-1.021c.55.138,1.719-8.048,1.9-11.777s-1.271-3.495-4.209-3.872-12.663.441-14.229,2.239-1.754,7.254-1.754,7.254-2.1-2.791-2.058-5.54a10.239,10.239,0,0,0-6.016.953c-3.038,1.538-4.015,2.77-4.165,5.1s-.348,5.825.589,8.535c0,0-2.769-4.462-2.627-8.347a41.109,41.109,0,0,0-2.826,5.913c-1.3,3.4.244,11.631,5.032,15.8" fill="#f59d23"/>
        <path id="Path_5889" data-name="Path 5889" d="M416.87,340.56a.434.434,0,0,0,.3-.284c3.8-11.667,21.709-27.03,28.551-29.337a.434.434,0,0,0,.272-.55.42.42,0,0,0-.55-.273c-6.973,2.352-25.222,18.006-29.1,29.89a.436.436,0,0,0,.279.548.443.443,0,0,0,.247.006" fill="#fff"/>
      </g>
    </g>
    <g id="Group_4198" data-name="Group 4198">
      <g id="Group_4197" data-name="Group 4197" clip-path="url(#clip-path)">
        <path id="Path_5890" data-name="Path 5890" d="M203.411,340.984l35.374-20.454c3.646-2.105,5.47-4.863,5.47-7.622s.015-4.921.015-4.921l-33.286-18.893a7.783,7.783,0,0,1-3.521-6.1V239.381l-61.787,35.7,0,43.614a7.786,7.786,0,0,0,3.521,6.1L177,340.985c7.293,4.21,19.117,4.209,26.41,0" fill="#37474f"/>
        <path id="Path_5891" data-name="Path 5891" d="M160.51,326.42v4.9l-11.324-6.525a7.794,7.794,0,0,1-3.517-6.1V275.086L157.44,268.3c.244,2.989.508,6.079.752,9.088l-8.254,4.778v34.074a7.735,7.735,0,0,0,3.518,6.1Z" fill="#263238"/>
        <path id="Path_5892" data-name="Path 5892" d="M149.937,316.243a7.782,7.782,0,0,0,3.521,6.1L177,336.066c7.293,4.21,19.118,4.212,26.412,0L238.8,315.617c7.294-4.209,7.294-11.034,0-15.245l-23.555-13.734a7.786,7.786,0,0,1-3.522-6.1V246.46l-61.788,35.7Z" fill="#455a64"/>
        <g id="Group_4193" data-name="Group 4193" opacity="0.15">
          <g id="Group_4192" data-name="Group 4192">
            <g id="Group_4191" data-name="Group 4191" clip-path="url(#clip-path-7)">
              <path id="Path_5893" data-name="Path 5893" d="M222.418,290.783v0l-7.172-4.141a7.784,7.784,0,0,1-3.522-6.1V246.46l-61.788,35.7v34.079a7.785,7.785,0,0,0,3.522,6.1l7.048,4.069Z"/>
            </g>
          </g>
        </g>
        <path id="Path_5894" data-name="Path 5894" d="M244.264,307.99v4.92c0,2.765-1.83,5.509-5.469,7.624l-35.38,20.442a26.492,26.492,0,0,1-12.6,3.131v-4.9a26.48,26.48,0,0,0,12.6-3.131l35.38-20.462c3.639-2.094,5.469-4.859,5.469-7.624" fill="#37474f"/>
        <path id="Path_5895" data-name="Path 5895" d="M50.73,363.293a9.44,9.44,0,0,0,8.531-.158L298.21,225.181a9.725,9.725,0,0,0,4.4-7.623V8.409A9.437,9.437,0,0,0,298.482.943a9.439,9.439,0,0,0-8.531.157L51.006,139.055a9.727,9.727,0,0,0-4.4,7.623l0,209.149a9.438,9.438,0,0,0,4.129,7.466" fill="#455a64"/>
        <path id="Path_5896" data-name="Path 5896" d="M59.262,363.13,298.21,225.176a9.729,9.729,0,0,0,4.4-7.624V8.4c0-2.807-1.971-3.945-4.4-2.541L59.265,143.816a9.731,9.731,0,0,0-4.4,7.625l0,209.148c0,2.807,1.971,3.944,4.4,2.541" fill="#37474f"/>
        <path id="Path_5897" data-name="Path 5897" d="M63.117,332.96V154.181a5.834,5.834,0,0,1,2.641-4.574L291.706,19.155c1.459-.841,2.642-.159,2.642,1.525l.007,178.783a5.838,5.838,0,0,1-2.64,4.574L65.757,334.485c-1.458.842-2.64.159-2.64-1.525" fill="#f59d23"/>
        <g id="Group_4196" data-name="Group 4196" opacity="0.7">
          <g id="Group_4195" data-name="Group 4195">
            <g id="Group_4194" data-name="Group 4194" clip-path="url(#clip-path-8)">
              <path id="Path_5898" data-name="Path 5898" d="M63.117,332.96V154.181a5.834,5.834,0,0,1,2.641-4.574L291.706,19.155c1.459-.841,2.642-.159,2.642,1.525l.007,178.783a5.838,5.838,0,0,1-2.64,4.574L65.757,334.485c-1.458.842-2.64.159-2.64-1.525" fill="#fff"/>
            </g>
          </g>
        </g>
        <path id="Path_5899" data-name="Path 5899" d="M178.285,285.689a2.6,2.6,0,0,1-1.325-.344,3.369,3.369,0,0,1-1.461-3.106,9.549,9.549,0,0,1,4.381-7.586,3,3,0,0,1,4.88,2.817,9.548,9.548,0,0,1-4.38,7.586,4.247,4.247,0,0,1-2.1.633m3.688-10.669a3.259,3.259,0,0,0-1.593.5,8.588,8.588,0,0,0-3.881,6.72,2.034,2.034,0,0,0,3.381,1.951,8.587,8.587,0,0,0,3.88-6.72,2.438,2.438,0,0,0-.96-2.241,1.632,1.632,0,0,0-.827-.209" fill="#f59d23"/>
      </g>
    </g>
    <g id="Group_4233" data-name="Group 4233">
      <g id="Group_4232" data-name="Group 4232" clip-path="url(#clip-path)">
        <path id="Path_5900" data-name="Path 5900" d="M333.6,52.8,100.889,187V358.508a2.969,2.969,0,0,0,4.448,2.579l4.148-2.394L329.26,231.972a9.585,9.585,0,0,0,4.339-7.512Z" fill="#f0f0f0"/>
        <path id="Path_5901" data-name="Path 5901" d="M332.6,54.53V224.46a8.624,8.624,0,0,1-3.838,6.645L108.986,357.827l-4.148,2.393a1.922,1.922,0,0,1-.973.267,2.007,2.007,0,0,1-1.377-.561,1.942,1.942,0,0,1-.6-1.418V187.573Zm1-1.732L100.889,187V358.508a2.978,2.978,0,0,0,2.975,2.979,2.939,2.939,0,0,0,1.473-.4l4.148-2.394L329.26,231.972a9.585,9.585,0,0,0,4.339-7.512Z" fill="#e0e0e0"/>
        <g id="Group_4201" data-name="Group 4201" opacity="0.8">
          <g id="Group_4200" data-name="Group 4200">
            <g id="Group_4199" data-name="Group 4199" clip-path="url(#clip-path-10)">
              <path id="Path_5902" data-name="Path 5902" d="M328.079,49.612,95.354,183.8l5.534,3.2L333.6,52.8Z" fill="#455a64"/>
            </g>
          </g>
        </g>
        <path id="Path_5903" data-name="Path 5903" d="M102.448,361.128a3,3,0,0,1-1.558-2.619V187l-5.535-3.2-.006,170.565a4.8,4.8,0,0,0,.042.632,4.594,4.594,0,0,0,2.264,3.36L102.223,361Z" fill="#ebebeb"/>
        <path id="Path_5904" data-name="Path 5904" d="M95.355,183.875V172.3a4.82,4.82,0,0,1,2.158-3.761L325.921,36.87a4.757,4.757,0,0,1,4.324-.011l1.189.687A4.784,4.784,0,0,1,333.6,41.3V52.887L100.889,187.068Z" fill="#f59d23"/>
        <g id="Group_4204" data-name="Group 4204" opacity="0.3">
          <g id="Group_4203" data-name="Group 4203">
            <g id="Group_4202" data-name="Group 4202" clip-path="url(#clip-path-11)">
              <path id="Path_5905" data-name="Path 5905" d="M95.355,183.875V172.3a4.82,4.82,0,0,1,2.158-3.761L325.921,36.87a4.757,4.757,0,0,1,4.324-.011l1.189.687A4.784,4.784,0,0,1,333.6,41.3V52.887L100.889,187.068Z"/>
            </g>
          </g>
        </g>
        <path id="Path_5906" data-name="Path 5906" d="M100.889,175.5a4.816,4.816,0,0,1,2.158-3.761L331.441,40.058c1.192-.7,2.158-.143,2.158,1.238V52.887L100.889,187.069Z" fill="#f59d23"/>
        <g id="Group_4207" data-name="Group 4207" opacity="0.4">
          <g id="Group_4206" data-name="Group 4206">
            <g id="Group_4205" data-name="Group 4205" clip-path="url(#clip-path-12)">
              <path id="Path_5907" data-name="Path 5907" d="M100.889,175.5a4.816,4.816,0,0,1,2.158-3.761L331.441,40.058c1.192-.7,2.158-.143,2.158,1.238V52.887L100.889,187.069Z"/>
            </g>
          </g>
        </g>
        <path id="Path_5908" data-name="Path 5908" d="M101.519,173.359a4.467,4.467,0,0,0-.63,2.14v11.57l-5.53-3.19V172.3a4.43,4.43,0,0,1,.63-2.13Z" fill="#f59d23"/>
        <g id="Group_4210" data-name="Group 4210" opacity="0.5">
          <g id="Group_4209" data-name="Group 4209">
            <g id="Group_4208" data-name="Group 4208" clip-path="url(#clip-path-13)">
              <path id="Path_5909" data-name="Path 5909" d="M101.519,173.359a4.467,4.467,0,0,0-.63,2.14v11.57l-5.53-3.19V172.3a4.43,4.43,0,0,1,.63-2.13Z"/>
            </g>
          </g>
        </g>
        <path id="Path_5910" data-name="Path 5910" d="M323.444,52.363c0,1.3.909,1.82,2.031,1.173a4.49,4.49,0,0,0,2.031-3.518c0-1.3-.909-1.82-2.031-1.173a4.49,4.49,0,0,0-2.031,3.518" fill="#fafafa"/>
        <path id="Path_5911" data-name="Path 5911" d="M315.32,57.053c0,1.295.909,1.82,2.031,1.173a4.49,4.49,0,0,0,2.031-3.518c0-1.3-.909-1.82-2.031-1.173a4.49,4.49,0,0,0-2.031,3.518" fill="#fafafa"/>
        <path id="Path_5912" data-name="Path 5912" d="M307.2,61.743c0,1.295.909,1.82,2.031,1.173a4.49,4.49,0,0,0,2.031-3.518c0-1.295-.909-1.82-2.031-1.173a4.49,4.49,0,0,0-2.031,3.518" fill="#fafafa"/>
        <path id="Path_5913" data-name="Path 5913" d="M100.889,187.072V358.509a2.97,2.97,0,0,0,4.448,2.578l4.148-2.4,50.855-29.322V152.789l-59.452,34.28Z" fill="#fafafa"/>
        <path id="Path_5914" data-name="Path 5914" d="M164.4,155.685V322.2l164.318-94.869V60.817Z" fill="#fafafa"/>
        <path id="Path_5915" data-name="Path 5915" d="M146.732,172.908l-37.926,21.915a2.809,2.809,0,0,0-1.271,2.2v3.948c0,.811.568,1.139,1.27.734l37.926-21.915a2.811,2.811,0,0,0,1.271-2.2v-3.947c0-.811-.569-1.139-1.271-.734" fill="#f59d23"/>
        <g id="Group_4213" data-name="Group 4213" opacity="0.8">
          <g id="Group_4212" data-name="Group 4212">
            <g id="Group_4211" data-name="Group 4211" clip-path="url(#clip-path-14)">
              <path id="Path_5916" data-name="Path 5916" d="M146.732,172.908l-37.926,21.915a2.809,2.809,0,0,0-1.271,2.2v3.948c0,.811.568,1.139,1.27.734l37.926-21.915a2.811,2.811,0,0,0,1.271-2.2v-3.947c0-.811-.569-1.139-1.271-.734" fill="#fafafa"/>
            </g>
          </g>
        </g>
        <path id="Path_5917" data-name="Path 5917" d="M155.176,174.475l-1.118-1.076a4.982,4.982,0,0,0,.356-1.786,2.112,2.112,0,0,0-.836-1.919,1.322,1.322,0,0,0-1.361.059,4.467,4.467,0,0,0-1.756,3.633,2.116,2.116,0,0,0,.835,1.919,1.192,1.192,0,0,0,.6.161,1.515,1.515,0,0,0,.761-.222,3.018,3.018,0,0,0,.992-1.018l.917.882a.435.435,0,0,0,.305.124.44.44,0,0,0,.3-.757m-2.959.007a.473.473,0,0,1-.48.06c-.183-.105-.4-.471-.4-1.156a3.644,3.644,0,0,1,1.316-2.871.652.652,0,0,1,.318-.1.325.325,0,0,1,.163.043c.182.105.4.471.4,1.157a3.639,3.639,0,0,1-1.316,2.869" fill="#455a64"/>
        <path id="Path_5918" data-name="Path 5918" d="M108.458,213.294l-.851.491c-.05.029-.09,0-.09-.068v-2.3a.218.218,0,0,1,.09-.174l.851-.491c.05-.029.091,0,.091.069v2.3a.218.218,0,0,1-.091.173" fill="#455a64"/>
        <path id="Path_5919" data-name="Path 5919" d="M109.733,212.558l-.851.491c-.05.029-.09,0-.09-.068v-2.3a.218.218,0,0,1,.09-.174l.851-.491c.05-.029.091,0,.091.069v2.3a.218.218,0,0,1-.091.173" fill="#455a64"/>
        <path id="Path_5920" data-name="Path 5920" d="M111.008,211.821l-.851.491c-.05.029-.09,0-.09-.068v-2.3a.218.218,0,0,1,.09-.174l.851-.491c.05-.029.091,0,.091.069v2.3a.218.218,0,0,1-.091.173" fill="#455a64"/>
        <path id="Path_5921" data-name="Path 5921" d="M108.458,216.264l-.851.491c-.05.029-.09,0-.09-.068v-2.3a.218.218,0,0,1,.09-.173l.851-.491c.05-.029.091,0,.091.069v2.3a.218.218,0,0,1-.091.173" fill="#455a64"/>
        <path id="Path_5922" data-name="Path 5922" d="M109.733,215.527l-.851.491c-.05.029-.09,0-.09-.069v-2.3a.218.218,0,0,1,.09-.173l.851-.491c.05-.029.091,0,.091.069v2.3a.218.218,0,0,1-.091.173" fill="#455a64"/>
        <path id="Path_5923" data-name="Path 5923" d="M111.008,214.791l-.851.491c-.05.029-.09,0-.09-.068v-2.3a.218.218,0,0,1,.09-.174l.851-.491c.05-.029.091,0,.091.069v2.3a.217.217,0,0,1-.091.173" fill="#455a64"/>
        <path id="Path_5924" data-name="Path 5924" d="M108.593,224.11l-1.047-.638c-.04-.025-.04-.117,0-.188l1.047-1.847c.051-.089.124-.076.124.022v2.486c0,.1-.073.2-.124.165" fill="#455a64"/>
        <path id="Path_5925" data-name="Path 5925" d="M108.153,222.7l1.379-.8v.655l-1.379.8c-.117.068-.213-.024-.213-.2a.564.564,0,0,1,.213-.451" fill="#455a64"/>
        <path id="Path_5926" data-name="Path 5926" d="M109.789,221.755l.47-.271v.655l-.47.271Z" fill="#455a64"/>
        <path id="Path_5927" data-name="Path 5927" d="M111.527,221.079v2.411a.558.558,0,0,1-.213.45c-.117.068-.213-.021-.213-.2v-2.084l-.582.337v-.655l.8-.46c.117-.067.213.025.213.205" fill="#455a64"/>
        <path id="Path_5928" data-name="Path 5928" d="M109,229.513a4.566,4.566,0,0,0-1.452,3.9c.173,1.256.918,1.208,1,1.79.009.063.05.086.1.06l.932-.53a.234.234,0,0,0,.1-.17c.1-.768,1.049-1.695,1.056-3.564.006-1.435-.779-2.136-1.725-1.485" fill="#455a64"/>
        <path id="Path_5929" data-name="Path 5929" d="M109.558,236.235l-.9.52c-.062.035-.112,0-.112-.085v-.828a.266.266,0,0,1,.112-.213l.9-.52c.062-.036.112,0,.112.084v.829a.267.267,0,0,1-.112.213" fill="#455a64"/>
        <path id="Path_5930" data-name="Path 5930" d="M109.217,210.062a5.463,5.463,0,0,0-1.631,3.451,3.624,3.624,0,0,0,.238,1.887l-.3,1.573c-.025.13.046.2.121.117l.906-.989a1.406,1.406,0,0,0,1.319-.387,5.464,5.464,0,0,0,1.634-3.457c.214-2.2-.934-3.305-2.284-2.2m.326,5.155c-.834.482-1.513-.171-1.513-1.456a4,4,0,0,1,1.513-3.2c.834-.481,1.513.172,1.513,1.456a4,4,0,0,1-1.513,3.2" fill="#455a64"/>
        <path id="Path_5931" data-name="Path 5931" d="M109.217,240.41a5.463,5.463,0,0,0-1.631,3.451,3.624,3.624,0,0,0,.238,1.887l-.3,1.573c-.025.13.046.2.121.117l.906-.989a1.406,1.406,0,0,0,1.319-.387A5.464,5.464,0,0,0,111.5,242.6c.214-2.2-.934-3.3-2.284-2.195m.326,5.155c-.834.482-1.513-.171-1.513-1.456a4,4,0,0,1,1.513-3.2c.834-.481,1.513.172,1.513,1.456a4,4,0,0,1-1.513,3.2" fill="#455a64"/>
        <path id="Path_5932" data-name="Path 5932" d="M110.5,251.529a2.1,2.1,0,0,1-.8,1.69c-.441.255-.8-.089-.8-.768a2.1,2.1,0,0,1,.8-1.69c.441-.255.8.089.8.768" fill="#455a64"/>
        <path id="Path_5933" data-name="Path 5933" d="M111.868,251.771a1.4,1.4,0,0,1-.532,1.126c-.293.169-.532-.06-.532-.512a1.406,1.406,0,0,1,.532-1.126c.294-.169.532.06.532.512" fill="#455a64"/>
        <path id="Path_5934" data-name="Path 5934" d="M110.641,256.373l-1.885,1.089v-2.387a1.635,1.635,0,0,1,.682-1.3l.52-.3c.377-.218.683.013.683.516Z" fill="#455a64"/>
        <path id="Path_5935" data-name="Path 5935" d="M111.42,253.172l-.519.3v2.751l.979-.565V253.52c0-.339-.206-.5-.46-.348" fill="#455a64"/>
        <path id="Path_5936" data-name="Path 5936" d="M107.529,254.277c0,.452.238.681.532.512a1.406,1.406,0,0,0,.531-1.126c0-.452-.238-.681-.531-.512a1.4,1.4,0,0,0-.532,1.126" fill="#455a64"/>
        <path id="Path_5937" data-name="Path 5937" d="M107.977,255.16l.519-.3v2.75l-.979.565V256.04a1.1,1.1,0,0,1,.46-.88" fill="#455a64"/>
        <path id="Path_5938" data-name="Path 5938" d="M116.741,207.9l22.207-12.821c.6-.346,1.083-.1,1.083.547a2.321,2.321,0,0,1-1.083,1.8l-22.207,12.821c-.6.346-1.083.1-1.083-.547a2.321,2.321,0,0,1,1.083-1.8" fill="#e0e0e0"/>
        <path id="Path_5939" data-name="Path 5939" d="M116.741,218.35l22.207-12.821c.6-.346,1.083-.1,1.083.547a2.321,2.321,0,0,1-1.083,1.8L116.741,220.7c-.6.345-1.083.1-1.083-.547a2.321,2.321,0,0,1,1.083-1.8" fill="#e0e0e0"/>
        <path id="Path_5940" data-name="Path 5940" d="M116.741,228.8l22.207-12.821c.6-.345,1.083-.1,1.083.547a2.321,2.321,0,0,1-1.083,1.8l-22.207,12.821c-.6.346-1.083.1-1.083-.547a2.321,2.321,0,0,1,1.083-1.8" fill="#e0e0e0"/>
        <path id="Path_5941" data-name="Path 5941" d="M116.741,239.256l22.207-12.821c.6-.345,1.083-.1,1.083.547a2.321,2.321,0,0,1-1.083,1.8L116.741,241.6c-.6.346-1.083.1-1.083-.547a2.321,2.321,0,0,1,1.083-1.8" fill="#e0e0e0"/>
        <path id="Path_5942" data-name="Path 5942" d="M116.741,249.709l22.207-12.821c.6-.346,1.083-.1,1.083.547a2.321,2.321,0,0,1-1.083,1.8l-22.207,12.821c-.6.346-1.083.1-1.083-.547a2.321,2.321,0,0,1,1.083-1.8" fill="#e0e0e0"/>
        <path id="Path_5943" data-name="Path 5943" d="M120.8,258.244l22.207-12.821c.6-.346,1.082-.1,1.083.547a2.321,2.321,0,0,1-1.083,1.8L120.8,260.589c-.6.346-1.083.1-1.083-.547a2.321,2.321,0,0,1,1.083-1.8" fill="#455a64"/>
        <path id="Path_5944" data-name="Path 5944" d="M120.8,265.3l22.207-12.821c.6-.346,1.082-.1,1.083.547a2.321,2.321,0,0,1-1.083,1.8L120.8,267.65c-.6.345-1.083.1-1.083-.547a2.321,2.321,0,0,1,1.083-1.8" fill="#e0e0e0"/>
        <path id="Path_5945" data-name="Path 5945" d="M120.8,272.366l22.207-12.821c.6-.345,1.082-.1,1.083.547a2.321,2.321,0,0,1-1.083,1.8L120.8,274.711c-.6.346-1.083.1-1.083-.547a2.321,2.321,0,0,1,1.083-1.8" fill="#e0e0e0"/>
        <path id="Path_5946" data-name="Path 5946" d="M125.126,276.855l22.207-12.821c.6-.345,1.082-.1,1.082.547a2.323,2.323,0,0,1-1.082,1.8L125.126,279.2c-.6.346-1.083.1-1.083-.547a2.319,2.319,0,0,1,1.083-1.8" fill="#e0e0e0"/>
        <path id="Path_5947" data-name="Path 5947" d="M119.935,282.93l1.8-3.182c.068-.121.068-.281,0-.323l-1.8-1.1c-.087-.053-.214.116-.214.285v4.282c0,.169.127.192.214.038" fill="#455a64"/>
        <path id="Path_5948" data-name="Path 5948" d="M125.126,283.891l22.207-12.821c.6-.345,1.082-.1,1.082.547a2.323,2.323,0,0,1-1.082,1.8l-22.207,12.821c-.6.346-1.083.1-1.083-.547a2.319,2.319,0,0,1,1.083-1.8" fill="#e0e0e0"/>
        <path id="Path_5949" data-name="Path 5949" d="M119.935,289.966l1.8-3.182c.068-.121.068-.281,0-.323l-1.8-1.1c-.087-.053-.214.116-.214.285v4.282c0,.169.127.192.214.038" fill="#455a64"/>
        <path id="Path_5950" data-name="Path 5950" d="M125.126,290.928l22.207-12.821c.6-.345,1.082-.1,1.082.547a2.323,2.323,0,0,1-1.082,1.8l-22.207,12.821c-.6.346-1.083.1-1.083-.547a2.319,2.319,0,0,1,1.083-1.8" fill="#e0e0e0"/>
        <path id="Path_5951" data-name="Path 5951" d="M119.935,297l1.8-3.182c.068-.121.068-.281,0-.323l-1.8-1.1c-.087-.053-.214.116-.214.285v4.282c0,.169.127.192.214.038" fill="#455a64"/>
        <path id="Path_5952" data-name="Path 5952" d="M125.126,297.964l22.207-12.821c.6-.346,1.082-.1,1.082.547a2.323,2.323,0,0,1-1.082,1.8l-22.207,12.821c-.6.345-1.083.1-1.083-.547a2.319,2.319,0,0,1,1.083-1.8" fill="#e0e0e0"/>
        <path id="Path_5953" data-name="Path 5953" d="M119.935,304.039l1.8-3.182c.068-.121.068-.281,0-.323l-1.8-1.1c-.087-.053-.214.116-.214.285V304c0,.169.127.192.214.038" fill="#455a64"/>
        <path id="Path_5954" data-name="Path 5954" d="M125.126,305l22.207-12.821c.6-.346,1.082-.1,1.082.547a2.323,2.323,0,0,1-1.082,1.8l-22.207,12.821c-.6.345-1.083.1-1.083-.547a2.319,2.319,0,0,1,1.083-1.8" fill="#e0e0e0"/>
        <path id="Path_5955" data-name="Path 5955" d="M119.935,311.076l1.8-3.182c.068-.121.068-.281,0-.323l-1.8-1.1c-.087-.053-.214.116-.214.285v4.282c0,.169.127.192.214.038" fill="#455a64"/>
        <path id="Path_5956" data-name="Path 5956" d="M125.126,312.037l22.207-12.821c.6-.345,1.082-.1,1.082.547a2.323,2.323,0,0,1-1.082,1.8l-22.207,12.821c-.6.346-1.083.1-1.083-.547a2.319,2.319,0,0,1,1.083-1.8" fill="#e0e0e0"/>
        <path id="Path_5957" data-name="Path 5957" d="M119.935,318.112l1.8-3.182c.068-.121.068-.281,0-.323l-1.8-1.1c-.087-.053-.214.116-.214.285v4.282c0,.169.127.192.214.038" fill="#455a64"/>
        <path id="Path_5958" data-name="Path 5958" d="M125.126,319.073l22.207-12.821c.6-.345,1.082-.1,1.082.547a2.323,2.323,0,0,1-1.082,1.8l-22.207,12.821c-.6.346-1.083.1-1.083-.547a2.319,2.319,0,0,1,1.083-1.8" fill="#e0e0e0"/>
        <path id="Path_5959" data-name="Path 5959" d="M119.935,325.149l1.8-3.182c.068-.121.068-.281,0-.323l-1.8-1.1c-.087-.053-.214.116-.214.285v4.282c0,.169.127.192.214.038" fill="#455a64"/>
        <path id="Path_5960" data-name="Path 5960" d="M125.126,326.11l22.207-12.821c.6-.346,1.082-.1,1.082.547a2.323,2.323,0,0,1-1.082,1.8l-22.207,12.821c-.6.346-1.083.1-1.083-.547a2.319,2.319,0,0,1,1.083-1.8" fill="#e0e0e0"/>
        <path id="Path_5961" data-name="Path 5961" d="M119.935,332.185l1.8-3.182c.068-.121.068-.281,0-.323l-1.8-1.1c-.087-.053-.214.116-.214.285v4.282c0,.169.127.192.214.038" fill="#455a64"/>
        <path id="Path_5962" data-name="Path 5962" d="M169.547,178.52l72.99-42.141a2.391,2.391,0,0,0,1.082-1.875V115.9c0-.69-.484-.97-1.082-.625L169.547,157.4a2.392,2.392,0,0,0-1.083,1.875V177.9c0,.69.485.97,1.083.625" fill="#f0f0f0"/>
        <path id="Path_5963" data-name="Path 5963" d="M175.912,165.388a.214.214,0,0,1,.007-.045l.479-2-.662.381a.031.031,0,0,1-.042,0,.075.075,0,0,1-.017-.055v-.361a.194.194,0,0,1,.017-.076.117.117,0,0,1,.042-.051l1.061-.613a.033.033,0,0,1,.043,0,.079.079,0,0,1,.017.055v.318a.87.87,0,0,1-.036.194l-.48,2a.459.459,0,0,1-.025.071.094.094,0,0,1-.04.049l-.311.179a.027.027,0,0,1-.037,0,.063.063,0,0,1-.016-.049" fill="#455a64"/>
        <path id="Path_5964" data-name="Path 5964" d="M177.683,162.022a.539.539,0,0,1,.286-.09.281.281,0,0,1,.2.088.493.493,0,0,1,.118.227,1.468,1.468,0,0,1,.045.327c0,.1.005.2.005.3s0,.208-.005.3a2.251,2.251,0,0,1-.045.38,1.649,1.649,0,0,1-.118.364,1.4,1.4,0,0,1-.2.316,1.069,1.069,0,0,1-.286.24.536.536,0,0,1-.287.09.283.283,0,0,1-.2-.086.523.523,0,0,1-.117-.228,1.59,1.59,0,0,1-.046-.327c0-.092,0-.191,0-.3s0-.209,0-.31a2.493,2.493,0,0,1,.046-.38,1.684,1.684,0,0,1,.117-.362,1.422,1.422,0,0,1,.2-.317,1.08,1.08,0,0,1,.287-.241m.237,1.38q.009-.3,0-.573a1.143,1.143,0,0,0-.017-.148.258.258,0,0,0-.039-.1.1.1,0,0,0-.071-.043.2.2,0,0,0-.11.034.385.385,0,0,0-.112.1.466.466,0,0,0-.071.125.861.861,0,0,0-.04.148,1.216,1.216,0,0,0-.015.166q-.011.29,0,.573a.9.9,0,0,0,.014.149.247.247,0,0,0,.04.1.1.1,0,0,0,.072.042.188.188,0,0,0,.112-.034.359.359,0,0,0,.11-.094.491.491,0,0,0,.072-.126.576.576,0,0,0,.04-.148,1.218,1.218,0,0,0,.015-.165" fill="#455a64"/>
        <path id="Path_5965" data-name="Path 5965" d="M179.218,161.637c0,.09,0,.176,0,.26a1.236,1.236,0,0,1-.025.2.869.869,0,0,1-.065.192.76.76,0,0,1-.107.166.615.615,0,0,1-.152.125.312.312,0,0,1-.15.049.142.142,0,0,1-.106-.043.258.258,0,0,1-.065-.117.757.757,0,0,1-.027-.174c0-.043,0-.085,0-.125s0-.085,0-.134a1.249,1.249,0,0,1,.027-.2.9.9,0,0,1,.065-.191.67.67,0,0,1,.106-.166.561.561,0,0,1,.15-.124.31.31,0,0,1,.152-.05.146.146,0,0,1,.105.043.267.267,0,0,1,.066.116.771.771,0,0,1,.026.174m.555-.722a.352.352,0,0,1,.032-.067.136.136,0,0,1,.047-.045l.182-.1a.04.04,0,0,1,.04,0,.051.051,0,0,1,.014.042l0,.019-.006.024-1.1,2.853a.472.472,0,0,1-.032.067.137.137,0,0,1-.048.044l-.182.105c-.017.01-.029.011-.039,0a.048.048,0,0,1-.015-.041l0-.018a.086.086,0,0,1,.007-.025Zm-.994,1.219a.294.294,0,0,0,.023.12c.013.023.035.024.067.005a.143.143,0,0,0,.068-.084.559.559,0,0,0,.024-.146,2.131,2.131,0,0,0,0-.226.313.313,0,0,0-.024-.12c-.013-.022-.034-.024-.068-.005a.154.154,0,0,0-.067.083.545.545,0,0,0-.023.147,1.7,1.7,0,0,0,0,.226m1.469.1c0,.088,0,.175,0,.26a1.25,1.25,0,0,1-.026.2.913.913,0,0,1-.064.191.741.741,0,0,1-.108.166.558.558,0,0,1-.15.124.316.316,0,0,1-.152.051.146.146,0,0,1-.106-.043.291.291,0,0,1-.065-.117.77.77,0,0,1-.026-.174c0-.044,0-.086,0-.125s0-.085,0-.135a1.238,1.238,0,0,1,.026-.2,1.009,1.009,0,0,1,.065-.192.683.683,0,0,1,.106-.165.559.559,0,0,1,.152-.125.3.3,0,0,1,.15-.049.142.142,0,0,1,.107.042.279.279,0,0,1,.064.117.766.766,0,0,1,.027.174m-.44.5a.309.309,0,0,0,.024.12c.012.023.035.024.068.005a.15.15,0,0,0,.067-.083.574.574,0,0,0,.024-.147c0-.078,0-.153,0-.226a.3.3,0,0,0-.024-.119c-.013-.022-.035-.025-.067-.006a.149.149,0,0,0-.068.084.575.575,0,0,0-.024.146,2.13,2.13,0,0,0,0,.226" fill="#455a64"/>
        <path id="Path_5966" data-name="Path 5966" d="M175.9,159.655l-.733-1.13a14.727,14.727,0,0,0-1.732,4.667l1.185-.091a10.868,10.868,0,0,1,1.28-3.446" fill="#455a64"/>
        <path id="Path_5967" data-name="Path 5967" d="M177.968,157.421v-1.915a8.315,8.315,0,0,0-2.8,3.019l.733,1.129a6.15,6.15,0,0,1,2.068-2.233" fill="#455a64"/>
        <path id="Path_5968" data-name="Path 5968" d="M174.447,164.876a9.677,9.677,0,0,1,.173-1.775l-1.184.091a13.036,13.036,0,0,0-.233,2.4,9.141,9.141,0,0,0,.233,2.133l1.184-1.276a6.78,6.78,0,0,1-.173-1.575" fill="#455a64"/>
        <path id="Path_5969" data-name="Path 5969" d="M182.5,157.959a3.932,3.932,0,0,0-1.733-2.667,2.776,2.776,0,0,0-2.8.214v1.916a2.045,2.045,0,0,1,2.067-.154,2.9,2.9,0,0,1,1.281,1.967,6.776,6.776,0,0,1,.174,1.575,9.677,9.677,0,0,1-.174,1.775,10.822,10.822,0,0,1-1.281,3.446,6.14,6.14,0,0,1-2.067,2.233,2.047,2.047,0,0,1-2.068.154,2.9,2.9,0,0,1-1.28-1.967l-1.184,1.276a3.935,3.935,0,0,0,1.731,2.668,2.78,2.78,0,0,0,2.8-.215,8.3,8.3,0,0,0,2.8-3.019,14.713,14.713,0,0,0,1.733-4.667,13.122,13.122,0,0,0,.232-2.4,9.2,9.2,0,0,0-.232-2.133" fill="#f59d23"/>
        <path id="Path_5970" data-name="Path 5970" d="M189.858,152.714l22.207-12.821c.6-.346,1.083-.1,1.083.547a2.321,2.321,0,0,1-1.083,1.8l-22.208,12.821c-.6.346-1.082.1-1.082-.547a2.321,2.321,0,0,1,1.083-1.8" fill="#455a64"/>
        <path id="Path_5971" data-name="Path 5971" d="M189.858,157.441l38.455-22.195c.6-.345,1.083-.1,1.083.548a2.323,2.323,0,0,1-1.083,1.8l-38.456,22.2c-.6.345-1.082.1-1.082-.548a2.323,2.323,0,0,1,1.083-1.8" fill="#e0e0e0"/>
        <path id="Path_5972" data-name="Path 5972" d="M248.75,132.784l72.99-42.141a2.391,2.391,0,0,0,1.082-1.875V70.161c0-.69-.484-.97-1.082-.625l-72.99,42.133a2.392,2.392,0,0,0-1.082,1.875v18.615c0,.69.484.97,1.082.625" fill="#f0f0f0"/>
        <path id="Path_5973" data-name="Path 5973" d="M255.472,117.947a1.379,1.379,0,0,1,.055-.388,1.626,1.626,0,0,1,.145-.353,1.441,1.441,0,0,1,.209-.287,1.05,1.05,0,0,1,.242-.2.569.569,0,0,1,.242-.081.32.32,0,0,1,.208.046.4.4,0,0,1,.145.185.837.837,0,0,1,.055.325,1.181,1.181,0,0,1-.015.191,1.457,1.457,0,0,1-.038.179c-.014.058-.032.115-.051.171s-.039.109-.058.161l-.421,1.142a.351.351,0,0,0-.024.057.112.112,0,0,1-.045.051l-.354.2a.023.023,0,0,1-.031,0,.068.068,0,0,1-.013-.046.091.091,0,0,1,0-.03.076.076,0,0,1,.008-.021l.284-.779a.455.455,0,0,1-.208.029.315.315,0,0,1-.175-.073.438.438,0,0,1-.119-.182.872.872,0,0,1-.045-.3m.89-.514a.286.286,0,0,0-.02-.113.134.134,0,0,0-.052-.065.138.138,0,0,0-.078-.017.185.185,0,0,0-.089.03.338.338,0,0,0-.09.074.538.538,0,0,0-.076.106.551.551,0,0,0-.054.126.459.459,0,0,0-.021.136.265.265,0,0,0,.021.113.142.142,0,0,0,.054.065.114.114,0,0,0,.076.017.21.21,0,0,0,.09-.029.377.377,0,0,0,.089-.074.71.71,0,0,0,.078-.106.6.6,0,0,0,.052-.127.487.487,0,0,0,.02-.136" fill="#455a64"/>
        <path id="Path_5974" data-name="Path 5974" d="M257.609,115.863a.539.539,0,0,1,.286-.09.282.282,0,0,1,.2.088.493.493,0,0,1,.118.227,1.528,1.528,0,0,1,.045.327c0,.1,0,.2,0,.305s0,.208,0,.3a2.358,2.358,0,0,1-.045.38,1.649,1.649,0,0,1-.118.364,1.434,1.434,0,0,1-.2.316,1.088,1.088,0,0,1-.286.24.536.536,0,0,1-.287.09.283.283,0,0,1-.2-.086.524.524,0,0,1-.118-.228,1.594,1.594,0,0,1-.045-.327c0-.093-.005-.191-.005-.3s0-.21.005-.31a2.492,2.492,0,0,1,.045-.38,1.688,1.688,0,0,1,.118-.362,1.4,1.4,0,0,1,.2-.317,1.081,1.081,0,0,1,.287-.241m.236,1.38q.01-.3,0-.573a1,1,0,0,0-.016-.148.258.258,0,0,0-.039-.1.1.1,0,0,0-.071-.043.2.2,0,0,0-.11.034.385.385,0,0,0-.112.095.466.466,0,0,0-.071.125.862.862,0,0,0-.04.148,1.221,1.221,0,0,0-.015.166c-.008.192-.008.384,0,.573a.9.9,0,0,0,.014.149.24.24,0,0,0,.04.1.1.1,0,0,0,.072.042.188.188,0,0,0,.112-.034.359.359,0,0,0,.11-.094.49.49,0,0,0,.072-.126.618.618,0,0,0,.04-.148,1.079,1.079,0,0,0,.014-.165" fill="#455a64"/>
        <path id="Path_5975" data-name="Path 5975" d="M259.143,115.478c0,.09,0,.176,0,.26a1.238,1.238,0,0,1-.025.2.926.926,0,0,1-.065.192.761.761,0,0,1-.107.166.616.616,0,0,1-.152.125.312.312,0,0,1-.15.049.142.142,0,0,1-.106-.043.258.258,0,0,1-.065-.117.758.758,0,0,1-.027-.174c0-.043,0-.085,0-.125s0-.085,0-.134a1.25,1.25,0,0,1,.027-.2.9.9,0,0,1,.065-.191.67.67,0,0,1,.106-.166.561.561,0,0,1,.15-.124.31.31,0,0,1,.152-.05.142.142,0,0,1,.1.043.266.266,0,0,1,.066.116.769.769,0,0,1,.026.174m.555-.722a.35.35,0,0,1,.032-.067.135.135,0,0,1,.047-.045l.183-.1a.038.038,0,0,1,.039,0,.05.05,0,0,1,.014.041l0,.02-.006.024-1.1,2.853a.38.38,0,0,1-.033.067.134.134,0,0,1-.047.044l-.182.105c-.017.009-.029.011-.039,0a.047.047,0,0,1-.015-.041l0-.018a.086.086,0,0,1,.007-.025Zm-.994,1.219a.285.285,0,0,0,.023.119c.013.024.035.025.067.006a.143.143,0,0,0,.068-.084.566.566,0,0,0,.024-.146,2.114,2.114,0,0,0,0-.226.313.313,0,0,0-.024-.12c-.013-.022-.034-.024-.068-.005a.154.154,0,0,0-.067.083.545.545,0,0,0-.023.147,1.7,1.7,0,0,0,0,.226m1.469.105c0,.088,0,.175,0,.26a1.369,1.369,0,0,1-.026.2.914.914,0,0,1-.064.191.777.777,0,0,1-.108.166.578.578,0,0,1-.15.124.3.3,0,0,1-.152.05.139.139,0,0,1-.106-.043.259.259,0,0,1-.064-.116.715.715,0,0,1-.027-.174c0-.044-.005-.086-.005-.125s0-.085.005-.135a1.139,1.139,0,0,1,.027-.2.885.885,0,0,1,.064-.192.684.684,0,0,1,.106-.165.558.558,0,0,1,.152-.125.289.289,0,0,1,.15-.049.143.143,0,0,1,.107.042.279.279,0,0,1,.064.117.765.765,0,0,1,.027.174m-.44.5a.309.309,0,0,0,.024.12c.012.023.035.024.068,0a.15.15,0,0,0,.067-.083.54.54,0,0,0,.023-.147,2.13,2.13,0,0,0,0-.226.289.289,0,0,0-.023-.119c-.013-.022-.035-.025-.067-.006a.149.149,0,0,0-.068.084.566.566,0,0,0-.024.146,2.13,2.13,0,0,0,0,.226" fill="#455a64"/>
        <path id="Path_5976" data-name="Path 5976" d="M257.829,111.3v-1.915a8.315,8.315,0,0,0-2.8,3.019l.733,1.13a6.146,6.146,0,0,1,2.068-2.234" fill="#455a64"/>
        <path id="Path_5977" data-name="Path 5977" d="M262.362,111.837a3.937,3.937,0,0,0-1.732-2.668,2.778,2.778,0,0,0-2.8.215V111.3a2.045,2.045,0,0,1,2.067-.154,2.9,2.9,0,0,1,1.281,1.967,6.779,6.779,0,0,1,.173,1.575,9.676,9.676,0,0,1-.173,1.775A10.875,10.875,0,0,1,259.9,119.9a6.194,6.194,0,0,1-2.07,2.237,2.047,2.047,0,0,1-2.068.154,2.9,2.9,0,0,1-1.28-1.967,6.725,6.725,0,0,1-.173-1.575,9.589,9.589,0,0,1,.173-1.775,10.869,10.869,0,0,1,1.28-3.446l-.733-1.13a14.735,14.735,0,0,0-1.732,4.667,13.123,13.123,0,0,0-.233,2.4,9.2,9.2,0,0,0,.233,2.133,3.934,3.934,0,0,0,1.732,2.667,2.78,2.78,0,0,0,2.8-.214,8.312,8.312,0,0,0,2.8-3.019v0a14.733,14.733,0,0,0,1.732-4.668,13.017,13.017,0,0,0,.233-2.4,9.141,9.141,0,0,0-.233-2.133" fill="#f59d23"/>
        <path id="Path_5978" data-name="Path 5978" d="M269.7,106.592l22.207-12.82c.6-.346,1.083-.1,1.083.547a2.321,2.321,0,0,1-1.083,1.8L269.7,108.938c-.6.346-1.083.1-1.083-.547a2.325,2.325,0,0,1,1.083-1.8" fill="#455a64"/>
        <path id="Path_5979" data-name="Path 5979" d="M269.7,111.32l38.455-22.2c.6-.345,1.083-.1,1.083.548a2.321,2.321,0,0,1-1.083,1.8l-38.455,22.2c-.6.345-1.083.1-1.083-.548a2.321,2.321,0,0,1,1.083-1.8" fill="#e0e0e0"/>
        <path id="Path_5980" data-name="Path 5980" d="M176.983,183.623l15.576-9.02c.6-.345,1.083-.1,1.083.548a2.324,2.324,0,0,1-1.083,1.8l-15.577,9.02c-.6.345-1.082.1-1.082-.548a2.321,2.321,0,0,1,1.083-1.8" fill="#455a64"/>
        <path id="Path_5981" data-name="Path 5981" d="M322.281,105.561h0Zm-.459.265V224.792a1.421,1.421,0,0,1-.583,1.009L169.465,313.424V194.458a1.423,1.423,0,0,1,.582-1.009l1.9-1.1a3.4,3.4,0,0,0,1.583-2.741v-6.881a1.423,1.423,0,0,1,.582-1.009l21.79-12.577v6.4a1.633,1.633,0,0,0,1.6,1.772,1.952,1.952,0,0,0,.983-.281l123.341-71.207M196.358,168.881h0m125.865-64.314a.986.986,0,0,0-.484.148L197.981,176.167a.978.978,0,0,1-.483.147c-.355,0-.6-.283-.6-.772v-6.881c0-.49-.244-.773-.6-.773a.97.97,0,0,0-.483.148l-22.208,12.821a2.392,2.392,0,0,0-1.082,1.875v6.881a2.393,2.393,0,0,1-1.083,1.875l-1.9,1.095a2.392,2.392,0,0,0-1.082,1.875V313.91c0,.489.244.773.6.773a.986.986,0,0,0,.484-.148L321.74,226.667a2.4,2.4,0,0,0,1.083-1.875V105.34c0-.49-.244-.773-.6-.773" fill="#e0e0e0"/>
        <path id="Path_5982" data-name="Path 5982" d="M178.252,199.651a1.049,1.049,0,0,1-.531-.138,1.252,1.252,0,0,1-.567-1.134v-4.536a2.906,2.906,0,0,1,1.333-2.307l12.069-6.96a1.151,1.151,0,0,1,1.833,1.059v4.536a2.9,2.9,0,0,1-1.333,2.307l-12.069,6.96a1.486,1.486,0,0,1-.735.213m.735-7.249a1.9,1.9,0,0,0-.833,1.441v4.536c0,.171.047.256.068.268s.117.01.265-.076l12.069-6.959a1.9,1.9,0,0,0,.833-1.441v-4.536c0-.171-.046-.255-.067-.268s-.117-.009-.266.076Z" fill="#e0e0e0"/>
        <path id="Path_5983" data-name="Path 5983" d="M179.7,194.27l7.866-4.565c.4-.23.72-.066.72.365a1.549,1.549,0,0,1-.72,1.2l-7.866,4.565c-.4.23-.722.066-.722-.365a1.545,1.545,0,0,1,.722-1.2" fill="#e0e0e0"/>
        <path id="Path_5984" data-name="Path 5984" d="M189.4,188.957l.652.926c.025.035.074.007.1-.057l.651-1.679c.032-.081,0-.155-.049-.126l-1.3.753a.159.159,0,0,0-.049.183" fill="#455a64"/>
        <path id="Path_5985" data-name="Path 5985" d="M176.59,243.6c.576-.333,1.044-.063,1.044.6a2.31,2.31,0,0,1-1.044,1.808c-.577.332-1.044.063-1.044-.6a2.306,2.306,0,0,1,1.044-1.808" fill="#f59d23"/>
        <path id="Path_5986" data-name="Path 5986" d="M184.714,234.217c.577-.333,1.044-.063,1.044.6a2.307,2.307,0,0,1-1.044,1.808c-.576.332-1.044.063-1.044-.6a2.309,2.309,0,0,1,1.044-1.808" fill="#f59d23"/>
        <path id="Path_5987" data-name="Path 5987" d="M192.837,229.526c.577-.333,1.044-.063,1.044.6a2.307,2.307,0,0,1-1.044,1.808c-.576.332-1.044.063-1.044-.6a2.309,2.309,0,0,1,1.044-1.808" fill="#f59d23"/>
        <path id="Path_5988" data-name="Path 5988" d="M200.962,226.9c.576-.333,1.044-.063,1.044.6a2.31,2.31,0,0,1-1.044,1.808c-.577.332-1.044.063-1.044-.6a2.306,2.306,0,0,1,1.044-1.808" fill="#f59d23"/>
        <path id="Path_5989" data-name="Path 5989" d="M209.1,218.449c.576-.333,1.044-.063,1.044.6a2.31,2.31,0,0,1-1.044,1.808c-.577.332-1.044.063-1.044-.6a2.306,2.306,0,0,1,1.044-1.808" fill="#f59d23"/>
        <path id="Path_5990" data-name="Path 5990" d="M217.21,215.455c.577-.333,1.044-.063,1.044.6a2.307,2.307,0,0,1-1.044,1.808c-.576.332-1.044.063-1.044-.6a2.309,2.309,0,0,1,1.044-1.808" fill="#f59d23"/>
        <path id="Path_5991" data-name="Path 5991" d="M225.333,206.073c.577-.333,1.044-.063,1.044.6a2.307,2.307,0,0,1-1.044,1.808c-.576.332-1.044.063-1.044-.6a2.309,2.309,0,0,1,1.044-1.808" fill="#f59d23"/>
        <path id="Path_5992" data-name="Path 5992" d="M233.458,203.729c.576-.333,1.044-.063,1.044.6a2.31,2.31,0,0,1-1.044,1.808c-.577.332-1.044.063-1.044-.6a2.306,2.306,0,0,1,1.044-1.808" fill="#f59d23"/>
        <path id="Path_5993" data-name="Path 5993" d="M241.582,177.931c.576-.333,1.044-.063,1.044.6a2.31,2.31,0,0,1-1.044,1.808c-.577.332-1.044.063-1.044-.6a2.306,2.306,0,0,1,1.044-1.808" fill="#f59d23"/>
        <path id="Path_5994" data-name="Path 5994" d="M249.706,192c.576-.333,1.044-.063,1.044.6a2.31,2.31,0,0,1-1.044,1.808c-.577.332-1.044.063-1.044-.6A2.306,2.306,0,0,1,249.706,192" fill="#f59d23"/>
        <path id="Path_5995" data-name="Path 5995" d="M257.83,192c.576-.333,1.044-.063,1.044.6a2.31,2.31,0,0,1-1.044,1.808c-.577.332-1.044.063-1.044-.6A2.306,2.306,0,0,1,257.83,192" fill="#f59d23"/>
        <path id="Path_5996" data-name="Path 5996" d="M265.954,192c.577-.333,1.044-.063,1.044.6a2.307,2.307,0,0,1-1.044,1.808c-.576.332-1.044.063-1.044-.6A2.306,2.306,0,0,1,265.954,192" fill="#f59d23"/>
        <path id="Path_5997" data-name="Path 5997" d="M274.078,177.932c.577-.333,1.044-.063,1.044.6a2.307,2.307,0,0,1-1.044,1.808c-.576.332-1.044.063-1.044-.6a2.309,2.309,0,0,1,1.044-1.808" fill="#f59d23"/>
        <path id="Path_5998" data-name="Path 5998" d="M282.2,175.236c.577-.333,1.044-.063,1.044.6a2.307,2.307,0,0,1-1.044,1.808c-.577.332-1.044.063-1.044-.6a2.306,2.306,0,0,1,1.044-1.808" fill="#f59d23"/>
        <path id="Path_5999" data-name="Path 5999" d="M290.354,163.86c.577-.333,1.044-.063,1.044.6a2.307,2.307,0,0,1-1.044,1.808c-.576.332-1.044.063-1.044-.6a2.306,2.306,0,0,1,1.044-1.808" fill="#f59d23"/>
        <path id="Path_6000" data-name="Path 6000" d="M298.451,163.86c.576-.333,1.043-.063,1.043.6a2.309,2.309,0,0,1-1.043,1.808c-.578.332-1.045.063-1.045-.6a2.3,2.3,0,0,1,1.045-1.808" fill="#f59d23"/>
        <path id="Path_6001" data-name="Path 6001" d="M306.574,163.86c.577-.333,1.044-.063,1.044.6a2.307,2.307,0,0,1-1.044,1.808c-.577.332-1.044.063-1.044-.6a2.306,2.306,0,0,1,1.044-1.808" fill="#f59d23"/>
        <path id="Path_6002" data-name="Path 6002" d="M314.7,159.17c.576-.333,1.044-.063,1.044.6a2.307,2.307,0,0,1-1.044,1.808c-.576.332-1.044.063-1.044-.6a2.306,2.306,0,0,1,1.044-1.808" fill="#f59d23"/>
        <path id="Path_6003" data-name="Path 6003" d="M176.568,245.065A.247.247,0,0,1,176.4,245a.25.25,0,0,1-.025-.353l8.2-9.427a.25.25,0,0,1,.063-.053l8.066-4.655,8.112-2.633,8.08-8.4a.254.254,0,0,1,.094-.061l8.064-2.972,8.083-9.333a.252.252,0,0,1,.12-.077l7.994-2.307,8.084-25.669a.25.25,0,0,1,.211-.173.256.256,0,0,1,.244.123l8.051,13.946,8-.011,7.96.011,8.052-13.946A.257.257,0,0,1,274,178.9l8.047-2.669,8.077-11.31a.25.25,0,0,1,.2-.1h16.181l8.067-4.657a.25.25,0,1,1,.25.432l-8.125,4.691a.25.25,0,0,1-.125.034H290.455l-8.05,11.27a.243.243,0,0,1-.124.092l-8.034,2.666-8.076,13.989a.252.252,0,0,1-.217.125l-8.105-.011-8.144.011a.252.252,0,0,1-.217-.125l-7.839-13.579L233.7,205.009a.25.25,0,0,1-.169.165l-8.052,2.324-8.077,9.326a.24.24,0,0,1-.1.071l-8.071,2.974-8.084,8.406a.263.263,0,0,1-.1.064l-8.124,2.631-7.982,4.614-8.176,9.4a.248.248,0,0,1-.188.086" fill="#f59d23"/>
        <path id="Path_6004" data-name="Path 6004" d="M176.59,249.993a.5.5,0,0,1-.251-.933l138.11-79.737a.5.5,0,0,1,.5.866l-138.11,79.737a.488.488,0,0,1-.249.067" fill="#e0e0e0"/>
        <path id="Path_6005" data-name="Path 6005" d="M176.59,238.907c.576-.333,1.044-.063,1.044.6a2.31,2.31,0,0,1-1.044,1.808c-.577.332-1.044.063-1.044-.6a2.306,2.306,0,0,1,1.044-1.808" fill="#f59d23"/>
        <path id="Path_6006" data-name="Path 6006" d="M184.713,224.836c.576-.333,1.044-.063,1.044.6a2.307,2.307,0,0,1-1.044,1.808c-.576.332-1.044.063-1.044-.6a2.306,2.306,0,0,1,1.044-1.808" fill="#f59d23"/>
        <path id="Path_6007" data-name="Path 6007" d="M192.838,223.08c.576-.333,1.044-.063,1.044.6a2.31,2.31,0,0,1-1.044,1.808c-.577.333-1.044.063-1.044-.6a2.306,2.306,0,0,1,1.044-1.808" fill="#f59d23"/>
        <path id="Path_6008" data-name="Path 6008" d="M200.961,206.073c.577-.333,1.044-.063,1.044.6a2.307,2.307,0,0,1-1.044,1.808c-.576.332-1.044.063-1.044-.6a2.309,2.309,0,0,1,1.044-1.808" fill="#f59d23"/>
        <path id="Path_6009" data-name="Path 6009" d="M209.1,210.765c.576-.333,1.044-.063,1.044.6a2.31,2.31,0,0,1-1.044,1.808c-.577.332-1.044.063-1.044-.6a2.306,2.306,0,0,1,1.044-1.808" fill="#f59d23"/>
        <path id="Path_6010" data-name="Path 6010" d="M217.211,208.419c.577-.333,1.044-.063,1.044.6a2.307,2.307,0,0,1-1.044,1.808c-.576.332-1.044.063-1.044-.6a2.308,2.308,0,0,1,1.044-1.808" fill="#f59d23"/>
        <path id="Path_6011" data-name="Path 6011" d="M225.333,201.383c.577-.333,1.044-.063,1.044.6a2.307,2.307,0,0,1-1.044,1.808c-.576.332-1.044.063-1.044-.6a2.309,2.309,0,0,1,1.044-1.808" fill="#f59d23"/>
        <path id="Path_6012" data-name="Path 6012" d="M233.458,192c.577-.333,1.043-.063,1.043.6a2.306,2.306,0,0,1-1.043,1.808c-.576.332-1.045.063-1.045-.6A2.31,2.31,0,0,1,233.458,192" fill="#f59d23"/>
        <path id="Path_6013" data-name="Path 6013" d="M241.582,189.658c.576-.333,1.044-.063,1.044.6a2.31,2.31,0,0,1-1.044,1.808c-.577.332-1.044.063-1.044-.6a2.306,2.306,0,0,1,1.044-1.808" fill="#f59d23"/>
        <path id="Path_6014" data-name="Path 6014" d="M249.706,182.622c.577-.333,1.044-.063,1.044.6a2.307,2.307,0,0,1-1.044,1.808c-.576.332-1.044.063-1.044-.6a2.309,2.309,0,0,1,1.044-1.808" fill="#f59d23"/>
        <path id="Path_6015" data-name="Path 6015" d="M257.83,182.622c.577-.333,1.044-.063,1.044.6a2.307,2.307,0,0,1-1.044,1.808c-.576.332-1.044.063-1.044-.6a2.309,2.309,0,0,1,1.044-1.808" fill="#f59d23"/>
        <path id="Path_6016" data-name="Path 6016" d="M265.954,163.86c.577-.333,1.044-.063,1.044.6a2.307,2.307,0,0,1-1.044,1.808c-.577.332-1.044.063-1.044-.6a2.306,2.306,0,0,1,1.044-1.808" fill="#f59d23"/>
        <path id="Path_6017" data-name="Path 6017" d="M274.078,173.174c.577-.333,1.044-.063,1.044.6a2.307,2.307,0,0,1-1.044,1.808c-.576.332-1.044.063-1.044-.6a2.306,2.306,0,0,1,1.044-1.808" fill="#f59d23"/>
        <path id="Path_6018" data-name="Path 6018" d="M282.2,163.86c.577-.333,1.044-.063,1.044.6a2.307,2.307,0,0,1-1.044,1.808c-.576.332-1.044.063-1.044-.6a2.306,2.306,0,0,1,1.044-1.808" fill="#f59d23"/>
        <path id="Path_6019" data-name="Path 6019" d="M290.326,159.17c.577-.333,1.044-.063,1.044.6a2.307,2.307,0,0,1-1.044,1.808c-.577.332-1.044.063-1.044-.6a2.306,2.306,0,0,1,1.044-1.808" fill="#f59d23"/>
        <path id="Path_6020" data-name="Path 6020" d="M298.45,159.169c.577-.332,1.044-.062,1.044.6a2.309,2.309,0,0,1-1.044,1.808c-.576.332-1.044.063-1.044-.6a2.312,2.312,0,0,1,1.044-1.809" fill="#f59d23"/>
        <path id="Path_6021" data-name="Path 6021" d="M306.574,154.479c.577-.333,1.044-.063,1.044.6a2.307,2.307,0,0,1-1.044,1.808c-.577.332-1.044.063-1.044-.6a2.306,2.306,0,0,1,1.044-1.808" fill="#f59d23"/>
        <path id="Path_6022" data-name="Path 6022" d="M314.7,154.479c.577-.333,1.044-.063,1.044.6a2.307,2.307,0,0,1-1.044,1.808c-.577.332-1.044.063-1.044-.6a2.306,2.306,0,0,1,1.044-1.808" fill="#f59d23"/>
        <path id="Path_6023" data-name="Path 6023" d="M176.59,240.363a.245.245,0,0,1-.125-.034.249.249,0,0,1-.091-.341l8.182-14.105a.248.248,0,0,1,.164-.12l7.945-1.7,8.07-16.9a.251.251,0,0,1,.351-.109l8.042,4.643,7.96-2.306,8.071-6.994,8.11-9.361a.244.244,0,0,1,.119-.077l8.072-2.33,8.082-7a.254.254,0,0,1,.164-.061h7.96l8.059-18.61a.251.251,0,0,1,.419-.065l7.934,9.163,7.935-9.163a.252.252,0,0,1,.064-.053l8.153-4.707a.249.249,0,0,1,.125-.033h8.056l8.038-4.641a.251.251,0,0,1,.125-.033H314.7a.25.25,0,0,1,0,.5h-8.057l-8.038,4.64a.25.25,0,0,1-.125.034h-8.057l-8.059,4.652-8.1,9.349a.259.259,0,0,1-.379,0l-7.863-9.08-7.966,18.4a.251.251,0,0,1-.23.15H249.8l-8.053,6.975a.237.237,0,0,1-.1.051l-8.053,2.325-8.086,9.331-8.138,7.055a.25.25,0,0,1-.095.051l-8.115,2.351a.262.262,0,0,1-.194-.024l-7.9-4.561-8.006,16.762a.252.252,0,0,1-.174.137l-7.958,1.7-8.126,14.009a.249.249,0,0,1-.216.125" fill="#f59d23"/>
        <g id="Group_4216" data-name="Group 4216" opacity="0.3">
          <g id="Group_4215" data-name="Group 4215">
            <g id="Group_4214" data-name="Group 4214" clip-path="url(#clip-path-15)">
              <path id="Path_6024" data-name="Path 6024" d="M176.59,238.907c.576-.333,1.044-.063,1.044.6a2.31,2.31,0,0,1-1.044,1.808c-.577.332-1.044.063-1.044-.6a2.306,2.306,0,0,1,1.044-1.808"/>
              <path id="Path_6025" data-name="Path 6025" d="M184.713,224.836c.576-.333,1.044-.063,1.044.6a2.307,2.307,0,0,1-1.044,1.808c-.576.332-1.044.063-1.044-.6a2.306,2.306,0,0,1,1.044-1.808"/>
              <path id="Path_6026" data-name="Path 6026" d="M192.838,223.08c.576-.333,1.044-.063,1.044.6a2.31,2.31,0,0,1-1.044,1.808c-.577.333-1.044.063-1.044-.6a2.306,2.306,0,0,1,1.044-1.808"/>
              <path id="Path_6027" data-name="Path 6027" d="M200.961,206.073c.577-.333,1.044-.063,1.044.6a2.307,2.307,0,0,1-1.044,1.808c-.576.332-1.044.063-1.044-.6a2.309,2.309,0,0,1,1.044-1.808"/>
              <path id="Path_6028" data-name="Path 6028" d="M209.1,210.765c.576-.333,1.044-.063,1.044.6a2.31,2.31,0,0,1-1.044,1.808c-.577.332-1.044.063-1.044-.6a2.306,2.306,0,0,1,1.044-1.808"/>
              <path id="Path_6029" data-name="Path 6029" d="M217.211,208.419c.577-.333,1.044-.063,1.044.6a2.307,2.307,0,0,1-1.044,1.808c-.576.332-1.044.063-1.044-.6a2.308,2.308,0,0,1,1.044-1.808"/>
              <path id="Path_6030" data-name="Path 6030" d="M225.333,201.383c.577-.333,1.044-.063,1.044.6a2.307,2.307,0,0,1-1.044,1.808c-.576.332-1.044.063-1.044-.6a2.309,2.309,0,0,1,1.044-1.808"/>
              <path id="Path_6031" data-name="Path 6031" d="M233.458,192c.577-.333,1.043-.063,1.043.6a2.306,2.306,0,0,1-1.043,1.808c-.576.332-1.045.063-1.045-.6A2.31,2.31,0,0,1,233.458,192"/>
              <path id="Path_6032" data-name="Path 6032" d="M241.582,189.658c.576-.333,1.044-.063,1.044.6a2.31,2.31,0,0,1-1.044,1.808c-.577.332-1.044.063-1.044-.6a2.306,2.306,0,0,1,1.044-1.808"/>
              <path id="Path_6033" data-name="Path 6033" d="M249.706,182.622c.577-.333,1.044-.063,1.044.6a2.307,2.307,0,0,1-1.044,1.808c-.576.332-1.044.063-1.044-.6a2.309,2.309,0,0,1,1.044-1.808"/>
              <path id="Path_6034" data-name="Path 6034" d="M257.83,182.622c.577-.333,1.044-.063,1.044.6a2.307,2.307,0,0,1-1.044,1.808c-.576.332-1.044.063-1.044-.6a2.309,2.309,0,0,1,1.044-1.808"/>
              <path id="Path_6035" data-name="Path 6035" d="M265.954,163.86c.577-.333,1.044-.063,1.044.6a2.307,2.307,0,0,1-1.044,1.808c-.577.332-1.044.063-1.044-.6a2.306,2.306,0,0,1,1.044-1.808"/>
              <path id="Path_6036" data-name="Path 6036" d="M274.078,173.174c.577-.333,1.044-.063,1.044.6a2.307,2.307,0,0,1-1.044,1.808c-.576.332-1.044.063-1.044-.6a2.306,2.306,0,0,1,1.044-1.808"/>
              <path id="Path_6037" data-name="Path 6037" d="M282.2,163.86c.577-.333,1.044-.063,1.044.6a2.307,2.307,0,0,1-1.044,1.808c-.576.332-1.044.063-1.044-.6a2.306,2.306,0,0,1,1.044-1.808"/>
              <path id="Path_6038" data-name="Path 6038" d="M290.326,159.17c.577-.333,1.044-.063,1.044.6a2.307,2.307,0,0,1-1.044,1.808c-.577.332-1.044.063-1.044-.6a2.306,2.306,0,0,1,1.044-1.808"/>
              <path id="Path_6039" data-name="Path 6039" d="M298.45,159.169c.577-.332,1.044-.062,1.044.6a2.309,2.309,0,0,1-1.044,1.808c-.576.332-1.044.063-1.044-.6a2.312,2.312,0,0,1,1.044-1.809"/>
              <path id="Path_6040" data-name="Path 6040" d="M306.574,154.479c.577-.333,1.044-.063,1.044.6a2.307,2.307,0,0,1-1.044,1.808c-.577.332-1.044.063-1.044-.6a2.306,2.306,0,0,1,1.044-1.808"/>
              <path id="Path_6041" data-name="Path 6041" d="M314.7,154.479c.577-.333,1.044-.063,1.044.6a2.307,2.307,0,0,1-1.044,1.808c-.577.332-1.044.063-1.044-.6a2.306,2.306,0,0,1,1.044-1.808"/>
              <path id="Path_6042" data-name="Path 6042" d="M176.59,240.363a.245.245,0,0,1-.125-.034.249.249,0,0,1-.091-.341l8.182-14.105a.248.248,0,0,1,.164-.12l7.945-1.7,8.07-16.9a.251.251,0,0,1,.351-.109l8.042,4.643,7.96-2.306,8.071-6.994,8.11-9.361a.244.244,0,0,1,.119-.077l8.072-2.33,8.082-7a.254.254,0,0,1,.164-.061h7.96l8.059-18.61a.251.251,0,0,1,.419-.065l7.934,9.163,7.935-9.163a.252.252,0,0,1,.064-.053l8.153-4.707a.249.249,0,0,1,.125-.033h8.056l8.038-4.641a.251.251,0,0,1,.125-.033H314.7a.25.25,0,0,1,0,.5h-8.057l-8.038,4.64a.25.25,0,0,1-.125.034h-8.057l-8.059,4.652-8.1,9.349a.259.259,0,0,1-.379,0l-7.863-9.08-7.966,18.4a.251.251,0,0,1-.23.15H249.8l-8.053,6.975a.237.237,0,0,1-.1.051l-8.053,2.325-8.086,9.331-8.138,7.055a.25.25,0,0,1-.095.051l-8.115,2.351a.262.262,0,0,1-.194-.024l-7.9-4.561-8.006,16.762a.252.252,0,0,1-.174.137l-7.958,1.7-8.126,14.009a.249.249,0,0,1-.216.125"/>
            </g>
          </g>
        </g>
        <path id="Path_6043" data-name="Path 6043" d="M180.845,204.1l7.866-4.565c.4-.23.721-.066.721.365a1.547,1.547,0,0,1-.721,1.2l-7.866,4.565c-.4.23-.722.066-.722-.365a1.551,1.551,0,0,1,.722-1.2" fill="#e0e0e0"/>
        <path id="Path_6044" data-name="Path 6044" d="M176.589,206.074c.576-.333,1.044-.063,1.044.6a2.31,2.31,0,0,1-1.044,1.808c-.577.332-1.044.063-1.044-.6a2.306,2.306,0,0,1,1.044-1.808" fill="#f59d23"/>
        <g id="Group_4219" data-name="Group 4219" opacity="0.3">
          <g id="Group_4218" data-name="Group 4218">
            <g id="Group_4217" data-name="Group 4217" clip-path="url(#clip-path-16)">
              <path id="Path_6045" data-name="Path 6045" d="M176.589,206.074c.576-.333,1.044-.063,1.044.6a2.31,2.31,0,0,1-1.044,1.808c-.577.332-1.044.063-1.044-.6a2.306,2.306,0,0,1,1.044-1.808"/>
            </g>
          </g>
        </g>
        <path id="Path_6046" data-name="Path 6046" d="M180.845,208.78l7.866-4.565c.4-.23.721-.066.721.365a1.547,1.547,0,0,1-.721,1.2l-7.866,4.565c-.4.23-.722.067-.722-.365a1.551,1.551,0,0,1,.722-1.2" fill="#e0e0e0"/>
        <path id="Path_6047" data-name="Path 6047" d="M176.589,210.764c.576-.333,1.044-.063,1.044.6a2.31,2.31,0,0,1-1.044,1.808c-.577.332-1.044.063-1.044-.6a2.306,2.306,0,0,1,1.044-1.808" fill="#f59d23"/>
        <path id="Path_6048" data-name="Path 6048" d="M176.59,273.263a.249.249,0,0,1-.174-.07.252.252,0,0,1-.006-.354l4.123-4.239,4.047-.513,4.086-5.28,4.091.561,3.975-3.588,4.057-2.433,4.137-5.733,4.108,1.288,3.948-3.528a.25.25,0,0,1,.334.373l-4.161,3.717-4.034-1.265-4.031,5.551-4.063,2.43-4.108,3.716-4.034-.554-4.037,5.216-4.078.516-4,4.113a.251.251,0,0,1-.18.076" fill="#f59d23"/>
        <path id="Path_6049" data-name="Path 6049" d="M178.2,259.545a1.033,1.033,0,0,1,.1-.09.77.77,0,0,1,.111-.078,1.169,1.169,0,0,1,.614-.185.745.745,0,0,1,.488.184,1.187,1.187,0,0,1,.32.515,2.456,2.456,0,0,1,.117.8,3.838,3.838,0,0,1-.117.935,4.337,4.337,0,0,1-.32.886,3.675,3.675,0,0,1-.488.749,2.376,2.376,0,0,1-.614.525,1.2,1.2,0,0,1-.617.185.748.748,0,0,1-.487-.185,1.182,1.182,0,0,1-.321-.515,2.469,2.469,0,0,1-.115-.8,3.347,3.347,0,0,1,.038-.515,4.45,4.45,0,0,1,.1-.489c.042-.159.088-.314.14-.466s.1-.3.154-.436l1.082-3.078q.03-.061.066-.153a.27.27,0,0,1,.118-.136l.34-.2a.061.061,0,0,1,.086.01.2.2,0,0,1,.033.123.29.29,0,0,1-.01.078.489.489,0,0,1-.02.058Zm-.762,2.6a1.549,1.549,0,0,0,.068.482.8.8,0,0,0,.194.329.458.458,0,0,0,.305.129.749.749,0,0,0,.409-.121,1.526,1.526,0,0,0,.406-.348,2.357,2.357,0,0,0,.307-.485,2.891,2.891,0,0,0,.193-.55,2.428,2.428,0,0,0,.067-.561,1.559,1.559,0,0,0-.067-.482.811.811,0,0,0-.193-.329.457.457,0,0,0-.307-.128.738.738,0,0,0-.406.12,1.542,1.542,0,0,0-.409.349,2.316,2.316,0,0,0-.305.484,2.828,2.828,0,0,0-.194.55,2.456,2.456,0,0,0-.068.561" fill="#455a64"/>
        <path id="Path_6050" data-name="Path 6050" d="M180.96,260.678a1.208,1.208,0,0,0,.083.244.332.332,0,0,0,.16.168.476.476,0,0,0,.282.025,1.445,1.445,0,0,0,.455-.189,1.694,1.694,0,0,0,.351-.271,1.826,1.826,0,0,0,.292-.383,2.156,2.156,0,0,0,.2-.477,2,2,0,0,0,.074-.56,1.187,1.187,0,0,0-.07-.457.4.4,0,0,0-.194-.218.455.455,0,0,0-.288-.013,1.542,1.542,0,0,0-.363.154l-.493.286a.086.086,0,0,1-.113-.008.2.2,0,0,1-.048-.147V258.5a.484.484,0,0,1,.033-.171c.022-.058.042-.111.063-.16l1.069-2.393-1.711.988a.086.086,0,0,1-.113-.008.2.2,0,0,1-.048-.146v-.329a.474.474,0,0,1,.048-.2.288.288,0,0,1,.113-.138l2.342-1.353a.087.087,0,0,1,.113.008.193.193,0,0,1,.047.146v.329a.617.617,0,0,1-.029.178,1.614,1.614,0,0,1-.078.2l-1.052,2.356a1.269,1.269,0,0,1,.544-.172.613.613,0,0,1,.422.131.918.918,0,0,1,.273.428,2.215,2.215,0,0,1,.1.716,3.469,3.469,0,0,1-.119.908,3.723,3.723,0,0,1-.319.8,3.35,3.35,0,0,1-.468.661,2.475,2.475,0,0,1-.575.468,1.725,1.725,0,0,1-.686.254.712.712,0,0,1-.476-.1.751.751,0,0,1-.279-.361,1.566,1.566,0,0,1-.1-.533.383.383,0,0,1,.039-.165.238.238,0,0,1,.093-.112l.273-.159c.044-.025.079-.025.1,0a.183.183,0,0,1,.051.1" fill="#455a64"/>
        <path id="Path_6051" data-name="Path 6051" d="M184.5,258.635a1.32,1.32,0,0,0,.083.246.347.347,0,0,0,.161.168.463.463,0,0,0,.282.023,1.388,1.388,0,0,0,.456-.189,1.706,1.706,0,0,0,.35-.269,1.849,1.849,0,0,0,.291-.384,2.142,2.142,0,0,0,.2-.476,2.006,2.006,0,0,0,.075-.56,1.181,1.181,0,0,0-.072-.459.392.392,0,0,0-.193-.217.448.448,0,0,0-.288-.012,1.357,1.357,0,0,0-.362.154l-.495.286a.087.087,0,0,1-.112-.009.2.2,0,0,1-.048-.146v-.33a.483.483,0,0,1,.033-.17c.022-.058.042-.111.063-.16l1.069-2.392-1.712.988a.088.088,0,0,1-.113-.008.2.2,0,0,1-.047-.146v-.331a.483.483,0,0,1,.047-.2.3.3,0,0,1,.113-.138l2.342-1.352a.086.086,0,0,1,.113.008.194.194,0,0,1,.048.146v.329a.606.606,0,0,1-.029.177,1.641,1.641,0,0,1-.078.2l-1.052,2.356a1.254,1.254,0,0,1,.543-.173.611.611,0,0,1,.423.132.9.9,0,0,1,.273.428,2.211,2.211,0,0,1,.1.716,3.473,3.473,0,0,1-.119.907,3.794,3.794,0,0,1-.318.805,3.293,3.293,0,0,1-.47.66,2.416,2.416,0,0,1-.573.468,1.693,1.693,0,0,1-.687.254.714.714,0,0,1-.477-.1.764.764,0,0,1-.279-.361,1.528,1.528,0,0,1-.1-.533.366.366,0,0,1,.039-.165.249.249,0,0,1,.091-.113l.274-.158c.044-.025.079-.024.1,0a.192.192,0,0,1,.05.1" fill="#455a64"/>
        <path id="Path_6052" data-name="Path 6052" d="M177.325,276.492l35.1-20.342c.4-.23.722-.067.722.365a1.548,1.548,0,0,1-.722,1.2l-35.1,20.342c-.4.23-.722.066-.721-.365a1.547,1.547,0,0,1,.721-1.2" fill="#e0e0e0"/>
        <path id="Path_6053" data-name="Path 6053" d="M177.325,253.027l7.866-4.565c.4-.23.721-.066.721.365a1.547,1.547,0,0,1-.721,1.2l-7.866,4.565c-.4.23-.722.067-.721-.365a1.547,1.547,0,0,1,.721-1.2" fill="#e0e0e0"/>
        <path id="Path_6054" data-name="Path 6054" d="M176.59,301.381a.249.249,0,0,1-.174-.07.252.252,0,0,1-.006-.354l4.123-4.239,4.074-.516,4.1-3.586,3.954-1.078,4.123-8.208,4.135,2.025,3.987-3.514.068-.014,3.959-.751,4-6.911a.25.25,0,1,1,.433.25l-4.111,7.111-4.116.78L201,285.95,197.012,284l-4,7.966-4.114,1.121-4.077,3.6-4.051.514-4,4.112a.251.251,0,0,1-.18.076" fill="#f59d23"/>
        <g id="Group_4222" data-name="Group 4222" opacity="0.3">
          <g id="Group_4221" data-name="Group 4221">
            <g id="Group_4220" data-name="Group 4220" clip-path="url(#clip-path-17)">
              <path id="Path_6055" data-name="Path 6055" d="M176.59,301.381a.249.249,0,0,1-.174-.07.252.252,0,0,1-.006-.354l4.123-4.239,4.074-.516,4.1-3.586,3.954-1.078,4.123-8.208,4.135,2.025,3.987-3.514.068-.014,3.959-.751,4-6.911a.25.25,0,1,1,.433.25l-4.111,7.111-4.116.78L201,285.95,197.012,284l-4,7.966-4.114,1.121-4.077,3.6-4.051.514-4,4.112a.251.251,0,0,1-.18.076"/>
            </g>
          </g>
        </g>
        <path id="Path_6056" data-name="Path 6056" d="M178.665,291.42a.476.476,0,0,1-.047.2.3.3,0,0,1-.113.139l-.244.14a.087.087,0,0,1-.114-.007.2.2,0,0,1-.046-.147V286.7l-.963,1.682a.228.228,0,0,1-.119.124.092.092,0,0,1-.108-.03l-.141-.2a.235.235,0,0,1-.034-.165.5.5,0,0,1,.063-.2l1.271-2.236a.429.429,0,0,1,.1-.119.931.931,0,0,1,.1-.064l.244-.14a.086.086,0,0,1,.113.007.2.2,0,0,1,.047.147Z" fill="#455a64"/>
        <path id="Path_6057" data-name="Path 6057" d="M181.263,286.8a3.817,3.817,0,0,0,.268-.658,2.62,2.62,0,0,0,.088-.719,1.089,1.089,0,0,0-.184-.705c-.122-.145-.317-.141-.582.013a1.29,1.29,0,0,0-.354.3,1.8,1.8,0,0,0-.244.392,2.6,2.6,0,0,0-.154.456c-.037.158-.068.319-.093.479a.58.58,0,0,1-.061.191.294.294,0,0,1-.092.108l-.275.158a.072.072,0,0,1-.092-.006.164.164,0,0,1-.037-.12,3.427,3.427,0,0,1,.1-.745,4.158,4.158,0,0,1,.273-.788,3.757,3.757,0,0,1,.437-.72,2.043,2.043,0,0,1,.592-.524,1.083,1.083,0,0,1,.576-.178.594.594,0,0,1,.416.181,1.077,1.077,0,0,1,.253.476,2.616,2.616,0,0,1,.087.711,4.918,4.918,0,0,1-.03.547,3.5,3.5,0,0,1-.1.51,4.732,4.732,0,0,1-.176.518q-.106.262-.262.562l-1.325,2.67,1.819-1.05a.085.085,0,0,1,.113.008.2.2,0,0,1,.048.146v.329a.47.47,0,0,1-.048.2.3.3,0,0,1-.113.139l-2.562,1.478a.083.083,0,0,1-.112-.007.19.19,0,0,1-.049-.147v-.328a.6.6,0,0,1,.031-.191,1.743,1.743,0,0,1,.1-.234Z" fill="#455a64"/>
        <path id="Path_6058" data-name="Path 6058" d="M185.965,283.482q.006.408.006.77c0,.241,0,.5-.006.777a6.192,6.192,0,0,1-.1,1.049,4.567,4.567,0,0,1-.275.959,3.308,3.308,0,0,1-.467.8,2.368,2.368,0,0,1-.675.582,1.157,1.157,0,0,1-.675.2.655.655,0,0,1-.466-.262,1.55,1.55,0,0,1-.276-.64,4.473,4.473,0,0,1-.1-.936c0-.273-.005-.529-.005-.77s0-.5.005-.777a6.289,6.289,0,0,1,.1-1.05,4.519,4.519,0,0,1,.276-.96,3.389,3.389,0,0,1,.466-.8,2.328,2.328,0,0,1,.675-.588,1.123,1.123,0,0,1,.675-.191.68.68,0,0,1,.467.265,1.562,1.562,0,0,1,.275.641,4.4,4.4,0,0,1,.1.937m-2.473,2.975a1.874,1.874,0,0,0,.253,1.135q.24.271.7,0a1.681,1.681,0,0,0,.7-.818,3.713,3.713,0,0,0,.253-1.426q.006-.417.006-.778c0-.241,0-.5-.006-.769a1.9,1.9,0,0,0-.253-1.141c-.16-.185-.394-.187-.7-.01a1.69,1.69,0,0,0-.7.823,3.755,3.755,0,0,0-.253,1.433q-.006.414-.006.776c0,.242,0,.5.006.771" fill="#455a64"/>
        <path id="Path_6059" data-name="Path 6059" d="M177.325,304.61l35.1-20.342c.4-.23.722-.066.722.365a1.548,1.548,0,0,1-.722,1.2l-35.1,20.342c-.4.23-.722.067-.721-.365a1.547,1.547,0,0,1,.721-1.2" fill="#e0e0e0"/>
        <path id="Path_6060" data-name="Path 6060" d="M177.325,281.145l7.866-4.565c.4-.23.721-.066.721.365a1.547,1.547,0,0,1-.721,1.2l-7.866,4.565c-.4.23-.722.066-.721-.365a1.547,1.547,0,0,1,.721-1.2" fill="#e0e0e0"/>
        <path id="Path_6061" data-name="Path 6061" d="M225.334,245.063a.25.25,0,0,1-.156-.445l4.062-3.242,4.091-4.673,4.153-.6,3.961-.894,4.1-4.844,4.037.714,4.048-6.412,4.114.066,3.98-3.557a.25.25,0,0,1,.334.373l-4.126,3.688-4.029-.066-4.077,6.458-4.086-.721-4.023,4.752-4.145.934-3.989.579-4,4.566-4.1,3.271a.248.248,0,0,1-.156.055" fill="#f59d23"/>
        <path id="Path_6062" data-name="Path 6062" d="M226.941,231.345a1.028,1.028,0,0,1,.1-.09.769.769,0,0,1,.111-.078,1.178,1.178,0,0,1,.614-.185.741.741,0,0,1,.488.185,1.183,1.183,0,0,1,.32.514,2.456,2.456,0,0,1,.117.8,3.838,3.838,0,0,1-.117.935,4.336,4.336,0,0,1-.32.886,3.62,3.62,0,0,1-.488.749,2.376,2.376,0,0,1-.614.525,1.2,1.2,0,0,1-.617.185.748.748,0,0,1-.487-.185,1.176,1.176,0,0,1-.321-.515,2.469,2.469,0,0,1-.115-.8,3.347,3.347,0,0,1,.038-.515,4.455,4.455,0,0,1,.1-.489c.042-.159.088-.314.14-.465s.1-.3.154-.437l1.082-3.078q.03-.062.066-.153a.27.27,0,0,1,.118-.136l.34-.2a.061.061,0,0,1,.086.01.2.2,0,0,1,.033.123.29.29,0,0,1-.01.078.354.354,0,0,1-.021.058Zm-.762,2.6a1.549,1.549,0,0,0,.068.482.8.8,0,0,0,.194.329.464.464,0,0,0,.305.13.762.762,0,0,0,.409-.122,1.526,1.526,0,0,0,.406-.348,2.312,2.312,0,0,0,.306-.485,2.828,2.828,0,0,0,.194-.55,2.428,2.428,0,0,0,.067-.561,1.559,1.559,0,0,0-.067-.482.8.8,0,0,0-.194-.329.453.453,0,0,0-.306-.128.738.738,0,0,0-.406.12,1.526,1.526,0,0,0-.409.349,2.315,2.315,0,0,0-.305.484,2.828,2.828,0,0,0-.194.55,2.456,2.456,0,0,0-.068.561" fill="#455a64"/>
        <path id="Path_6063" data-name="Path 6063" d="M231.059,229.875a3.982,3.982,0,0,0,.268-.658,2.656,2.656,0,0,0,.089-.719,1.088,1.088,0,0,0-.185-.705q-.185-.218-.583.013a1.32,1.32,0,0,0-.354.295,1.882,1.882,0,0,0-.243.392,2.524,2.524,0,0,0-.155.456c-.037.158-.068.319-.092.479a.6.6,0,0,1-.061.191.3.3,0,0,1-.093.108l-.274.158a.07.07,0,0,1-.091-.006.156.156,0,0,1-.039-.12,3.554,3.554,0,0,1,.1-.745,4.163,4.163,0,0,1,.274-.788,3.708,3.708,0,0,1,.437-.72,2.027,2.027,0,0,1,.591-.524,1.089,1.089,0,0,1,.577-.178.6.6,0,0,1,.416.181,1.1,1.1,0,0,1,.254.476,2.66,2.66,0,0,1,.085.711,4.927,4.927,0,0,1-.029.547,3.645,3.645,0,0,1-.1.51,4.17,4.17,0,0,1-.176.518q-.106.263-.26.562l-1.326,2.67,1.818-1.05a.086.086,0,0,1,.114.008.2.2,0,0,1,.047.146v.329a.469.469,0,0,1-.047.2.293.293,0,0,1-.114.139l-2.562,1.478a.083.083,0,0,1-.112-.007.194.194,0,0,1-.048-.147v-.328a.6.6,0,0,1,.03-.191,1.885,1.885,0,0,1,.1-.234Z" fill="#455a64"/>
        <path id="Path_6064" data-name="Path 6064" d="M235.1,224.5a.087.087,0,0,1,.112.008.2.2,0,0,1,.047.146v.33a1.154,1.154,0,0,1-.017.184c-.012.068-.028.141-.047.22l-1.321,6.007a1.4,1.4,0,0,1-.061.186.263.263,0,0,1-.111.132l-.274.158a.073.073,0,0,1-.1-.006.173.173,0,0,1-.043-.131c0-.011,0-.027,0-.043s.008-.043.016-.078l1.326-6.018-1.95,1.126a.087.087,0,0,1-.113-.008.2.2,0,0,1-.048-.147v-.33a.473.473,0,0,1,.048-.2.307.307,0,0,1,.113-.139Z" fill="#455a64"/>
        <path id="Path_6065" data-name="Path 6065" d="M226.069,248.292l35.1-20.342c.4-.23.721-.066.721.365a1.547,1.547,0,0,1-.721,1.2l-35.1,20.342c-.4.23-.722.067-.721-.365a1.547,1.547,0,0,1,.721-1.2" fill="#e0e0e0"/>
        <path id="Path_6066" data-name="Path 6066" d="M226.069,224.827l7.866-4.565c.4-.23.721-.066.721.365a1.547,1.547,0,0,1-.721,1.2l-7.866,4.565c-.4.23-.722.067-.721-.365a1.547,1.547,0,0,1,.721-1.2" fill="#e0e0e0"/>
        <path id="Path_6067" data-name="Path 6067" d="M225.334,273.181a.25.25,0,0,1-.214-.38l4.153-6.809,4.174.772,3.93-1.074,4.064-4.958,4.039-1.019,4.105-7.315,4.2,1.219,3.945-.748,4-3.562a.247.247,0,0,1,.352.02.25.25,0,0,1-.02.353l-4.1,3.653-.067.014-4.131.783-3.929-1.14-4.017,7.155-4.087,1.032-4.061,4.952-.076.022-4.117,1.125-.057-.01-3.891-.72-3.973,6.515a.253.253,0,0,1-.214.12" fill="#f59d23"/>
        <g id="Group_4225" data-name="Group 4225" opacity="0.3">
          <g id="Group_4224" data-name="Group 4224">
            <g id="Group_4223" data-name="Group 4223" clip-path="url(#clip-path-18)">
              <path id="Path_6068" data-name="Path 6068" d="M225.334,273.181a.25.25,0,0,1-.214-.38l4.153-6.809,4.174.772,3.93-1.074,4.064-4.958,4.039-1.019,4.105-7.315,4.2,1.219,3.945-.748,4-3.562a.247.247,0,0,1,.352.02.25.25,0,0,1-.02.353l-4.1,3.653-.067.014-4.131.783-3.929-1.14-4.017,7.155-4.087,1.032-4.061,4.952-.076.022-4.117,1.125-.057-.01-3.891-.72-3.973,6.515a.253.253,0,0,1-.214.12"/>
            </g>
          </g>
        </g>
        <path id="Path_6069" data-name="Path 6069" d="M227.212,261.384a.527.527,0,0,1-.083.061c-.036.024-.061.042-.077.05a1.2,1.2,0,0,1-.552.177.716.716,0,0,1-.476-.142,1.057,1.057,0,0,1-.336-.483,2.365,2.365,0,0,1-.128-.851,3.72,3.72,0,0,1,.119-.928A4.312,4.312,0,0,1,226,258.4a3.646,3.646,0,0,1,.476-.728,2.175,2.175,0,0,1,.573-.5,1.219,1.219,0,0,1,.621-.194.693.693,0,0,1,.47.182,1.126,1.126,0,0,1,.3.511,2.89,2.89,0,0,1,.057,1.289q-.048.261-.119.522c-.048.173-.1.344-.155.509s-.107.32-.154.456l-1.082,3.078c-.021.042-.041.092-.066.152a.266.266,0,0,1-.119.137l-.339.2a.059.059,0,0,1-.085-.01.19.19,0,0,1-.033-.123.3.3,0,0,1,.008-.078.32.32,0,0,1,.022-.058Zm.768-2.585a1.591,1.591,0,0,0-.068-.491.723.723,0,0,0-.191-.316.438.438,0,0,0-.295-.109.764.764,0,0,0-.374.116,1.466,1.466,0,0,0-.377.319,2.072,2.072,0,0,0-.292.448,2.528,2.528,0,0,0-.189.533,2.433,2.433,0,0,0-.068.571,1.54,1.54,0,0,0,.068.495.7.7,0,0,0,.189.313.435.435,0,0,0,.292.11.73.73,0,0,0,.377-.117,1.429,1.429,0,0,0,.374-.317,2.045,2.045,0,0,0,.295-.45,2.6,2.6,0,0,0,.191-.53,2.458,2.458,0,0,0,.068-.575" fill="#455a64"/>
        <path id="Path_6070" data-name="Path 6070" d="M229.525,260.7a1.284,1.284,0,0,0,.083.245.34.34,0,0,0,.16.168.471.471,0,0,0,.283.024,1.416,1.416,0,0,0,.455-.189,1.718,1.718,0,0,0,.35-.27,1.819,1.819,0,0,0,.292-.383,2.2,2.2,0,0,0,.2-.477,1.964,1.964,0,0,0,.075-.56,1.193,1.193,0,0,0-.071-.458.394.394,0,0,0-.193-.218.451.451,0,0,0-.289-.012,1.406,1.406,0,0,0-.362.154l-.494.286A.086.086,0,0,1,229.9,259a.2.2,0,0,1-.049-.147v-.329a.512.512,0,0,1,.033-.171c.023-.058.042-.111.063-.16l1.07-2.392-1.712.988a.087.087,0,0,1-.113-.008.2.2,0,0,1-.048-.146v-.33a.481.481,0,0,1,.048-.2.3.3,0,0,1,.113-.138l2.342-1.353a.088.088,0,0,1,.113.008.2.2,0,0,1,.047.146v.33a.616.616,0,0,1-.029.177,1.627,1.627,0,0,1-.078.2l-1.052,2.356a1.246,1.246,0,0,1,.544-.172.607.607,0,0,1,.422.131.916.916,0,0,1,.274.428,2.245,2.245,0,0,1,.1.716,3.467,3.467,0,0,1-.119.907,3.7,3.7,0,0,1-.319.806,3.343,3.343,0,0,1-.468.66,2.42,2.42,0,0,1-.574.468,1.713,1.713,0,0,1-.687.254.712.712,0,0,1-.476-.1.754.754,0,0,1-.279-.36,1.552,1.552,0,0,1-.1-.533.4.4,0,0,1,.038-.166.249.249,0,0,1,.093-.112l.274-.158c.044-.025.078-.025.1,0a.186.186,0,0,1,.051.1" fill="#455a64"/>
        <path id="Path_6071" data-name="Path 6071" d="M226.069,276.41l35.1-20.342c.4-.23.721-.066.721.365a1.547,1.547,0,0,1-.721,1.2l-35.1,20.342c-.4.23-.722.067-.721-.365a1.547,1.547,0,0,1,.721-1.2" fill="#e0e0e0"/>
        <path id="Path_6072" data-name="Path 6072" d="M226.069,252.945l7.866-4.565c.4-.23.721-.066.721.365a1.547,1.547,0,0,1-.721,1.2l-7.866,4.565c-.4.23-.722.067-.721-.365a1.547,1.547,0,0,1,.721-1.2" fill="#e0e0e0"/>
        <path id="Path_6073" data-name="Path 6073" d="M278.14,199.417a4.585,4.585,0,0,1,4.63-.345l-4.63,12.485Z" fill="#f59d23"/>
        <path id="Path_6074" data-name="Path 6074" d="M273.51,204.418a13.766,13.766,0,0,1,4.63-5v12.139Z" fill="#f59d23"/>
        <path id="Path_6075" data-name="Path 6075" d="M270.643,212.134a24.3,24.3,0,0,1,2.867-7.716l4.63,7.138Z" fill="#f59d23"/>
        <g id="Group_4228" data-name="Group 4228" opacity="0.3">
          <g id="Group_4227" data-name="Group 4227">
            <g id="Group_4226" data-name="Group 4226" clip-path="url(#clip-path-19)">
              <path id="Path_6076" data-name="Path 6076" d="M273.51,204.418a24.306,24.306,0,0,0-2.867,7.716l7.5-.578V199.417a13.766,13.766,0,0,0-4.63,5"/>
            </g>
          </g>
        </g>
        <path id="Path_6077" data-name="Path 6077" d="M282.77,199.072a6.492,6.492,0,0,1,2.867,4.406l-7.5,8.079Z" fill="#f59d23"/>
        <path id="Path_6078" data-name="Path 6078" d="M270.643,219.635a15.147,15.147,0,0,1-.388-3.526,21.636,21.636,0,0,1,.388-3.975l7.5-.578Z" fill="#f59d23"/>
        <path id="Path_6079" data-name="Path 6079" d="M285.638,210.978a24.322,24.322,0,0,1-2.867,7.716l-4.63-7.138Z" fill="#f59d23"/>
        <path id="Path_6080" data-name="Path 6080" d="M278.14,223.7a4.585,4.585,0,0,1-4.63.345l4.63-12.485Z" fill="#f59d23"/>
        <path id="Path_6081" data-name="Path 6081" d="M270.643,219.635l7.5-8.079-4.63,12.485a6.494,6.494,0,0,1-2.867-4.406" fill="#f59d23"/>
        <path id="Path_6082" data-name="Path 6082" d="M285.638,203.478a15.15,15.15,0,0,1,.387,3.526,21.634,21.634,0,0,1-.387,3.975l-7.5.578Z" fill="#f59d23"/>
        <path id="Path_6083" data-name="Path 6083" d="M282.77,218.7a13.766,13.766,0,0,1-4.63,5V211.557Z" fill="#f59d23"/>
        <path id="Path_6084" data-name="Path 6084" d="M274.208,229.887l7.866-4.565c.4-.23.721-.066.721.365a1.547,1.547,0,0,1-.721,1.2l-7.866,4.565c-.4.23-.722.067-.721-.365a1.547,1.547,0,0,1,.721-1.2" fill="#455a64"/>
        <path id="Path_6085" data-name="Path 6085" d="M272.473,235.594l11.335-6.577c.4-.23.722-.066.722.365a1.545,1.545,0,0,1-.722,1.2l-11.335,6.577c-.4.23-.721.067-.721-.365a1.547,1.547,0,0,1,.721-1.2" fill="#e0e0e0"/>
        <path id="Path_6086" data-name="Path 6086" d="M272.473,240.295l11.335-6.577c.4-.23.722-.066.722.365a1.546,1.546,0,0,1-.722,1.2l-11.335,6.577c-.4.23-.721.067-.721-.365a1.547,1.547,0,0,1,.721-1.2" fill="#e0e0e0"/>
        <path id="Path_6087" data-name="Path 6087" d="M272.473,245l11.335-6.577c.4-.23.722-.066.722.365a1.545,1.545,0,0,1-.722,1.2l-11.335,6.577c-.4.23-.721.067-.721-.365a1.547,1.547,0,0,1,.721-1.2" fill="#e0e0e0"/>
        <path id="Path_6088" data-name="Path 6088" d="M306.575,182.939a4.585,4.585,0,0,1,4.63-.345l-4.63,12.485Z" fill="#f59d23"/>
        <path id="Path_6089" data-name="Path 6089" d="M301.945,187.94a13.766,13.766,0,0,1,4.63-5v12.139Z" fill="#f59d23"/>
        <path id="Path_6090" data-name="Path 6090" d="M299.078,195.657a24.3,24.3,0,0,1,2.867-7.716l4.63,7.138Z" fill="#f59d23"/>
        <path id="Path_6091" data-name="Path 6091" d="M311.2,182.594A6.492,6.492,0,0,1,314.072,187l-7.5,8.079Z" fill="#f59d23"/>
        <path id="Path_6092" data-name="Path 6092" d="M299.078,203.158a15.141,15.141,0,0,1-.388-3.526,21.636,21.636,0,0,1,.388-3.975l7.5-.578Z" fill="#f59d23"/>
        <path id="Path_6093" data-name="Path 6093" d="M314.072,194.5a24.321,24.321,0,0,1-2.867,7.716l-4.63-7.138Z" fill="#f59d23"/>
        <path id="Path_6094" data-name="Path 6094" d="M306.575,207.219a4.585,4.585,0,0,1-4.63.345l4.63-12.485Z" fill="#f59d23"/>
        <path id="Path_6095" data-name="Path 6095" d="M299.078,203.158l7.5-8.079-4.63,12.485a6.494,6.494,0,0,1-2.867-4.406" fill="#f59d23"/>
        <g id="Group_4231" data-name="Group 4231" opacity="0.3">
          <g id="Group_4230" data-name="Group 4230">
            <g id="Group_4229" data-name="Group 4229" clip-path="url(#clip-path-20)">
              <path id="Path_6096" data-name="Path 6096" d="M301.945,187.94a24.307,24.307,0,0,0-2.867,7.716,21.636,21.636,0,0,0-.388,3.975,15.141,15.141,0,0,0,.388,3.526,6.492,6.492,0,0,0,2.867,4.406l4.63-12.485V182.939a13.766,13.766,0,0,0-4.63,5"/>
            </g>
          </g>
        </g>
        <path id="Path_6097" data-name="Path 6097" d="M314.072,187a15.145,15.145,0,0,1,.388,3.526,21.634,21.634,0,0,1-.388,3.975l-7.5.578Z" fill="#f59d23"/>
        <path id="Path_6098" data-name="Path 6098" d="M311.2,202.217a13.766,13.766,0,0,1-4.63,5V195.079Z" fill="#f59d23"/>
        <path id="Path_6099" data-name="Path 6099" d="M302.642,213.471l7.866-4.565c.4-.23.721-.066.721.365a1.547,1.547,0,0,1-.721,1.2l-7.866,4.565c-.4.23-.722.067-.722-.365a1.551,1.551,0,0,1,.722-1.2" fill="#455a64"/>
        <path id="Path_6100" data-name="Path 6100" d="M300.907,219.177l11.335-6.577c.4-.23.722-.066.722.365a1.545,1.545,0,0,1-.722,1.2l-11.335,6.577c-.4.23-.721.067-.721-.365a1.547,1.547,0,0,1,.721-1.2" fill="#e0e0e0"/>
        <path id="Path_6101" data-name="Path 6101" d="M300.907,223.879l11.335-6.577c.4-.23.722-.066.722.365a1.545,1.545,0,0,1-.722,1.2l-11.335,6.577c-.4.23-.721.067-.721-.365a1.547,1.547,0,0,1,.721-1.2" fill="#e0e0e0"/>
        <path id="Path_6102" data-name="Path 6102" d="M300.907,228.58,312.242,222c.4-.23.722-.066.722.365a1.545,1.545,0,0,1-.722,1.2l-11.335,6.577c-.4.23-.721.067-.721-.365a1.547,1.547,0,0,1,.721-1.2" fill="#e0e0e0"/>
      </g>
    </g>
    <g id="Group_4250" data-name="Group 4250">
      <g id="Group_4249" data-name="Group 4249" clip-path="url(#clip-path)">
        <path id="Path_6103" data-name="Path 6103" d="M306.423,345.713a13.352,13.352,0,0,0-5.686-10.658c-1.615-1.006-3.1-1.153-4.212-.583v0c-6.69,3.357-53.707,33.506-56.713,34.99l-.039.02a2.142,2.142,0,0,0-.953,1.938,6.726,6.726,0,0,0,2.865,5.371,2.137,2.137,0,0,0,2.147.282l.043-.023c4.761-2.622,51.162-22.4,60.649-27.484h0l.006,0h0c1.11-.6,1.829-1.925,1.893-3.846" fill="#f59d23"/>
        <g id="Group_4236" data-name="Group 4236" opacity="0.1">
          <g id="Group_4235" data-name="Group 4235">
            <g id="Group_4234" data-name="Group 4234" clip-path="url(#clip-path-22)">
              <path id="Path_6104" data-name="Path 6104" d="M304.574,339.212a12.055,12.055,0,0,0-3.837-4.157c-1.61-1-3.092-1.151-4.2-.588-.224.123-.293.163-.137.074-6.108,3.124-41.1,25.446-52.873,32.7l-.077.048-.476.293-.145.089-.269.164-.315.193-.024.014c-1.245.76-2.085,1.256-2.41,1.416l-.039.02a1.515,1.515,0,0,0-.276.214,2.352,2.352,0,0,0-.677,1.725,4.8,4.8,0,0,0,.033.673c.01.086.026.174.041.261.022.137.049.274.081.412.027.11.055.219.087.329.038.129.082.257.128.386.035.1.066.192.105.287.006.016.014.031.021.046Z"/>
            </g>
          </g>
        </g>
        <path id="Path_6105" data-name="Path 6105" d="M241.671,376.789a6.7,6.7,0,0,1-2.854-5.349c.065-1.933,1.448-2.671,3.089-1.649a6.7,6.7,0,0,1,2.853,5.349c-.065,1.932-1.447,2.67-3.088,1.649" fill="#f59d23"/>
        <path id="Path_6106" data-name="Path 6106" d="M227.622,378.083a5.148,5.148,0,0,0,2.192,4.11,1.64,1.64,0,0,0,1.633.22h0l.006,0h0l11.371-6.055.008,0h0a1.634,1.634,0,0,0,.726-1.48,5.148,5.148,0,0,0-2.191-4.11,1.641,1.641,0,0,0-1.642-.218L228.359,376.6h0a1.628,1.628,0,0,0-.739,1.486" fill="#37474f"/>
        <path id="Path_6107" data-name="Path 6107" d="M228.36,376.6a1.631,1.631,0,0,0-.739,1.486,4.432,4.432,0,0,0,.343,1.754l14.666-7.824a4.408,4.408,0,0,0-1.259-1.252,1.639,1.639,0,0,0-1.641-.218L228.359,376.6Z" fill="#263238"/>
        <path id="Path_6108" data-name="Path 6108" d="M242.21,388.178c0-7.288-4.816-14.575-14.446-20.136-19.262-11.121-50.491-11.121-69.753,0-9.631,5.561-14.446,12.848-14.446,20.136V401.6c0,7.288,4.815,14.575,14.446,20.136,19.262,11.12,50.491,11.12,69.753,0,9.63-5.561,14.446-12.848,14.446-20.136ZM160.4,372.173c8.6-4.967,20.141-7.7,32.491-7.7s23.89,2.735,32.492,7.7c7.778,4.49,12.061,10.175,12.061,16.005s-4.284,11.514-12.061,16.005c-8.6,4.966-20.141,7.7-32.492,7.7s-23.888-2.736-32.491-7.7c-7.777-4.491-12.061-10.175-12.061-16.005s4.283-11.515,12.061-16.005" fill="#f59d23"/>
        <g id="Group_4239" data-name="Group 4239" opacity="0.3">
          <g id="Group_4238" data-name="Group 4238">
            <g id="Group_4237" data-name="Group 4237" clip-path="url(#clip-path-23)">
              <path id="Path_6109" data-name="Path 6109" d="M158.008,408.314c19.261,11.121,50.49,11.121,69.752,0s19.262-29.15,0-40.271-50.492-11.121-69.753,0-19.261,29.151,0,40.271m-9.676-20.135c0-5.831,4.283-11.515,12.061-16,8.6-4.967,20.141-7.7,32.491-7.7s23.89,2.735,32.492,7.7c7.778,4.49,12.06,10.174,12.06,16s-4.283,11.514-12.06,16c-8.6,4.967-20.142,7.7-32.492,7.7s-23.889-2.735-32.491-7.7c-7.777-4.49-12.061-10.174-12.061-16" fill="#fff"/>
            </g>
          </g>
        </g>
        <path id="Path_6110" data-name="Path 6110" d="M148.329,388.177a13.229,13.229,0,0,0,1.927,6.716c1.955-3.387,5.4-6.563,10.141-9.292,8.6-4.97,20.138-7.708,32.493-7.708s23.887,2.738,32.483,7.708c4.741,2.729,8.185,5.9,10.15,9.292a13.316,13.316,0,0,0,1.918-6.716c0-5.829-4.284-11.515-12.068-16.008-8.6-4.961-20.139-7.7-32.483-7.7s-23.9,2.737-32.493,7.7c-7.784,4.493-12.068,10.179-12.068,16.008" fill="#f59d23"/>
        <g id="Group_4242" data-name="Group 4242" opacity="0.1">
          <g id="Group_4241" data-name="Group 4241">
            <g id="Group_4240" data-name="Group 4240" clip-path="url(#clip-path-24)">
              <path id="Path_6111" data-name="Path 6111" d="M148.329,388.177a13.229,13.229,0,0,0,1.927,6.716c1.955-3.387,5.4-6.563,10.141-9.292,8.6-4.97,20.138-7.708,32.493-7.708s23.887,2.738,32.483,7.708c4.741,2.729,8.185,5.9,10.15,9.292a13.316,13.316,0,0,0,1.918-6.716c0-5.829-4.284-11.515-12.068-16.008-8.6-4.961-20.139-7.7-32.483-7.7s-23.9,2.737-32.493,7.7c-7.784,4.493-12.068,10.179-12.068,16.008"/>
            </g>
          </g>
        </g>
        <g id="Group_4245" data-name="Group 4245" opacity="0.4">
          <g id="Group_4244" data-name="Group 4244">
            <g id="Group_4243" data-name="Group 4243" clip-path="url(#clip-path-25)">
              <path id="Path_6112" data-name="Path 6112" d="M160.393,378.251c8.6-4.966,20.141-7.7,32.491-7.7s23.89,2.736,32.492,7.7c6.418,3.7,10.448,8.224,11.664,12.966-1.216,4.742-5.247,9.26-11.664,12.966-8.6,4.966-20.142,7.7-32.492,7.7s-23.889-2.735-32.491-7.7c-6.418-3.706-10.448-8.224-11.664-12.966,1.216-4.742,5.246-9.261,11.664-12.966" fill="#fff"/>
            </g>
          </g>
        </g>
        <g id="Group_4248" data-name="Group 4248" opacity="0.1">
          <g id="Group_4247" data-name="Group 4247">
            <g id="Group_4246" data-name="Group 4246" clip-path="url(#clip-path-26)">
              <path id="Path_6113" data-name="Path 6113" d="M181.263,415.862v13.413a64.6,64.6,0,0,1-23.249-7.536c-9.635-5.562-14.453-12.851-14.453-20.139V388.177a16.959,16.959,0,0,1,.592-4.4h.009c-2.337,8.672,2.281,17.85,13.852,24.537a64.761,64.761,0,0,0,23.249,7.546"/>
            </g>
          </g>
        </g>
      </g>
    </g>
    <g id="Group_4258" data-name="Group 4258">
      <g id="Group_4257" data-name="Group 4257" clip-path="url(#clip-path)">
        <path id="Path_6114" data-name="Path 6114" d="M416.345,333.9c.584.236.707,1.361.746,3.593.03,1.688.324,4.642-1.665,5.185s-4.877.178-6.108-1.441c-1.536-2.02-2.565-3.791-4.767-6.264-1.909-2.145-3.982-4.154-4.706-7.118-.653-2.678-.033-3.82,1.8-4.553,2.522-1.008,6.368,2.558,8.313,3.15,1.675.509,5.8,7.212,6.386,7.448" fill="#263238"/>
        <path id="Path_6115" data-name="Path 6115" d="M416.392,331.833l-.063,2.738a6.7,6.7,0,0,1-6.921.031c-.114-.267-.631-3.933-.631-3.933Z" fill="#ffa8a7"/>
        <path id="Path_6116" data-name="Path 6116" d="M393.82,349.174s.732,2.4,1.108,4.49c.3,1.663.719,4.44.112,5.672s-2.887,1.984-6.391,1.878c-2.27-.068-5.842,1.394-8.295,2.691-2.533,1.34-7.749,1.779-10.388,1.408-3.11-.436-6.3-2.317-6.775-3.62s.225-2.629,7.645-5.6c.067-.027,10.291-3.1,13.935-6.943Z" fill="#263238"/>
        <path id="Path_6117" data-name="Path 6117" d="M393.886,346.215s-.056,2.031-.072,3.193-1.426,2.86-4.972,2.653c-2.491-.145-4.217-.855-4.072-2.9l.067-2.96Z" fill="#ffa8a7"/>
        <path id="Path_6118" data-name="Path 6118" d="M418.99,295.543a74.427,74.427,0,0,0-2.912-14.331s1.255-12.279,1.986-23.931c.791-12.587,1.523-19.068-.952-37.245,0,0-38.589-3.467-39.642,11.08s.441,51.669.778,58.078,1.315,12.091,2.4,22.49c1.074,10.263,4.186,34.512,4.186,34.512a9.6,9.6,0,0,0,9.049.019s3.517-29.055,3.383-36.443a63.088,63.088,0,0,0-2.437-16.176s1.042-11.99,1.958-22.42,1.749-15.43,2.009-19.97l.885-.413s.486,18.039.822,24.447,1.216,12.566,2.8,24.49c1.374,10.345,5.664,32.264,5.664,32.264,4.587,2.615,7.422-.162,7.422-.162s3.651-27.316,2.6-36.289" fill="#37474f"/>
        <path id="Path_6119" data-name="Path 6119" d="M398.8,251.206s9.971-4.637,15-8.909c0,0-4.728,6.354-10.808,9.081,0,0-2.644,22.336-2.623,21.893l-.739-22.079Z" fill="#263238"/>
        <path id="Path_6120" data-name="Path 6120" d="M391.888,168.184l1.5,13.324,12.583-.635-1.4-15.549Z" fill="#ffa8a7"/>
        <path id="Path_6121" data-name="Path 6121" d="M410.719,173.285c4.684-.215,7.063.488,9.167,4.529s2.929,16.114,3.661,22.338.915,10.616-1.647,11.258-12.536.914-12.536.914Z" fill="#37474f"/>
        <path id="Path_6122" data-name="Path 6122" d="M418.625,180.191c-.679-3.729-5.581-7.647-10.171-6.9q-1.6.26-3.115.527c-.551,2.241-6.693,3.643-12.561,2.261-1.769.465-7.591,1.555-9.064,2.044-4.217,1.4-5.958,5.551-6.615,19.306,0,0,.338,31.146.174,37.351,10.412,4.394,21.342,4.511,27.411,3.328,12.635-2.464,14.269-7.645,14.269-7.645l-1.881-14.249s3.088-27.587,1.553-36.022" fill="#455a64"/>
        <path id="Path_6123" data-name="Path 6123" d="M392.384,172.578l.1.838a18.67,18.67,0,0,0,7.725,0c4.089-.909,4.914-2.064,4.914-2.064l-.085-.951s1.017-.377,1.552,1.189a17.056,17.056,0,0,1,.591,1.911s.471,2.862-4.335,4.32a14.855,14.855,0,0,1-11.968-1.307l-1.885.4s1.63-3.757,2.123-4.519a1.251,1.251,0,0,1,1.178-.653Z" fill="#37474f"/>
        <path id="Path_6124" data-name="Path 6124" d="M353.971,158.291l-24.95,13.021,12.4,33.9L364.7,192.166Z" fill="#455a64"/>
        <path id="Path_6125" data-name="Path 6125" d="M352.826,161.61l-20.932,10.924,10.972,29.142L362.4,190.733Z" fill="#f5f5f5"/>
        <g id="Group_4253" data-name="Group 4253" opacity="0.15">
          <g id="Group_4252" data-name="Group 4252">
            <g id="Group_4251" data-name="Group 4251" clip-path="url(#clip-path-28)">
              <path id="Path_6126" data-name="Path 6126" d="M348.41,164.754s-.182-.464-.4-1.037-1.966-.231-3.892.763l-3.686,1.9c-1.925.994-3.3,2.264-3.08,2.836l.405,1.037Z"/>
            </g>
          </g>
        </g>
        <path id="Path_6127" data-name="Path 6127" d="M348.005,160.606c-.138-.358-.9-.3-1.694.131l-1.443.779s-.889-2.239-4.209-.69-2.561,4.146-2.561,4.146l-1.532.844c-.846.466-1.449,1.139-1.346,1.5l.187.659,12.852-6.706s-.116-.308-.254-.666" fill="#f59d23"/>
        <path id="Path_6128" data-name="Path 6128" d="M346.618,162.111c-1.2.588-1.666.871-1.322,1.754.393,1.008.759,1.732.759,1.732l-5.685,2.974s-.474-1.282-.681-1.777-.623-.731-1.528-.258l-.337-.356,8.967-4.57Z" fill="#f59d23"/>
        <g id="Group_4256" data-name="Group 4256" opacity="0.3">
          <g id="Group_4255" data-name="Group 4255">
            <g id="Group_4254" data-name="Group 4254" clip-path="url(#clip-path-29)">
              <path id="Path_6129" data-name="Path 6129" d="M346.618,162.111c-1.2.588-1.666.871-1.322,1.754.393,1.008.759,1.732.759,1.732l-5.685,2.974s-.474-1.282-.681-1.777-.623-.731-1.528-.258l-.337-.356,8.967-4.57Z"/>
            </g>
          </g>
        </g>
        <path id="Path_6130" data-name="Path 6130" d="M348.654,164.808s-.182-.464-.4-1.037-1.966-.231-3.891.763l-3.687,1.9c-1.925.994-3.3,2.264-3.08,2.836l.4,1.037Z" fill="#f59d23"/>
        <path id="Path_6131" data-name="Path 6131" d="M383.714,178.122c-5.76.5-8.214,1.55-12.538,9.348-4.692,8.462-13.714,23.778-14.858,25.712-1.591,2.69-1.892,6.782-.518,9.253,1.282,2.307,5.354,3.363,9.969-1.85,5.487-6.2,15.7-21.339,15.7-21.339s8.674-11.444,2.247-21.124" fill="#ffa8a7"/>
        <path id="Path_6132" data-name="Path 6132" d="M358.187,224.209c-4.415-.535-14.728-14.526-17.66-19.1a32.6,32.6,0,0,0-8.935-9.427c-4.674-3.453-3.993-8.757-1.954-13.62.706-1.684,3.1-.588,3.1-.588l.844,2.307,1.461,4c.99.919,1.553,1.218,1.62.945.124-.515-.728-2.665-.707-4.9.025-2.694,1.911-.923,2.475.021a33.479,33.479,0,0,1,1.991,4.452c.942,2.411.553,4.852,1.7,6.5s16.531,16.385,16.531,16.385Z" fill="#ffa8a7"/>
        <path id="Path_6133" data-name="Path 6133" d="M384.824,177.821c-3.49-.087-7.684.47-10.931,4.69s-16.249,27.169-16.249,27.169l-7.3-6.54a12.712,12.712,0,0,0-5.61,7.93,79.025,79.025,0,0,0,6.606,8.965c3.083,3.385,6.523,5.73,9.342,4.691s5.7-3.274,11.772-11.726,12.7-18.432,12.7-18.432,4.184-9.747-.333-16.747" fill="#37474f"/>
        <path id="Path_6134" data-name="Path 6134" d="M383.024,151.873s-3.141,4.767-2.784,5.235,2.67.891,2.67.891Z" fill="#f28f8f"/>
        <path id="Path_6135" data-name="Path 6135" d="M384.494,154.935a3.743,3.743,0,1,1,3.743-3.743,3.747,3.747,0,0,1-3.743,3.743m0-6.654a2.911,2.911,0,1,0,2.911,2.911,2.914,2.914,0,0,0-2.911-2.911" fill="#263238"/>
        <path id="Path_6136" data-name="Path 6136" d="M391.747,138.686c-6.357,1.341-8.193,4.135-8.792,14.234-.625,10.553.452,13.87,1.838,15.291.936.958,6.136,1.132,8.76.409,3.283-.906,10.7-3.536,14.179-8.843,4.087-6.245,5.162-14.709.785-18.181-6.159-4.886-14.183-3.456-16.77-2.91" fill="#ffa8a7"/>
        <path id="Path_6137" data-name="Path 6137" d="M391.971,168.916l-.3-1.944a12.575,12.575,0,0,1-6.518,1.478c1.213.6,4.378.769,6.813.466" fill="#f28f8f"/>
        <path id="Path_6138" data-name="Path 6138" d="M381.1,150.41l11.3,1.462-.456.8L381.1,151.259Z" fill="#263238"/>
        <path id="Path_6139" data-name="Path 6139" d="M381.871,142.762a3.528,3.528,0,0,0,1.435-.087,2.264,2.264,0,0,0,.775,2.65,3.2,3.2,0,0,0,2.85.379,2.752,2.752,0,0,0-.311,1.965,3.188,3.188,0,0,0,3.293,2.376c.066,1.477.086,2.921,1.663,3.6,0,0,1.005-3.9,4.291-3.411,3.31.494,3.757,4.712,1.672,7.275-2.074,2.546-4.005,1.592-4.03,1.58.193.1.259,1.34.327,1.575a11.318,11.318,0,0,0,.845,2.133,10.182,10.182,0,0,0,2.974,3.487,7.328,7.328,0,0,0,5.966,1.66,6.411,6.411,0,0,0,4.345-3.5,3.747,3.747,0,0,1,.71-1.263,4.16,4.16,0,0,1,1.62-.7,4.765,4.765,0,0,0,2.691-6.717,4.362,4.362,0,0,0,1.669-7.62,5.236,5.236,0,0,0,2.252-5.68,5.321,5.321,0,0,0-3.758-3.6c-1.284-.371-.791-.573-1.188-1.83a4.66,4.66,0,0,0-1.479-2.206,4.716,4.716,0,0,0-4.375-.814,4.442,4.442,0,0,0-3.176-3.415,4.374,4.374,0,0,0-2.242-.088c-.529.137-1.612.627-1.811,1.132-.668-.658-.886-1.526-1.7-2.124a4.818,4.818,0,0,0-7.1,1.518,5.923,5.923,0,0,0-4.44-1.868,4.856,4.856,0,0,0-4.048,2.472,4.124,4.124,0,0,0,.546,4.622,4.743,4.743,0,0,0-2.456,2.125,2.98,2.98,0,0,0,.346,3.318,2.58,2.58,0,0,0,1.241.924,3.683,3.683,0,0,0,.6.139" fill="#263238"/>
        <path id="Path_6140" data-name="Path 6140" d="M391.508,155.864l.117-4.414a2.208,2.208,0,0,0-.117,4.414" fill="#263238"/>
      </g>
    </g>
  </g>
</svg>
